<svg width="336" height="98" viewBox="0 0 336 98" fill="none" xmlns="http://www.w3.org/2000/svg">
<path d="M39.9078 74.9C38.5078 76.1 36.7745 77.0333 34.7078 77.7C32.6411 78.3 30.5078 78.6 28.3078 78.6C22.9745 78.6 18.8411 77.1667 15.9078 74.3C12.9745 71.4333 11.5078 67.3333 11.5078 62V32.9H2.50781V25H11.5078V13.4H21.1078V25H36.3078V32.9H21.1078V61.6C21.1078 64.4667 21.8078 66.6667 23.2078 68.2C24.6745 69.7333 26.7411 70.5 29.4078 70.5C32.3411 70.5 34.8411 69.6667 36.9078 68L39.9078 74.9ZM72.4563 78.6C67.1896 78.6 62.4563 77.4333 58.2563 75.1C54.0563 72.7667 50.7563 69.5667 48.3563 65.5C46.0229 61.3667 44.8563 56.7 44.8563 51.5C44.8563 46.3 46.0229 41.6667 48.3563 37.6C50.7563 33.4667 54.0563 30.2667 58.2563 28C62.4563 25.6667 67.1896 24.5 72.4563 24.5C77.7229 24.5 82.4229 25.6667 86.5563 28C90.7563 30.2667 94.0229 33.4667 96.3563 37.6C98.7563 41.6667 99.9563 46.3 99.9563 51.5C99.9563 56.7 98.7563 61.3667 96.3563 65.5C94.0229 69.5667 90.7563 72.7667 86.5563 75.1C82.4229 77.4333 77.7229 78.6 72.4563 78.6ZM72.4563 70.2C75.8563 70.2 78.8896 69.4333 81.5563 67.9C84.2896 66.3 86.4229 64.1 87.9563 61.3C89.4896 58.4333 90.2563 55.1667 90.2563 51.5C90.2563 47.8333 89.4896 44.6 87.9563 41.8C86.4229 38.9333 84.2896 36.7333 81.5563 35.2C78.8896 33.6667 75.8563 32.9 72.4563 32.9C69.0563 32.9 65.9896 33.6667 63.2563 35.2C60.5896 36.7333 58.4563 38.9333 56.8563 41.8C55.3229 44.6 54.5563 47.8333 54.5563 51.5C54.5563 55.1667 55.3229 58.4333 56.8563 61.3C58.4563 64.1 60.5896 66.3 63.2563 67.9C65.9896 69.4333 69.0563 70.2 72.4563 70.2ZM141.333 24.5C146.466 24.5 151.066 25.6333 155.133 27.9C159.199 30.1667 162.366 33.3333 164.633 37.4C166.966 41.4667 168.133 46.1667 168.133 51.5C168.133 56.8333 166.966 61.5667 164.633 65.7C162.366 69.7667 159.199 72.9333 155.133 75.2C151.066 77.4667 146.466 78.6 141.333 78.6C137.533 78.6 134.033 77.8667 130.833 76.4C127.699 74.9333 125.033 72.8 122.833 70V97.4H113.233V25H122.433V33.4C124.566 30.4667 127.266 28.2667 130.533 26.8C133.799 25.2667 137.399 24.5 141.333 24.5ZM140.533 70.2C143.933 70.2 146.966 69.4333 149.633 67.9C152.366 66.3 154.499 64.1 156.033 61.3C157.633 58.4333 158.433 55.1667 158.433 51.5C158.433 47.8333 157.633 44.6 156.033 41.8C154.499 38.9333 152.366 36.7333 149.633 35.2C146.966 33.6667 143.933 32.9 140.533 32.9C137.199 32.9 134.166 33.7 131.433 35.3C128.766 36.8333 126.633 39 125.033 41.8C123.499 44.6 122.733 47.8333 122.733 51.5C122.733 55.1667 123.499 58.4333 125.033 61.3C126.566 64.1 128.699 66.3 131.433 67.9C134.166 69.4333 137.199 70.2 140.533 70.2ZM257.652 25V78H248.552V70C246.619 72.7333 244.052 74.8667 240.852 76.4C237.719 77.8667 234.286 78.6 230.552 78.6C223.486 78.6 217.919 76.6667 213.852 72.8C209.786 68.8667 207.752 63.1 207.752 55.5V25H217.352V54.4C217.352 59.5333 218.586 63.4333 221.052 66.1C223.519 68.7 227.052 70 231.652 70C236.719 70 240.719 68.4667 243.652 65.4C246.586 62.3333 248.052 58 248.052 52.4V25H257.652ZM304.028 24.5C309.161 24.5 313.761 25.6333 317.828 27.9C321.895 30.1667 325.061 33.3333 327.328 37.4C329.661 41.4667 330.828 46.1667 330.828 51.5C330.828 56.8333 329.661 61.5667 327.328 65.7C325.061 69.7667 321.895 72.9333 317.828 75.2C313.761 77.4667 309.161 78.6 304.028 78.6C300.228 78.6 296.728 77.8667 293.528 76.4C290.395 74.9333 287.728 72.8 285.528 70V97.4H275.928V25H285.128V33.4C287.261 30.4667 289.961 28.2667 293.228 26.8C296.495 25.2667 300.095 24.5 304.028 24.5ZM303.228 70.2C306.628 70.2 309.661 69.4333 312.328 67.9C315.061 66.3 317.195 64.1 318.728 61.3C320.328 58.4333 321.128 55.1667 321.128 51.5C321.128 47.8333 320.328 44.6 318.728 41.8C317.195 38.9333 315.061 36.7333 312.328 35.2C309.661 33.6667 306.628 32.9 303.228 32.9C299.895 32.9 296.861 33.7 294.128 35.3C291.461 36.8333 289.328 39 287.728 41.8C286.195 44.6 285.428 47.8333 285.428 51.5C285.428 55.1667 286.195 58.4333 287.728 61.3C289.261 64.1 291.395 66.3 294.128 67.9C296.861 69.4333 299.895 70.2 303.228 70.2Z" fill="#0A5A55"/>
</svg>
