<svg width="500" height="127" viewBox="0 0 500 127" fill="none" xmlns="http://www.w3.org/2000/svg">
<path d="M96.9172 46L77.1172 99H67.9172L52.6172 58.8L37.1172 99H27.9172L8.21719 46H17.3172L32.7172 88.2L48.7172 46H56.8172L72.5172 88.4L88.3172 46H96.9172ZM106.659 46H116.259V99H106.659V46ZM111.459 35.8C109.592 35.8 108.025 35.2 106.759 34C105.559 32.8 104.959 31.3333 104.959 29.6C104.959 27.8667 105.559 26.4 106.759 25.2C108.025 23.9333 109.592 23.3 111.459 23.3C113.325 23.3 114.859 23.9 116.059 25.1C117.325 26.2333 117.959 27.6667 117.959 29.4C117.959 31.2 117.325 32.7333 116.059 34C114.859 35.2 113.325 35.8 111.459 35.8ZM164.388 95.9C162.988 97.1 161.255 98.0333 159.188 98.7C157.122 99.3 154.988 99.6 152.788 99.6C147.455 99.6 143.322 98.1667 140.388 95.3C137.455 92.4333 135.988 88.3333 135.988 83V53.9H126.988V46H135.988V34.4H145.588V46H160.788V53.9H145.588V82.6C145.588 85.4667 146.288 87.6667 147.688 89.2C149.155 90.7333 151.222 91.5 153.888 91.5C156.822 91.5 159.322 90.6667 161.388 89L164.388 95.9ZM204.295 45.5C211.028 45.5 216.361 47.4667 220.295 51.4C224.295 55.2667 226.295 60.9667 226.295 68.5V99H216.695V69.6C216.695 64.4667 215.461 60.6 212.995 58C210.528 55.4 206.995 54.1 202.395 54.1C197.195 54.1 193.095 55.6333 190.095 58.7C187.095 61.7 185.595 66.0333 185.595 71.7V99H175.995V24.8H185.595V53.5C187.595 50.9667 190.195 49 193.395 47.6C196.661 46.2 200.295 45.5 204.295 45.5ZM294.354 24.8V99H285.154V90.6C283.021 93.5333 280.321 95.7667 277.054 97.3C273.787 98.8333 270.187 99.6 266.254 99.6C261.121 99.6 256.521 98.4667 252.454 96.2C248.387 93.9333 245.187 90.7667 242.854 86.7C240.587 82.5667 239.454 77.8333 239.454 72.5C239.454 67.1667 240.587 62.4667 242.854 58.4C245.187 54.3333 248.387 51.1667 252.454 48.9C256.521 46.6333 261.121 45.5 266.254 45.5C270.054 45.5 273.554 46.2333 276.754 47.7C279.954 49.1 282.621 51.2 284.754 54V24.8H294.354ZM267.054 91.2C270.387 91.2 273.421 90.4333 276.154 88.9C278.887 87.3 281.021 85.1 282.554 82.3C284.087 79.4333 284.854 76.1667 284.854 72.5C284.854 68.8333 284.087 65.6 282.554 62.8C281.021 59.9333 278.887 57.7333 276.154 56.2C273.421 54.6667 270.387 53.9 267.054 53.9C263.654 53.9 260.587 54.6667 257.854 56.2C255.187 57.7333 253.054 59.9333 251.454 62.8C249.921 65.6 249.154 68.8333 249.154 72.5C249.154 76.1667 249.921 79.4333 251.454 82.3C253.054 85.1 255.187 87.3 257.854 88.9C260.587 90.4333 263.654 91.2 267.054 91.2ZM321.718 54.9C323.385 51.8333 325.851 49.5 329.118 47.9C332.385 46.3 336.351 45.5 341.018 45.5V54.8C340.485 54.7333 339.751 54.7 338.818 54.7C333.618 54.7 329.518 56.2667 326.518 59.4C323.585 62.4667 322.118 66.8667 322.118 72.6V99H312.518V46H321.718V54.9ZM372.052 45.5C379.386 45.5 384.986 47.3 388.852 50.9C392.786 54.5 394.752 59.8667 394.752 67V99H385.652V92C384.052 94.4667 381.752 96.3667 378.752 97.7C375.819 98.9667 372.319 99.6 368.252 99.6C362.319 99.6 357.552 98.1667 353.952 95.3C350.419 92.4333 348.652 88.6667 348.652 84C348.652 79.3333 350.352 75.6 353.752 72.8C357.152 69.9333 362.552 68.5 369.952 68.5H385.152V66.6C385.152 62.4667 383.952 59.3 381.552 57.1C379.152 54.9 375.619 53.8 370.952 53.8C367.819 53.8 364.752 54.3333 361.752 55.4C358.752 56.4 356.219 57.7667 354.152 59.5L350.152 52.3C352.886 50.1 356.152 48.4333 359.952 47.3C363.752 46.1 367.786 45.5 372.052 45.5ZM369.852 92.2C373.519 92.2 376.686 91.4 379.352 89.8C382.019 88.1333 383.952 85.8 385.152 82.8V75.4H370.352C362.219 75.4 358.152 78.1333 358.152 83.6C358.152 86.2667 359.186 88.3667 361.252 89.9C363.319 91.4333 366.186 92.2 369.852 92.2ZM491.741 46L471.941 99H462.741L447.441 58.8L431.941 99H422.741L403.041 46H412.141L427.541 88.2L443.541 46H451.641L467.341 88.4L483.141 46H491.741Z" fill="#0A5A55"/>
</svg>
