<svg width="170" height="43" viewBox="0 0 170 43" fill="none" xmlns="http://www.w3.org/2000/svg">
<circle cx="133.5" cy="22.5" r="18" stroke="#FFE0C4"/>
<path d="M117.466 22.575H167.951" stroke="#FFE0C4"/>
<path d="M124.584 27.95L117.337 22.9178" stroke="#FFE0C4"/>
<path d="M124.584 17.2L117.337 22.2323" stroke="#FFE0C4"/>
<path d="M159.954 22.3364L164.557 15.1436" stroke="#FFE0C4"/>
<path d="M162.018 22.5489L166.892 15.05" stroke="#FFE0C4"/>
<path d="M164.207 22.575L168.945 15.3822" stroke="#FFE0C4"/>
<path d="M168.951 29.8614L164.348 22.6686" stroke="#FFE0C4"/>
<path d="M166.936 30.0739L162.062 22.575" stroke="#FFE0C4"/>
<path d="M164.952 30.1L159.759 22.4165" stroke="#FFE0C4"/>
<path d="M11.016 35.18C9.168 35.18 7.404 34.868 5.724 34.244C4.068 33.596 2.772 32.768 1.836 31.76L2.664 30.392C3.552 31.328 4.74 32.096 6.228 32.696C7.74 33.272 9.324 33.56 10.98 33.56C13.38 33.56 15.192 33.104 16.416 32.192C17.64 31.28 18.252 30.092 18.252 28.628C18.252 27.5 17.928 26.6 17.28 25.928C16.632 25.256 15.828 24.74 14.868 24.38C13.908 24.02 12.612 23.648 10.98 23.264C9.132 22.808 7.644 22.364 6.516 21.932C5.412 21.5 4.464 20.84 3.672 19.952C2.904 19.04 2.52 17.828 2.52 16.316C2.52 15.092 2.844 13.976 3.492 12.968C4.14 11.936 5.124 11.12 6.444 10.52C7.788 9.92 9.456 9.62 11.448 9.62C12.84 9.62 14.208 9.824 15.552 10.232C16.896 10.64 18.06 11.192 19.044 11.888L18.36 13.364C17.352 12.668 16.236 12.14 15.012 11.78C13.812 11.42 12.624 11.24 11.448 11.24C9.12 11.24 7.356 11.708 6.156 12.644C4.956 13.58 4.356 14.792 4.356 16.28C4.356 17.408 4.68 18.308 5.328 18.98C5.976 19.652 6.78 20.168 7.74 20.528C8.7 20.888 10.008 21.272 11.664 21.68C13.512 22.136 14.988 22.58 16.092 23.012C17.196 23.444 18.132 24.104 18.9 24.992C19.692 25.856 20.088 27.032 20.088 28.52C20.088 29.744 19.752 30.86 19.08 31.868C18.432 32.876 17.424 33.68 16.056 34.28C14.688 34.88 13.008 35.18 11.016 35.18ZM25.7535 16.208H27.5535V35H25.7535V16.208ZM26.6535 11.636C26.2455 11.636 25.8975 11.504 25.6095 11.24C25.3215 10.952 25.1775 10.604 25.1775 10.196C25.1775 9.788 25.3215 9.44 25.6095 9.152C25.8975 8.864 26.2455 8.72 26.6535 8.72C27.0615 8.72 27.4095 8.864 27.6975 9.152C27.9855 9.416 28.1295 9.752 28.1295 10.16C28.1295 10.568 27.9855 10.916 27.6975 11.204C27.4095 11.492 27.0615 11.636 26.6535 11.636ZM52.0602 16.208V32.984C52.0602 36.104 51.3042 38.408 49.7922 39.896C48.2802 41.384 46.0002 42.128 42.9522 42.128C41.2242 42.128 39.5922 41.864 38.0562 41.336C36.5202 40.808 35.2842 40.076 34.3482 39.14L35.3202 37.772C36.2562 38.636 37.3842 39.308 38.7042 39.788C40.0242 40.268 41.4282 40.508 42.9162 40.508C45.4122 40.508 47.2602 39.908 48.4602 38.708C49.6602 37.532 50.2602 35.696 50.2602 33.2V30.032C49.4922 31.4 48.4242 32.456 47.0562 33.2C45.6882 33.944 44.1522 34.316 42.4482 34.316C40.6962 34.316 39.1002 33.932 37.6602 33.164C36.2442 32.372 35.1282 31.28 34.3122 29.888C33.4962 28.496 33.0882 26.924 33.0882 25.172C33.0882 23.42 33.4962 21.848 34.3122 20.456C35.1282 19.064 36.2442 17.984 37.6602 17.216C39.1002 16.448 40.6962 16.064 42.4482 16.064C44.1762 16.064 45.7362 16.448 47.1282 17.216C48.5202 17.984 49.5882 19.064 50.3322 20.456V16.208H52.0602ZM42.5922 32.696C44.0562 32.696 45.3762 32.384 46.5522 31.76C47.7282 31.112 48.6402 30.224 49.2882 29.096C49.9602 27.944 50.2962 26.636 50.2962 25.172C50.2962 23.708 49.9602 22.412 49.2882 21.284C48.6402 20.156 47.7282 19.28 46.5522 18.656C45.3762 18.008 44.0562 17.684 42.5922 17.684C41.1282 17.684 39.8082 18.008 38.6322 18.656C37.4802 19.28 36.5682 20.156 35.8962 21.284C35.2482 22.412 34.9242 23.708 34.9242 25.172C34.9242 26.636 35.2482 27.944 35.8962 29.096C36.5682 30.224 37.4802 31.112 38.6322 31.76C39.8082 32.384 41.1282 32.696 42.5922 32.696ZM61.4073 20.312C61.9833 18.944 62.8833 17.9 64.1073 17.18C65.3313 16.436 66.8193 16.064 68.5713 16.064V17.828L68.1393 17.792C66.0513 17.792 64.4193 18.452 63.2433 19.772C62.0673 21.068 61.4793 22.88 61.4793 25.208V35H59.6793V16.208H61.4073V20.312ZM89.2311 26.036H73.0671C73.1151 27.5 73.4871 28.808 74.1831 29.96C74.8791 31.088 75.8151 31.964 76.9911 32.588C78.1911 33.212 79.5351 33.524 81.0231 33.524C82.2471 33.524 83.3751 33.308 84.4071 32.876C85.4631 32.42 86.3391 31.76 87.0351 30.896L88.0791 32.084C87.2631 33.068 86.2311 33.824 84.9831 34.352C83.7591 34.88 82.4271 35.144 80.9871 35.144C79.1151 35.144 77.4471 34.736 75.9831 33.92C74.5191 33.104 73.3671 31.976 72.5271 30.536C71.7111 29.096 71.3031 27.452 71.3031 25.604C71.3031 23.78 71.6871 22.148 72.4551 20.708C73.2471 19.244 74.3271 18.104 75.6951 17.288C77.0631 16.472 78.5991 16.064 80.3031 16.064C82.0071 16.064 83.5311 16.472 84.8751 17.288C86.2431 18.08 87.3111 19.196 88.0791 20.636C88.8711 22.076 89.2671 23.708 89.2671 25.532L89.2311 26.036ZM80.3031 17.648C78.9831 17.648 77.7951 17.948 76.7391 18.548C75.6831 19.124 74.8311 19.952 74.1831 21.032C73.5591 22.088 73.1991 23.288 73.1031 24.632H87.5031C87.4311 23.288 87.0711 22.088 86.4231 21.032C85.7751 19.976 84.9231 19.148 83.8671 18.548C82.8111 17.948 81.6231 17.648 80.3031 17.648ZM111.54 8.288V35H109.776V30.572C109.032 32.036 107.988 33.164 106.644 33.956C105.3 34.748 103.776 35.144 102.072 35.144C100.32 35.144 98.7355 34.736 97.3195 33.92C95.9035 33.104 94.7875 31.976 93.9715 30.536C93.1795 29.096 92.7835 27.452 92.7835 25.604C92.7835 23.756 93.1795 22.112 93.9715 20.672C94.7875 19.208 95.9035 18.08 97.3195 17.288C98.7355 16.472 100.32 16.064 102.072 16.064C103.752 16.064 105.252 16.46 106.572 17.252C107.916 18.044 108.972 19.148 109.74 20.564V8.288H111.54ZM102.18 33.524C103.62 33.524 104.904 33.188 106.032 32.516C107.184 31.844 108.084 30.908 108.732 29.708C109.404 28.508 109.74 27.14 109.74 25.604C109.74 24.068 109.404 22.7 108.732 21.5C108.084 20.3 107.184 19.364 106.032 18.692C104.904 18.02 103.62 17.684 102.18 17.684C100.74 17.684 99.4435 18.02 98.2915 18.692C97.1635 19.364 96.2635 20.3 95.5915 21.5C94.9435 22.7 94.6195 24.068 94.6195 25.604C94.6195 27.14 94.9435 28.508 95.5915 29.708C96.2635 30.908 97.1635 31.844 98.2915 32.516C99.4435 33.188 100.74 33.524 102.18 33.524Z" fill="#FFE0C4"/>
<path d="M115.966 22.575L117.466 21.5L117.966 22.575L117.466 23.65L115.966 22.575Z" fill="#FFE0C4"/>
<path d="M76.1947 7H79.0447C79.7847 7 80.438 7.15 81.0047 7.45C81.5714 7.74333 82.0114 8.15667 82.3247 8.69C82.638 9.21667 82.7947 9.82 82.7947 10.5C82.7947 11.18 82.638 11.7867 82.3247 12.32C82.0114 12.8467 81.5714 13.26 81.0047 13.56C80.438 13.8533 79.7847 14 79.0447 14H76.1947V7ZM79.0047 13.36C79.618 13.36 80.1547 13.24 80.6147 13C81.0747 12.7533 81.4314 12.4167 81.6847 11.99C81.938 11.5567 82.0647 11.06 82.0647 10.5C82.0647 9.94 81.938 9.44667 81.6847 9.02C81.4314 8.58667 81.0747 8.25 80.6147 8.01C80.1547 7.76333 79.618 7.64 79.0047 7.64H76.9347V13.36H79.0047ZM89.4064 13.36V14H84.4564V7L89.2564 7V7.64L85.1964 7.64V10.13H88.8164V10.76H85.1964V13.36H89.4064ZM98.4159 7V14H97.7059V8.4L94.9559 13.11H94.6059L91.8559 8.43V14H91.1459V7H91.7559L94.7959 12.19L97.8059 7H98.4159ZM103.757 14.06C103.063 14.06 102.433 13.9067 101.867 13.6C101.307 13.2867 100.867 12.86 100.547 12.32C100.233 11.78 100.077 11.1733 100.077 10.5C100.077 9.82667 100.233 9.22 100.547 8.68C100.867 8.14 101.307 7.71667 101.867 7.41C102.433 7.09667 103.063 6.94 103.757 6.94C104.45 6.94 105.073 7.09333 105.627 7.4C106.187 7.70667 106.627 8.13333 106.947 8.68C107.267 9.22 107.427 9.82667 107.427 10.5C107.427 11.1733 107.267 11.7833 106.947 12.33C106.627 12.87 106.187 13.2933 105.627 13.6C105.073 13.9067 104.45 14.06 103.757 14.06ZM103.757 13.4C104.31 13.4 104.81 13.2767 105.257 13.03C105.703 12.7767 106.053 12.43 106.307 11.99C106.56 11.5433 106.687 11.0467 106.687 10.5C106.687 9.95333 106.56 9.46 106.307 9.02C106.053 8.57333 105.703 8.22667 105.257 7.98C104.81 7.72667 104.31 7.6 103.757 7.6C103.203 7.6 102.7 7.72667 102.247 7.98C101.8 8.22667 101.447 8.57333 101.187 9.02C100.933 9.46 100.807 9.95333 100.807 10.5C100.807 11.0467 100.933 11.5433 101.187 11.99C101.447 12.43 101.8 12.7767 102.247 13.03C102.7 13.2767 103.203 13.4 103.757 13.4Z" fill="#FFE0C4" fill-opacity="0.7"/>
</svg>
