<svg width="452" height="295" viewBox="0 0 452 295" fill="none" xmlns="http://www.w3.org/2000/svg">
<path d="M299.421 147.31C299.421 226.348 233.401 290.62 151.71 290.62C70.0204 290.62 4 226.348 4 147.31C4 68.2722 70.0204 4 151.71 4C233.401 4 299.421 68.2722 299.421 147.31Z" stroke="#FFE0C4" stroke-width="8"/>
<path d="M15 145H429.343" stroke="#FFE0C4" stroke-width="8"/>
<path d="M68.2584 181.76L13.5678 144" stroke="#FFE0C4" stroke-width="8"/>
<path d="M63.5016 110L13.9821 146" stroke="#FFE0C4" stroke-width="8"/>
<path d="M370.481 144.012L407.859 92.3436" stroke="#FFE0C4" stroke-width="8"/>
<path d="M389.17 145.111L428.747 91.2443" stroke="#FFE0C4" stroke-width="8"/>
<path d="M406.76 198.978L369.382 145.373" stroke="#FFE0C4" stroke-width="8"/>
<path d="M447.069 198.717L409.691 145.111" stroke="#FFE0C4" stroke-width="8"/>
<path d="M427.281 198.717L389.903 145.111" stroke="#FFE0C4" stroke-width="8"/>
<path d="M410.058 144.012L448.535 92.3436" stroke="#FFE0C4" stroke-width="8"/>
<path d="M25.5 133L14.5 145L19 152.5L7.99998 145L25.5 133Z" fill="#FFE0C4"/>
</svg>
