<svg width="104" height="68" viewBox="0 0 104 68" fill="none" xmlns="http://www.w3.org/2000/svg">
<path d="M68.272 34C68.272 52.1055 53.2753 66.825 34.7235 66.825C16.1717 66.825 1.175 52.1055 1.175 34C1.175 15.8945 16.1717 1.175 34.7235 1.175C53.2753 1.175 68.272 15.8945 68.272 34Z" stroke="#FFE0C4" stroke-width="2.35"/>
<path d="M4.29169 34H99.8788" stroke="#FFE0C4" stroke-width="2"/>
<path d="M16.3864 43.0667L4.35526 34" stroke="#FFE0C4" stroke-width="2"/>
<path d="M15.9962 25.6888L4.29167 34" stroke="#FFE0C4" stroke-width="2"/>
<path d="M84.7587 33.6849L93.3331 21.5995" stroke="#FFE0C4" stroke-width="2"/>
<path d="M89.0459 33.9422L98.1246 21.3425" stroke="#FFE0C4" stroke-width="2"/>
<path d="M93.0809 46.5419L84.5065 34.0033" stroke="#FFE0C4" stroke-width="2"/>
<path d="M102.328 46.4807L93.7532 33.9421" stroke="#FFE0C4" stroke-width="2"/>
<path d="M97.7883 46.4807L89.2139 33.9421" stroke="#FFE0C4" stroke-width="2"/>
<path d="M93.8375 33.685L102.664 21.5996" stroke="#FFE0C4" stroke-width="2"/>
<path d="M5.07194 32.1111L4.68179 32.4889L5.07194 32.8666L5.46209 35.5111L4.34166 35.4355L2.34088 33.9055L5.07194 32.1111Z" fill="#FFE0C4"/>
</svg>
