<svg width="55" height="38" viewBox="0 0 55 38" fill="none" xmlns="http://www.w3.org/2000/svg">
<path d="M36.5 19C36.5 29.2299 28.4286 37.5 18.5 37.5C8.57136 37.5 0.5 29.2299 0.5 19C0.5 8.77008 8.57136 0.5 18.5 0.5C28.4286 0.5 36.5 8.77008 36.5 19Z" stroke="#FFE0C4"/>
<path d="M2.5 19H53" stroke="#FFE0C4"/>
<path d="M9.62 24L2.37089 19.3188" stroke="#FFE0C4"/>
<path d="M9.62 14L2.37089 18.6812" stroke="#FFE0C4"/>
<path d="M45 18.778L49.6044 12.087" stroke="#FFE0C4"/>
<path d="M47.065 18.9757L51.9402 12" stroke="#FFE0C4"/>
<path d="M49.2547 19L53.9945 12.309" stroke="#FFE0C4"/>
<path d="M54 25.778L49.3956 19.087" stroke="#FFE0C4"/>
<path d="M51.9841 25.9757L47.1089 19" stroke="#FFE0C4"/>
<path d="M50 26L44.8056 18.8526" stroke="#FFE0C4"/>
<path d="M1 19L2.5 18L3 19L2.5 20L1 19Z" fill="#FFE0C4"/>
</svg>
