<svg width="494" height="95" viewBox="0 0 494 95" fill="none" xmlns="http://www.w3.org/2000/svg">
<path d="M37.329 30.706L21.183 67H16.146L0.069 30.706H5.175L18.768 61.618L32.499 30.706H37.329ZM44.2285 30.706H49.1275V67H44.2285V30.706ZM46.7125 22.771C45.7005 22.771 44.8495 22.426 44.1595 21.736C43.4695 21.046 43.1245 20.218 43.1245 19.252C43.1245 18.332 43.4695 17.527 44.1595 16.837C44.8495 16.147 45.7005 15.802 46.7125 15.802C47.7245 15.802 48.5755 16.147 49.2655 16.837C49.9555 17.481 50.3005 18.263 50.3005 19.183C50.3005 20.195 49.9555 21.046 49.2655 21.736C48.5755 22.426 47.7245 22.771 46.7125 22.771ZM95.8787 15.802V67H91.1867V59.824C89.7147 62.262 87.7597 64.125 85.3217 65.413C82.9297 66.701 80.2157 67.345 77.1797 67.345C73.7757 67.345 70.6937 66.563 67.9337 64.999C65.1737 63.435 63.0117 61.25 61.4477 58.444C59.8837 55.638 59.1017 52.441 59.1017 48.853C59.1017 45.265 59.8837 42.068 61.4477 39.262C63.0117 36.456 65.1737 34.294 67.9337 32.776C70.6937 31.212 73.7757 30.43 77.1797 30.43C80.1237 30.43 82.7687 31.051 85.1147 32.293C87.5067 33.489 89.4617 35.26 90.9797 37.606V15.802H95.8787ZM77.5937 62.998C80.1237 62.998 82.4007 62.423 84.4247 61.273C86.4947 60.077 88.1047 58.398 89.2547 56.236C90.4507 54.074 91.0487 51.613 91.0487 48.853C91.0487 46.093 90.4507 43.632 89.2547 41.47C88.1047 39.308 86.4947 37.652 84.4247 36.502C82.4007 35.306 80.1237 34.708 77.5937 34.708C75.0177 34.708 72.6947 35.306 70.6247 36.502C68.6007 37.652 66.9907 39.308 65.7947 41.47C64.6447 43.632 64.0697 46.093 64.0697 48.853C64.0697 51.613 64.6447 54.074 65.7947 56.236C66.9907 58.398 68.6007 60.077 70.6247 61.273C72.6947 62.423 75.0177 62.998 77.5937 62.998ZM141.124 50.371H110.764C111.04 54.143 112.489 57.202 115.111 59.548C117.733 61.848 121.045 62.998 125.047 62.998C127.301 62.998 129.371 62.607 131.257 61.825C133.143 60.997 134.776 59.801 136.156 58.237L138.916 61.411C137.306 63.343 135.282 64.815 132.844 65.827C130.452 66.839 127.807 67.345 124.909 67.345C121.183 67.345 117.871 66.563 114.973 64.999C112.121 63.389 109.89 61.181 108.28 58.375C106.67 55.569 105.865 52.395 105.865 48.853C105.865 45.311 106.624 42.137 108.142 39.331C109.706 36.525 111.822 34.34 114.49 32.776C117.204 31.212 120.24 30.43 123.598 30.43C126.956 30.43 129.969 31.212 132.637 32.776C135.305 34.34 137.398 36.525 138.916 39.331C140.434 42.091 141.193 45.265 141.193 48.853L141.124 50.371ZM123.598 34.639C120.102 34.639 117.158 35.766 114.766 38.02C112.42 40.228 111.086 43.126 110.764 46.714H136.501C136.179 43.126 134.822 40.228 132.43 38.02C130.084 35.766 127.14 34.639 123.598 34.639ZM166 67.345C162.504 67.345 159.353 66.563 156.547 64.999C153.741 63.389 151.533 61.181 149.923 58.375C148.313 55.569 147.508 52.395 147.508 48.853C147.508 45.311 148.313 42.137 149.923 39.331C151.533 36.525 153.741 34.34 156.547 32.776C159.353 31.212 162.504 30.43 166 30.43C169.496 30.43 172.647 31.212 175.453 32.776C178.259 34.34 180.444 36.525 182.008 39.331C183.618 42.137 184.423 45.311 184.423 48.853C184.423 52.395 183.618 55.569 182.008 58.375C180.444 61.181 178.259 63.389 175.453 64.999C172.647 66.563 169.496 67.345 166 67.345ZM166 62.998C168.576 62.998 170.876 62.423 172.9 61.273C174.97 60.077 176.58 58.398 177.73 56.236C178.88 54.074 179.455 51.613 179.455 48.853C179.455 46.093 178.88 43.632 177.73 41.47C176.58 39.308 174.97 37.652 172.9 36.502C170.876 35.306 168.576 34.708 166 34.708C163.424 34.708 161.101 35.306 159.031 36.502C157.007 37.652 155.397 39.308 154.201 41.47C153.051 43.632 152.476 46.093 152.476 48.853C152.476 51.613 153.051 54.074 154.201 56.236C155.397 58.398 157.007 60.077 159.031 61.273C161.101 62.423 163.424 62.998 166 62.998ZM193.966 59.824C195.024 59.824 195.898 60.192 196.588 60.928C197.278 61.618 197.623 62.492 197.623 63.55C197.623 64.102 197.531 64.7 197.347 65.344C197.209 65.988 196.979 66.724 196.657 67.552L193.759 77.074H190.447L192.793 67.069C192.057 66.839 191.459 66.425 190.999 65.827C190.539 65.183 190.309 64.424 190.309 63.55C190.309 62.492 190.654 61.618 191.344 60.928C192.034 60.192 192.908 59.824 193.966 59.824Z" fill="url(#paint0_linear_251:103)"/>
<path d="M3.76 76.68C3.62667 76.8 3.46 76.8933 3.26 76.96C3.06667 77.02 2.86333 77.05 2.65 77.05C2.15667 77.05 1.77667 76.9167 1.51 76.65C1.24333 76.3833 1.11 76.0067 1.11 75.52V72.34H0.17V71.74H1.11V70.59H1.82V71.74H3.42V72.34H1.82V75.48C1.82 75.7933 1.89667 76.0333 2.05 76.2C2.21 76.36 2.43667 76.44 2.73 76.44C2.87667 76.44 3.01667 76.4167 3.15 76.37C3.29 76.3233 3.41 76.2567 3.51 76.17L3.76 76.68ZM7.7325 71.7C8.3925 71.7 8.91583 71.8933 9.3025 72.28C9.69583 72.66 9.8925 73.2167 9.8925 73.95V77H9.1825V74.02C9.1825 73.4733 9.04583 73.0567 8.7725 72.77C8.49917 72.4833 8.10917 72.34 7.6025 72.34C7.03583 72.34 6.58583 72.51 6.2525 72.85C5.92583 73.1833 5.7625 73.6467 5.7625 74.24V77H5.0525V69.58H5.7625V72.66C5.95583 72.3533 6.2225 72.1167 6.5625 71.95C6.9025 71.7833 7.2925 71.7 7.7325 71.7ZM16.4196 74.59H12.0196C12.0596 75.1367 12.2696 75.58 12.6496 75.92C13.0296 76.2533 13.5096 76.42 14.0896 76.42C14.4163 76.42 14.7163 76.3633 14.9896 76.25C15.2629 76.13 15.4996 75.9567 15.6996 75.73L16.0996 76.19C15.8663 76.47 15.5729 76.6833 15.2196 76.83C14.8729 76.9767 14.4896 77.05 14.0696 77.05C13.5296 77.05 13.0496 76.9367 12.6296 76.71C12.2163 76.4767 11.8929 76.1567 11.6596 75.75C11.4263 75.3433 11.3096 74.8833 11.3096 74.37C11.3096 73.8567 11.4196 73.3967 11.6396 72.99C11.8663 72.5833 12.1729 72.2667 12.5596 72.04C12.9529 71.8133 13.3929 71.7 13.8796 71.7C14.3663 71.7 14.8029 71.8133 15.1896 72.04C15.5763 72.2667 15.8796 72.5833 16.0996 72.99C16.3196 73.39 16.4296 73.85 16.4296 74.37L16.4196 74.59ZM13.8796 72.31C13.3729 72.31 12.9463 72.4733 12.5996 72.8C12.2596 73.12 12.0663 73.54 12.0196 74.06H15.7496C15.7029 73.54 15.5063 73.12 15.1596 72.8C14.8196 72.4733 14.3929 72.31 13.8796 72.31ZM28.212 71.74L26.222 77H25.552L23.892 72.69L22.232 77H21.562L19.582 71.74H20.262L21.912 76.21L23.602 71.74H24.212L25.892 76.21L27.562 71.74H28.212ZM30.9648 71.7C31.6514 71.7 32.1781 71.8733 32.5448 72.22C32.9114 72.56 33.0948 73.0667 33.0948 73.74V77H32.4148V76.18C32.2548 76.4533 32.0181 76.6667 31.7048 76.82C31.3981 76.9733 31.0314 77.05 30.6048 77.05C30.0181 77.05 29.5514 76.91 29.2048 76.63C28.8581 76.35 28.6848 75.98 28.6848 75.52C28.6848 75.0733 28.8448 74.7133 29.1648 74.44C29.4914 74.1667 30.0081 74.03 30.7148 74.03H32.3848V73.71C32.3848 73.2567 32.2581 72.9133 32.0048 72.68C31.7514 72.44 31.3814 72.32 30.8948 72.32C30.5614 72.32 30.2414 72.3767 29.9348 72.49C29.6281 72.5967 29.3648 72.7467 29.1448 72.94L28.8248 72.41C29.0914 72.1833 29.4114 72.01 29.7848 71.89C30.1581 71.7633 30.5514 71.7 30.9648 71.7ZM30.7148 76.49C31.1148 76.49 31.4581 76.4 31.7448 76.22C32.0314 76.0333 32.2448 75.7667 32.3848 75.42V74.56H30.7348C29.8348 74.56 29.3848 74.8733 29.3848 75.5C29.3848 75.8067 29.5014 76.05 29.7348 76.23C29.9681 76.4033 30.2948 76.49 30.7148 76.49ZM39.3455 71.74L36.7155 77.63C36.5022 78.1233 36.2555 78.4733 35.9755 78.68C35.6955 78.8867 35.3589 78.99 34.9655 78.99C34.7122 78.99 34.4755 78.95 34.2555 78.87C34.0355 78.79 33.8455 78.67 33.6855 78.51L34.0155 77.98C34.2822 78.2467 34.6022 78.38 34.9755 78.38C35.2155 78.38 35.4189 78.3133 35.5855 78.18C35.7589 78.0467 35.9189 77.82 36.0655 77.5L36.2955 76.99L33.9455 71.74H34.6855L36.6655 76.21L38.6455 71.74H39.3455ZM45.7327 76.68C45.5993 76.8 45.4327 76.8933 45.2327 76.96C45.0393 77.02 44.836 77.05 44.6227 77.05C44.1293 77.05 43.7493 76.9167 43.4827 76.65C43.216 76.3833 43.0827 76.0067 43.0827 75.52V72.34H42.1427V71.74H43.0827V70.59H43.7927V71.74H45.3927V72.34H43.7927V75.48C43.7927 75.7933 43.8693 76.0333 44.0227 76.2C44.1827 76.36 44.4093 76.44 44.7027 76.44C44.8493 76.44 44.9893 76.4167 45.1227 76.37C45.2627 76.3233 45.3827 76.2567 45.4827 76.17L45.7327 76.68ZM48.9896 77.05C48.4829 77.05 48.0263 76.9367 47.6196 76.71C47.2129 76.4767 46.8929 76.1567 46.6596 75.75C46.4263 75.3433 46.3096 74.8833 46.3096 74.37C46.3096 73.8567 46.4263 73.3967 46.6596 72.99C46.8929 72.5833 47.2129 72.2667 47.6196 72.04C48.0263 71.8133 48.4829 71.7 48.9896 71.7C49.4963 71.7 49.9529 71.8133 50.3596 72.04C50.7663 72.2667 51.0829 72.5833 51.3096 72.99C51.5429 73.3967 51.6596 73.8567 51.6596 74.37C51.6596 74.8833 51.5429 75.3433 51.3096 75.75C51.0829 76.1567 50.7663 76.4767 50.3596 76.71C49.9529 76.9367 49.4963 77.05 48.9896 77.05ZM48.9896 76.42C49.3629 76.42 49.6963 76.3367 49.9896 76.17C50.2896 75.9967 50.5229 75.7533 50.6896 75.44C50.8563 75.1267 50.9396 74.77 50.9396 74.37C50.9396 73.97 50.8563 73.6133 50.6896 73.3C50.5229 72.9867 50.2896 72.7467 49.9896 72.58C49.6963 72.4067 49.3629 72.32 48.9896 72.32C48.6163 72.32 48.2796 72.4067 47.9796 72.58C47.6863 72.7467 47.4529 72.9867 47.2796 73.3C47.1129 73.6133 47.0296 73.97 47.0296 74.37C47.0296 74.77 47.1129 75.1267 47.2796 75.44C47.4529 75.7533 47.6863 75.9967 47.9796 76.17C48.2796 76.3367 48.6163 76.42 48.9896 76.42ZM55.7263 71.74H56.4363V77H55.7263V71.74ZM56.0863 70.59C55.9397 70.59 55.8163 70.54 55.7163 70.44C55.6163 70.34 55.5663 70.22 55.5663 70.08C55.5663 69.9467 55.6163 69.83 55.7163 69.73C55.8163 69.63 55.9397 69.58 56.0863 69.58C56.233 69.58 56.3563 69.63 56.4563 69.73C56.5563 69.8233 56.6063 69.9367 56.6063 70.07C56.6063 70.2167 56.5563 70.34 56.4563 70.44C56.3563 70.54 56.233 70.59 56.0863 70.59ZM64.9719 71.7C65.6319 71.7 66.1485 71.89 66.5219 72.27C66.9019 72.65 67.0919 73.21 67.0919 73.95V77H66.3819V74.02C66.3819 73.4733 66.2485 73.0567 65.9819 72.77C65.7219 72.4833 65.3519 72.34 64.8719 72.34C64.3252 72.34 63.8952 72.51 63.5819 72.85C63.2685 73.1833 63.1119 73.6467 63.1119 74.24V77H62.4019V74.02C62.4019 73.4733 62.2685 73.0567 62.0019 72.77C61.7419 72.4833 61.3685 72.34 60.8819 72.34C60.3419 72.34 59.9119 72.51 59.5919 72.85C59.2785 73.1833 59.1219 73.6467 59.1219 74.24V77H58.4119V71.74H59.0919V72.7C59.2785 72.38 59.5385 72.1333 59.8719 71.96C60.2052 71.7867 60.5885 71.7 61.0219 71.7C61.4619 71.7 61.8419 71.7933 62.1619 71.98C62.4885 72.1667 62.7319 72.4433 62.8919 72.81C63.0852 72.4633 63.3619 72.1933 63.7219 72C64.0885 71.8 64.5052 71.7 64.9719 71.7ZM70.8573 71.7C71.544 71.7 72.0707 71.8733 72.4373 72.22C72.804 72.56 72.9873 73.0667 72.9873 73.74V77H72.3073V76.18C72.1473 76.4533 71.9107 76.6667 71.5973 76.82C71.2907 76.9733 70.924 77.05 70.4973 77.05C69.9107 77.05 69.444 76.91 69.0973 76.63C68.7507 76.35 68.5773 75.98 68.5773 75.52C68.5773 75.0733 68.7373 74.7133 69.0573 74.44C69.384 74.1667 69.9007 74.03 70.6073 74.03H72.2773V73.71C72.2773 73.2567 72.1507 72.9133 71.8973 72.68C71.644 72.44 71.274 72.32 70.7873 72.32C70.454 72.32 70.134 72.3767 69.8273 72.49C69.5207 72.5967 69.2573 72.7467 69.0373 72.94L68.7173 72.41C68.984 72.1833 69.304 72.01 69.6773 71.89C70.0507 71.7633 70.444 71.7 70.8573 71.7ZM70.6073 76.49C71.0073 76.49 71.3507 76.4 71.6373 76.22C71.924 76.0333 72.1373 75.7667 72.2773 75.42V74.56H70.6273C69.7273 74.56 69.2773 74.8733 69.2773 75.5C69.2773 75.8067 69.394 76.05 69.6273 76.23C69.8607 76.4033 70.1873 76.49 70.6073 76.49ZM79.8053 71.74V76.36C79.8053 77.2533 79.5853 77.9133 79.1453 78.34C78.712 78.7733 78.0553 78.99 77.1753 78.99C76.6886 78.99 76.2253 78.9167 75.7853 78.77C75.352 78.63 74.9986 78.4333 74.7253 78.18L75.0853 77.64C75.3386 77.8667 75.6453 78.0433 76.0053 78.17C76.372 78.2967 76.7553 78.36 77.1553 78.36C77.822 78.36 78.312 78.2033 78.6253 77.89C78.9386 77.5833 79.0953 77.1033 79.0953 76.45V75.78C78.8753 76.1133 78.5853 76.3667 78.2253 76.54C77.872 76.7133 77.4786 76.8 77.0453 76.8C76.552 76.8 76.102 76.6933 75.6953 76.48C75.2953 76.26 74.9786 75.9567 74.7453 75.57C74.5186 75.1767 74.4053 74.7333 74.4053 74.24C74.4053 73.7467 74.5186 73.3067 74.7453 72.92C74.9786 72.5333 75.2953 72.2333 75.6953 72.02C76.0953 71.8067 76.5453 71.7 77.0453 71.7C77.492 71.7 77.8953 71.79 78.2553 71.97C78.6153 72.15 78.9053 72.41 79.1253 72.75V71.74H79.8053ZM77.1153 76.17C77.4953 76.17 77.8386 76.09 78.1453 75.93C78.452 75.7633 78.6886 75.5333 78.8553 75.24C79.0286 74.9467 79.1153 74.6133 79.1153 74.24C79.1153 73.8667 79.0286 73.5367 78.8553 73.25C78.6886 72.9567 78.452 72.73 78.1453 72.57C77.8453 72.4033 77.502 72.32 77.1153 72.32C76.7353 72.32 76.392 72.4 76.0853 72.56C75.7853 72.72 75.5486 72.9467 75.3753 73.24C75.2086 73.5333 75.1253 73.8667 75.1253 74.24C75.1253 74.6133 75.2086 74.9467 75.3753 75.24C75.5486 75.5333 75.7853 75.7633 76.0853 75.93C76.392 76.09 76.7353 76.17 77.1153 76.17ZM81.7908 71.74H82.5008V77H81.7908V71.74ZM82.1508 70.59C82.0041 70.59 81.8808 70.54 81.7808 70.44C81.6808 70.34 81.6308 70.22 81.6308 70.08C81.6308 69.9467 81.6808 69.83 81.7808 69.73C81.8808 69.63 82.0041 69.58 82.1508 69.58C82.2974 69.58 82.4208 69.63 82.5208 69.73C82.6208 69.8233 82.6708 69.9367 82.6708 70.07C82.6708 70.2167 82.6208 70.34 82.5208 70.44C82.4208 70.54 82.2974 70.59 82.1508 70.59ZM87.1563 71.7C87.8163 71.7 88.3397 71.8933 88.7263 72.28C89.1197 72.66 89.3163 73.2167 89.3163 73.95V77H88.6063V74.02C88.6063 73.4733 88.4697 73.0567 88.1963 72.77C87.923 72.4833 87.533 72.34 87.0263 72.34C86.4597 72.34 86.0097 72.51 85.6763 72.85C85.3497 73.1833 85.1863 73.6467 85.1863 74.24V77H84.4763V71.74H85.1563V72.71C85.3497 72.39 85.6163 72.1433 85.9563 71.97C86.303 71.79 86.703 71.7 87.1563 71.7ZM95.8434 74.59H91.4434C91.4834 75.1367 91.6934 75.58 92.0734 75.92C92.4534 76.2533 92.9334 76.42 93.5134 76.42C93.8401 76.42 94.1401 76.3633 94.4134 76.25C94.6868 76.13 94.9234 75.9567 95.1234 75.73L95.5234 76.19C95.2901 76.47 94.9968 76.6833 94.6434 76.83C94.2968 76.9767 93.9134 77.05 93.4934 77.05C92.9534 77.05 92.4734 76.9367 92.0534 76.71C91.6401 76.4767 91.3168 76.1567 91.0834 75.75C90.8501 75.3433 90.7334 74.8833 90.7334 74.37C90.7334 73.8567 90.8434 73.3967 91.0634 72.99C91.2901 72.5833 91.5968 72.2667 91.9834 72.04C92.3768 71.8133 92.8168 71.7 93.3034 71.7C93.7901 71.7 94.2268 71.8133 94.6134 72.04C95.0001 72.2667 95.3034 72.5833 95.5234 72.99C95.7434 73.39 95.8534 73.85 95.8534 74.37L95.8434 74.59ZM93.3034 72.31C92.7968 72.31 92.3701 72.4733 92.0234 72.8C91.6834 73.12 91.4901 73.54 91.4434 74.06H95.1734C95.1268 73.54 94.9301 73.12 94.5834 72.8C94.2434 72.4733 93.8168 72.31 93.3034 72.31ZM107.636 71.74L105.646 77H104.976L103.316 72.69L101.656 77H100.986L99.0058 71.74H99.6858L101.336 76.21L103.026 71.74H103.636L105.316 76.21L106.986 71.74H107.636ZM111.385 71.7C112.045 71.7 112.568 71.8933 112.955 72.28C113.348 72.66 113.545 73.2167 113.545 73.95V77H112.835V74.02C112.835 73.4733 112.698 73.0567 112.425 72.77C112.152 72.4833 111.762 72.34 111.255 72.34C110.688 72.34 110.238 72.51 109.905 72.85C109.578 73.1833 109.415 73.6467 109.415 74.24V77H108.705V69.58H109.415V72.66C109.608 72.3533 109.875 72.1167 110.215 71.95C110.555 71.7833 110.945 71.7 111.385 71.7ZM117.312 71.7C117.999 71.7 118.526 71.8733 118.892 72.22C119.259 72.56 119.442 73.0667 119.442 73.74V77H118.762V76.18C118.602 76.4533 118.366 76.6667 118.052 76.82C117.746 76.9733 117.379 77.05 116.952 77.05C116.366 77.05 115.899 76.91 115.552 76.63C115.206 76.35 115.032 75.98 115.032 75.52C115.032 75.0733 115.192 74.7133 115.512 74.44C115.839 74.1667 116.356 74.03 117.062 74.03H118.732V73.71C118.732 73.2567 118.606 72.9133 118.352 72.68C118.099 72.44 117.729 72.32 117.242 72.32C116.909 72.32 116.589 72.3767 116.282 72.49C115.976 72.5967 115.712 72.7467 115.492 72.94L115.172 72.41C115.439 72.1833 115.759 72.01 116.132 71.89C116.506 71.7633 116.899 71.7 117.312 71.7ZM117.062 76.49C117.462 76.49 117.806 76.4 118.092 76.22C118.379 76.0333 118.592 75.7667 118.732 75.42V74.56H117.082C116.182 74.56 115.732 74.8733 115.732 75.5C115.732 75.8067 115.849 76.05 116.082 76.23C116.316 76.4033 116.642 76.49 117.062 76.49ZM124.141 76.68C124.008 76.8 123.841 76.8933 123.641 76.96C123.448 77.02 123.244 77.05 123.031 77.05C122.538 77.05 122.158 76.9167 121.891 76.65C121.624 76.3833 121.491 76.0067 121.491 75.52V72.34H120.551V71.74H121.491V70.59H122.201V71.74H123.801V72.34H122.201V75.48C122.201 75.7933 122.278 76.0333 122.431 76.2C122.591 76.36 122.818 76.44 123.111 76.44C123.258 76.44 123.398 76.4167 123.531 76.37C123.671 76.3233 123.791 76.2567 123.891 76.17L124.141 76.68ZM132.471 71.74L129.841 77.63C129.627 78.1233 129.381 78.4733 129.101 78.68C128.821 78.8867 128.484 78.99 128.091 78.99C127.837 78.99 127.601 78.95 127.381 78.87C127.161 78.79 126.971 78.67 126.811 78.51L127.141 77.98C127.407 78.2467 127.727 78.38 128.101 78.38C128.341 78.38 128.544 78.3133 128.711 78.18C128.884 78.0467 129.044 77.82 129.191 77.5L129.421 76.99L127.071 71.74H127.811L129.791 76.21L131.771 71.74H132.471ZM135.474 77.05C134.967 77.05 134.511 76.9367 134.104 76.71C133.697 76.4767 133.377 76.1567 133.144 75.75C132.911 75.3433 132.794 74.8833 132.794 74.37C132.794 73.8567 132.911 73.3967 133.144 72.99C133.377 72.5833 133.697 72.2667 134.104 72.04C134.511 71.8133 134.967 71.7 135.474 71.7C135.981 71.7 136.437 71.8133 136.844 72.04C137.251 72.2667 137.567 72.5833 137.794 72.99C138.027 73.3967 138.144 73.8567 138.144 74.37C138.144 74.8833 138.027 75.3433 137.794 75.75C137.567 76.1567 137.251 76.4767 136.844 76.71C136.437 76.9367 135.981 77.05 135.474 77.05ZM135.474 76.42C135.847 76.42 136.181 76.3367 136.474 76.17C136.774 75.9967 137.007 75.7533 137.174 75.44C137.341 75.1267 137.424 74.77 137.424 74.37C137.424 73.97 137.341 73.6133 137.174 73.3C137.007 72.9867 136.774 72.7467 136.474 72.58C136.181 72.4067 135.847 72.32 135.474 72.32C135.101 72.32 134.764 72.4067 134.464 72.58C134.171 72.7467 133.937 72.9867 133.764 73.3C133.597 73.6133 133.514 73.97 133.514 74.37C133.514 74.77 133.597 75.1267 133.764 75.44C133.937 75.7533 134.171 75.9967 134.464 76.17C134.764 76.3367 135.101 76.42 135.474 76.42ZM144.334 71.74V77H143.654V76.04C143.467 76.36 143.21 76.61 142.884 76.79C142.557 76.9633 142.184 77.05 141.764 77.05C141.077 77.05 140.534 76.86 140.134 76.48C139.74 76.0933 139.544 75.53 139.544 74.79V71.74H140.254V74.72C140.254 75.2733 140.39 75.6933 140.664 75.98C140.937 76.2667 141.327 76.41 141.834 76.41C142.387 76.41 142.824 76.2433 143.144 75.91C143.464 75.57 143.624 75.1 143.624 74.5V71.74H144.334ZM153.809 71.74V76.36C153.809 77.2533 153.589 77.9133 153.149 78.34C152.716 78.7733 152.059 78.99 151.179 78.99C150.693 78.99 150.229 78.9167 149.789 78.77C149.356 78.63 149.003 78.4333 148.729 78.18L149.089 77.64C149.343 77.8667 149.649 78.0433 150.009 78.17C150.376 78.2967 150.759 78.36 151.159 78.36C151.826 78.36 152.316 78.2033 152.629 77.89C152.943 77.5833 153.099 77.1033 153.099 76.45V75.78C152.879 76.1133 152.589 76.3667 152.229 76.54C151.876 76.7133 151.483 76.8 151.049 76.8C150.556 76.8 150.106 76.6933 149.699 76.48C149.299 76.26 148.983 75.9567 148.749 75.57C148.523 75.1767 148.409 74.7333 148.409 74.24C148.409 73.7467 148.523 73.3067 148.749 72.92C148.983 72.5333 149.299 72.2333 149.699 72.02C150.099 71.8067 150.549 71.7 151.049 71.7C151.496 71.7 151.899 71.79 152.259 71.97C152.619 72.15 152.909 72.41 153.129 72.75V71.74H153.809ZM151.119 76.17C151.499 76.17 151.843 76.09 152.149 75.93C152.456 75.7633 152.693 75.5333 152.859 75.24C153.033 74.9467 153.119 74.6133 153.119 74.24C153.119 73.8667 153.033 73.5367 152.859 73.25C152.693 72.9567 152.456 72.73 152.149 72.57C151.849 72.4033 151.506 72.32 151.119 72.32C150.739 72.32 150.396 72.4 150.089 72.56C149.789 72.72 149.553 72.9467 149.379 73.24C149.213 73.5333 149.129 73.8667 149.129 74.24C149.129 74.6133 149.213 74.9467 149.379 75.24C149.553 75.5333 149.789 75.7633 150.089 75.93C150.396 76.09 150.739 76.17 151.119 76.17ZM157.945 77.05C157.438 77.05 156.981 76.9367 156.575 76.71C156.168 76.4767 155.848 76.1567 155.615 75.75C155.381 75.3433 155.265 74.8833 155.265 74.37C155.265 73.8567 155.381 73.3967 155.615 72.99C155.848 72.5833 156.168 72.2667 156.575 72.04C156.981 71.8133 157.438 71.7 157.945 71.7C158.451 71.7 158.908 71.8133 159.315 72.04C159.721 72.2667 160.038 72.5833 160.265 72.99C160.498 73.3967 160.615 73.8567 160.615 74.37C160.615 74.8833 160.498 75.3433 160.265 75.75C160.038 76.1567 159.721 76.4767 159.315 76.71C158.908 76.9367 158.451 77.05 157.945 77.05ZM157.945 76.42C158.318 76.42 158.651 76.3367 158.945 76.17C159.245 75.9967 159.478 75.7533 159.645 75.44C159.811 75.1267 159.895 74.77 159.895 74.37C159.895 73.97 159.811 73.6133 159.645 73.3C159.478 72.9867 159.245 72.7467 158.945 72.58C158.651 72.4067 158.318 72.32 157.945 72.32C157.571 72.32 157.235 72.4067 156.935 72.58C156.641 72.7467 156.408 72.9867 156.235 73.3C156.068 73.6133 155.985 73.97 155.985 74.37C155.985 74.77 156.068 75.1267 156.235 75.44C156.408 75.7533 156.641 75.9967 156.935 76.17C157.235 76.3367 157.571 76.42 157.945 76.42ZM164.744 71.7C165.404 71.7 165.928 71.8933 166.314 72.28C166.708 72.66 166.904 73.2167 166.904 73.95V77H166.194V74.02C166.194 73.4733 166.058 73.0567 165.784 72.77C165.511 72.4833 165.121 72.34 164.614 72.34C164.048 72.34 163.598 72.51 163.264 72.85C162.938 73.1833 162.774 73.6467 162.774 74.24V77H162.064V71.74H162.744V72.71C162.938 72.39 163.204 72.1433 163.544 71.97C163.891 71.79 164.291 71.7 164.744 71.7ZM171.512 71.7C172.172 71.7 172.695 71.8933 173.082 72.28C173.475 72.66 173.672 73.2167 173.672 73.95V77H172.962V74.02C172.962 73.4733 172.825 73.0567 172.552 72.77C172.278 72.4833 171.888 72.34 171.382 72.34C170.815 72.34 170.365 72.51 170.032 72.85C169.705 73.1833 169.542 73.6467 169.542 74.24V77H168.832V71.74H169.512V72.71C169.705 72.39 169.972 72.1433 170.312 71.97C170.658 71.79 171.058 71.7 171.512 71.7ZM177.439 71.7C178.126 71.7 178.653 71.8733 179.019 72.22C179.386 72.56 179.569 73.0667 179.569 73.74V77H178.889V76.18C178.729 76.4533 178.493 76.6667 178.179 76.82C177.873 76.9733 177.506 77.05 177.079 77.05C176.493 77.05 176.026 76.91 175.679 76.63C175.333 76.35 175.159 75.98 175.159 75.52C175.159 75.0733 175.319 74.7133 175.639 74.44C175.966 74.1667 176.483 74.03 177.189 74.03H178.859V73.71C178.859 73.2567 178.733 72.9133 178.479 72.68C178.226 72.44 177.856 72.32 177.369 72.32C177.036 72.32 176.716 72.3767 176.409 72.49C176.103 72.5967 175.839 72.7467 175.619 72.94L175.299 72.41C175.566 72.1833 175.886 72.01 176.259 71.89C176.633 71.7633 177.026 71.7 177.439 71.7ZM177.189 76.49C177.589 76.49 177.933 76.4 178.219 76.22C178.506 76.0333 178.719 75.7667 178.859 75.42V74.56H177.209C176.309 74.56 175.859 74.8733 175.859 75.5C175.859 75.8067 175.976 76.05 176.209 76.23C176.443 76.4033 176.769 76.49 177.189 76.49ZM186.825 71.7C187.318 71.7 187.765 71.8133 188.165 72.04C188.565 72.26 188.878 72.5733 189.105 72.98C189.332 73.3867 189.445 73.85 189.445 74.37C189.445 74.89 189.332 75.3533 189.105 75.76C188.878 76.1667 188.565 76.4833 188.165 76.71C187.765 76.9367 187.318 77.05 186.825 77.05C186.385 77.05 185.988 76.9567 185.635 76.77C185.288 76.5833 185.008 76.3133 184.795 75.96V77H184.115V69.58H184.825V72.74C185.045 72.4 185.325 72.1433 185.665 71.97C186.012 71.79 186.398 71.7 186.825 71.7ZM186.775 76.42C187.142 76.42 187.475 76.3367 187.775 76.17C188.075 75.9967 188.308 75.7533 188.475 75.44C188.648 75.1267 188.735 74.77 188.735 74.37C188.735 73.97 188.648 73.6133 188.475 73.3C188.308 72.9867 188.075 72.7467 187.775 72.58C187.475 72.4067 187.142 72.32 186.775 72.32C186.402 72.32 186.065 72.4067 185.765 72.58C185.472 72.7467 185.238 72.9867 185.065 73.3C184.898 73.6133 184.815 73.97 184.815 74.37C184.815 74.77 184.898 75.1267 185.065 75.44C185.238 75.7533 185.472 75.9967 185.765 76.17C186.065 76.3367 186.402 76.42 186.775 76.42ZM195.632 71.74V77H194.952V76.04C194.766 76.36 194.509 76.61 194.182 76.79C193.856 76.9633 193.482 77.05 193.062 77.05C192.376 77.05 191.832 76.86 191.432 76.48C191.039 76.0933 190.842 75.53 190.842 74.79V71.74H191.552V74.72C191.552 75.2733 191.689 75.6933 191.962 75.98C192.236 76.2667 192.626 76.41 193.132 76.41C193.686 76.41 194.122 76.2433 194.442 75.91C194.762 75.57 194.922 75.1 194.922 74.5V71.74H195.632ZM202.041 71.74L199.411 77.63C199.198 78.1233 198.951 78.4733 198.671 78.68C198.391 78.8867 198.054 78.99 197.661 78.99C197.408 78.99 197.171 78.95 196.951 78.87C196.731 78.79 196.541 78.67 196.381 78.51L196.711 77.98C196.978 78.2467 197.298 78.38 197.671 78.38C197.911 78.38 198.114 78.3133 198.281 78.18C198.454 78.0467 198.614 77.82 198.761 77.5L198.991 76.99L196.641 71.74H197.381L199.361 76.21L201.341 71.74H202.041ZM205.658 71.74H206.368V77H205.658V71.74ZM206.018 70.59C205.871 70.59 205.748 70.54 205.648 70.44C205.548 70.34 205.498 70.22 205.498 70.08C205.498 69.9467 205.548 69.83 205.648 69.73C205.748 69.63 205.871 69.58 206.018 69.58C206.165 69.58 206.288 69.63 206.388 69.73C206.488 69.8233 206.538 69.9367 206.538 70.07C206.538 70.2167 206.488 70.34 206.388 70.44C206.288 70.54 206.165 70.59 206.018 70.59ZM211.024 71.7C211.684 71.7 212.207 71.8933 212.594 72.28C212.987 72.66 213.184 73.2167 213.184 73.95V77H212.474V74.02C212.474 73.4733 212.337 73.0567 212.064 72.77C211.79 72.4833 211.4 72.34 210.894 72.34C210.327 72.34 209.877 72.51 209.544 72.85C209.217 73.1833 209.054 73.6467 209.054 74.24V77H208.344V71.74H209.024V72.71C209.217 72.39 209.484 72.1433 209.824 71.97C210.17 71.79 210.57 71.7 211.024 71.7ZM220.498 76.68C220.365 76.8 220.198 76.8933 219.998 76.96C219.805 77.02 219.602 77.05 219.388 77.05C218.895 77.05 218.515 76.9167 218.248 76.65C217.982 76.3833 217.848 76.0067 217.848 75.52V72.34H216.908V71.74H217.848V70.59H218.558V71.74H220.158V72.34H218.558V75.48C218.558 75.7933 218.635 76.0333 218.788 76.2C218.948 76.36 219.175 76.44 219.468 76.44C219.615 76.44 219.755 76.4167 219.888 76.37C220.028 76.3233 220.148 76.2567 220.248 76.17L220.498 76.68ZM224.471 71.7C225.131 71.7 225.654 71.8933 226.041 72.28C226.434 72.66 226.631 73.2167 226.631 73.95V77H225.921V74.02C225.921 73.4733 225.784 73.0567 225.511 72.77C225.237 72.4833 224.847 72.34 224.341 72.34C223.774 72.34 223.324 72.51 222.991 72.85C222.664 73.1833 222.501 73.6467 222.501 74.24V77H221.791V69.58H222.501V72.66C222.694 72.3533 222.961 72.1167 223.301 71.95C223.641 71.7833 224.031 71.7 224.471 71.7ZM233.158 74.59H228.758C228.798 75.1367 229.008 75.58 229.388 75.92C229.768 76.2533 230.248 76.42 230.828 76.42C231.155 76.42 231.455 76.3633 231.728 76.25C232.001 76.13 232.238 75.9567 232.438 75.73L232.838 76.19C232.605 76.47 232.311 76.6833 231.958 76.83C231.611 76.9767 231.228 77.05 230.808 77.05C230.268 77.05 229.788 76.9367 229.368 76.71C228.955 76.4767 228.631 76.1567 228.398 75.75C228.165 75.3433 228.048 74.8833 228.048 74.37C228.048 73.8567 228.158 73.3967 228.378 72.99C228.605 72.5833 228.911 72.2667 229.298 72.04C229.691 71.8133 230.131 71.7 230.618 71.7C231.105 71.7 231.541 71.8133 231.928 72.04C232.315 72.2667 232.618 72.5833 232.838 72.99C233.058 73.39 233.168 73.85 233.168 74.37L233.158 74.59ZM230.618 72.31C230.111 72.31 229.685 72.4733 229.338 72.8C228.998 73.12 228.805 73.54 228.758 74.06H232.488C232.441 73.54 232.245 73.12 231.898 72.8C231.558 72.4733 231.131 72.31 230.618 72.31ZM243.79 71.7C244.45 71.7 244.967 71.89 245.34 72.27C245.72 72.65 245.91 73.21 245.91 73.95V77H245.2V74.02C245.2 73.4733 245.067 73.0567 244.8 72.77C244.54 72.4833 244.17 72.34 243.69 72.34C243.144 72.34 242.714 72.51 242.4 72.85C242.087 73.1833 241.93 73.6467 241.93 74.24V77H241.22V74.02C241.22 73.4733 241.087 73.0567 240.82 72.77C240.56 72.4833 240.187 72.34 239.7 72.34C239.16 72.34 238.73 72.51 238.41 72.85C238.097 73.1833 237.94 73.6467 237.94 74.24V77H237.23V71.74H237.91V72.7C238.097 72.38 238.357 72.1333 238.69 71.96C239.024 71.7867 239.407 71.7 239.84 71.7C240.28 71.7 240.66 71.7933 240.98 71.98C241.307 72.1667 241.55 72.4433 241.71 72.81C241.904 72.4633 242.18 72.1933 242.54 72C242.907 71.8 243.324 71.7 243.79 71.7ZM250.005 77.05C249.499 77.05 249.042 76.9367 248.635 76.71C248.229 76.4767 247.909 76.1567 247.675 75.75C247.442 75.3433 247.325 74.8833 247.325 74.37C247.325 73.8567 247.442 73.3967 247.675 72.99C247.909 72.5833 248.229 72.2667 248.635 72.04C249.042 71.8133 249.499 71.7 250.005 71.7C250.512 71.7 250.969 71.8133 251.375 72.04C251.782 72.2667 252.099 72.5833 252.325 72.99C252.559 73.3967 252.675 73.8567 252.675 74.37C252.675 74.8833 252.559 75.3433 252.325 75.75C252.099 76.1567 251.782 76.4767 251.375 76.71C250.969 76.9367 250.512 77.05 250.005 77.05ZM250.005 76.42C250.379 76.42 250.712 76.3367 251.005 76.17C251.305 75.9967 251.539 75.7533 251.705 75.44C251.872 75.1267 251.955 74.77 251.955 74.37C251.955 73.97 251.872 73.6133 251.705 73.3C251.539 72.9867 251.305 72.7467 251.005 72.58C250.712 72.4067 250.379 72.32 250.005 72.32C249.632 72.32 249.295 72.4067 248.995 72.58C248.702 72.7467 248.469 72.9867 248.295 73.3C248.129 73.6133 248.045 73.97 248.045 74.37C248.045 74.77 248.129 75.1267 248.295 75.44C248.469 75.7533 248.702 75.9967 248.995 76.17C249.295 76.3367 249.632 76.42 250.005 76.42ZM255.535 77.05C255.108 77.05 254.698 76.99 254.305 76.87C253.918 76.7433 253.615 76.5867 253.395 76.4L253.715 75.84C253.935 76.0133 254.211 76.1567 254.545 76.27C254.878 76.3767 255.225 76.43 255.585 76.43C256.065 76.43 256.418 76.3567 256.645 76.21C256.878 76.0567 256.995 75.8433 256.995 75.57C256.995 75.3767 256.931 75.2267 256.805 75.12C256.678 75.0067 256.518 74.9233 256.325 74.87C256.131 74.81 255.875 74.7533 255.555 74.7C255.128 74.62 254.785 74.54 254.525 74.46C254.265 74.3733 254.041 74.23 253.855 74.03C253.675 73.83 253.585 73.5533 253.585 73.2C253.585 72.76 253.768 72.4 254.135 72.12C254.501 71.84 255.011 71.7 255.665 71.7C256.005 71.7 256.345 71.7467 256.685 71.84C257.025 71.9267 257.305 72.0433 257.525 72.19L257.215 72.76C256.781 72.46 256.265 72.31 255.665 72.31C255.211 72.31 254.868 72.39 254.635 72.55C254.408 72.71 254.295 72.92 254.295 73.18C254.295 73.38 254.358 73.54 254.485 73.66C254.618 73.78 254.781 73.87 254.975 73.93C255.168 73.9833 255.435 74.04 255.775 74.1C256.195 74.18 256.531 74.26 256.785 74.34C257.038 74.42 257.255 74.5567 257.435 74.75C257.615 74.9433 257.705 75.21 257.705 75.55C257.705 76.01 257.511 76.3767 257.125 76.65C256.745 76.9167 256.215 77.05 255.535 77.05ZM261.787 76.68C261.654 76.8 261.487 76.8933 261.287 76.96C261.094 77.02 260.891 77.05 260.677 77.05C260.184 77.05 259.804 76.9167 259.537 76.65C259.271 76.3833 259.137 76.0067 259.137 75.52V72.34H258.197V71.74H259.137V70.59H259.847V71.74H261.447V72.34H259.847V75.48C259.847 75.7933 259.924 76.0333 260.077 76.2C260.237 76.36 260.464 76.44 260.757 76.44C260.904 76.44 261.044 76.4167 261.177 76.37C261.317 76.3233 261.437 76.2567 261.537 76.17L261.787 76.68ZM266.377 72.77C266.544 72.4167 266.79 72.15 267.117 71.97C267.45 71.79 267.86 71.7 268.347 71.7V72.39L268.177 72.38C267.624 72.38 267.19 72.55 266.877 72.89C266.564 73.23 266.407 73.7067 266.407 74.32V77H265.697V71.74H266.377V72.77ZM274.164 74.59H269.764C269.804 75.1367 270.014 75.58 270.394 75.92C270.774 76.2533 271.254 76.42 271.834 76.42C272.16 76.42 272.46 76.3633 272.734 76.25C273.007 76.13 273.244 75.9567 273.444 75.73L273.844 76.19C273.61 76.47 273.317 76.6833 272.964 76.83C272.617 76.9767 272.234 77.05 271.814 77.05C271.274 77.05 270.794 76.9367 270.374 76.71C269.96 76.4767 269.637 76.1567 269.404 75.75C269.17 75.3433 269.054 74.8833 269.054 74.37C269.054 73.8567 269.164 73.3967 269.384 72.99C269.61 72.5833 269.917 72.2667 270.304 72.04C270.697 71.8133 271.137 71.7 271.624 71.7C272.11 71.7 272.547 71.8133 272.934 72.04C273.32 72.2667 273.624 72.5833 273.844 72.99C274.064 73.39 274.174 73.85 274.174 74.37L274.164 74.59ZM271.624 72.31C271.117 72.31 270.69 72.4733 270.344 72.8C270.004 73.12 269.81 73.54 269.764 74.06H273.494C273.447 73.54 273.25 73.12 272.904 72.8C272.564 72.4733 272.137 72.31 271.624 72.31ZM277.312 71.7C277.999 71.7 278.526 71.8733 278.892 72.22C279.259 72.56 279.442 73.0667 279.442 73.74V77H278.762V76.18C278.602 76.4533 278.366 76.6667 278.052 76.82C277.746 76.9733 277.379 77.05 276.952 77.05C276.366 77.05 275.899 76.91 275.552 76.63C275.206 76.35 275.032 75.98 275.032 75.52C275.032 75.0733 275.192 74.7133 275.512 74.44C275.839 74.1667 276.356 74.03 277.062 74.03H278.732V73.71C278.732 73.2567 278.606 72.9133 278.352 72.68C278.099 72.44 277.729 72.32 277.242 72.32C276.909 72.32 276.589 72.3767 276.282 72.49C275.976 72.5967 275.712 72.7467 275.492 72.94L275.172 72.41C275.439 72.1833 275.759 72.01 276.132 71.89C276.506 71.7633 276.899 71.7 277.312 71.7ZM277.062 76.49C277.462 76.49 277.806 76.4 278.092 76.22C278.379 76.0333 278.592 75.7667 278.732 75.42V74.56H277.082C276.182 74.56 275.732 74.8733 275.732 75.5C275.732 75.8067 275.849 76.05 276.082 76.23C276.316 76.4033 276.642 76.49 277.062 76.49ZM281.371 69.58H282.081V77H281.371V69.58ZM284.056 71.74H284.766V77H284.056V71.74ZM284.416 70.59C284.27 70.59 284.146 70.54 284.046 70.44C283.946 70.34 283.896 70.22 283.896 70.08C283.896 69.9467 283.946 69.83 284.046 69.73C284.146 69.63 284.27 69.58 284.416 69.58C284.563 69.58 284.686 69.63 284.786 69.73C284.886 69.8233 284.936 69.9367 284.936 70.07C284.936 70.2167 284.886 70.34 284.786 70.44C284.686 70.54 284.563 70.59 284.416 70.59ZM288.152 77.05C287.725 77.05 287.315 76.99 286.922 76.87C286.535 76.7433 286.232 76.5867 286.012 76.4L286.332 75.84C286.552 76.0133 286.829 76.1567 287.162 76.27C287.495 76.3767 287.842 76.43 288.202 76.43C288.682 76.43 289.035 76.3567 289.262 76.21C289.495 76.0567 289.612 75.8433 289.612 75.57C289.612 75.3767 289.549 75.2267 289.422 75.12C289.295 75.0067 289.135 74.9233 288.942 74.87C288.749 74.81 288.492 74.7533 288.172 74.7C287.745 74.62 287.402 74.54 287.142 74.46C286.882 74.3733 286.659 74.23 286.472 74.03C286.292 73.83 286.202 73.5533 286.202 73.2C286.202 72.76 286.385 72.4 286.752 72.12C287.119 71.84 287.629 71.7 288.282 71.7C288.622 71.7 288.962 71.7467 289.302 71.84C289.642 71.9267 289.922 72.0433 290.142 72.19L289.832 72.76C289.399 72.46 288.882 72.31 288.282 72.31C287.829 72.31 287.485 72.39 287.252 72.55C287.025 72.71 286.912 72.92 286.912 73.18C286.912 73.38 286.975 73.54 287.102 73.66C287.235 73.78 287.399 73.87 287.592 73.93C287.785 73.9833 288.052 74.04 288.392 74.1C288.812 74.18 289.149 74.26 289.402 74.34C289.655 74.42 289.872 74.5567 290.052 74.75C290.232 74.9433 290.322 75.21 290.322 75.55C290.322 76.01 290.129 76.3767 289.742 76.65C289.362 76.9167 288.832 77.05 288.152 77.05ZM294.405 76.68C294.271 76.8 294.105 76.8933 293.905 76.96C293.711 77.02 293.508 77.05 293.295 77.05C292.801 77.05 292.421 76.9167 292.155 76.65C291.888 76.3833 291.755 76.0067 291.755 75.52V72.34H290.815V71.74H291.755V70.59H292.465V71.74H294.065V72.34H292.465V75.48C292.465 75.7933 292.541 76.0333 292.695 76.2C292.855 76.36 293.081 76.44 293.375 76.44C293.521 76.44 293.661 76.4167 293.795 76.37C293.935 76.3233 294.055 76.2567 294.155 76.17L294.405 76.68ZM295.697 71.74H296.407V77H295.697V71.74ZM296.057 70.59C295.91 70.59 295.787 70.54 295.687 70.44C295.587 70.34 295.537 70.22 295.537 70.08C295.537 69.9467 295.587 69.83 295.687 69.73C295.787 69.63 295.91 69.58 296.057 69.58C296.204 69.58 296.327 69.63 296.427 69.73C296.527 69.8233 296.577 69.9367 296.577 70.07C296.577 70.2167 296.527 70.34 296.427 70.44C296.327 70.54 296.204 70.59 296.057 70.59ZM300.563 77.05C300.043 77.05 299.576 76.9367 299.163 76.71C298.756 76.4833 298.436 76.1667 298.203 75.76C297.969 75.3467 297.853 74.8833 297.853 74.37C297.853 73.8567 297.969 73.3967 298.203 72.99C298.436 72.5833 298.756 72.2667 299.163 72.04C299.576 71.8133 300.043 71.7 300.563 71.7C301.016 71.7 301.419 71.79 301.773 71.97C302.133 72.1433 302.416 72.4 302.623 72.74L302.093 73.1C301.919 72.84 301.699 72.6467 301.433 72.52C301.166 72.3867 300.876 72.32 300.563 72.32C300.183 72.32 299.839 72.4067 299.533 72.58C299.233 72.7467 298.996 72.9867 298.823 73.3C298.656 73.6133 298.573 73.97 298.573 74.37C298.573 74.7767 298.656 75.1367 298.823 75.45C298.996 75.7567 299.233 75.9967 299.533 76.17C299.839 76.3367 300.183 76.42 300.563 76.42C300.876 76.42 301.166 76.3567 301.433 76.23C301.699 76.1033 301.919 75.91 302.093 75.65L302.623 76.01C302.416 76.35 302.133 76.61 301.773 76.79C301.413 76.9633 301.009 77.05 300.563 77.05ZM314.355 71.74L312.365 77H311.695L310.035 72.69L308.375 77H307.705L305.725 71.74H306.405L308.055 76.21L309.745 71.74H310.355L312.035 76.21L313.705 71.74H314.355ZM317.107 71.7C317.794 71.7 318.321 71.8733 318.687 72.22C319.054 72.56 319.237 73.0667 319.237 73.74V77H318.557V76.18C318.397 76.4533 318.161 76.6667 317.847 76.82C317.541 76.9733 317.174 77.05 316.747 77.05C316.161 77.05 315.694 76.91 315.347 76.63C315.001 76.35 314.827 75.98 314.827 75.52C314.827 75.0733 314.987 74.7133 315.307 74.44C315.634 74.1667 316.151 74.03 316.857 74.03H318.527V73.71C318.527 73.2567 318.401 72.9133 318.147 72.68C317.894 72.44 317.524 72.32 317.037 72.32C316.704 72.32 316.384 72.3767 316.077 72.49C315.771 72.5967 315.507 72.7467 315.287 72.94L314.967 72.41C315.234 72.1833 315.554 72.01 315.927 71.89C316.301 71.7633 316.694 71.7 317.107 71.7ZM316.857 76.49C317.257 76.49 317.601 76.4 317.887 76.22C318.174 76.0333 318.387 75.7667 318.527 75.42V74.56H316.877C315.977 74.56 315.527 74.8733 315.527 75.5C315.527 75.8067 315.644 76.05 315.877 76.23C316.111 76.4033 316.437 76.49 316.857 76.49ZM325.488 71.74L322.858 77.63C322.645 78.1233 322.398 78.4733 322.118 78.68C321.838 78.8867 321.501 78.99 321.108 78.99C320.855 78.99 320.618 78.95 320.398 78.87C320.178 78.79 319.988 78.67 319.828 78.51L320.158 77.98C320.425 78.2467 320.745 78.38 321.118 78.38C321.358 78.38 321.561 78.3133 321.728 78.18C321.901 78.0467 322.061 77.82 322.208 77.5L322.438 76.99L320.088 71.74H320.828L322.808 76.21L324.788 71.74H325.488ZM326.216 77.05C326.07 77.05 325.943 76.9967 325.836 76.89C325.736 76.7833 325.686 76.6533 325.686 76.5C325.686 76.3467 325.736 76.22 325.836 76.12C325.943 76.0133 326.07 75.96 326.216 75.96C326.363 75.96 326.49 76.0133 326.596 76.12C326.703 76.22 326.756 76.3467 326.756 76.5C326.756 76.6533 326.703 76.7833 326.596 76.89C326.49 76.9967 326.363 77.05 326.216 77.05ZM341.523 70L337.763 77H336.983L336.123 71.06L332.863 77H332.083L331.123 70H331.853L332.683 76.03L335.973 70H336.663L337.513 76.04L340.783 70H341.523ZM341.589 74.57C341.582 74.6167 341.579 74.6867 341.579 74.78C341.579 75.3133 341.729 75.72 342.029 76C342.336 76.28 342.789 76.42 343.389 76.42C343.736 76.42 344.059 76.3633 344.359 76.25C344.666 76.13 344.916 75.9667 345.109 75.76L345.429 76.27C345.182 76.5167 344.872 76.71 344.499 76.85C344.132 76.9833 343.742 77.05 343.329 77.05C342.569 77.05 341.969 76.85 341.529 76.45C341.096 76.05 340.879 75.5033 340.879 74.81C340.879 74.2233 341.002 73.6933 341.249 73.22C341.502 72.7467 341.849 72.3767 342.289 72.11C342.736 71.8367 343.236 71.7 343.789 71.7C344.489 71.7 345.046 71.9 345.459 72.3C345.872 72.6933 346.079 73.2367 346.079 73.93C346.079 74.1233 346.056 74.3367 346.009 74.57H341.589ZM343.769 72.3C343.242 72.3 342.792 72.4567 342.419 72.77C342.046 73.0833 341.792 73.5067 341.659 74.04H345.409C345.416 73.9933 345.419 73.93 345.419 73.85C345.419 73.3567 345.269 72.9767 344.969 72.71C344.669 72.4367 344.269 72.3 343.769 72.3ZM350.241 74.57C350.235 74.6167 350.231 74.6867 350.231 74.78C350.231 75.3133 350.381 75.72 350.681 76C350.988 76.28 351.441 76.42 352.041 76.42C352.388 76.42 352.711 76.3633 353.011 76.25C353.318 76.13 353.568 75.9667 353.761 75.76L354.081 76.27C353.835 76.5167 353.525 76.71 353.151 76.85C352.785 76.9833 352.395 77.05 351.981 77.05C351.221 77.05 350.621 76.85 350.181 76.45C349.748 76.05 349.531 75.5033 349.531 74.81C349.531 74.2233 349.655 73.6933 349.901 73.22C350.155 72.7467 350.501 72.3767 350.941 72.11C351.388 71.8367 351.888 71.7 352.441 71.7C353.141 71.7 353.698 71.9 354.111 72.3C354.525 72.6933 354.731 73.2367 354.731 73.93C354.731 74.1233 354.708 74.3367 354.661 74.57H350.241ZM352.421 72.3C351.895 72.3 351.445 72.4567 351.071 72.77C350.698 73.0833 350.445 73.5067 350.311 74.04H354.061C354.068 73.9933 354.071 73.93 354.071 73.85C354.071 73.3567 353.921 72.9767 353.621 72.71C353.321 72.4367 352.921 72.3 352.421 72.3ZM360.989 71.74L357.609 77H356.879L355.579 71.74H356.289L357.379 76.23L360.249 71.74H360.989ZM361.452 74.57C361.446 74.6167 361.442 74.6867 361.442 74.78C361.442 75.3133 361.592 75.72 361.892 76C362.199 76.28 362.652 76.42 363.252 76.42C363.599 76.42 363.922 76.3633 364.222 76.25C364.529 76.13 364.779 75.9667 364.972 75.76L365.292 76.27C365.046 76.5167 364.736 76.71 364.362 76.85C363.996 76.9833 363.606 77.05 363.192 77.05C362.432 77.05 361.832 76.85 361.392 76.45C360.959 76.05 360.742 75.5033 360.742 74.81C360.742 74.2233 360.866 73.6933 361.112 73.22C361.366 72.7467 361.712 72.3767 362.152 72.11C362.599 71.8367 363.099 71.7 363.652 71.7C364.352 71.7 364.909 71.9 365.322 72.3C365.736 72.6933 365.942 73.2367 365.942 73.93C365.942 74.1233 365.919 74.3367 365.872 74.57H361.452ZM363.632 72.3C363.106 72.3 362.656 72.4567 362.282 72.77C361.909 73.0833 361.656 73.5067 361.522 74.04H365.272C365.279 73.9933 365.282 73.93 365.282 73.85C365.282 73.3567 365.132 72.9767 364.832 72.71C364.532 72.4367 364.132 72.3 363.632 72.3ZM370.437 71.7C371.031 71.7 371.491 71.8533 371.817 72.16C372.151 72.46 372.317 72.8767 372.317 73.41C372.317 73.5967 372.297 73.7967 372.257 74.01L371.657 77H370.947L371.547 74C371.581 73.8133 371.597 73.6533 371.597 73.52C371.597 73.14 371.481 72.85 371.247 72.65C371.021 72.4433 370.684 72.34 370.237 72.34C369.671 72.34 369.204 72.4967 368.837 72.81C368.471 73.1167 368.224 73.5733 368.097 74.18L367.537 77H366.827L367.867 71.74H368.547L368.377 72.58C368.877 71.9933 369.564 71.7 370.437 71.7ZM382.492 69.58L381.012 77H380.332L380.502 76.17C380.249 76.45 379.949 76.6667 379.602 76.82C379.256 76.9733 378.872 77.05 378.452 77.05C378.006 77.05 377.609 76.96 377.262 76.78C376.916 76.6 376.646 76.3433 376.452 76.01C376.259 75.67 376.162 75.2733 376.162 74.82C376.162 74.2267 376.289 73.6933 376.542 73.22C376.802 72.7467 377.159 72.3767 377.612 72.11C378.066 71.8367 378.572 71.7 379.132 71.7C379.626 71.7 380.042 71.8 380.382 72C380.729 72.1933 380.979 72.4733 381.132 72.84L381.782 69.58H382.492ZM378.602 76.42C379.036 76.42 379.426 76.3167 379.772 76.11C380.119 75.8967 380.389 75.6033 380.582 75.23C380.782 74.85 380.882 74.4267 380.882 73.96C380.882 73.4467 380.729 73.0467 380.422 72.76C380.122 72.4667 379.699 72.32 379.152 72.32C378.719 72.32 378.329 72.4267 377.982 72.64C377.636 72.8533 377.362 73.15 377.162 73.53C376.969 73.9033 376.872 74.3233 376.872 74.79C376.872 75.3033 377.022 75.7033 377.322 75.99C377.629 76.2767 378.056 76.42 378.602 76.42ZM384.53 72.7C384.763 72.36 385.056 72.11 385.41 71.95C385.763 71.7833 386.19 71.7 386.69 71.7L386.56 72.39L386.36 72.38C385.793 72.38 385.326 72.5433 384.96 72.87C384.6 73.1967 384.356 73.6833 384.23 74.33L383.7 77H382.99L384.03 71.74H384.71L384.53 72.7ZM387.536 74.57C387.53 74.6167 387.526 74.6867 387.526 74.78C387.526 75.3133 387.676 75.72 387.976 76C388.283 76.28 388.736 76.42 389.336 76.42C389.683 76.42 390.006 76.3633 390.306 76.25C390.613 76.13 390.863 75.9667 391.056 75.76L391.376 76.27C391.13 76.5167 390.82 76.71 390.446 76.85C390.08 76.9833 389.69 77.05 389.276 77.05C388.516 77.05 387.916 76.85 387.476 76.45C387.043 76.05 386.826 75.5033 386.826 74.81C386.826 74.2233 386.95 73.6933 387.196 73.22C387.45 72.7467 387.796 72.3767 388.236 72.11C388.683 71.8367 389.183 71.7 389.736 71.7C390.436 71.7 390.993 71.9 391.406 72.3C391.82 72.6933 392.026 73.2367 392.026 73.93C392.026 74.1233 392.003 74.3367 391.956 74.57H387.536ZM389.716 72.3C389.19 72.3 388.74 72.4567 388.366 72.77C387.993 73.0833 387.74 73.5067 387.606 74.04H391.356C391.363 73.9933 391.366 73.93 391.366 73.85C391.366 73.3567 391.216 72.9767 390.916 72.71C390.616 72.4367 390.216 72.3 389.716 72.3ZM398.761 71.74L397.711 77H397.031L397.201 76.17C396.948 76.45 396.648 76.6667 396.301 76.82C395.955 76.9733 395.571 77.05 395.151 77.05C394.705 77.05 394.308 76.96 393.961 76.78C393.615 76.6 393.345 76.3433 393.151 76.01C392.958 75.67 392.861 75.2733 392.861 74.82C392.861 74.2267 392.988 73.6933 393.241 73.22C393.501 72.7467 393.858 72.3767 394.311 72.11C394.765 71.8367 395.271 71.7 395.831 71.7C396.331 71.7 396.751 71.8 397.091 72C397.431 72.1933 397.678 72.4733 397.831 72.84L398.051 71.74H398.761ZM395.301 76.42C395.735 76.42 396.125 76.3167 396.471 76.11C396.818 75.8967 397.088 75.6033 397.281 75.23C397.481 74.85 397.581 74.4267 397.581 73.96C397.581 73.4467 397.428 73.0467 397.121 72.76C396.821 72.4667 396.398 72.32 395.851 72.32C395.418 72.32 395.028 72.4267 394.681 72.64C394.335 72.8533 394.061 73.15 393.861 73.53C393.668 73.9033 393.571 74.3233 393.571 74.79C393.571 75.3033 393.721 75.7033 394.021 75.99C394.328 76.2767 394.755 76.42 395.301 76.42ZM407.169 71.7C407.762 71.7 408.219 71.85 408.539 72.15C408.865 72.4433 409.029 72.8567 409.029 73.39C409.029 73.5433 409.005 73.75 408.959 74.01L408.359 77H407.649L408.249 74C408.282 73.8467 408.299 73.6833 408.299 73.51C408.299 73.1367 408.189 72.85 407.969 72.65C407.749 72.4433 407.425 72.34 406.999 72.34C406.465 72.34 406.022 72.49 405.669 72.79C405.315 73.0833 405.079 73.52 404.959 74.1L404.379 77H403.669L404.269 74C404.302 73.8133 404.319 73.6533 404.319 73.52C404.319 73.14 404.209 72.85 403.989 72.65C403.775 72.4433 403.452 72.34 403.019 72.34C402.479 72.34 402.032 72.4967 401.679 72.81C401.325 73.1167 401.085 73.5733 400.959 74.18L400.399 77H399.689L400.729 71.74H401.409L401.239 72.58C401.719 71.9933 402.382 71.7 403.229 71.7C403.669 71.7 404.035 71.79 404.329 71.97C404.629 72.15 404.835 72.41 404.949 72.75C405.209 72.4033 405.525 72.1433 405.899 71.97C406.279 71.79 406.702 71.7 407.169 71.7ZM413.951 71.74H414.661L413.621 77H412.911L413.951 71.74ZM414.611 70.59C414.471 70.59 414.355 70.5433 414.261 70.45C414.175 70.3567 414.131 70.2467 414.131 70.12C414.131 69.9667 414.181 69.84 414.281 69.74C414.388 69.6333 414.521 69.58 414.681 69.58C414.821 69.58 414.938 69.6267 415.031 69.72C415.125 69.8067 415.171 69.91 415.171 70.03C415.171 70.19 415.118 70.3233 415.011 70.43C414.905 70.5367 414.771 70.59 414.611 70.59ZM419.207 71.7C419.8 71.7 420.26 71.8533 420.587 72.16C420.92 72.46 421.087 72.8767 421.087 73.41C421.087 73.5967 421.067 73.7967 421.027 74.01L420.427 77H419.717L420.317 74C420.35 73.8133 420.367 73.6533 420.367 73.52C420.367 73.14 420.25 72.85 420.017 72.65C419.79 72.4433 419.454 72.34 419.007 72.34C418.44 72.34 417.974 72.4967 417.607 72.81C417.24 73.1167 416.994 73.5733 416.867 74.18L416.307 77H415.597L416.637 71.74H417.317L417.147 72.58C417.647 71.9933 418.334 71.7 419.207 71.7ZM430.452 71.74L427.072 77H426.342L425.042 71.74H425.752L426.842 76.23L429.712 71.74H430.452ZM431.442 71.74H432.152L431.112 77H430.402L431.442 71.74ZM432.102 70.59C431.962 70.59 431.845 70.5433 431.752 70.45C431.665 70.3567 431.622 70.2467 431.622 70.12C431.622 69.9667 431.672 69.84 431.772 69.74C431.878 69.6333 432.012 69.58 432.172 69.58C432.312 69.58 432.428 69.6267 432.522 69.72C432.615 69.8067 432.662 69.91 432.662 70.03C432.662 70.19 432.608 70.3233 432.502 70.43C432.395 70.5367 432.262 70.59 432.102 70.59ZM439.367 69.58L437.887 77H437.207L437.377 76.17C437.124 76.45 436.824 76.6667 436.477 76.82C436.131 76.9733 435.747 77.05 435.327 77.05C434.881 77.05 434.484 76.96 434.137 76.78C433.791 76.6 433.521 76.3433 433.327 76.01C433.134 75.67 433.037 75.2733 433.037 74.82C433.037 74.2267 433.164 73.6933 433.417 73.22C433.677 72.7467 434.034 72.3767 434.487 72.11C434.941 71.8367 435.447 71.7 436.007 71.7C436.501 71.7 436.917 71.8 437.257 72C437.604 72.1933 437.854 72.4733 438.007 72.84L438.657 69.58H439.367ZM435.477 76.42C435.911 76.42 436.301 76.3167 436.647 76.11C436.994 75.8967 437.264 75.6033 437.457 75.23C437.657 74.85 437.757 74.4267 437.757 73.96C437.757 73.4467 437.604 73.0467 437.297 72.76C436.997 72.4667 436.574 72.32 436.027 72.32C435.594 72.32 435.204 72.4267 434.857 72.64C434.511 72.8533 434.237 73.15 434.037 73.53C433.844 73.9033 433.747 74.3233 433.747 74.79C433.747 75.3033 433.897 75.7033 434.197 75.99C434.504 76.2767 434.931 76.42 435.477 76.42ZM440.525 74.57C440.518 74.6167 440.515 74.6867 440.515 74.78C440.515 75.3133 440.665 75.72 440.965 76C441.271 76.28 441.725 76.42 442.325 76.42C442.671 76.42 442.995 76.3633 443.295 76.25C443.601 76.13 443.851 75.9667 444.045 75.76L444.365 76.27C444.118 76.5167 443.808 76.71 443.435 76.85C443.068 76.9833 442.678 77.05 442.265 77.05C441.505 77.05 440.905 76.85 440.465 76.45C440.031 76.05 439.815 75.5033 439.815 74.81C439.815 74.2233 439.938 73.6933 440.185 73.22C440.438 72.7467 440.785 72.3767 441.225 72.11C441.671 71.8367 442.171 71.7 442.725 71.7C443.425 71.7 443.981 71.9 444.395 72.3C444.808 72.6933 445.015 73.2367 445.015 73.93C445.015 74.1233 444.991 74.3367 444.945 74.57H440.525ZM442.705 72.3C442.178 72.3 441.728 72.4567 441.355 72.77C440.981 73.0833 440.728 73.5067 440.595 74.04H444.345C444.351 73.9933 444.355 73.93 444.355 73.85C444.355 73.3567 444.205 72.9767 443.905 72.71C443.605 72.4367 443.205 72.3 442.705 72.3ZM448.24 77.05C447.76 77.05 447.34 76.96 446.98 76.78C446.62 76.5933 446.34 76.3333 446.14 76C445.946 75.66 445.85 75.2667 445.85 74.82C445.85 74.2267 445.98 73.6933 446.24 73.22C446.5 72.7467 446.86 72.3767 447.32 72.11C447.786 71.8367 448.31 71.7 448.89 71.7C449.623 71.7 450.203 71.9 450.63 72.3C451.063 72.7 451.28 73.24 451.28 73.92C451.28 74.5133 451.15 75.05 450.89 75.53C450.63 76.0033 450.266 76.3767 449.8 76.65C449.34 76.9167 448.82 77.05 448.24 77.05ZM448.29 76.42C448.723 76.42 449.113 76.3167 449.46 76.11C449.806 75.8967 450.076 75.6033 450.27 75.23C450.47 74.85 450.57 74.4267 450.57 73.96C450.57 73.4467 450.416 73.0467 450.11 72.76C449.81 72.4667 449.386 72.32 448.84 72.32C448.406 72.32 448.016 72.4267 447.67 72.64C447.323 72.8533 447.05 73.15 446.85 73.53C446.656 73.9033 446.56 74.3233 446.56 74.79C446.56 75.3033 446.71 75.7033 447.01 75.99C447.316 76.2767 447.743 76.42 448.29 76.42ZM457.886 70.13C457.573 70.13 457.326 70.2133 457.146 70.38C456.966 70.5467 456.84 70.8067 456.766 71.16L456.646 71.74H458.256L458.136 72.34H456.546L455.616 77H454.906L455.836 72.34H454.896L455.006 71.74H455.956L456.086 71.08C456.186 70.58 456.386 70.1967 456.686 69.93C456.993 69.6633 457.393 69.53 457.886 69.53C458.1 69.53 458.3 69.56 458.486 69.62C458.673 69.68 458.826 69.7633 458.946 69.87L458.636 70.39C458.443 70.2167 458.193 70.13 457.886 70.13ZM460.427 77.05C459.947 77.05 459.527 76.96 459.167 76.78C458.807 76.5933 458.527 76.3333 458.327 76C458.134 75.66 458.037 75.2667 458.037 74.82C458.037 74.2267 458.167 73.6933 458.427 73.22C458.687 72.7467 459.047 72.3767 459.507 72.11C459.974 71.8367 460.497 71.7 461.077 71.7C461.811 71.7 462.391 71.9 462.817 72.3C463.251 72.7 463.467 73.24 463.467 73.92C463.467 74.5133 463.337 75.05 463.077 75.53C462.817 76.0033 462.454 76.3767 461.987 76.65C461.527 76.9167 461.007 77.05 460.427 77.05ZM460.477 76.42C460.911 76.42 461.301 76.3167 461.647 76.11C461.994 75.8967 462.264 75.6033 462.457 75.23C462.657 74.85 462.757 74.4267 462.757 73.96C462.757 73.4467 462.604 73.0467 462.297 72.76C461.997 72.4667 461.574 72.32 461.027 72.32C460.594 72.32 460.204 72.4267 459.857 72.64C459.511 72.8533 459.237 73.15 459.037 73.53C458.844 73.9033 458.747 74.3233 458.747 74.79C458.747 75.3033 458.897 75.7033 459.197 75.99C459.504 76.2767 459.931 76.42 460.477 76.42ZM465.897 72.7C466.13 72.36 466.423 72.11 466.777 71.95C467.13 71.7833 467.557 71.7 468.057 71.7L467.927 72.39L467.727 72.38C467.16 72.38 466.693 72.5433 466.327 72.87C465.967 73.1967 465.723 73.6833 465.597 74.33L465.067 77H464.357L465.397 71.74H466.077L465.897 72.7ZM475.772 71.7C476.366 71.7 476.822 71.85 477.142 72.15C477.469 72.4433 477.632 72.8567 477.632 73.39C477.632 73.5433 477.609 73.75 477.562 74.01L476.962 77H476.252L476.852 74C476.886 73.8467 476.902 73.6833 476.902 73.51C476.902 73.1367 476.792 72.85 476.572 72.65C476.352 72.4433 476.029 72.34 475.602 72.34C475.069 72.34 474.626 72.49 474.272 72.79C473.919 73.0833 473.682 73.52 473.562 74.1L472.982 77H472.272L472.872 74C472.906 73.8133 472.922 73.6533 472.922 73.52C472.922 73.14 472.812 72.85 472.592 72.65C472.379 72.4433 472.056 72.34 471.622 72.34C471.082 72.34 470.636 72.4967 470.282 72.81C469.929 73.1167 469.689 73.5733 469.562 74.18L469.002 77H468.292L469.332 71.74H470.012L469.842 72.58C470.322 71.9933 470.986 71.7 471.832 71.7C472.272 71.7 472.639 71.79 472.932 71.97C473.232 72.15 473.439 72.41 473.552 72.75C473.812 72.4033 474.129 72.1433 474.502 71.97C474.882 71.79 475.306 71.7 475.772 71.7ZM484.767 71.74L483.717 77H483.037L483.207 76.17C482.954 76.45 482.654 76.6667 482.307 76.82C481.961 76.9733 481.577 77.05 481.157 77.05C480.711 77.05 480.314 76.96 479.967 76.78C479.621 76.6 479.351 76.3433 479.157 76.01C478.964 75.67 478.867 75.2733 478.867 74.82C478.867 74.2267 478.994 73.6933 479.247 73.22C479.507 72.7467 479.864 72.3767 480.317 72.11C480.771 71.8367 481.277 71.7 481.837 71.7C482.337 71.7 482.757 71.8 483.097 72C483.437 72.1933 483.684 72.4733 483.837 72.84L484.057 71.74H484.767ZM481.307 76.42C481.741 76.42 482.131 76.3167 482.477 76.11C482.824 75.8967 483.094 75.6033 483.287 75.23C483.487 74.85 483.587 74.4267 483.587 73.96C483.587 73.4467 483.434 73.0467 483.127 72.76C482.827 72.4667 482.404 72.32 481.857 72.32C481.424 72.32 481.034 72.4267 480.687 72.64C480.341 72.8533 480.067 73.15 479.867 73.53C479.674 73.9033 479.577 74.3233 479.577 74.79C479.577 75.3033 479.727 75.7033 480.027 75.99C480.334 76.2767 480.761 76.42 481.307 76.42ZM486.835 75.41C486.808 75.57 486.795 75.68 486.795 75.74C486.795 76.2067 487.048 76.44 487.555 76.44C487.855 76.44 488.125 76.35 488.365 76.17L488.535 76.71C488.235 76.9367 487.845 77.05 487.365 77.05C486.971 77.05 486.658 76.9433 486.425 76.73C486.198 76.5167 486.085 76.2233 486.085 75.85C486.085 75.7033 486.098 75.5667 486.125 75.44L486.735 72.34H485.805L485.915 71.74H486.855L487.085 70.59H487.795L487.565 71.74H489.165L489.045 72.34H487.445L486.835 75.41ZM490.005 77.05C489.858 77.05 489.735 77 489.635 76.9C489.535 76.8 489.485 76.6767 489.485 76.53C489.485 76.37 489.538 76.2367 489.645 76.13C489.758 76.0167 489.891 75.96 490.045 75.96C490.191 75.96 490.311 76.01 490.405 76.11C490.505 76.21 490.555 76.3333 490.555 76.48C490.555 76.64 490.498 76.7767 490.385 76.89C490.278 76.9967 490.151 77.05 490.005 77.05Z" fill="#0A5A55"/>
<defs>
<linearGradient id="paint0_linear_251:103" x1="124" y1="33" x2="124" y2="76.5" gradientUnits="userSpaceOnUse">
<stop stop-color="#0A5A55"/>
<stop offset="1" stop-color="white" stop-opacity="0"/>
</linearGradient>
</defs>
</svg>
