<svg width="28" height="57" viewBox="0 0 28 57" fill="none" xmlns="http://www.w3.org/2000/svg">
<path d="M3 0.375H25C26.4497 0.375 27.625 1.55025 27.625 3V54C27.625 55.4497 26.4497 56.625 25 56.625H3C1.55025 56.625 0.375 55.4497 0.375 54V3C0.375 1.55025 1.55025 0.375 3 0.375Z" fill="#0A5A55" stroke="#FFE0C4" stroke-width="0.75"/>
<path d="M1.5 2.25H26.5C26.6381 2.25 26.75 2.36193 26.75 2.5V50.5C26.75 50.6381 26.6381 50.75 26.5 50.75H1.5C1.36193 50.75 1.25 50.6381 1.25 50.5V2.5C1.25 2.36193 1.36193 2.25 1.5 2.25Z" stroke="#FFE0C4" stroke-width="0.5"/>
<circle cx="14" cy="53.65" r="1.75" stroke="#FFE0C4" stroke-width="0.5"/>
<path d="M7.125 1.125H20.875V1.375H7.125V1.125Z" stroke="#FFE0C4" stroke-width="0.25"/>
</svg>
