<svg width="679" height="447" viewBox="0 0 679 447" fill="none" xmlns="http://www.w3.org/2000/svg">
<path d="M448.5 223.5C448.5 344.112 349.394 442 227 442C104.606 442 5.5 344.112 5.5 223.5C5.5 102.888 104.606 5 227 5C349.394 5 448.5 102.888 448.5 223.5Z" stroke="#0A5A55" stroke-width="10"/>
<path d="M25.5 223H655" stroke="#0A5A55" stroke-width="10"/>
<path d="M113.91 281.7L25.2899 226.119" stroke="#0A5A55" stroke-width="10"/>
<path d="M113.91 164.03L25.2899 219.611" stroke="#0A5A55" stroke-width="10"/>
<path d="M556.917 221.429L613.205 141.985" stroke="#0A5A55" stroke-width="10"/>
<path d="M585.061 223.119L644.661 140.295" stroke="#0A5A55" stroke-width="10"/>
<path d="M611.55 305.944L555.262 223.521" stroke="#0A5A55" stroke-width="10"/>
<path d="M672.252 305.542L615.964 223.119" stroke="#0A5A55" stroke-width="10"/>
<path d="M642.453 305.542L586.164 223.119" stroke="#0A5A55" stroke-width="10"/>
<path d="M616.517 221.429L674.461 141.985" stroke="#0A5A55" stroke-width="10"/>
<path d="M23 215.18L30 215V231L23 230.6L10.5 222.5L23 215.18Z" fill="#0A5A55"/>
</svg>
