<svg width="333" height="109" viewBox="0 0 333 109" fill="none" xmlns="http://www.w3.org/2000/svg">
<rect width="333" height="109" rx="15" fill="url(#paint0_radial_304:109)" fill-opacity="0.5"/>
<rect width="333" height="109" rx="15" fill="url(#paint1_radial_304:109)"/>
<path d="M41.3853 60.0952C41.3853 59.2407 41.0605 58.5799 40.4111 58.1128C39.7731 57.6343 38.6509 57.2241 37.0444 56.8823C35.4494 56.5405 34.179 56.1304 33.2334 55.6519C32.2992 55.1733 31.6042 54.6037 31.1484 53.9429C30.7041 53.2821 30.4819 52.4959 30.4819 51.5845C30.4819 50.0692 31.12 48.7874 32.396 47.7393C33.6834 46.6911 35.3241 46.167 37.3179 46.167C39.4142 46.167 41.1118 46.7082 42.4106 47.7905C43.7209 48.8729 44.376 50.2572 44.376 51.9434H41.1973C41.1973 51.0775 40.827 50.3312 40.0864 49.7046C39.3573 49.078 38.4344 48.7646 37.3179 48.7646C36.1672 48.7646 35.2671 49.0153 34.6177 49.5166C33.9683 50.0179 33.6436 50.673 33.6436 51.4819C33.6436 52.2453 33.9455 52.8206 34.5493 53.208C35.1532 53.5954 36.2412 53.9657 37.8135 54.3188C39.3971 54.672 40.6789 55.0936 41.6587 55.5835C42.6385 56.0734 43.362 56.6659 43.8291 57.3608C44.3076 58.0444 44.5469 58.8818 44.5469 59.873C44.5469 61.5251 43.8861 62.8524 42.5645 63.855C41.2428 64.8462 39.5282 65.3418 37.4204 65.3418C35.9393 65.3418 34.6291 65.0798 33.4897 64.5557C32.3504 64.0316 31.4561 63.3024 30.8066 62.3682C30.1686 61.4225 29.8496 60.4028 29.8496 59.3091H33.0112C33.0682 60.3687 33.4897 61.2118 34.2759 61.8384C35.0734 62.4536 36.1216 62.7612 37.4204 62.7612C38.6167 62.7612 39.5737 62.522 40.2915 62.0435C41.0207 61.5535 41.3853 60.9041 41.3853 60.0952ZM56.3389 65.3418C53.8324 65.3418 51.793 64.5215 50.2207 62.8809C48.6484 61.2288 47.8623 59.0243 47.8623 56.2671V55.686C47.8623 53.8517 48.2098 52.2168 48.9048 50.7812C49.6112 49.3343 50.591 48.2064 51.8442 47.3975C53.1089 46.5771 54.4761 46.167 55.9458 46.167C58.3498 46.167 60.2183 46.9588 61.5513 48.5425C62.8843 50.1261 63.5508 52.3934 63.5508 55.3442V56.6602H51.0239C51.0695 58.4831 51.5993 59.9585 52.6133 61.0864C53.6387 62.203 54.9375 62.7612 56.5098 62.7612C57.6263 62.7612 58.5719 62.5334 59.3467 62.0776C60.1214 61.6219 60.7993 61.0181 61.3804 60.2661L63.3115 61.77C61.762 64.1512 59.4378 65.3418 56.3389 65.3418ZM55.9458 48.7646C54.6698 48.7646 53.5988 49.2318 52.7329 50.166C51.867 51.0889 51.3315 52.3877 51.1265 54.0625H60.3892V53.8232C60.298 52.2168 59.8651 50.9749 59.0903 50.0977C58.3156 49.209 57.2674 48.7646 55.9458 48.7646ZM74.8984 65.3418C72.3919 65.3418 70.3525 64.5215 68.7803 62.8809C67.208 61.2288 66.4219 59.0243 66.4219 56.2671V55.686C66.4219 53.8517 66.7694 52.2168 67.4644 50.7812C68.1707 49.3343 69.1506 48.2064 70.4038 47.3975C71.6685 46.5771 73.0356 46.167 74.5054 46.167C76.9093 46.167 78.7778 46.9588 80.1108 48.5425C81.4438 50.1261 82.1104 52.3934 82.1104 55.3442V56.6602H69.5835C69.6291 58.4831 70.1589 59.9585 71.1729 61.0864C72.1982 62.203 73.4971 62.7612 75.0693 62.7612C76.1859 62.7612 77.1315 62.5334 77.9062 62.0776C78.681 61.6219 79.3589 61.0181 79.9399 60.2661L81.8711 61.77C80.3216 64.1512 77.9974 65.3418 74.8984 65.3418ZM74.5054 48.7646C73.2293 48.7646 72.1584 49.2318 71.2925 50.166C70.4266 51.0889 69.8911 52.3877 69.686 54.0625H78.9487V53.8232C78.8576 52.2168 78.4246 50.9749 77.6499 50.0977C76.8752 49.209 75.827 48.7646 74.5054 48.7646ZM110.838 60.6421L114.393 46.5088H117.555L112.171 65H109.608L105.113 50.9863L100.738 65H98.1748L92.8086 46.5088H95.9531L99.5933 60.3516L103.9 46.5088H106.446L110.838 60.6421ZM123.946 48.7476C125.348 47.0272 127.171 46.167 129.415 46.167C133.323 46.167 135.294 48.3716 135.328 52.7808V65H132.167V52.7637C132.155 51.4307 131.847 50.4451 131.244 49.8071C130.651 49.1691 129.723 48.8501 128.458 48.8501C127.433 48.8501 126.533 49.1235 125.758 49.6704C124.983 50.2173 124.379 50.9351 123.946 51.8237V65H120.785V38.75H123.946V48.7476ZM151.478 65C151.296 64.6354 151.148 63.986 151.034 63.0518C149.564 64.5785 147.809 65.3418 145.77 65.3418C143.947 65.3418 142.449 64.8291 141.275 63.8037C140.113 62.7669 139.532 61.4567 139.532 59.873C139.532 57.9476 140.261 56.4551 141.72 55.3955C143.189 54.3245 145.252 53.7891 147.906 53.7891H150.982V52.3364C150.982 51.2313 150.652 50.354 149.991 49.7046C149.33 49.0438 148.356 48.7134 147.069 48.7134C145.941 48.7134 144.995 48.9982 144.232 49.5679C143.469 50.1375 143.087 50.8268 143.087 51.6357H139.908C139.908 50.7129 140.233 49.8242 140.882 48.9697C141.543 48.1038 142.432 47.4202 143.548 46.9189C144.676 46.4176 145.912 46.167 147.257 46.167C149.387 46.167 151.056 46.7025 152.264 47.7734C153.472 48.833 154.098 50.297 154.144 52.1655V60.6763C154.144 62.3739 154.361 63.724 154.793 64.7266V65H151.478ZM146.231 62.5903C147.223 62.5903 148.163 62.334 149.051 61.8213C149.94 61.3086 150.584 60.6421 150.982 59.8218V56.0278H148.504C144.631 56.0278 142.694 57.1615 142.694 59.4287C142.694 60.4199 143.024 61.1947 143.685 61.7529C144.346 62.3112 145.195 62.5903 146.231 62.5903ZM163.39 42.0312V46.5088H166.842V48.9526H163.39V60.4199C163.39 61.1605 163.543 61.7188 163.851 62.0947C164.159 62.4593 164.683 62.6416 165.423 62.6416C165.788 62.6416 166.289 62.5732 166.927 62.4365V65C166.096 65.2279 165.287 65.3418 164.5 65.3418C163.088 65.3418 162.022 64.9146 161.305 64.0601C160.587 63.2056 160.228 61.9922 160.228 60.4199V48.9526H156.861V46.5088H160.228V42.0312H163.39ZM170.772 47.124L168.978 45.8936C170.038 44.4124 170.584 42.8516 170.619 41.2109V38.75H173.746V40.9717C173.735 42.111 173.45 43.2503 172.892 44.3896C172.345 45.5176 171.638 46.429 170.772 47.124ZM186.41 60.0952C186.41 59.2407 186.085 58.5799 185.436 58.1128C184.798 57.6343 183.675 57.2241 182.069 56.8823C180.474 56.5405 179.203 56.1304 178.258 55.6519C177.324 55.1733 176.629 54.6037 176.173 53.9429C175.729 53.2821 175.506 52.4959 175.506 51.5845C175.506 50.0692 176.144 48.7874 177.42 47.7393C178.708 46.6911 180.348 46.167 182.342 46.167C184.439 46.167 186.136 46.7082 187.435 47.7905C188.745 48.8729 189.4 50.2572 189.4 51.9434H186.222C186.222 51.0775 185.851 50.3312 185.111 49.7046C184.382 49.078 183.459 48.7646 182.342 48.7646C181.192 48.7646 180.292 49.0153 179.642 49.5166C178.993 50.0179 178.668 50.673 178.668 51.4819C178.668 52.2453 178.97 52.8206 179.574 53.208C180.178 53.5954 181.266 53.9657 182.838 54.3188C184.422 54.672 185.703 55.0936 186.683 55.5835C187.663 56.0734 188.386 56.6659 188.854 57.3608C189.332 58.0444 189.571 58.8818 189.571 59.873C189.571 61.5251 188.91 62.8524 187.589 63.855C186.267 64.8462 184.553 65.3418 182.445 65.3418C180.964 65.3418 179.653 65.0798 178.514 64.5557C177.375 64.0316 176.48 63.3024 175.831 62.3682C175.193 61.4225 174.874 60.4028 174.874 59.3091H178.036C178.093 60.3687 178.514 61.2118 179.3 61.8384C180.098 62.4536 181.146 62.7612 182.445 62.7612C183.641 62.7612 184.598 62.522 185.316 62.0435C186.045 61.5535 186.41 60.9041 186.41 60.0952ZM205.362 46.5088L205.465 48.833C206.878 47.0557 208.723 46.167 211.002 46.167C214.91 46.167 216.881 48.3716 216.915 52.7808V65H213.753V52.7637C213.742 51.4307 213.434 50.4451 212.831 49.8071C212.238 49.1691 211.31 48.8501 210.045 48.8501C209.02 48.8501 208.119 49.1235 207.345 49.6704C206.57 50.2173 205.966 50.9351 205.533 51.8237V65H202.372V46.5088H205.362ZM229.356 65.3418C226.85 65.3418 224.811 64.5215 223.238 62.8809C221.666 61.2288 220.88 59.0243 220.88 56.2671V55.686C220.88 53.8517 221.227 52.2168 221.922 50.7812C222.629 49.3343 223.609 48.2064 224.862 47.3975C226.126 46.5771 227.494 46.167 228.963 46.167C231.367 46.167 233.236 46.9588 234.569 48.5425C235.902 50.1261 236.568 52.3934 236.568 55.3442V56.6602H224.042C224.087 58.4831 224.617 59.9585 225.631 61.0864C226.656 62.203 227.955 62.7612 229.527 62.7612C230.644 62.7612 231.59 62.5334 232.364 62.0776C233.139 61.6219 233.817 61.0181 234.398 60.2661L236.329 61.77C234.78 64.1512 232.455 65.3418 229.356 65.3418ZM228.963 48.7646C227.687 48.7646 226.616 49.2318 225.75 50.166C224.885 51.0889 224.349 52.3877 224.144 54.0625H233.407V53.8232C233.316 52.2168 232.883 50.9749 232.108 50.0977C231.333 49.209 230.285 48.7646 228.963 48.7646ZM251.659 65C251.476 64.6354 251.328 63.986 251.214 63.0518C249.745 64.5785 247.99 65.3418 245.951 65.3418C244.128 65.3418 242.63 64.8291 241.456 63.8037C240.294 62.7669 239.713 61.4567 239.713 59.873C239.713 57.9476 240.442 56.4551 241.9 55.3955C243.37 54.3245 245.432 53.7891 248.087 53.7891H251.163V52.3364C251.163 51.2313 250.833 50.354 250.172 49.7046C249.511 49.0438 248.537 48.7134 247.25 48.7134C246.122 48.7134 245.176 48.9982 244.413 49.5679C243.649 50.1375 243.268 50.8268 243.268 51.6357H240.089C240.089 50.7129 240.414 49.8242 241.063 48.9697C241.724 48.1038 242.612 47.4202 243.729 46.9189C244.857 46.4176 246.093 46.167 247.438 46.167C249.568 46.167 251.237 46.7025 252.445 47.7734C253.653 48.833 254.279 50.297 254.325 52.1655V60.6763C254.325 62.3739 254.541 63.724 254.974 64.7266V65H251.659ZM246.412 62.5903C247.403 62.5903 248.343 62.334 249.232 61.8213C250.121 61.3086 250.764 60.6421 251.163 59.8218V56.0278H248.685C244.811 56.0278 242.875 57.1615 242.875 59.4287C242.875 60.4199 243.205 61.1947 243.866 61.7529C244.527 62.3112 245.375 62.5903 246.412 62.5903ZM268.219 49.3457C267.74 49.266 267.222 49.2261 266.664 49.2261C264.59 49.2261 263.183 50.109 262.442 51.875V65H259.281V46.5088H262.357L262.408 48.645C263.445 46.993 264.915 46.167 266.817 46.167C267.433 46.167 267.9 46.2467 268.219 46.4062V49.3457ZM286.795 55.9595C286.795 58.785 286.146 61.0579 284.847 62.7783C283.548 64.4873 281.805 65.3418 279.618 65.3418C277.282 65.3418 275.476 64.5158 274.2 62.8638L274.046 65H271.141V38.75H274.303V48.5425C275.579 46.9588 277.339 46.167 279.583 46.167C281.828 46.167 283.588 47.0158 284.864 48.7134C286.152 50.411 286.795 52.7352 286.795 55.686V55.9595ZM283.634 55.6006C283.634 53.4473 283.218 51.7839 282.386 50.6104C281.555 49.4368 280.358 48.8501 278.797 48.8501C276.712 48.8501 275.214 49.8185 274.303 51.7554V59.7534C275.271 61.6903 276.781 62.6587 278.832 62.6587C280.347 62.6587 281.526 62.0719 282.369 60.8984C283.212 59.7249 283.634 57.959 283.634 55.6006ZM296.639 60.3687L300.946 46.5088H304.33L296.896 67.854C295.745 70.9302 293.916 72.4683 291.41 72.4683L290.812 72.417L289.632 72.1948V69.6313L290.487 69.6997C291.558 69.6997 292.389 69.4832 292.982 69.0503C293.586 68.6174 294.081 67.8255 294.469 66.6748L295.169 64.7949L288.573 46.5088H292.025L296.639 60.3687Z" fill="#0A5A55"/>
<defs>
<radialGradient id="paint0_radial_304:109" cx="0" cy="0" r="1" gradientUnits="userSpaceOnUse" gradientTransform="translate(107.5 24) rotate(74.31) scale(46.2223 107.648)">
<stop stop-color="#FFF7EF"/>
<stop offset="0.0708332" stop-color="#FFF3E8" stop-opacity="0.85"/>
<stop offset="0.763542" stop-color="#FFE0C4"/>
</radialGradient>
<radialGradient id="paint1_radial_304:109" cx="0" cy="0" r="1" gradientUnits="userSpaceOnUse" gradientTransform="translate(167 63.5) rotate(90) scale(94.5 288.702)">
<stop offset="0.14375" stop-color="#FFE0C4"/>
<stop offset="0.570833" stop-color="#FFE0C4" stop-opacity="0"/>
</radialGradient>
</defs>
</svg>
