<svg width="27" height="27" viewBox="0 0 27 27" fill="none" xmlns="http://www.w3.org/2000/svg">
<path d="M21.4238 1.02135C21.8182 0.634744 22.4513 0.64106 22.8379 1.03546L24.238 2.46371L25.638 3.89197C26.0246 4.28637 26.0183 4.9195 25.6239 5.30611L4.91423 25.6066C4.51983 25.9932 3.88669 25.9869 3.50008 25.5925L0.700017 22.736C0.313408 22.3416 0.319725 21.7084 0.714126 21.3218L21.4238 1.02135Z" fill="#0A5A55"/>
<path d="M21.4238 1.02135C21.8182 0.634744 22.4513 0.64106 22.8379 1.03546L24.238 2.46371L25.638 3.89197C26.0246 4.28637 26.0183 4.9195 25.6239 5.30611L4.91423 25.6066C4.51983 25.9932 3.88669 25.9869 3.50008 25.5925L0.700017 22.736C0.313408 22.3416 0.319725 21.7084 0.714126 21.3218L21.4238 1.02135Z" fill="#0A5A55"/>
<path d="M25.3042 21.408C25.6854 21.797 25.6853 22.4194 25.304 22.8083L23.9982 24.1397L22.5664 25.5432C22.1734 25.9284 21.543 25.9237 21.1558 25.5327L0.741465 4.91428C0.351512 4.52043 0.356265 3.88455 0.752062 3.49658L3.60499 0.700021C3.99939 0.313412 4.63252 0.319729 5.01913 0.71413L25.3042 21.408Z" fill="#0A5A55"/>
</svg>
