<svg width="399" height="329" viewBox="0 0 399 329" fill="none" xmlns="http://www.w3.org/2000/svg">
<path d="M0 0H153V221H0V0Z" fill="#FFE0C4"/>
<path d="M15.32 160.51H18.38V199.75H42.56V202.51H15.32V160.51ZM75.3903 187.57H48.4503C48.5303 190.01 49.1503 192.19 50.3103 194.11C51.4703 195.99 53.0303 197.45 54.9903 198.49C56.9903 199.53 59.2303 200.05 61.7103 200.05C63.7503 200.05 65.6303 199.69 67.3503 198.97C69.1103 198.21 70.5703 197.11 71.7303 195.67L73.4703 197.65C72.1103 199.29 70.3903 200.55 68.3103 201.43C66.2703 202.31 64.0503 202.75 61.6503 202.75C58.5303 202.75 55.7503 202.07 53.3103 200.71C50.8703 199.35 48.9503 197.47 47.5503 195.07C46.1903 192.67 45.5103 189.93 45.5103 186.85C45.5103 183.81 46.1503 181.09 47.4303 178.69C48.7503 176.25 50.5503 174.35 52.8303 172.99C55.1103 171.63 57.6703 170.95 60.5103 170.95C63.3503 170.95 65.8903 171.63 68.1303 172.99C70.4103 174.31 72.1903 176.17 73.4703 178.57C74.7903 180.97 75.4503 183.69 75.4503 186.73L75.3903 187.57ZM60.5103 173.59C58.3103 173.59 56.3303 174.09 54.5703 175.09C52.8103 176.05 51.3903 177.43 50.3103 179.23C49.2703 180.99 48.6703 182.99 48.5103 185.23H72.5103C72.3903 182.99 71.7903 180.99 70.7103 179.23C69.6303 177.47 68.2103 176.09 66.4503 175.09C64.6903 174.09 62.7103 173.59 60.5103 173.59ZM100.271 200.53C99.5111 201.25 98.5511 201.81 97.3911 202.21C96.2711 202.57 95.0911 202.75 93.8511 202.75C91.1311 202.75 89.0311 202.01 87.5511 200.53C86.0711 199.01 85.3311 196.91 85.3311 194.23V173.77H79.5711V171.19H85.3311V164.35H88.3311V171.19H98.2911V173.77H88.3311V193.93C88.3311 195.97 88.8111 197.53 89.7711 198.61C90.7711 199.65 92.2311 200.17 94.1511 200.17C96.1111 200.17 97.7311 199.59 99.0111 198.43L100.271 200.53ZM108.277 157.75C108.997 157.75 109.597 158.01 110.077 158.53C110.557 159.01 110.797 159.59 110.797 160.27C110.797 160.67 110.737 161.09 110.617 161.53C110.537 161.97 110.417 162.47 110.257 163.03L107.917 171.19H105.757L107.737 162.73C107.137 162.57 106.657 162.29 106.297 161.89C105.937 161.45 105.757 160.91 105.757 160.27C105.757 159.55 105.997 158.95 106.477 158.47C106.957 157.99 107.557 157.75 108.277 157.75ZM127.632 202.75C125.112 202.75 122.712 202.37 120.432 201.61C118.152 200.85 116.372 199.89 115.092 198.73L116.472 196.33C117.752 197.41 119.392 198.31 121.392 199.03C123.432 199.75 125.552 200.11 127.752 200.11C130.912 200.11 133.232 199.59 134.712 198.55C136.232 197.51 136.992 196.07 136.992 194.23C136.992 192.91 136.572 191.87 135.732 191.11C134.932 190.35 133.932 189.79 132.732 189.43C131.532 189.07 129.872 188.69 127.752 188.29C125.272 187.85 123.272 187.37 121.752 186.85C120.232 186.33 118.932 185.49 117.852 184.33C116.772 183.17 116.232 181.57 116.232 179.53C116.232 177.05 117.252 175.01 119.292 173.41C121.372 171.77 124.312 170.95 128.112 170.95C130.112 170.95 132.092 171.23 134.052 171.79C136.012 172.35 137.612 173.09 138.852 174.01L137.472 176.41C136.192 175.49 134.732 174.79 133.092 174.31C131.452 173.83 129.772 173.59 128.052 173.59C125.132 173.59 122.932 174.13 121.452 175.21C119.972 176.29 119.232 177.71 119.232 179.47C119.232 180.87 119.652 181.97 120.492 182.77C121.332 183.53 122.352 184.11 123.552 184.51C124.792 184.87 126.512 185.27 128.712 185.71C131.152 186.15 133.112 186.63 134.592 187.15C136.112 187.63 137.392 188.43 138.432 189.55C139.472 190.67 139.992 192.21 139.992 194.17C139.992 196.77 138.912 198.85 136.752 200.41C134.592 201.97 131.552 202.75 127.632 202.75Z" fill="#0A5A55"/>
<path d="M191.974 171.19V199.15C191.974 204.35 190.714 208.19 188.194 210.67C185.674 213.15 181.874 214.39 176.794 214.39C173.914 214.39 171.194 213.95 168.634 213.07C166.074 212.19 164.014 210.97 162.454 209.41L164.074 207.13C165.634 208.57 167.514 209.69 169.714 210.49C171.914 211.29 174.254 211.69 176.734 211.69C180.894 211.69 183.974 210.69 185.974 208.69C187.974 206.73 188.974 203.67 188.974 199.51V194.23C187.694 196.51 185.914 198.27 183.634 199.51C181.354 200.75 178.794 201.37 175.954 201.37C173.034 201.37 170.374 200.73 167.974 199.45C165.614 198.13 163.754 196.31 162.394 193.99C161.034 191.67 160.354 189.05 160.354 186.13C160.354 183.21 161.034 180.59 162.394 178.27C163.754 175.95 165.614 174.15 167.974 172.87C170.374 171.59 173.034 170.95 175.954 170.95C178.834 170.95 181.434 171.59 183.754 172.87C186.074 174.15 187.854 175.95 189.094 178.27V171.19H191.974ZM176.194 198.67C178.634 198.67 180.834 198.15 182.794 197.11C184.754 196.03 186.274 194.55 187.354 192.67C188.474 190.75 189.034 188.57 189.034 186.13C189.034 183.69 188.474 181.53 187.354 179.65C186.274 177.77 184.754 176.31 182.794 175.27C180.834 174.19 178.634 173.65 176.194 173.65C173.754 173.65 171.554 174.19 169.594 175.27C167.674 176.31 166.154 177.77 165.034 179.65C163.954 181.53 163.414 183.69 163.414 186.13C163.414 188.57 163.954 190.75 165.034 192.67C166.154 194.55 167.674 196.03 169.594 197.11C171.554 198.15 173.754 198.67 176.194 198.67ZM231.133 187.57H204.193C204.273 190.01 204.893 192.19 206.053 194.11C207.213 195.99 208.773 197.45 210.733 198.49C212.733 199.53 214.973 200.05 217.453 200.05C219.493 200.05 221.373 199.69 223.093 198.97C224.853 198.21 226.313 197.11 227.473 195.67L229.213 197.65C227.853 199.29 226.133 200.55 224.053 201.43C222.013 202.31 219.793 202.75 217.393 202.75C214.273 202.75 211.493 202.07 209.053 200.71C206.613 199.35 204.693 197.47 203.293 195.07C201.933 192.67 201.253 189.93 201.253 186.85C201.253 183.81 201.893 181.09 203.173 178.69C204.493 176.25 206.293 174.35 208.573 172.99C210.853 171.63 213.413 170.95 216.253 170.95C219.093 170.95 221.633 171.63 223.873 172.99C226.153 174.31 227.933 176.17 229.213 178.57C230.533 180.97 231.193 183.69 231.193 186.73L231.133 187.57ZM216.253 173.59C214.053 173.59 212.073 174.09 210.313 175.09C208.553 176.05 207.133 177.43 206.053 179.23C205.013 180.99 204.413 182.99 204.253 185.23H228.253C228.133 182.99 227.533 180.99 226.453 179.23C225.373 177.47 223.953 176.09 222.193 175.09C220.433 174.09 218.453 173.59 216.253 173.59ZM256.013 200.53C255.253 201.25 254.293 201.81 253.133 202.21C252.013 202.57 250.833 202.75 249.593 202.75C246.873 202.75 244.773 202.01 243.293 200.53C241.813 199.01 241.073 196.91 241.073 194.23V173.77H235.313V171.19H241.073V164.35H244.073V171.19H254.033V173.77H244.073V193.93C244.073 195.97 244.553 197.53 245.513 198.61C246.513 199.65 247.973 200.17 249.893 200.17C251.853 200.17 253.473 199.59 254.753 198.43L256.013 200.53ZM14.36 244.19H17.36V275.51H14.36V244.19ZM15.86 236.57C15.18 236.57 14.6 236.35 14.12 235.91C13.64 235.43 13.4 234.85 13.4 234.17C13.4 233.49 13.64 232.91 14.12 232.43C14.6 231.95 15.18 231.71 15.86 231.71C16.54 231.71 17.12 231.95 17.6 232.43C18.08 232.87 18.32 233.43 18.32 234.11C18.32 234.79 18.08 235.37 17.6 235.85C17.12 236.33 16.54 236.57 15.86 236.57ZM45.3045 243.95C49.2245 243.95 52.3245 245.09 54.6045 247.37C56.8845 249.65 58.0245 252.93 58.0245 257.21V275.51H55.0245V257.45C55.0245 253.93 54.1245 251.25 52.3245 249.41C50.5645 247.57 48.0845 246.65 44.8845 246.65C41.2045 246.65 38.3045 247.75 36.1845 249.95C34.0645 252.15 33.0045 255.11 33.0045 258.83V275.51H30.0045V244.19H32.8845V250.97C33.9645 248.77 35.5645 247.05 37.6845 245.81C39.8445 244.57 42.3845 243.95 45.3045 243.95ZM101.326 273.53C100.566 274.25 99.6058 274.81 98.4458 275.21C97.3258 275.57 96.1458 275.75 94.9058 275.75C92.1858 275.75 90.0858 275.01 88.6058 273.53C87.1258 272.01 86.3858 269.91 86.3858 267.23V246.77H80.6258V244.19H86.3858V237.35H89.3858V244.19H99.3458V246.77H89.3858V266.93C89.3858 268.97 89.8658 270.53 90.8258 271.61C91.8258 272.65 93.2858 273.17 95.2058 273.17C97.1658 273.17 98.7858 272.59 100.066 271.43L101.326 273.53ZM120.819 275.75C117.859 275.75 115.179 275.07 112.779 273.71C110.419 272.35 108.559 270.47 107.199 268.07C105.839 265.63 105.159 262.89 105.159 259.85C105.159 256.81 105.839 254.09 107.199 251.69C108.559 249.25 110.419 247.35 112.779 245.99C115.179 244.63 117.859 243.95 120.819 243.95C123.779 243.95 126.439 244.63 128.799 245.99C131.199 247.35 133.079 249.25 134.439 251.69C135.799 254.09 136.479 256.81 136.479 259.85C136.479 262.89 135.799 265.63 134.439 268.07C133.079 270.47 131.199 272.35 128.799 273.71C126.439 275.07 123.779 275.75 120.819 275.75ZM120.819 273.05C123.219 273.05 125.359 272.49 127.239 271.37C129.159 270.25 130.659 268.69 131.739 266.69C132.859 264.69 133.419 262.41 133.419 259.85C133.419 257.29 132.859 255.01 131.739 253.01C130.659 251.01 129.159 249.45 127.239 248.33C125.359 247.21 123.219 246.65 120.819 246.65C118.419 246.65 116.259 247.21 114.339 248.33C112.459 249.45 110.959 251.01 109.839 253.01C108.759 255.01 108.219 257.29 108.219 259.85C108.219 262.41 108.759 264.69 109.839 266.69C110.959 268.69 112.459 270.25 114.339 271.37C116.259 272.49 118.419 273.05 120.819 273.05ZM173.206 244.19V275.51H170.326V268.79C169.286 270.99 167.746 272.71 165.706 273.95C163.666 275.15 161.266 275.75 158.506 275.75C154.426 275.75 151.226 274.61 148.906 272.33C146.586 270.05 145.426 266.77 145.426 262.49V244.19H148.426V262.25C148.426 265.77 149.326 268.45 151.126 270.29C152.926 272.13 155.466 273.05 158.746 273.05C162.266 273.05 165.046 271.95 167.086 269.75C169.166 267.55 170.206 264.59 170.206 260.87V244.19H173.206ZM198.343 275.75C195.303 275.75 192.583 275.07 190.183 273.71C187.783 272.35 185.903 270.47 184.543 268.07C183.183 265.63 182.503 262.89 182.503 259.85C182.503 256.77 183.183 254.03 184.543 251.63C185.903 249.19 187.783 247.31 190.183 245.99C192.583 244.63 195.303 243.95 198.343 243.95C200.863 243.95 203.143 244.45 205.183 245.45C207.263 246.41 208.943 247.83 210.223 249.71L208.003 251.33C206.883 249.77 205.483 248.61 203.803 247.85C202.163 247.05 200.343 246.65 198.343 246.65C195.903 246.65 193.703 247.21 191.743 248.33C189.823 249.41 188.303 250.95 187.183 252.95C186.103 254.95 185.563 257.25 185.563 259.85C185.563 262.45 186.103 264.75 187.183 266.75C188.303 268.75 189.823 270.31 191.743 271.43C193.703 272.51 195.903 273.05 198.343 273.05C200.343 273.05 202.163 272.67 203.803 271.91C205.483 271.11 206.883 269.93 208.003 268.37L210.223 269.99C208.943 271.87 207.263 273.31 205.183 274.31C203.143 275.27 200.863 275.75 198.343 275.75ZM233.976 243.95C237.896 243.95 240.996 245.09 243.276 247.37C245.556 249.65 246.696 252.93 246.696 257.21V275.51H243.696V257.45C243.696 253.93 242.796 251.25 240.996 249.41C239.236 247.57 236.756 246.65 233.556 246.65C229.876 246.65 226.976 247.75 224.856 249.95C222.736 252.15 221.676 255.11 221.676 258.83V275.51H218.676V230.99H221.676V250.73C222.756 248.57 224.356 246.91 226.476 245.75C228.596 244.55 231.096 243.95 233.976 243.95ZM258.508 233.51H261.988L261.388 263.45H259.108L258.508 233.51ZM260.248 275.75C259.568 275.75 258.988 275.51 258.508 275.03C258.028 274.55 257.788 273.97 257.788 273.29C257.788 272.61 258.028 272.03 258.508 271.55C258.988 271.07 259.568 270.83 260.248 270.83C260.968 270.83 261.568 271.07 262.048 271.55C262.528 272.03 262.768 272.61 262.768 273.29C262.768 273.97 262.528 274.55 262.048 275.03C261.568 275.51 260.968 275.75 260.248 275.75Z" fill="#FFE0C4"/>
</svg>
