<svg width="500" height="909" viewBox="0 0 500 909" fill="none" xmlns="http://www.w3.org/2000/svg">
<rect y="276" width="500" height="391" fill="#0A5A55" fill-opacity="0.5"/>
<path d="M20 270C20 270 25.52 18.0119 250.46 20.0118C475.4 22.0117 480 270 480 270" stroke="#0A5A55" stroke-opacity="0.5" stroke-width="40"/>
<path d="M268 849H257L257 476.5C257 473.462 259.462 471 262.5 471V471C265.538 471 268 473.462 268 476.5L268 849Z" fill="#0A5A55"/>
<path d="M231 495C231 493.895 231.895 493 233 493H258V512H233C231.895 512 231 511.105 231 510V495Z" fill="#0A5A55"/>
<path d="M229 533C229 531.895 229.895 531 231 531H264V544H231C229.895 544 229 543.105 229 542V533Z" fill="#0A5A55"/>
<path d="M239 495C239 493.895 239.895 493 241 493H262V544H241C239.895 544 239 543.105 239 542V495Z" fill="#0A5A55"/>
<path d="M308.5 875.5C308.5 882.768 304.059 889.908 295.721 895.438C287.418 900.947 275.685 904.5 262.5 904.5C249.315 904.5 237.582 900.947 229.279 895.438C220.941 889.908 216.5 882.768 216.5 875.5C216.5 868.232 220.941 861.092 229.279 855.562C237.582 850.053 249.315 846.5 262.5 846.5C275.685 846.5 287.418 850.053 295.721 855.562C304.059 861.092 308.5 868.232 308.5 875.5Z" stroke="#0A5A55" stroke-width="9"/>
</svg>
