<svg width="1474" height="525" viewBox="0 0 1474 525" fill="none" xmlns="http://www.w3.org/2000/svg">
<path d="M1467.2 252L1418.8 183.968" stroke="#FFE0C4" stroke-width="10"/>
<path d="M1419.27 182.573L1469.1 117" stroke="#FFE0C4" stroke-width="10"/>
<path d="M1277 184C1277 282.771 1195.38 363 1094.5 363C993.619 363 912 282.771 912 184C912 85.2294 993.619 5 1094.5 5C1195.38 5 1277 85.2294 1277 184Z" stroke="#FFE0C4" stroke-width="10"/>
<path d="M928 184H1449" stroke="#FFE0C4" stroke-width="10"/>
<path d="M1000.92 231.914L927.529 186.156" stroke="#FFE0C4" stroke-width="10"/>
<path d="M1000.92 135.04L927.529 180.798" stroke="#FFE0C4" stroke-width="10"/>
<path d="M1367.78 182.295L1414.39 116.892" stroke="#FFE0C4" stroke-width="10"/>
<path d="M1391.08 183.687L1440.44 115.5" stroke="#FFE0C4" stroke-width="10"/>
<path d="M1413.02 251.874L1366.41 184.018" stroke="#FFE0C4" stroke-width="10"/>
<path d="M1438.61 251.542L1392 183.687" stroke="#FFE0C4" stroke-width="10"/>
<path d="M925.256 177.146L931 177V190L925.256 189.675L915 183.094L925.256 177.146Z" fill="#FFE0C4"/>
<path d="M85.96 272.68C71.4 272.68 57.4 270.347 43.96 265.68C30.7067 261.013 20.44 254.853 13.16 247.2L21.28 231.24C28.3733 238.333 37.8 244.12 49.56 248.6C61.32 252.893 73.4533 255.04 85.96 255.04C103.507 255.04 116.667 251.867 125.44 245.52C134.213 238.987 138.6 230.587 138.6 220.32C138.6 212.48 136.173 206.227 131.32 201.56C126.653 196.893 120.867 193.347 113.96 190.92C107.053 188.307 97.44 185.507 85.12 182.52C70.3733 178.787 58.6133 175.24 49.84 171.88C41.0667 168.333 33.5067 163.013 27.16 155.92C21 148.827 17.92 139.213 17.92 127.08C17.92 117.187 20.5333 108.227 25.76 100.2C30.9867 91.9867 39.0133 85.4533 49.84 80.6C60.6667 75.7467 74.1067 73.32 90.16 73.32C101.36 73.32 112.28 74.9067 122.92 78.08C133.747 81.0667 143.08 85.2667 150.92 90.68L143.92 107.2C135.707 101.787 126.933 97.7733 117.6 95.16C108.267 92.36 99.12 90.96 90.16 90.96C72.9867 90.96 60.0133 94.32 51.24 101.04C42.6533 107.573 38.36 116.067 38.36 126.52C38.36 134.36 40.6933 140.707 45.36 145.56C50.2133 150.227 56.1867 153.867 63.28 156.48C70.56 158.907 80.2667 161.613 92.4 164.6C106.773 168.147 118.347 171.693 127.12 175.24C136.08 178.6 143.64 183.827 149.8 190.92C155.96 197.827 159.04 207.253 159.04 219.2C159.04 229.093 156.333 238.147 150.92 246.36C145.693 254.387 137.573 260.827 126.56 265.68C115.547 270.347 102.013 272.68 85.96 272.68ZM199.986 123.72H219.866V271H199.986V123.72ZM210.066 91.52C205.959 91.52 202.506 90.12 199.706 87.32C196.906 84.52 195.506 81.16 195.506 77.24C195.506 73.5067 196.906 70.24 199.706 67.44C202.506 64.64 205.959 63.24 210.066 63.24C214.172 63.24 217.626 64.64 220.426 67.44C223.226 70.0533 224.626 73.2267 224.626 76.96C224.626 81.0667 223.226 84.52 220.426 87.32C217.626 90.12 214.172 91.52 210.066 91.52ZM411.541 123.72V253.08C411.541 278.093 405.381 296.573 393.061 308.52C380.928 320.653 362.541 326.72 337.901 326.72C324.274 326.72 311.301 324.667 298.981 320.56C286.848 316.64 276.954 311.133 269.301 304.04L279.381 288.92C286.474 295.267 295.061 300.213 305.141 303.76C315.408 307.307 326.141 309.08 337.341 309.08C356.008 309.08 369.728 304.693 378.501 295.92C387.274 287.333 391.661 273.893 391.661 255.6V236.84C385.501 246.173 377.381 253.267 367.301 258.12C357.408 262.973 346.394 265.4 334.261 265.4C320.448 265.4 307.848 262.413 296.461 256.44C285.261 250.28 276.394 241.787 269.861 230.96C263.514 219.947 260.341 207.533 260.341 193.72C260.341 179.907 263.514 167.587 269.861 156.76C276.394 145.933 285.261 137.533 296.461 131.56C307.661 125.587 320.261 122.6 334.261 122.6C346.768 122.6 358.061 125.12 368.141 130.16C378.221 135.2 386.341 142.48 392.501 152V123.72H411.541ZM336.221 247.76C346.861 247.76 356.474 245.52 365.061 241.04C373.648 236.373 380.274 229.933 384.941 221.72C389.794 213.507 392.221 204.173 392.221 193.72C392.221 183.267 389.794 174.027 384.941 166C380.274 157.787 373.648 151.44 365.061 146.96C356.661 142.293 347.048 139.96 336.221 139.96C325.581 139.96 315.968 142.2 307.381 146.68C298.981 151.16 292.354 157.507 287.501 165.72C282.834 173.933 280.501 183.267 280.501 193.72C280.501 204.173 282.834 213.507 287.501 221.72C292.354 229.933 298.981 236.373 307.381 241.04C315.968 245.52 325.581 247.76 336.221 247.76ZM486.174 152.56C490.841 142.667 497.747 135.2 506.894 130.16C516.227 125.12 527.707 122.6 541.334 122.6V141.92L536.574 141.64C521.081 141.64 508.947 146.4 500.174 155.92C491.401 165.44 487.014 178.787 487.014 195.96V271H467.134V123.72H486.174V152.56ZM704.202 203.52H581.002C582.122 218.827 588.002 231.24 598.642 240.76C609.282 250.093 622.722 254.76 638.962 254.76C648.109 254.76 656.509 253.173 664.162 250C671.816 246.64 678.442 241.787 684.042 235.44L695.242 248.32C688.709 256.16 680.496 262.133 670.602 266.24C660.896 270.347 650.162 272.4 638.402 272.4C623.282 272.4 609.842 269.227 598.082 262.88C586.509 256.347 577.456 247.387 570.922 236C564.389 224.613 561.122 211.733 561.122 197.36C561.122 182.987 564.202 170.107 570.362 158.72C576.709 147.333 585.296 138.467 596.122 132.12C607.136 125.773 619.456 122.6 633.082 122.6C646.709 122.6 658.936 125.773 669.762 132.12C680.589 138.467 689.082 147.333 695.242 158.72C701.402 169.92 704.482 182.8 704.482 197.36L704.202 203.52ZM633.082 139.68C618.896 139.68 606.949 144.253 597.242 153.4C587.722 162.36 582.309 174.12 581.002 188.68H685.442C684.136 174.12 678.629 162.36 668.922 153.4C659.402 144.253 647.456 139.68 633.082 139.68ZM879.347 63.24V271H860.307V241.88C854.333 251.773 846.4 259.333 836.507 264.56C826.8 269.787 815.787 272.4 803.467 272.4C789.653 272.4 777.147 269.227 765.947 262.88C754.747 256.533 745.973 247.667 739.627 236.28C733.28 224.893 730.107 211.92 730.107 197.36C730.107 182.8 733.28 169.827 739.627 158.44C745.973 147.053 754.747 138.28 765.947 132.12C777.147 125.773 789.653 122.6 803.467 122.6C815.413 122.6 826.147 125.12 835.667 130.16C845.373 135.013 853.307 142.2 859.467 151.72V63.24H879.347ZM805.147 254.76C815.413 254.76 824.653 252.427 832.867 247.76C841.267 242.907 847.8 236.093 852.467 227.32C857.32 218.547 859.747 208.56 859.747 197.36C859.747 186.16 857.32 176.173 852.467 167.4C847.8 158.627 841.267 151.907 832.867 147.24C824.653 142.387 815.413 139.96 805.147 139.96C794.693 139.96 785.267 142.387 776.867 147.24C768.653 151.907 762.12 158.627 757.267 167.4C752.6 176.173 750.267 186.16 750.267 197.36C750.267 208.56 752.6 218.547 757.267 227.32C762.12 236.093 768.653 242.907 776.867 247.76C785.267 252.427 794.693 254.76 805.147 254.76Z" fill="#FFE0C4"/>
<path d="M189.192 479.625C183.859 479.625 178.734 478.875 173.817 477.375C168.984 475.792 165.192 473.833 162.442 471.5L166.442 464.5C169.192 466.667 172.651 468.458 176.817 469.875C180.984 471.208 185.317 471.875 189.817 471.875C195.817 471.875 200.234 470.958 203.067 469.125C205.984 467.208 207.442 464.542 207.442 461.125C207.442 458.708 206.651 456.833 205.067 455.5C203.484 454.083 201.484 453.042 199.067 452.375C196.651 451.625 193.442 450.917 189.442 450.25C184.109 449.25 179.817 448.25 176.567 447.25C173.317 446.167 170.526 444.375 168.192 441.875C165.942 439.375 164.817 435.917 164.817 431.5C164.817 426 167.109 421.5 171.692 418C176.276 414.5 182.651 412.75 190.817 412.75C195.067 412.75 199.317 413.333 203.567 414.5C207.817 415.583 211.317 417.042 214.067 418.875L210.192 426C204.776 422.25 198.317 420.375 190.817 420.375C185.151 420.375 180.859 421.375 177.942 423.375C175.109 425.375 173.692 428 173.692 431.25C173.692 433.75 174.484 435.75 176.067 437.25C177.734 438.75 179.776 439.875 182.192 440.625C184.609 441.292 187.942 442 192.192 442.75C197.442 443.75 201.651 444.75 204.817 445.75C207.984 446.75 210.692 448.458 212.942 450.875C215.192 453.292 216.317 456.625 216.317 460.875C216.317 466.625 213.901 471.208 209.067 474.625C204.317 477.958 197.692 479.625 189.192 479.625ZM255.725 412.75C264.308 412.75 270.891 414.917 275.475 419.25C280.058 423.5 282.35 429.833 282.35 438.25V479H273.85V468.75C271.85 472.167 268.891 474.833 264.975 476.75C261.141 478.667 256.558 479.625 251.225 479.625C243.891 479.625 238.058 477.875 233.725 474.375C229.391 470.875 227.225 466.25 227.225 460.5C227.225 454.917 229.225 450.417 233.225 447C237.308 443.583 243.766 441.875 252.6 441.875H273.475V437.875C273.475 432.208 271.891 427.917 268.725 425C265.558 422 260.933 420.5 254.85 420.5C250.683 420.5 246.683 421.208 242.85 422.625C239.016 423.958 235.725 425.833 232.975 428.25L228.975 421.625C232.308 418.792 236.308 416.625 240.975 415.125C245.641 413.542 250.558 412.75 255.725 412.75ZM252.6 472.625C257.6 472.625 261.891 471.5 265.475 469.25C269.058 466.917 271.725 463.583 273.475 459.25V448.5H252.85C241.6 448.5 235.975 452.417 235.975 460.25C235.975 464.083 237.433 467.125 240.35 469.375C243.266 471.542 247.35 472.625 252.6 472.625ZM328.205 393.125C324.372 393.125 321.455 394.167 319.455 396.25C317.538 398.333 316.58 401.417 316.58 405.5V413.25H336.83V420.75H316.83V479H307.955V420.75H296.205V413.25H307.955V405.125C307.955 399.125 309.663 394.375 313.08 390.875C316.58 387.375 321.497 385.625 327.83 385.625C330.33 385.625 332.747 386 335.08 386.75C337.413 387.417 339.372 388.417 340.955 389.75L337.955 396.375C335.372 394.208 332.122 393.125 328.205 393.125ZM404.965 448.875H349.965C350.465 455.708 353.09 461.25 357.84 465.5C362.59 469.667 368.59 471.75 375.84 471.75C379.923 471.75 383.673 471.042 387.09 469.625C390.507 468.125 393.465 465.958 395.965 463.125L400.965 468.875C398.048 472.375 394.382 475.042 389.965 476.875C385.632 478.708 380.84 479.625 375.59 479.625C368.84 479.625 362.84 478.208 357.59 475.375C352.423 472.458 348.382 468.458 345.465 463.375C342.548 458.292 341.09 452.542 341.09 446.125C341.09 439.708 342.465 433.958 345.215 428.875C348.048 423.792 351.882 419.833 356.715 417C361.632 414.167 367.132 412.75 373.215 412.75C379.298 412.75 384.757 414.167 389.59 417C394.423 419.833 398.215 423.792 400.965 428.875C403.715 433.875 405.09 439.625 405.09 446.125L404.965 448.875ZM373.215 420.375C366.882 420.375 361.548 422.417 357.215 426.5C352.965 430.5 350.548 435.75 349.965 442.25H396.59C396.007 435.75 393.548 430.5 389.215 426.5C384.965 422.417 379.632 420.375 373.215 420.375ZM423.154 386.25H432.029V479H423.154V386.25ZM511.974 413.25L479.099 486.875C476.432 493.042 473.349 497.417 469.849 500C466.349 502.583 462.14 503.875 457.224 503.875C454.057 503.875 451.099 503.375 448.349 502.375C445.599 501.375 443.224 499.875 441.224 497.875L445.349 491.25C448.682 494.583 452.682 496.25 457.349 496.25C460.349 496.25 462.89 495.417 464.974 493.75C467.14 492.083 469.14 489.25 470.974 485.25L473.849 478.875L444.474 413.25H453.724L478.474 469.125L503.224 413.25H511.974ZM521.075 479.625C519.242 479.625 517.659 478.958 516.325 477.625C515.075 476.292 514.45 474.667 514.45 472.75C514.45 470.833 515.075 469.25 516.325 468C517.659 466.667 519.242 466 521.075 466C522.909 466 524.492 466.667 525.825 468C527.159 469.25 527.825 470.833 527.825 472.75C527.825 474.667 527.159 476.292 525.825 477.625C524.492 478.958 522.909 479.625 521.075 479.625ZM597.029 479.625C591.696 479.625 586.571 478.875 581.654 477.375C576.821 475.792 573.029 473.833 570.279 471.5L574.279 464.5C577.029 466.667 580.488 468.458 584.654 469.875C588.821 471.208 593.154 471.875 597.654 471.875C603.654 471.875 608.071 470.958 610.904 469.125C613.821 467.208 615.279 464.542 615.279 461.125C615.279 458.708 614.488 456.833 612.904 455.5C611.321 454.083 609.321 453.042 606.904 452.375C604.488 451.625 601.279 450.917 597.279 450.25C591.946 449.25 587.654 448.25 584.404 447.25C581.154 446.167 578.363 444.375 576.029 441.875C573.779 439.375 572.654 435.917 572.654 431.5C572.654 426 574.946 421.5 579.529 418C584.113 414.5 590.488 412.75 598.654 412.75C602.904 412.75 607.154 413.333 611.404 414.5C615.654 415.583 619.154 417.042 621.904 418.875L618.029 426C612.613 422.25 606.154 420.375 598.654 420.375C592.988 420.375 588.696 421.375 585.779 423.375C582.946 425.375 581.529 428 581.529 431.25C581.529 433.75 582.321 435.75 583.904 437.25C585.571 438.75 587.613 439.875 590.029 440.625C592.446 441.292 595.779 442 600.029 442.75C605.279 443.75 609.488 444.75 612.654 445.75C615.821 446.75 618.529 448.458 620.779 450.875C623.029 453.292 624.154 456.625 624.154 460.875C624.154 466.625 621.738 471.208 616.904 474.625C612.154 477.958 605.529 479.625 597.029 479.625ZM640.562 413.25H649.437V479H640.562V413.25ZM645.062 398.875C643.228 398.875 641.687 398.25 640.437 397C639.187 395.75 638.562 394.25 638.562 392.5C638.562 390.833 639.187 389.375 640.437 388.125C641.687 386.875 643.228 386.25 645.062 386.25C646.895 386.25 648.437 386.875 649.687 388.125C650.937 389.292 651.562 390.708 651.562 392.375C651.562 394.208 650.937 395.75 649.687 397C648.437 398.25 646.895 398.875 645.062 398.875ZM756.131 412.75C764.381 412.75 770.839 415.125 775.506 419.875C780.256 424.625 782.631 431.625 782.631 440.875V479H773.756V441.75C773.756 434.917 772.089 429.708 768.756 426.125C765.506 422.542 760.881 420.75 754.881 420.75C748.048 420.75 742.673 422.875 738.756 427.125C734.839 431.292 732.881 437.083 732.881 444.5V479H724.006V441.75C724.006 434.917 722.339 429.708 719.006 426.125C715.756 422.542 711.089 420.75 705.006 420.75C698.256 420.75 692.881 422.875 688.881 427.125C684.964 431.292 683.006 437.083 683.006 444.5V479H674.131V413.25H682.631V425.25C684.964 421.25 688.214 418.167 692.381 416C696.548 413.833 701.339 412.75 706.756 412.75C712.256 412.75 717.006 413.917 721.006 416.25C725.089 418.583 728.131 422.042 730.131 426.625C732.548 422.292 736.006 418.917 740.506 416.5C745.089 414 750.298 412.75 756.131 412.75ZM840.574 412.75C846.741 412.75 852.324 414.167 857.324 417C862.324 419.75 866.241 423.667 869.074 428.75C871.908 433.833 873.324 439.625 873.324 446.125C873.324 452.708 871.908 458.542 869.074 463.625C866.241 468.708 862.324 472.667 857.324 475.5C852.408 478.25 846.824 479.625 840.574 479.625C835.241 479.625 830.408 478.542 826.074 476.375C821.824 474.125 818.324 470.875 815.574 466.625V503.25H806.699V413.25H815.199V426.25C817.866 421.917 821.366 418.583 825.699 416.25C830.116 413.917 835.074 412.75 840.574 412.75ZM839.949 471.75C844.533 471.75 848.699 470.708 852.449 468.625C856.199 466.458 859.116 463.417 861.199 459.5C863.366 455.583 864.449 451.125 864.449 446.125C864.449 441.125 863.366 436.708 861.199 432.875C859.116 428.958 856.199 425.917 852.449 423.75C848.699 421.583 844.533 420.5 839.949 420.5C835.283 420.5 831.074 421.583 827.324 423.75C823.658 425.917 820.741 428.958 818.574 432.875C816.491 436.708 815.449 441.125 815.449 446.125C815.449 451.125 816.491 455.583 818.574 459.5C820.741 463.417 823.658 466.458 827.324 468.625C831.074 470.708 835.283 471.75 839.949 471.75ZM891.416 386.25H900.291V479H891.416V386.25ZM980.235 413.25L947.36 486.875C944.694 493.042 941.61 497.417 938.11 500C934.61 502.583 930.402 503.875 925.485 503.875C922.319 503.875 919.36 503.375 916.61 502.375C913.86 501.375 911.485 499.875 909.485 497.875L913.61 491.25C916.944 494.583 920.944 496.25 925.61 496.25C928.61 496.25 931.152 495.417 933.235 493.75C935.402 492.083 937.402 489.25 939.235 485.25L942.11 478.875L912.735 413.25H921.985L946.735 469.125L971.485 413.25H980.235ZM989.337 479.625C987.504 479.625 985.92 478.958 984.587 477.625C983.337 476.292 982.712 474.667 982.712 472.75C982.712 470.833 983.337 469.25 984.587 468C985.92 466.667 987.504 466 989.337 466C991.17 466 992.754 466.667 994.087 468C995.42 469.25 996.087 470.833 996.087 472.75C996.087 474.667 995.42 476.292 994.087 477.625C992.754 478.958 991.17 479.625 989.337 479.625ZM1069.42 393.125C1065.58 393.125 1062.67 394.167 1060.67 396.25C1058.75 398.333 1057.79 401.417 1057.79 405.5V413.25H1078.04V420.75H1058.04V479H1049.17V420.75H1037.42V413.25H1049.17V405.125C1049.17 399.125 1050.87 394.375 1054.29 390.875C1057.79 387.375 1062.71 385.625 1069.04 385.625C1071.54 385.625 1073.96 386 1076.29 386.75C1078.62 387.417 1080.58 388.417 1082.17 389.75L1079.17 396.375C1076.58 394.208 1073.33 393.125 1069.42 393.125ZM1111.8 412.75C1120.39 412.75 1126.97 414.917 1131.55 419.25C1136.14 423.5 1138.43 429.833 1138.43 438.25V479H1129.93V468.75C1127.93 472.167 1124.97 474.833 1121.05 476.75C1117.22 478.667 1112.64 479.625 1107.3 479.625C1099.97 479.625 1094.14 477.875 1089.8 474.375C1085.47 470.875 1083.3 466.25 1083.3 460.5C1083.3 454.917 1085.3 450.417 1089.3 447C1093.39 443.583 1099.85 441.875 1108.68 441.875H1129.55V437.875C1129.55 432.208 1127.97 427.917 1124.8 425C1121.64 422 1117.01 420.5 1110.93 420.5C1106.76 420.5 1102.76 421.208 1098.93 422.625C1095.1 423.958 1091.8 425.833 1089.05 428.25L1085.05 421.625C1088.39 418.792 1092.39 416.625 1097.05 415.125C1101.72 413.542 1106.64 412.75 1111.8 412.75ZM1108.68 472.625C1113.68 472.625 1117.97 471.5 1121.55 469.25C1125.14 466.917 1127.8 463.583 1129.55 459.25V448.5H1108.93C1097.68 448.5 1092.05 452.417 1092.05 460.25C1092.05 464.083 1093.51 467.125 1096.43 469.375C1099.35 471.542 1103.43 472.625 1108.68 472.625ZM1180.16 479.625C1174.83 479.625 1169.7 478.875 1164.78 477.375C1159.95 475.792 1156.16 473.833 1153.41 471.5L1157.41 464.5C1160.16 466.667 1163.62 468.458 1167.78 469.875C1171.95 471.208 1176.28 471.875 1180.78 471.875C1186.78 471.875 1191.2 470.958 1194.03 469.125C1196.95 467.208 1198.41 464.542 1198.41 461.125C1198.41 458.708 1197.62 456.833 1196.03 455.5C1194.45 454.083 1192.45 453.042 1190.03 452.375C1187.62 451.625 1184.41 450.917 1180.41 450.25C1175.08 449.25 1170.78 448.25 1167.53 447.25C1164.28 446.167 1161.49 444.375 1159.16 441.875C1156.91 439.375 1155.78 435.917 1155.78 431.5C1155.78 426 1158.08 421.5 1162.66 418C1167.24 414.5 1173.62 412.75 1181.78 412.75C1186.03 412.75 1190.28 413.333 1194.53 414.5C1198.78 415.583 1202.28 417.042 1205.03 418.875L1201.16 426C1195.74 422.25 1189.28 420.375 1181.78 420.375C1176.12 420.375 1171.83 421.375 1168.91 423.375C1166.08 425.375 1164.66 428 1164.66 431.25C1164.66 433.75 1165.45 435.75 1167.03 437.25C1168.7 438.75 1170.74 439.875 1173.16 440.625C1175.58 441.292 1178.91 442 1183.16 442.75C1188.41 443.75 1192.62 444.75 1195.78 445.75C1198.95 446.75 1201.66 448.458 1203.91 450.875C1206.16 453.292 1207.28 456.625 1207.28 460.875C1207.28 466.625 1204.87 471.208 1200.03 474.625C1195.28 477.958 1188.66 479.625 1180.16 479.625ZM1258.32 475C1256.65 476.5 1254.57 477.667 1252.07 478.5C1249.65 479.25 1247.11 479.625 1244.44 479.625C1238.27 479.625 1233.52 477.958 1230.19 474.625C1226.86 471.292 1225.19 466.583 1225.19 460.5V420.75H1213.44V413.25H1225.19V398.875H1234.07V413.25H1254.07V420.75H1234.07V460C1234.07 463.917 1235.02 466.917 1236.94 469C1238.94 471 1241.77 472 1245.44 472C1247.27 472 1249.02 471.708 1250.69 471.125C1252.44 470.542 1253.94 469.708 1255.19 468.625L1258.32 475ZM1276.57 479.625C1274.74 479.625 1273.15 478.958 1271.82 477.625C1270.57 476.292 1269.94 474.667 1269.94 472.75C1269.94 470.833 1270.57 469.25 1271.82 468C1273.15 466.667 1274.74 466 1276.57 466C1278.4 466 1279.99 466.667 1281.32 468C1282.65 469.25 1283.32 470.833 1283.32 472.75C1283.32 474.667 1282.65 476.292 1281.32 477.625C1279.99 478.958 1278.4 479.625 1276.57 479.625Z" fill="#FFE0C4"/>
</svg>
