<svg width="1783" height="766" viewBox="0 0 1783 766" fill="none" xmlns="http://www.w3.org/2000/svg">
<rect width="1783" height="766" fill="#0A5A55"/>
<path d="M1616.2 450.52L1567.8 382.618" stroke="#FFE0C4" stroke-width="10"/>
<path d="M1568.27 381.225L1618.1 315.777" stroke="#FFE0C4" stroke-width="10"/>
<path d="M1426 382.65C1426 481.218 1344.39 561.299 1243.5 561.299C1142.61 561.299 1061 481.218 1061 382.65C1061 284.081 1142.61 204 1243.5 204C1344.39 204 1426 284.081 1426 382.65Z" stroke="#FFE0C4" stroke-width="10"/>
<path d="M1077 382.649H1598" stroke="#FFE0C4" stroke-width="10"/>
<path d="M1149.92 430.472L1076.53 384.802" stroke="#FFE0C4" stroke-width="10"/>
<path d="M1149.92 333.783L1076.53 379.454" stroke="#FFE0C4" stroke-width="10"/>
<path d="M1516.78 380.948L1563.39 315.669" stroke="#FFE0C4" stroke-width="10"/>
<path d="M1540.08 382.337L1589.44 314.28" stroke="#FFE0C4" stroke-width="10"/>
<path d="M1562.02 450.394L1515.41 382.667" stroke="#FFE0C4" stroke-width="10"/>
<path d="M1587.61 450.063L1541 382.337" stroke="#FFE0C4" stroke-width="10"/>
<path d="M1074.26 375.809L1080 375.663V388.638L1074.26 388.314L1064 381.745L1074.26 375.809Z" fill="#FFE0C4"/>
<path d="M234.96 471.68C220.4 471.68 206.4 469.347 192.96 464.68C179.707 460.013 169.44 453.853 162.16 446.2L170.28 430.24C177.373 437.333 186.8 443.12 198.56 447.6C210.32 451.893 222.453 454.04 234.96 454.04C252.507 454.04 265.667 450.867 274.44 444.52C283.213 437.987 287.6 429.587 287.6 419.32C287.6 411.48 285.173 405.227 280.32 400.56C275.653 395.893 269.867 392.347 262.96 389.92C256.053 387.307 246.44 384.507 234.12 381.52C219.373 377.787 207.613 374.24 198.84 370.88C190.067 367.333 182.507 362.013 176.16 354.92C170 347.827 166.92 338.213 166.92 326.08C166.92 316.187 169.533 307.227 174.76 299.2C179.987 290.987 188.013 284.453 198.84 279.6C209.667 274.747 223.107 272.32 239.16 272.32C250.36 272.32 261.28 273.907 271.92 277.08C282.747 280.067 292.08 284.267 299.92 289.68L292.92 306.2C284.707 300.787 275.933 296.773 266.6 294.16C257.267 291.36 248.12 289.96 239.16 289.96C221.987 289.96 209.013 293.32 200.24 300.04C191.653 306.573 187.36 315.067 187.36 325.52C187.36 333.36 189.693 339.707 194.36 344.56C199.213 349.227 205.187 352.867 212.28 355.48C219.56 357.907 229.267 360.613 241.4 363.6C255.773 367.147 267.347 370.693 276.12 374.24C285.08 377.6 292.64 382.827 298.8 389.92C304.96 396.827 308.04 406.253 308.04 418.2C308.04 428.093 305.333 437.147 299.92 445.36C294.693 453.387 286.573 459.827 275.56 464.68C264.547 469.347 251.013 471.68 234.96 471.68ZM348.986 322.72H368.866V470H348.986V322.72ZM359.066 290.52C354.959 290.52 351.506 289.12 348.706 286.32C345.906 283.52 344.506 280.16 344.506 276.24C344.506 272.507 345.906 269.24 348.706 266.44C351.506 263.64 354.959 262.24 359.066 262.24C363.172 262.24 366.626 263.64 369.426 266.44C372.226 269.053 373.626 272.227 373.626 275.96C373.626 280.067 372.226 283.52 369.426 286.32C366.626 289.12 363.172 290.52 359.066 290.52ZM560.541 322.72V452.08C560.541 477.093 554.381 495.573 542.061 507.52C529.928 519.653 511.541 525.72 486.901 525.72C473.274 525.72 460.301 523.667 447.981 519.56C435.848 515.64 425.954 510.133 418.301 503.04L428.381 487.92C435.474 494.267 444.061 499.213 454.141 502.76C464.408 506.307 475.141 508.08 486.341 508.08C505.008 508.08 518.728 503.693 527.501 494.92C536.274 486.333 540.661 472.893 540.661 454.6V435.84C534.501 445.173 526.381 452.267 516.301 457.12C506.408 461.973 495.394 464.4 483.261 464.4C469.448 464.4 456.848 461.413 445.461 455.44C434.261 449.28 425.394 440.787 418.861 429.96C412.514 418.947 409.341 406.533 409.341 392.72C409.341 378.907 412.514 366.587 418.861 355.76C425.394 344.933 434.261 336.533 445.461 330.56C456.661 324.587 469.261 321.6 483.261 321.6C495.768 321.6 507.061 324.12 517.141 329.16C527.221 334.2 535.341 341.48 541.501 351V322.72H560.541ZM485.221 446.76C495.861 446.76 505.474 444.52 514.061 440.04C522.648 435.373 529.274 428.933 533.941 420.72C538.794 412.507 541.221 403.173 541.221 392.72C541.221 382.267 538.794 373.027 533.941 365C529.274 356.787 522.648 350.44 514.061 345.96C505.661 341.293 496.048 338.96 485.221 338.96C474.581 338.96 464.968 341.2 456.381 345.68C447.981 350.16 441.354 356.507 436.501 364.72C431.834 372.933 429.501 382.267 429.501 392.72C429.501 403.173 431.834 412.507 436.501 420.72C441.354 428.933 447.981 435.373 456.381 440.04C464.968 444.52 474.581 446.76 485.221 446.76ZM635.174 351.56C639.841 341.667 646.747 334.2 655.894 329.16C665.227 324.12 676.707 321.6 690.334 321.6V340.92L685.574 340.64C670.081 340.64 657.947 345.4 649.174 354.92C640.401 364.44 636.014 377.787 636.014 394.96V470H616.134V322.72H635.174V351.56ZM853.202 402.52H730.002C731.122 417.827 737.002 430.24 747.642 439.76C758.282 449.093 771.722 453.76 787.962 453.76C797.109 453.76 805.509 452.173 813.162 449C820.816 445.64 827.442 440.787 833.042 434.44L844.242 447.32C837.709 455.16 829.496 461.133 819.602 465.24C809.896 469.347 799.162 471.4 787.402 471.4C772.282 471.4 758.842 468.227 747.082 461.88C735.509 455.347 726.456 446.387 719.922 435C713.389 423.613 710.122 410.733 710.122 396.36C710.122 381.987 713.202 369.107 719.362 357.72C725.709 346.333 734.296 337.467 745.122 331.12C756.136 324.773 768.456 321.6 782.082 321.6C795.709 321.6 807.936 324.773 818.762 331.12C829.589 337.467 838.082 346.333 844.242 357.72C850.402 368.92 853.482 381.8 853.482 396.36L853.202 402.52ZM782.082 338.68C767.896 338.68 755.949 343.253 746.242 352.4C736.722 361.36 731.309 373.12 730.002 387.68H834.442C833.136 373.12 827.629 361.36 817.922 352.4C808.402 343.253 796.456 338.68 782.082 338.68ZM1028.35 262.24V470H1009.31V440.88C1003.33 450.773 995.4 458.333 985.507 463.56C975.8 468.787 964.787 471.4 952.467 471.4C938.653 471.4 926.147 468.227 914.947 461.88C903.747 455.533 894.973 446.667 888.627 435.28C882.28 423.893 879.107 410.92 879.107 396.36C879.107 381.8 882.28 368.827 888.627 357.44C894.973 346.053 903.747 337.28 914.947 331.12C926.147 324.773 938.653 321.6 952.467 321.6C964.413 321.6 975.147 324.12 984.667 329.16C994.373 334.013 1002.31 341.2 1008.47 350.72V262.24H1028.35ZM954.147 453.76C964.413 453.76 973.653 451.427 981.867 446.76C990.267 441.907 996.8 435.093 1001.47 426.32C1006.32 417.547 1008.75 407.56 1008.75 396.36C1008.75 385.16 1006.32 375.173 1001.47 366.4C996.8 357.627 990.267 350.907 981.867 346.24C973.653 341.387 964.413 338.96 954.147 338.96C943.693 338.96 934.267 341.387 925.867 346.24C917.653 350.907 911.12 357.627 906.267 366.4C901.6 375.173 899.267 385.16 899.267 396.36C899.267 407.56 901.6 417.547 906.267 426.32C911.12 435.093 917.653 441.907 925.867 446.76C934.267 451.427 943.693 453.76 954.147 453.76Z" fill="#FFE0C4"/>
</svg>
