<svg width="62" height="61" viewBox="0 0 62 61" fill="none" xmlns="http://www.w3.org/2000/svg">
<rect y="30" width="31" height="31" fill="#0A5A55"/>
<ellipse cx="31" cy="30.5" rx="31" ry="30.5" fill="#0A5A55"/>
<path d="M15.8906 31.7266C15.8906 30.9766 16.1094 30.3516 16.5469 29.8516C17 29.3516 17.6719 29.1016 18.5625 29.1016C19.4531 29.1016 20.125 29.3516 20.5781 29.8516C21.0469 30.3516 21.2812 30.9766 21.2812 31.7266C21.2812 32.4453 21.0469 33.0469 20.5781 33.5312C20.125 34.0156 19.4531 34.2578 18.5625 34.2578C17.6719 34.2578 17 34.0156 16.5469 33.5312C16.1094 33.0469 15.8906 32.4453 15.8906 31.7266ZM28.5469 31.7266C28.5469 30.9766 28.7656 30.3516 29.2031 29.8516C29.6562 29.3516 30.3281 29.1016 31.2188 29.1016C32.1094 29.1016 32.7812 29.3516 33.2344 29.8516C33.7031 30.3516 33.9375 30.9766 33.9375 31.7266C33.9375 32.4453 33.7031 33.0469 33.2344 33.5312C32.7812 34.0156 32.1094 34.2578 31.2188 34.2578C30.3281 34.2578 29.6562 34.0156 29.2031 33.5312C28.7656 33.0469 28.5469 32.4453 28.5469 31.7266ZM41.2031 31.7266C41.2031 30.9766 41.4219 30.3516 41.8594 29.8516C42.3125 29.3516 42.9844 29.1016 43.875 29.1016C44.7656 29.1016 45.4375 29.3516 45.8906 29.8516C46.3594 30.3516 46.5938 30.9766 46.5938 31.7266C46.5938 32.4453 46.3594 33.0469 45.8906 33.5312C45.4375 34.0156 44.7656 34.2578 43.875 34.2578C42.9844 34.2578 42.3125 34.0156 41.8594 33.5312C41.4219 33.0469 41.2031 32.4453 41.2031 31.7266Z" fill="#FFE0C4"/>
</svg>
