<svg width="300" height="270" viewBox="0 0 300 270" fill="none" xmlns="http://www.w3.org/2000/svg">
<path d="M0 227.505C0 183.043 36.0432 147 80.5047 147V147C84.6718 147 88.6703 148.624 91.9452 151.2C101.416 158.652 123.582 173.374 150.5 173C177.397 172.626 199.27 158.297 208.612 151.075C211.849 148.572 215.78 147 219.871 147V147C264.125 147 300 182.875 300 227.129V260C300 265.523 295.523 270 290 270H10C4.47716 270 0 265.523 0 260V227.505Z" fill="#0A5A55"/>
<circle cx="150" cy="85" r="85" fill="#0A5A55"/>
<rect x="65" y="247" width="2" height="23" fill="white"/>
<rect x="233" y="247" width="2" height="23" fill="white"/>
</svg>
