<svg width="177" height="37" viewBox="0 0 177 37" fill="none" xmlns="http://www.w3.org/2000/svg">
<g filter="url(#filter0_d_323:107)">
<path d="M51.8015 4.73175C52.5841 3.47312 54.4159 3.47312 55.1985 4.73175L58.9337 10.7394C59.2091 11.1822 59.6465 11.5 60.1527 11.625L67.0206 13.321C68.4594 13.6763 69.0255 15.4185 68.0703 16.5517L63.511 21.9606C63.1749 22.3593 63.0078 22.8735 63.0453 23.3936L63.5547 30.4494C63.6614 31.9277 62.1794 33.0044 60.8065 32.4461L54.2534 29.7814C53.7703 29.5849 53.2297 29.5849 52.7466 29.7814L46.1935 32.4461C44.8206 33.0044 43.3386 31.9277 43.4453 30.4494L43.9547 23.3936C43.9922 22.8735 43.8251 22.3593 43.489 21.9606L38.9297 16.5517C37.9745 15.4185 38.5406 13.6763 39.9794 13.321L46.8473 11.625C47.3535 11.5 47.7909 11.1822 48.0663 10.7394L51.8015 4.73175Z" fill="#0A5A55"/>
</g>
<g filter="url(#filter1_d_323:107)">
<path d="M156.802 4.73175C157.584 3.47312 159.416 3.47312 160.198 4.73175L163.934 10.7394C164.209 11.1822 164.646 11.5 165.153 11.625L172.021 13.321C173.459 13.6763 174.026 15.4185 173.07 16.5517L168.511 21.9606C168.175 22.3593 168.008 22.8735 168.045 23.3936L168.555 30.4494C168.661 31.9277 167.179 33.0044 165.806 32.4461L159.253 29.7814C158.77 29.5849 158.23 29.5849 157.747 29.7814L151.194 32.4461C149.821 33.0044 148.339 31.9277 148.445 30.4494L148.955 23.3936C148.992 22.8735 148.825 22.3593 148.489 21.9606L143.93 16.5517C142.974 15.4185 143.541 13.6763 144.979 13.321L151.847 11.625C152.354 11.5 152.791 11.1822 153.066 10.7394L156.802 4.73175Z" fill="#0A5A55"/>
</g>
<g filter="url(#filter2_d_323:107)">
<path d="M121.802 4.73175C122.584 3.47312 124.416 3.47312 125.198 4.73175L128.934 10.7394C129.209 11.1822 129.646 11.5 130.153 11.625L137.021 13.321C138.459 13.6763 139.026 15.4185 138.07 16.5517L133.511 21.9606C133.175 22.3593 133.008 22.8735 133.045 23.3936L133.555 30.4494C133.661 31.9277 132.179 33.0044 130.806 32.4461L124.253 29.7814C123.77 29.5849 123.23 29.5849 122.747 29.7814L116.194 32.4461C114.821 33.0044 113.339 31.9277 113.445 30.4494L113.955 23.3936C113.992 22.8735 113.825 22.3593 113.489 21.9606L108.93 16.5517C107.974 15.4185 108.541 13.6763 109.979 13.321L116.847 11.625C117.354 11.5 117.791 11.1822 118.066 10.7394L121.802 4.73175Z" fill="#0A5A55"/>
</g>
<g filter="url(#filter3_d_323:107)">
<path d="M16.8015 4.73175C17.5841 3.47312 19.4159 3.47312 20.1985 4.73175L23.9337 10.7394C24.2091 11.1822 24.6465 11.5 25.1527 11.625L32.0206 13.321C33.4594 13.6763 34.0255 15.4185 33.0703 16.5517L28.511 21.9606C28.1749 22.3593 28.0078 22.8735 28.0453 23.3936L28.5547 30.4494C28.6614 31.9277 27.1794 33.0044 25.8065 32.4461L19.2534 29.7814C18.7703 29.5849 18.2297 29.5849 17.7466 29.7814L11.1935 32.4461C9.82063 33.0044 8.33865 31.9277 8.44535 30.4494L8.95466 23.3936C8.9922 22.8735 8.82513 22.3593 8.48905 21.9606L3.9297 16.5517C2.9745 15.4185 3.54056 13.6763 4.97941 13.321L11.8473 11.625C12.3535 11.5 12.7909 11.1822 13.0663 10.7394L16.8015 4.73175Z" fill="#0A5A55"/>
</g>
<g filter="url(#filter4_d_323:107)">
<path d="M86.8015 4.73175C87.5841 3.47312 89.4159 3.47312 90.1985 4.73175L93.9337 10.7394C94.2091 11.1822 94.6465 11.5 95.1527 11.625L102.021 13.321C103.459 13.6763 104.026 15.4185 103.07 16.5517L98.511 21.9606C98.1749 22.3593 98.0078 22.8735 98.0453 23.3936L98.5547 30.4494C98.6614 31.9277 97.1794 33.0044 95.8065 32.4461L89.2534 29.7814C88.7703 29.5849 88.2297 29.5849 87.7466 29.7814L81.1935 32.4461C79.8206 33.0044 78.3386 31.9277 78.4453 30.4494L78.9547 23.3936C78.9922 22.8735 78.8251 22.3593 78.489 21.9606L73.9297 16.5517C72.9745 15.4185 73.5406 13.6763 74.9794 13.321L81.8473 11.625C82.3535 11.5 82.7909 11.1822 83.0663 10.7394L86.8015 4.73175Z" fill="#0A5A55"/>
</g>
<defs>
<filter id="filter0_d_323:107" x="35.4575" y="0.787781" width="36.0851" height="34.8081" filterUnits="userSpaceOnUse" color-interpolation-filters="sRGB">
<feFlood flood-opacity="0" result="BackgroundImageFix"/>
<feColorMatrix in="SourceAlpha" type="matrix" values="0 0 0 0 0 0 0 0 0 0 0 0 0 0 0 0 0 0 127 0" result="hardAlpha"/>
<feOffset/>
<feGaussianBlur stdDeviation="1.5"/>
<feComposite in2="hardAlpha" operator="out"/>
<feColorMatrix type="matrix" values="0 0 0 0 0 0 0 0 0 0 0 0 0 0 0 0 0 0 0.25 0"/>
<feBlend mode="normal" in2="BackgroundImageFix" result="effect1_dropShadow_323:107"/>
<feBlend mode="normal" in="SourceGraphic" in2="effect1_dropShadow_323:107" result="shape"/>
</filter>
<filter id="filter1_d_323:107" x="140.457" y="0.787781" width="36.0851" height="34.8081" filterUnits="userSpaceOnUse" color-interpolation-filters="sRGB">
<feFlood flood-opacity="0" result="BackgroundImageFix"/>
<feColorMatrix in="SourceAlpha" type="matrix" values="0 0 0 0 0 0 0 0 0 0 0 0 0 0 0 0 0 0 127 0" result="hardAlpha"/>
<feOffset/>
<feGaussianBlur stdDeviation="1.5"/>
<feComposite in2="hardAlpha" operator="out"/>
<feColorMatrix type="matrix" values="0 0 0 0 0 0 0 0 0 0 0 0 0 0 0 0 0 0 0.25 0"/>
<feBlend mode="normal" in2="BackgroundImageFix" result="effect1_dropShadow_323:107"/>
<feBlend mode="normal" in="SourceGraphic" in2="effect1_dropShadow_323:107" result="shape"/>
</filter>
<filter id="filter2_d_323:107" x="105.457" y="0.787781" width="36.0851" height="34.8081" filterUnits="userSpaceOnUse" color-interpolation-filters="sRGB">
<feFlood flood-opacity="0" result="BackgroundImageFix"/>
<feColorMatrix in="SourceAlpha" type="matrix" values="0 0 0 0 0 0 0 0 0 0 0 0 0 0 0 0 0 0 127 0" result="hardAlpha"/>
<feOffset/>
<feGaussianBlur stdDeviation="1.5"/>
<feComposite in2="hardAlpha" operator="out"/>
<feColorMatrix type="matrix" values="0 0 0 0 0 0 0 0 0 0 0 0 0 0 0 0 0 0 0.25 0"/>
<feBlend mode="normal" in2="BackgroundImageFix" result="effect1_dropShadow_323:107"/>
<feBlend mode="normal" in="SourceGraphic" in2="effect1_dropShadow_323:107" result="shape"/>
</filter>
<filter id="filter3_d_323:107" x="0.457458" y="0.787781" width="36.0851" height="34.8081" filterUnits="userSpaceOnUse" color-interpolation-filters="sRGB">
<feFlood flood-opacity="0" result="BackgroundImageFix"/>
<feColorMatrix in="SourceAlpha" type="matrix" values="0 0 0 0 0 0 0 0 0 0 0 0 0 0 0 0 0 0 127 0" result="hardAlpha"/>
<feOffset/>
<feGaussianBlur stdDeviation="1.5"/>
<feComposite in2="hardAlpha" operator="out"/>
<feColorMatrix type="matrix" values="0 0 0 0 0 0 0 0 0 0 0 0 0 0 0 0 0 0 0.25 0"/>
<feBlend mode="normal" in2="BackgroundImageFix" result="effect1_dropShadow_323:107"/>
<feBlend mode="normal" in="SourceGraphic" in2="effect1_dropShadow_323:107" result="shape"/>
</filter>
<filter id="filter4_d_323:107" x="70.4575" y="0.787781" width="36.0851" height="34.8081" filterUnits="userSpaceOnUse" color-interpolation-filters="sRGB">
<feFlood flood-opacity="0" result="BackgroundImageFix"/>
<feColorMatrix in="SourceAlpha" type="matrix" values="0 0 0 0 0 0 0 0 0 0 0 0 0 0 0 0 0 0 127 0" result="hardAlpha"/>
<feOffset/>
<feGaussianBlur stdDeviation="1.5"/>
<feComposite in2="hardAlpha" operator="out"/>
<feColorMatrix type="matrix" values="0 0 0 0 0 0 0 0 0 0 0 0 0 0 0 0 0 0 0.25 0"/>
<feBlend mode="normal" in2="BackgroundImageFix" result="effect1_dropShadow_323:107"/>
<feBlend mode="normal" in="SourceGraphic" in2="effect1_dropShadow_323:107" result="shape"/>
</filter>
</defs>
</svg>
