<svg width="1830" height="427" viewBox="0 0 1830 427" fill="none" xmlns="http://www.w3.org/2000/svg">
<path d="M111.291 339.35C92.6912 339.35 75.1412 336.35 58.6412 330.35C42.1412 324.35 29.3912 316.7 20.3912 307.4L25.7912 300.2C34.7912 308.9 46.7912 316.25 61.7912 322.25C77.0912 327.95 93.5912 330.8 111.291 330.8C137.691 330.8 157.191 326.3 169.791 317.3C182.391 308 188.691 295.25 188.691 279.05C188.691 267.35 185.241 258.2 178.341 251.6C171.741 244.7 163.491 239.75 153.591 236.75C143.991 233.45 130.641 230.15 113.541 226.85C95.2412 223.55 80.3912 220.1 68.9912 216.5C57.8912 212.6 48.4412 206.6 40.6412 198.5C33.1412 190.1 29.3912 178.55 29.3912 163.85C29.3912 147.05 36.2912 132.95 50.0912 121.55C64.1912 109.85 84.7412 104 111.741 104C126.141 104 140.391 106.25 154.491 110.75C168.591 114.95 179.991 120.65 188.691 127.85L183.291 135.05C174.291 127.85 163.491 122.3 150.891 118.4C138.291 114.5 125.241 112.55 111.741 112.55C87.4412 112.55 69.1412 117.35 56.8412 126.95C44.8412 136.25 38.8412 148.55 38.8412 163.85C38.8412 176.15 42.2912 185.9 49.1912 193.1C56.0912 200 64.6412 205.1 74.8412 208.4C85.0412 211.7 98.5412 214.85 115.341 217.85C133.641 221.45 148.191 225.05 158.991 228.65C169.791 232.25 178.941 238.1 186.441 246.2C193.941 254 197.691 264.95 197.691 279.05C197.691 297.35 190.341 312.05 175.641 323.15C160.941 333.95 139.491 339.35 111.291 339.35ZM266.042 105.35H275.042V338H266.042V105.35ZM270.542 41C267.242 41 264.392 39.8 261.992 37.4C259.892 35 258.842 32.3 258.842 29.3C258.842 26 259.892 23.3 261.992 21.2C264.392 18.8 267.242 17.6 270.542 17.6C273.542 17.6 276.242 18.8 278.642 21.2C281.042 23.3 282.242 26 282.242 29.3C282.242 32.3 281.042 35 278.642 37.4C276.242 39.8 273.542 41 270.542 41ZM579.692 105.35V317.3C579.692 354.5 570.842 381.95 553.142 399.65C535.442 417.65 508.442 426.65 472.142 426.65C450.842 426.65 431.042 423.2 412.742 416.3C394.742 409.4 380.192 399.95 369.092 387.95L375.392 381.65C387.392 393.35 401.642 402.35 418.142 408.65C434.642 414.95 452.642 418.1 472.142 418.1C505.742 418.1 530.492 410 546.392 393.8C562.592 377.9 570.692 352.85 570.692 318.65V260.15C562.592 281.45 549.092 298.55 530.192 311.45C511.592 324.05 489.992 330.35 465.392 330.35C443.792 330.35 424.292 325.55 406.892 315.95C389.492 306.05 375.842 292.55 365.942 275.45C356.042 258.05 351.092 238.55 351.092 216.95C351.092 195.35 356.042 176 365.942 158.9C375.842 141.5 389.492 128 406.892 118.4C424.292 108.8 443.792 104 465.392 104C489.992 104 511.592 110.3 530.192 122.9C549.092 135.5 562.592 152.3 570.692 173.3V105.35H579.692ZM465.392 321.8C485.492 321.8 503.492 317.45 519.392 308.75C535.592 299.75 548.192 287.3 557.192 271.4C566.192 255.2 570.692 237.05 570.692 216.95C570.692 196.85 566.192 178.85 557.192 162.95C548.192 147.05 535.592 134.75 519.392 126.05C503.492 117.05 485.492 112.55 465.392 112.55C445.292 112.55 427.142 117.05 410.942 126.05C395.042 134.75 382.592 147.05 373.592 162.95C364.592 178.85 360.092 196.85 360.092 216.95C360.092 237.05 364.592 255.2 373.592 271.4C382.592 287.3 395.042 299.75 410.942 308.75C427.142 317.45 445.292 321.8 465.392 321.8ZM871.183 221.45H664.183C664.183 242.45 668.833 261.35 678.133 278.15C687.433 294.65 700.183 307.55 716.383 316.85C732.883 326.15 751.333 330.8 771.733 330.8C787.633 330.8 802.483 327.8 816.283 321.8C830.383 315.5 841.933 306.5 850.933 294.8L857.233 301.1C847.033 313.4 834.433 322.85 819.433 329.45C804.433 336.05 788.533 339.35 771.733 339.35C749.533 339.35 729.583 334.4 711.883 324.5C694.483 314.3 680.683 300.2 670.483 282.2C660.583 264.2 655.633 243.95 655.633 221.45C655.633 198.95 660.283 178.85 669.583 161.15C678.883 143.15 691.633 129.2 707.833 119.3C724.333 109.1 742.783 104 763.183 104C783.283 104 801.583 108.95 818.083 118.85C834.583 128.75 847.483 142.4 856.783 159.8C866.383 177.2 871.183 197 871.183 219.2V221.45ZM763.183 112.55C745.183 112.55 728.833 116.9 714.133 125.6C699.433 134.3 687.583 146.3 678.583 161.6C669.883 176.9 665.083 194 664.183 212.9H862.633C861.733 194 856.783 176.9 847.783 161.6C838.783 146.3 826.933 134.3 812.233 125.6C797.533 116.9 781.183 112.55 763.183 112.55ZM1034.04 339.35C1012.14 339.35 992.494 334.4 975.094 324.5C957.694 314.3 944.044 300.35 934.144 282.65C924.544 264.65 919.744 244.25 919.744 221.45C919.744 198.65 924.544 178.4 934.144 160.7C944.044 142.7 957.694 128.75 975.094 118.85C992.494 108.95 1012.14 104 1034.04 104C1051.14 104 1066.89 107.3 1081.29 113.9C1095.99 120.2 1108.14 129.5 1117.74 141.8L1111.44 148.55C1102.74 136.55 1091.64 127.55 1078.14 121.55C1064.64 115.55 1049.94 112.55 1034.04 112.55C1013.94 112.55 995.794 117.2 979.594 126.5C963.694 135.5 951.244 148.4 942.244 165.2C933.244 181.7 928.744 200.45 928.744 221.45C928.744 242.75 933.244 261.65 942.244 278.15C951.244 294.65 963.694 307.55 979.594 316.85C995.794 326.15 1013.94 330.8 1034.04 330.8C1049.94 330.8 1064.64 327.8 1078.14 321.8C1091.64 315.8 1102.74 306.8 1111.44 294.8L1117.74 301.55C1108.14 313.85 1095.99 323.3 1081.29 329.9C1066.89 336.2 1051.14 339.35 1034.04 339.35ZM1273.51 339.35C1252.21 339.35 1232.86 334.4 1215.46 324.5C1198.36 314.3 1184.86 300.2 1174.96 282.2C1165.36 264.2 1160.56 243.95 1160.56 221.45C1160.56 198.95 1165.36 178.85 1174.96 161.15C1184.86 143.15 1198.36 129.2 1215.46 119.3C1232.86 109.1 1252.21 104 1273.51 104C1294.81 104 1314.01 109.1 1331.11 119.3C1348.51 129.2 1362.01 143.15 1371.61 161.15C1381.51 178.85 1386.46 198.95 1386.46 221.45C1386.46 243.95 1381.51 264.2 1371.61 282.2C1362.01 300.2 1348.51 314.3 1331.11 324.5C1314.01 334.4 1294.81 339.35 1273.51 339.35ZM1273.51 330.8C1293.01 330.8 1310.71 326.15 1326.61 316.85C1342.51 307.55 1354.96 294.65 1363.96 278.15C1372.96 261.35 1377.46 242.45 1377.46 221.45C1377.46 200.45 1372.96 181.7 1363.96 165.2C1354.96 148.4 1342.51 135.5 1326.61 126.5C1310.71 117.2 1293.01 112.55 1273.51 112.55C1254.01 112.55 1236.31 117.2 1220.41 126.5C1204.51 135.5 1192.06 148.4 1183.06 165.2C1174.06 181.7 1169.56 200.45 1169.56 221.45C1169.56 242.45 1174.06 261.35 1183.06 278.15C1192.06 294.65 1204.51 307.55 1220.41 316.85C1236.31 326.15 1254.01 330.8 1273.51 330.8ZM1462.67 105.35H1471.67V338H1462.67V105.35ZM1467.17 41C1463.87 41 1461.02 39.8 1458.62 37.4C1456.52 35 1455.47 32.3 1455.47 29.3C1455.47 26 1456.52 23.3 1458.62 21.2C1461.02 18.8 1463.87 17.6 1467.17 17.6C1470.17 17.6 1472.87 18.8 1475.27 21.2C1477.67 23.3 1478.87 26 1478.87 29.3C1478.87 32.3 1477.67 35 1475.27 37.4C1472.87 39.8 1470.17 41 1467.17 41ZM1681.82 104C1710.92 104 1733.72 112.4 1750.22 129.2C1766.72 145.7 1774.97 169.55 1774.97 200.75V338H1765.97V200.75C1765.97 172.25 1758.62 150.5 1743.92 135.5C1729.52 120.2 1708.97 112.55 1682.27 112.55C1651.97 112.55 1627.97 121.7 1610.27 140C1592.87 158 1584.17 181.85 1584.17 211.55V338H1575.17V105.35H1584.17V167.45C1591.37 147.65 1603.37 132.2 1620.17 121.1C1636.97 109.7 1657.52 104 1681.82 104Z" fill="#FFE0C4"/>
</svg>
