<svg width="346" height="622" viewBox="0 0 346 622" fill="none" xmlns="http://www.w3.org/2000/svg">
<path d="M0 0H346V508H247.5C247.5 508 230 457 173 457C116 457 98.5 508 98.5 508H0V0Z" fill="#0A5A55"/>
<rect x="36" y="44" width="273" height="21" rx="5" fill="white"/>
<rect x="36" y="240" width="119" height="21" rx="5" fill="white"/>
<rect x="36" y="191" width="273" height="21" rx="5" fill="white"/>
<rect x="36" y="142" width="273" height="21" rx="5" fill="white"/>
<rect x="36" y="93" width="273" height="21" rx="5" fill="white"/>
<path d="M150 386.5C173.167 352.167 216.9 293.1 206.5 331.5C193.5 379.5 122.514 482.5 146 438C155.5 420 238 373 243 349.5C248 326 157.5 440.5 186 430.5C208.8 422.5 296.5 386.5 327.5 349.5" stroke="white" stroke-width="5" stroke-linecap="round"/>
<circle cx="173" cy="537" r="80" stroke="#0A5A55" stroke-width="10"/>
<path d="M221.464 511.047C223.147 508.858 222.737 505.719 220.547 504.036C218.358 502.353 215.219 502.763 213.536 504.953L221.464 511.047ZM161 581.5L157.799 585.341L161.794 588.671L164.964 584.547L161 581.5ZM137.201 555.159C135.08 553.391 131.927 553.678 130.159 555.799C128.391 557.92 128.678 561.073 130.799 562.841L137.201 555.159ZM213.536 504.953L157.036 578.453L164.964 584.547L221.464 511.047L213.536 504.953ZM164.201 577.659L137.201 555.159L130.799 562.841L157.799 585.341L164.201 577.659Z" fill="#0A5A55"/>
</svg>
