<svg width="336" height="103" viewBox="0 0 336 103" fill="none" xmlns="http://www.w3.org/2000/svg">
<path d="M39.9078 79.9C38.5078 81.1 36.7745 82.0333 34.7078 82.7C32.6411 83.3 30.5078 83.6 28.3078 83.6C22.9745 83.6 18.8411 82.1667 15.9078 79.3C12.9745 76.4333 11.5078 72.3333 11.5078 67V37.9H2.50781V30H11.5078V18.4H21.1078V30H36.3078V37.9H21.1078V66.6C21.1078 69.4667 21.8078 71.6667 23.2078 73.2C24.6745 74.7333 26.7411 75.5 29.4078 75.5C32.3411 75.5 34.8411 74.6667 36.9078 73L39.9078 79.9ZM72.4563 83.6C67.1896 83.6 62.4563 82.4333 58.2563 80.1C54.0563 77.7667 50.7563 74.5667 48.3563 70.5C46.0229 66.3667 44.8563 61.7 44.8563 56.5C44.8563 51.3 46.0229 46.6667 48.3563 42.6C50.7563 38.4667 54.0563 35.2667 58.2563 33C62.4563 30.6667 67.1896 29.5 72.4563 29.5C77.7229 29.5 82.4229 30.6667 86.5563 33C90.7563 35.2667 94.0229 38.4667 96.3563 42.6C98.7563 46.6667 99.9563 51.3 99.9563 56.5C99.9563 61.7 98.7563 66.3667 96.3563 70.5C94.0229 74.5667 90.7563 77.7667 86.5563 80.1C82.4229 82.4333 77.7229 83.6 72.4563 83.6ZM72.4563 75.2C75.8563 75.2 78.8896 74.4333 81.5563 72.9C84.2896 71.3 86.4229 69.1 87.9563 66.3C89.4896 63.4333 90.2563 60.1667 90.2563 56.5C90.2563 52.8333 89.4896 49.6 87.9563 46.8C86.4229 43.9333 84.2896 41.7333 81.5563 40.2C78.8896 38.6667 75.8563 37.9 72.4563 37.9C69.0563 37.9 65.9896 38.6667 63.2563 40.2C60.5896 41.7333 58.4563 43.9333 56.8563 46.8C55.3229 49.6 54.5563 52.8333 54.5563 56.5C54.5563 60.1667 55.3229 63.4333 56.8563 66.3C58.4563 69.1 60.5896 71.3 63.2563 72.9C65.9896 74.4333 69.0563 75.2 72.4563 75.2ZM141.333 29.5C146.466 29.5 151.066 30.6333 155.133 32.9C159.199 35.1667 162.366 38.3333 164.633 42.4C166.966 46.4667 168.133 51.1667 168.133 56.5C168.133 61.8333 166.966 66.5667 164.633 70.7C162.366 74.7667 159.199 77.9333 155.133 80.2C151.066 82.4667 146.466 83.6 141.333 83.6C137.533 83.6 134.033 82.8667 130.833 81.4C127.699 79.9333 125.033 77.8 122.833 75V102.4H113.233V30H122.433V38.4C124.566 35.4667 127.266 33.2667 130.533 31.8C133.799 30.2667 137.399 29.5 141.333 29.5ZM140.533 75.2C143.933 75.2 146.966 74.4333 149.633 72.9C152.366 71.3 154.499 69.1 156.033 66.3C157.633 63.4333 158.433 60.1667 158.433 56.5C158.433 52.8333 157.633 49.6 156.033 46.8C154.499 43.9333 152.366 41.7333 149.633 40.2C146.966 38.6667 143.933 37.9 140.533 37.9C137.199 37.9 134.166 38.7 131.433 40.3C128.766 41.8333 126.633 44 125.033 46.8C123.499 49.6 122.733 52.8333 122.733 56.5C122.733 60.1667 123.499 63.4333 125.033 66.3C126.566 69.1 128.699 71.3 131.433 72.9C134.166 74.4333 137.199 75.2 140.533 75.2ZM257.652 30V83H248.552V75C246.619 77.7333 244.052 79.8667 240.852 81.4C237.719 82.8667 234.286 83.6 230.552 83.6C223.486 83.6 217.919 81.6667 213.852 77.8C209.786 73.8667 207.752 68.1 207.752 60.5V30H217.352V59.4C217.352 64.5333 218.586 68.4333 221.052 71.1C223.519 73.7 227.052 75 231.652 75C236.719 75 240.719 73.4667 243.652 70.4C246.586 67.3333 248.052 63 248.052 57.4V30H257.652ZM304.028 29.5C309.161 29.5 313.761 30.6333 317.828 32.9C321.895 35.1667 325.061 38.3333 327.328 42.4C329.661 46.4667 330.828 51.1667 330.828 56.5C330.828 61.8333 329.661 66.5667 327.328 70.7C325.061 74.7667 321.895 77.9333 317.828 80.2C313.761 82.4667 309.161 83.6 304.028 83.6C300.228 83.6 296.728 82.8667 293.528 81.4C290.395 79.9333 287.728 77.8 285.528 75V102.4H275.928V30H285.128V38.4C287.261 35.4667 289.961 33.2667 293.228 31.8C296.495 30.2667 300.095 29.5 304.028 29.5ZM303.228 75.2C306.628 75.2 309.661 74.4333 312.328 72.9C315.061 71.3 317.195 69.1 318.728 66.3C320.328 63.4333 321.128 60.1667 321.128 56.5C321.128 52.8333 320.328 49.6 318.728 46.8C317.195 43.9333 315.061 41.7333 312.328 40.2C309.661 38.6667 306.628 37.9 303.228 37.9C299.895 37.9 296.861 38.7 294.128 40.3C291.461 41.8333 289.328 44 287.728 46.8C286.195 49.6 285.428 52.8333 285.428 56.5C285.428 60.1667 286.195 63.4333 287.728 66.3C289.261 69.1 291.395 71.3 294.128 72.9C296.861 74.4333 299.895 75.2 303.228 75.2Z" fill="#0A5A55"/>
</svg>
