<svg width="518" height="100" viewBox="0 0 518 100" fill="none" xmlns="http://www.w3.org/2000/svg">
<path d="M44.329 21.0218L28.183 57.3158H23.146L7.069 21.0218H12.175L25.768 51.9338L39.499 21.0218H44.329ZM51.2285 21.0218H56.1275V57.3158H51.2285V21.0218ZM53.7125 13.0868C52.7005 13.0868 51.8495 12.7418 51.1595 12.0518C50.4695 11.3618 50.1245 10.5338 50.1245 9.56779C50.1245 8.64779 50.4695 7.84279 51.1595 7.15279C51.8495 6.46279 52.7005 6.11779 53.7125 6.11779C54.7245 6.11779 55.5755 6.46279 56.2655 7.15279C56.9555 7.79679 57.3005 8.57879 57.3005 9.49879C57.3005 10.5108 56.9555 11.3618 56.2655 12.0518C55.5755 12.7418 54.7245 13.0868 53.7125 13.0868ZM102.879 6.11779V57.3158H98.1867V50.1398C96.7147 52.5778 94.7597 54.4408 92.3217 55.7288C89.9297 57.0168 87.2157 57.6608 84.1797 57.6608C80.7757 57.6608 77.6937 56.8788 74.9337 55.3148C72.1737 53.7508 70.0117 51.5658 68.4477 48.7598C66.8837 45.9538 66.1017 42.7568 66.1017 39.1688C66.1017 35.5808 66.8837 32.3838 68.4477 29.5778C70.0117 26.7718 72.1737 24.6098 74.9337 23.0918C77.6937 21.5278 80.7757 20.7458 84.1797 20.7458C87.1237 20.7458 89.7687 21.3668 92.1147 22.6088C94.5067 23.8048 96.4617 25.5758 97.9797 27.9218V6.11779H102.879ZM84.5937 53.3138C87.1237 53.3138 89.4007 52.7388 91.4247 51.5888C93.4947 50.3928 95.1047 48.7138 96.2547 46.5518C97.4507 44.3898 98.0487 41.9288 98.0487 39.1688C98.0487 36.4088 97.4507 33.9478 96.2547 31.7858C95.1047 29.6238 93.4947 27.9678 91.4247 26.8178C89.4007 25.6218 87.1237 25.0238 84.5937 25.0238C82.0177 25.0238 79.6947 25.6218 77.6247 26.8178C75.6007 27.9678 73.9907 29.6238 72.7947 31.7858C71.6447 33.9478 71.0697 36.4088 71.0697 39.1688C71.0697 41.9288 71.6447 44.3898 72.7947 46.5518C73.9907 48.7138 75.6007 50.3928 77.6247 51.5888C79.6947 52.7388 82.0177 53.3138 84.5937 53.3138ZM148.124 40.6868H117.764C118.04 44.4588 119.489 47.5178 122.111 49.8638C124.733 52.1638 128.045 53.3138 132.047 53.3138C134.301 53.3138 136.371 52.9228 138.257 52.1408C140.143 51.3128 141.776 50.1168 143.156 48.5528L145.916 51.7268C144.306 53.6588 142.282 55.1308 139.844 56.1428C137.452 57.1548 134.807 57.6608 131.909 57.6608C128.183 57.6608 124.871 56.8788 121.973 55.3148C119.121 53.7048 116.89 51.4968 115.28 48.6908C113.67 45.8848 112.865 42.7108 112.865 39.1688C112.865 35.6268 113.624 32.4528 115.142 29.6468C116.706 26.8408 118.822 24.6558 121.49 23.0918C124.204 21.5278 127.24 20.7458 130.598 20.7458C133.956 20.7458 136.969 21.5278 139.637 23.0918C142.305 24.6558 144.398 26.8408 145.916 29.6468C147.434 32.4068 148.193 35.5808 148.193 39.1688L148.124 40.6868ZM130.598 24.9548C127.102 24.9548 124.158 26.0818 121.766 28.3358C119.42 30.5438 118.086 33.4418 117.764 37.0298H143.501C143.179 33.4418 141.822 30.5438 139.43 28.3358C137.084 26.0818 134.14 24.9548 130.598 24.9548ZM173 57.6608C169.504 57.6608 166.353 56.8788 163.547 55.3148C160.741 53.7048 158.533 51.4968 156.923 48.6908C155.313 45.8848 154.508 42.7108 154.508 39.1688C154.508 35.6268 155.313 32.4528 156.923 29.6468C158.533 26.8408 160.741 24.6558 163.547 23.0918C166.353 21.5278 169.504 20.7458 173 20.7458C176.496 20.7458 179.647 21.5278 182.453 23.0918C185.259 24.6558 187.444 26.8408 189.008 29.6468C190.618 32.4528 191.423 35.6268 191.423 39.1688C191.423 42.7108 190.618 45.8848 189.008 48.6908C187.444 51.4968 185.259 53.7048 182.453 55.3148C179.647 56.8788 176.496 57.6608 173 57.6608ZM173 53.3138C175.576 53.3138 177.876 52.7388 179.9 51.5888C181.97 50.3928 183.58 48.7138 184.73 46.5518C185.88 44.3898 186.455 41.9288 186.455 39.1688C186.455 36.4088 185.88 33.9478 184.73 31.7858C183.58 29.6238 181.97 27.9678 179.9 26.8178C177.876 25.6218 175.576 25.0238 173 25.0238C170.424 25.0238 168.101 25.6218 166.031 26.8178C164.007 27.9678 162.397 29.6238 161.201 31.7858C160.051 33.9478 159.476 36.4088 159.476 39.1688C159.476 41.9288 160.051 44.3898 161.201 46.5518C162.397 48.7138 164.007 50.3928 166.031 51.5888C168.101 52.7388 170.424 53.3138 173 53.3138Z" fill="url(#paint0_linear_252:77)"/>
<path d="M201.977 50.1398C203.035 50.1398 203.909 50.5078 204.599 51.2438C205.289 51.9338 205.634 52.8078 205.634 53.8658C205.634 54.4178 205.542 55.0158 205.358 55.6598C205.22 56.3038 204.99 57.0398 204.668 57.8678L201.77 67.3898H198.458L200.804 57.3848C200.068 57.1548 199.47 56.7408 199.01 56.1428C198.55 55.4988 198.32 54.7398 198.32 53.8658C198.32 52.8078 198.665 51.9338 199.355 51.2438C200.045 50.5078 200.919 50.1398 201.977 50.1398Z" fill="url(#paint1_linear_252:77)"/>
<path d="M10.76 58.9958C10.6267 59.1158 10.46 59.2091 10.26 59.2758C10.0667 59.3358 9.86333 59.3658 9.65 59.3658C9.15667 59.3658 8.77667 59.2325 8.51 58.9658C8.24333 58.6991 8.11 58.3225 8.11 57.8358V54.6558H7.17V54.0558H8.11V52.9058H8.82V54.0558H10.42V54.6558H8.82V57.7958C8.82 58.1091 8.89667 58.3491 9.05 58.5158C9.21 58.6758 9.43667 58.7558 9.73 58.7558C9.87667 58.7558 10.0167 58.7325 10.15 58.6858C10.29 58.6391 10.41 58.5725 10.51 58.4858L10.76 58.9958ZM14.7325 54.0158C15.3925 54.0158 15.9158 54.2091 16.3025 54.5958C16.6958 54.9758 16.8925 55.5325 16.8925 56.2658V59.3158H16.1825V56.3358C16.1825 55.7891 16.0458 55.3725 15.7725 55.0858C15.4992 54.7991 15.1092 54.6558 14.6025 54.6558C14.0358 54.6558 13.5858 54.8258 13.2525 55.1658C12.9258 55.4991 12.7625 55.9625 12.7625 56.5558V59.3158H12.0525V51.8958H12.7625V54.9758C12.9558 54.6691 13.2225 54.4325 13.5625 54.2658C13.9025 54.0991 14.2925 54.0158 14.7325 54.0158ZM23.4196 56.9058H19.0196C19.0596 57.4525 19.2696 57.8958 19.6496 58.2358C20.0296 58.5691 20.5096 58.7358 21.0896 58.7358C21.4163 58.7358 21.7163 58.6791 21.9896 58.5658C22.2629 58.4458 22.4996 58.2725 22.6996 58.0458L23.0996 58.5058C22.8663 58.7858 22.5729 58.9991 22.2196 59.1458C21.8729 59.2925 21.4896 59.3658 21.0696 59.3658C20.5296 59.3658 20.0496 59.2525 19.6296 59.0258C19.2163 58.7925 18.8929 58.4725 18.6596 58.0658C18.4263 57.6591 18.3096 57.1991 18.3096 56.6858C18.3096 56.1725 18.4196 55.7125 18.6396 55.3058C18.8663 54.8991 19.1729 54.5825 19.5596 54.3558C19.9529 54.1291 20.3929 54.0158 20.8796 54.0158C21.3663 54.0158 21.8029 54.1291 22.1896 54.3558C22.5763 54.5825 22.8796 54.8991 23.0996 55.3058C23.3196 55.7058 23.4296 56.1658 23.4296 56.6858L23.4196 56.9058ZM20.8796 54.6258C20.3729 54.6258 19.9463 54.7891 19.5996 55.1158C19.2596 55.4358 19.0663 55.8558 19.0196 56.3758H22.7496C22.7029 55.8558 22.5063 55.4358 22.1596 55.1158C21.8196 54.7891 21.3929 54.6258 20.8796 54.6258ZM35.212 54.0558L33.222 59.3158H32.552L30.892 55.0058L29.232 59.3158H28.562L26.582 54.0558H27.262L28.912 58.5258L30.602 54.0558H31.212L32.892 58.5258L34.562 54.0558H35.212ZM37.9648 54.0158C38.6514 54.0158 39.1781 54.1891 39.5448 54.5358C39.9114 54.8758 40.0948 55.3825 40.0948 56.0558V59.3158H39.4148V58.4958C39.2548 58.7691 39.0181 58.9825 38.7048 59.1358C38.3981 59.2891 38.0314 59.3658 37.6048 59.3658C37.0181 59.3658 36.5514 59.2258 36.2048 58.9458C35.8581 58.6658 35.6848 58.2958 35.6848 57.8358C35.6848 57.3891 35.8448 57.0291 36.1648 56.7558C36.4914 56.4825 37.0081 56.3458 37.7148 56.3458H39.3848V56.0258C39.3848 55.5725 39.2581 55.2291 39.0048 54.9958C38.7514 54.7558 38.3814 54.6358 37.8948 54.6358C37.5614 54.6358 37.2414 54.6925 36.9348 54.8058C36.6281 54.9125 36.3648 55.0625 36.1448 55.2558L35.8248 54.7258C36.0914 54.4991 36.4114 54.3258 36.7848 54.2058C37.1581 54.0791 37.5514 54.0158 37.9648 54.0158ZM37.7148 58.8058C38.1148 58.8058 38.4581 58.7158 38.7448 58.5358C39.0314 58.3491 39.2448 58.0825 39.3848 57.7358V56.8758H37.7348C36.8348 56.8758 36.3848 57.1891 36.3848 57.8158C36.3848 58.1225 36.5014 58.3658 36.7348 58.5458C36.9681 58.7191 37.2948 58.8058 37.7148 58.8058ZM46.3455 54.0558L43.7155 59.9458C43.5022 60.4391 43.2555 60.7891 42.9755 60.9958C42.6955 61.2025 42.3589 61.3058 41.9655 61.3058C41.7122 61.3058 41.4755 61.2658 41.2555 61.1858C41.0355 61.1058 40.8455 60.9858 40.6855 60.8258L41.0155 60.2958C41.2822 60.5625 41.6022 60.6958 41.9755 60.6958C42.2155 60.6958 42.4189 60.6291 42.5855 60.4958C42.7589 60.3625 42.9189 60.1358 43.0655 59.8158L43.2955 59.3058L40.9455 54.0558H41.6855L43.6655 58.5258L45.6455 54.0558H46.3455ZM52.7327 58.9958C52.5993 59.1158 52.4327 59.2091 52.2327 59.2758C52.0393 59.3358 51.836 59.3658 51.6227 59.3658C51.1293 59.3658 50.7493 59.2325 50.4827 58.9658C50.216 58.6991 50.0827 58.3225 50.0827 57.8358V54.6558H49.1427V54.0558H50.0827V52.9058H50.7927V54.0558H52.3927V54.6558H50.7927V57.7958C50.7927 58.1091 50.8693 58.3491 51.0227 58.5158C51.1827 58.6758 51.4093 58.7558 51.7027 58.7558C51.8493 58.7558 51.9893 58.7325 52.1227 58.6858C52.2627 58.6391 52.3827 58.5725 52.4827 58.4858L52.7327 58.9958ZM55.9896 59.3658C55.4829 59.3658 55.0263 59.2525 54.6196 59.0258C54.2129 58.7925 53.8929 58.4725 53.6596 58.0658C53.4263 57.6591 53.3096 57.1991 53.3096 56.6858C53.3096 56.1725 53.4263 55.7125 53.6596 55.3058C53.8929 54.8991 54.2129 54.5825 54.6196 54.3558C55.0263 54.1291 55.4829 54.0158 55.9896 54.0158C56.4963 54.0158 56.9529 54.1291 57.3596 54.3558C57.7663 54.5825 58.0829 54.8991 58.3096 55.3058C58.5429 55.7125 58.6596 56.1725 58.6596 56.6858C58.6596 57.1991 58.5429 57.6591 58.3096 58.0658C58.0829 58.4725 57.7663 58.7925 57.3596 59.0258C56.9529 59.2525 56.4963 59.3658 55.9896 59.3658ZM55.9896 58.7358C56.3629 58.7358 56.6963 58.6525 56.9896 58.4858C57.2896 58.3125 57.5229 58.0691 57.6896 57.7558C57.8563 57.4425 57.9396 57.0858 57.9396 56.6858C57.9396 56.2858 57.8563 55.9291 57.6896 55.6158C57.5229 55.3025 57.2896 55.0625 56.9896 54.8958C56.6963 54.7225 56.3629 54.6358 55.9896 54.6358C55.6163 54.6358 55.2796 54.7225 54.9796 54.8958C54.6863 55.0625 54.4529 55.3025 54.2796 55.6158C54.1129 55.9291 54.0296 56.2858 54.0296 56.6858C54.0296 57.0858 54.1129 57.4425 54.2796 57.7558C54.4529 58.0691 54.6863 58.3125 54.9796 58.4858C55.2796 58.6525 55.6163 58.7358 55.9896 58.7358ZM62.7263 54.0558H63.4363V59.3158H62.7263V54.0558ZM63.0863 52.9058C62.9397 52.9058 62.8163 52.8558 62.7163 52.7558C62.6163 52.6558 62.5663 52.5358 62.5663 52.3958C62.5663 52.2625 62.6163 52.1458 62.7163 52.0458C62.8163 51.9458 62.9397 51.8958 63.0863 51.8958C63.233 51.8958 63.3563 51.9458 63.4563 52.0458C63.5563 52.1391 63.6063 52.2525 63.6063 52.3858C63.6063 52.5325 63.5563 52.6558 63.4563 52.7558C63.3563 52.8558 63.233 52.9058 63.0863 52.9058ZM71.9719 54.0158C72.6319 54.0158 73.1485 54.2058 73.5219 54.5858C73.9019 54.9658 74.0919 55.5258 74.0919 56.2658V59.3158H73.3819V56.3358C73.3819 55.7891 73.2485 55.3725 72.9819 55.0858C72.7219 54.7991 72.3519 54.6558 71.8719 54.6558C71.3252 54.6558 70.8952 54.8258 70.5819 55.1658C70.2685 55.4991 70.1119 55.9625 70.1119 56.5558V59.3158H69.4019V56.3358C69.4019 55.7891 69.2685 55.3725 69.0019 55.0858C68.7419 54.7991 68.3685 54.6558 67.8819 54.6558C67.3419 54.6558 66.9119 54.8258 66.5919 55.1658C66.2785 55.4991 66.1219 55.9625 66.1219 56.5558V59.3158H65.4119V54.0558H66.0919V55.0158C66.2785 54.6958 66.5385 54.4491 66.8719 54.2758C67.2052 54.1025 67.5885 54.0158 68.0219 54.0158C68.4619 54.0158 68.8419 54.1091 69.1619 54.2958C69.4885 54.4825 69.7319 54.7591 69.8919 55.1258C70.0852 54.7791 70.3619 54.5091 70.7219 54.3158C71.0885 54.1158 71.5052 54.0158 71.9719 54.0158ZM77.8573 54.0158C78.544 54.0158 79.0707 54.1891 79.4373 54.5358C79.804 54.8758 79.9873 55.3825 79.9873 56.0558V59.3158H79.3073V58.4958C79.1473 58.7691 78.9107 58.9825 78.5973 59.1358C78.2907 59.2891 77.924 59.3658 77.4973 59.3658C76.9107 59.3658 76.444 59.2258 76.0973 58.9458C75.7507 58.6658 75.5773 58.2958 75.5773 57.8358C75.5773 57.3891 75.7373 57.0291 76.0573 56.7558C76.384 56.4825 76.9007 56.3458 77.6073 56.3458H79.2773V56.0258C79.2773 55.5725 79.1507 55.2291 78.8973 54.9958C78.644 54.7558 78.274 54.6358 77.7873 54.6358C77.454 54.6358 77.134 54.6925 76.8273 54.8058C76.5207 54.9125 76.2573 55.0625 76.0373 55.2558L75.7173 54.7258C75.984 54.4991 76.304 54.3258 76.6773 54.2058C77.0507 54.0791 77.444 54.0158 77.8573 54.0158ZM77.6073 58.8058C78.0073 58.8058 78.3507 58.7158 78.6373 58.5358C78.924 58.3491 79.1373 58.0825 79.2773 57.7358V56.8758H77.6273C76.7273 56.8758 76.2773 57.1891 76.2773 57.8158C76.2773 58.1225 76.394 58.3658 76.6273 58.5458C76.8607 58.7191 77.1873 58.8058 77.6073 58.8058ZM86.8053 54.0558V58.6758C86.8053 59.5691 86.5853 60.2291 86.1453 60.6558C85.712 61.0891 85.0553 61.3058 84.1753 61.3058C83.6886 61.3058 83.2253 61.2325 82.7853 61.0858C82.352 60.9458 81.9986 60.7491 81.7253 60.4958L82.0853 59.9558C82.3386 60.1825 82.6453 60.3591 83.0053 60.4858C83.372 60.6125 83.7553 60.6758 84.1553 60.6758C84.822 60.6758 85.312 60.5191 85.6253 60.2058C85.9386 59.8991 86.0953 59.4191 86.0953 58.7658V58.0958C85.8753 58.4291 85.5853 58.6825 85.2253 58.8558C84.872 59.0291 84.4786 59.1158 84.0453 59.1158C83.552 59.1158 83.102 59.0091 82.6953 58.7958C82.2953 58.5758 81.9786 58.2725 81.7453 57.8858C81.5186 57.4925 81.4053 57.0491 81.4053 56.5558C81.4053 56.0625 81.5186 55.6225 81.7453 55.2358C81.9786 54.8491 82.2953 54.5491 82.6953 54.3358C83.0953 54.1225 83.5453 54.0158 84.0453 54.0158C84.492 54.0158 84.8953 54.1058 85.2553 54.2858C85.6153 54.4658 85.9053 54.7258 86.1253 55.0658V54.0558H86.8053ZM84.1153 58.4858C84.4953 58.4858 84.8386 58.4058 85.1453 58.2458C85.452 58.0791 85.6886 57.8491 85.8553 57.5558C86.0286 57.2625 86.1153 56.9291 86.1153 56.5558C86.1153 56.1825 86.0286 55.8525 85.8553 55.5658C85.6886 55.2725 85.452 55.0458 85.1453 54.8858C84.8453 54.7191 84.502 54.6358 84.1153 54.6358C83.7353 54.6358 83.392 54.7158 83.0853 54.8758C82.7853 55.0358 82.5486 55.2625 82.3753 55.5558C82.2086 55.8491 82.1253 56.1825 82.1253 56.5558C82.1253 56.9291 82.2086 57.2625 82.3753 57.5558C82.5486 57.8491 82.7853 58.0791 83.0853 58.2458C83.392 58.4058 83.7353 58.4858 84.1153 58.4858ZM88.7908 54.0558H89.5008V59.3158H88.7908V54.0558ZM89.1508 52.9058C89.0041 52.9058 88.8808 52.8558 88.7808 52.7558C88.6808 52.6558 88.6308 52.5358 88.6308 52.3958C88.6308 52.2625 88.6808 52.1458 88.7808 52.0458C88.8808 51.9458 89.0041 51.8958 89.1508 51.8958C89.2974 51.8958 89.4208 51.9458 89.5208 52.0458C89.6208 52.1391 89.6708 52.2525 89.6708 52.3858C89.6708 52.5325 89.6208 52.6558 89.5208 52.7558C89.4208 52.8558 89.2974 52.9058 89.1508 52.9058ZM94.1563 54.0158C94.8163 54.0158 95.3397 54.2091 95.7263 54.5958C96.1197 54.9758 96.3163 55.5325 96.3163 56.2658V59.3158H95.6063V56.3358C95.6063 55.7891 95.4697 55.3725 95.1963 55.0858C94.923 54.7991 94.533 54.6558 94.0263 54.6558C93.4597 54.6558 93.0097 54.8258 92.6763 55.1658C92.3497 55.4991 92.1863 55.9625 92.1863 56.5558V59.3158H91.4763V54.0558H92.1563V55.0258C92.3497 54.7058 92.6163 54.4591 92.9563 54.2858C93.303 54.1058 93.703 54.0158 94.1563 54.0158ZM102.843 56.9058H98.4434C98.4834 57.4525 98.6934 57.8958 99.0734 58.2358C99.4534 58.5691 99.9334 58.7358 100.513 58.7358C100.84 58.7358 101.14 58.6791 101.413 58.5658C101.687 58.4458 101.923 58.2725 102.123 58.0458L102.523 58.5058C102.29 58.7858 101.997 58.9991 101.643 59.1458C101.297 59.2925 100.913 59.3658 100.493 59.3658C99.9534 59.3658 99.4734 59.2525 99.0534 59.0258C98.6401 58.7925 98.3168 58.4725 98.0834 58.0658C97.8501 57.6591 97.7334 57.1991 97.7334 56.6858C97.7334 56.1725 97.8434 55.7125 98.0634 55.3058C98.2901 54.8991 98.5968 54.5825 98.9834 54.3558C99.3768 54.1291 99.8168 54.0158 100.303 54.0158C100.79 54.0158 101.227 54.1291 101.613 54.3558C102 54.5825 102.303 54.8991 102.523 55.3058C102.743 55.7058 102.853 56.1658 102.853 56.6858L102.843 56.9058ZM100.303 54.6258C99.7968 54.6258 99.3701 54.7891 99.0234 55.1158C98.6834 55.4358 98.4901 55.8558 98.4434 56.3758H102.173C102.127 55.8558 101.93 55.4358 101.583 55.1158C101.243 54.7891 100.817 54.6258 100.303 54.6258ZM114.636 54.0558L112.646 59.3158H111.976L110.316 55.0058L108.656 59.3158H107.986L106.006 54.0558H106.686L108.336 58.5258L110.026 54.0558H110.636L112.316 58.5258L113.986 54.0558H114.636ZM118.385 54.0158C119.045 54.0158 119.568 54.2091 119.955 54.5958C120.348 54.9758 120.545 55.5325 120.545 56.2658V59.3158H119.835V56.3358C119.835 55.7891 119.698 55.3725 119.425 55.0858C119.152 54.7991 118.762 54.6558 118.255 54.6558C117.688 54.6558 117.238 54.8258 116.905 55.1658C116.578 55.4991 116.415 55.9625 116.415 56.5558V59.3158H115.705V51.8958H116.415V54.9758C116.608 54.6691 116.875 54.4325 117.215 54.2658C117.555 54.0991 117.945 54.0158 118.385 54.0158ZM124.312 54.0158C124.999 54.0158 125.526 54.1891 125.892 54.5358C126.259 54.8758 126.442 55.3825 126.442 56.0558V59.3158H125.762V58.4958C125.602 58.7691 125.366 58.9825 125.052 59.1358C124.746 59.2891 124.379 59.3658 123.952 59.3658C123.366 59.3658 122.899 59.2258 122.552 58.9458C122.206 58.6658 122.032 58.2958 122.032 57.8358C122.032 57.3891 122.192 57.0291 122.512 56.7558C122.839 56.4825 123.356 56.3458 124.062 56.3458H125.732V56.0258C125.732 55.5725 125.606 55.2291 125.352 54.9958C125.099 54.7558 124.729 54.6358 124.242 54.6358C123.909 54.6358 123.589 54.6925 123.282 54.8058C122.976 54.9125 122.712 55.0625 122.492 55.2558L122.172 54.7258C122.439 54.4991 122.759 54.3258 123.132 54.2058C123.506 54.0791 123.899 54.0158 124.312 54.0158ZM124.062 58.8058C124.462 58.8058 124.806 58.7158 125.092 58.5358C125.379 58.3491 125.592 58.0825 125.732 57.7358V56.8758H124.082C123.182 56.8758 122.732 57.1891 122.732 57.8158C122.732 58.1225 122.849 58.3658 123.082 58.5458C123.316 58.7191 123.642 58.8058 124.062 58.8058ZM131.141 58.9958C131.008 59.1158 130.841 59.2091 130.641 59.2758C130.448 59.3358 130.244 59.3658 130.031 59.3658C129.538 59.3658 129.158 59.2325 128.891 58.9658C128.624 58.6991 128.491 58.3225 128.491 57.8358V54.6558H127.551V54.0558H128.491V52.9058H129.201V54.0558H130.801V54.6558H129.201V57.7958C129.201 58.1091 129.278 58.3491 129.431 58.5158C129.591 58.6758 129.818 58.7558 130.111 58.7558C130.258 58.7558 130.398 58.7325 130.531 58.6858C130.671 58.6391 130.791 58.5725 130.891 58.4858L131.141 58.9958ZM139.471 54.0558L136.841 59.9458C136.627 60.4391 136.381 60.7891 136.101 60.9958C135.821 61.2025 135.484 61.3058 135.091 61.3058C134.837 61.3058 134.601 61.2658 134.381 61.1858C134.161 61.1058 133.971 60.9858 133.811 60.8258L134.141 60.2958C134.407 60.5625 134.727 60.6958 135.101 60.6958C135.341 60.6958 135.544 60.6291 135.711 60.4958C135.884 60.3625 136.044 60.1358 136.191 59.8158L136.421 59.3058L134.071 54.0558H134.811L136.791 58.5258L138.771 54.0558H139.471ZM142.474 59.3658C141.967 59.3658 141.511 59.2525 141.104 59.0258C140.697 58.7925 140.377 58.4725 140.144 58.0658C139.911 57.6591 139.794 57.1991 139.794 56.6858C139.794 56.1725 139.911 55.7125 140.144 55.3058C140.377 54.8991 140.697 54.5825 141.104 54.3558C141.511 54.1291 141.967 54.0158 142.474 54.0158C142.981 54.0158 143.437 54.1291 143.844 54.3558C144.251 54.5825 144.567 54.8991 144.794 55.3058C145.027 55.7125 145.144 56.1725 145.144 56.6858C145.144 57.1991 145.027 57.6591 144.794 58.0658C144.567 58.4725 144.251 58.7925 143.844 59.0258C143.437 59.2525 142.981 59.3658 142.474 59.3658ZM142.474 58.7358C142.847 58.7358 143.181 58.6525 143.474 58.4858C143.774 58.3125 144.007 58.0691 144.174 57.7558C144.341 57.4425 144.424 57.0858 144.424 56.6858C144.424 56.2858 144.341 55.9291 144.174 55.6158C144.007 55.3025 143.774 55.0625 143.474 54.8958C143.181 54.7225 142.847 54.6358 142.474 54.6358C142.101 54.6358 141.764 54.7225 141.464 54.8958C141.171 55.0625 140.937 55.3025 140.764 55.6158C140.597 55.9291 140.514 56.2858 140.514 56.6858C140.514 57.0858 140.597 57.4425 140.764 57.7558C140.937 58.0691 141.171 58.3125 141.464 58.4858C141.764 58.6525 142.101 58.7358 142.474 58.7358ZM151.334 54.0558V59.3158H150.654V58.3558C150.467 58.6758 150.21 58.9258 149.884 59.1058C149.557 59.2791 149.184 59.3658 148.764 59.3658C148.077 59.3658 147.534 59.1758 147.134 58.7958C146.74 58.4091 146.544 57.8458 146.544 57.1058V54.0558H147.254V57.0358C147.254 57.5891 147.39 58.0091 147.664 58.2958C147.937 58.5825 148.327 58.7258 148.834 58.7258C149.387 58.7258 149.824 58.5591 150.144 58.2258C150.464 57.8858 150.624 57.4158 150.624 56.8158V54.0558H151.334ZM160.809 54.0558V58.6758C160.809 59.5691 160.589 60.2291 160.149 60.6558C159.716 61.0891 159.059 61.3058 158.179 61.3058C157.693 61.3058 157.229 61.2325 156.789 61.0858C156.356 60.9458 156.003 60.7491 155.729 60.4958L156.089 59.9558C156.343 60.1825 156.649 60.3591 157.009 60.4858C157.376 60.6125 157.759 60.6758 158.159 60.6758C158.826 60.6758 159.316 60.5191 159.629 60.2058C159.943 59.8991 160.099 59.4191 160.099 58.7658V58.0958C159.879 58.4291 159.589 58.6825 159.229 58.8558C158.876 59.0291 158.483 59.1158 158.049 59.1158C157.556 59.1158 157.106 59.0091 156.699 58.7958C156.299 58.5758 155.983 58.2725 155.749 57.8858C155.523 57.4925 155.409 57.0491 155.409 56.5558C155.409 56.0625 155.523 55.6225 155.749 55.2358C155.983 54.8491 156.299 54.5491 156.699 54.3358C157.099 54.1225 157.549 54.0158 158.049 54.0158C158.496 54.0158 158.899 54.1058 159.259 54.2858C159.619 54.4658 159.909 54.7258 160.129 55.0658V54.0558H160.809ZM158.119 58.4858C158.499 58.4858 158.843 58.4058 159.149 58.2458C159.456 58.0791 159.693 57.8491 159.859 57.5558C160.033 57.2625 160.119 56.9291 160.119 56.5558C160.119 56.1825 160.033 55.8525 159.859 55.5658C159.693 55.2725 159.456 55.0458 159.149 54.8858C158.849 54.7191 158.506 54.6358 158.119 54.6358C157.739 54.6358 157.396 54.7158 157.089 54.8758C156.789 55.0358 156.553 55.2625 156.379 55.5558C156.213 55.8491 156.129 56.1825 156.129 56.5558C156.129 56.9291 156.213 57.2625 156.379 57.5558C156.553 57.8491 156.789 58.0791 157.089 58.2458C157.396 58.4058 157.739 58.4858 158.119 58.4858ZM164.945 59.3658C164.438 59.3658 163.981 59.2525 163.575 59.0258C163.168 58.7925 162.848 58.4725 162.615 58.0658C162.381 57.6591 162.265 57.1991 162.265 56.6858C162.265 56.1725 162.381 55.7125 162.615 55.3058C162.848 54.8991 163.168 54.5825 163.575 54.3558C163.981 54.1291 164.438 54.0158 164.945 54.0158C165.451 54.0158 165.908 54.1291 166.315 54.3558C166.721 54.5825 167.038 54.8991 167.265 55.3058C167.498 55.7125 167.615 56.1725 167.615 56.6858C167.615 57.1991 167.498 57.6591 167.265 58.0658C167.038 58.4725 166.721 58.7925 166.315 59.0258C165.908 59.2525 165.451 59.3658 164.945 59.3658ZM164.945 58.7358C165.318 58.7358 165.651 58.6525 165.945 58.4858C166.245 58.3125 166.478 58.0691 166.645 57.7558C166.811 57.4425 166.895 57.0858 166.895 56.6858C166.895 56.2858 166.811 55.9291 166.645 55.6158C166.478 55.3025 166.245 55.0625 165.945 54.8958C165.651 54.7225 165.318 54.6358 164.945 54.6358C164.571 54.6358 164.235 54.7225 163.935 54.8958C163.641 55.0625 163.408 55.3025 163.235 55.6158C163.068 55.9291 162.985 56.2858 162.985 56.6858C162.985 57.0858 163.068 57.4425 163.235 57.7558C163.408 58.0691 163.641 58.3125 163.935 58.4858C164.235 58.6525 164.571 58.7358 164.945 58.7358ZM171.744 54.0158C172.404 54.0158 172.928 54.2091 173.314 54.5958C173.708 54.9758 173.904 55.5325 173.904 56.2658V59.3158H173.194V56.3358C173.194 55.7891 173.058 55.3725 172.784 55.0858C172.511 54.7991 172.121 54.6558 171.614 54.6558C171.048 54.6558 170.598 54.8258 170.264 55.1658C169.938 55.4991 169.774 55.9625 169.774 56.5558V59.3158H169.064V54.0558H169.744V55.0258C169.938 54.7058 170.204 54.4591 170.544 54.2858C170.891 54.1058 171.291 54.0158 171.744 54.0158ZM178.512 54.0158C179.172 54.0158 179.695 54.2091 180.082 54.5958C180.475 54.9758 180.672 55.5325 180.672 56.2658V59.3158H179.962V56.3358C179.962 55.7891 179.825 55.3725 179.552 55.0858C179.278 54.7991 178.888 54.6558 178.382 54.6558C177.815 54.6558 177.365 54.8258 177.032 55.1658C176.705 55.4991 176.542 55.9625 176.542 56.5558V59.3158H175.832V54.0558H176.512V55.0258C176.705 54.7058 176.972 54.4591 177.312 54.2858C177.658 54.1058 178.058 54.0158 178.512 54.0158ZM184.439 54.0158C185.126 54.0158 185.653 54.1891 186.019 54.5358C186.386 54.8758 186.569 55.3825 186.569 56.0558V59.3158H185.889V58.4958C185.729 58.7691 185.493 58.9825 185.179 59.1358C184.873 59.2891 184.506 59.3658 184.079 59.3658C183.493 59.3658 183.026 59.2258 182.679 58.9458C182.333 58.6658 182.159 58.2958 182.159 57.8358C182.159 57.3891 182.319 57.0291 182.639 56.7558C182.966 56.4825 183.483 56.3458 184.189 56.3458H185.859V56.0258C185.859 55.5725 185.733 55.2291 185.479 54.9958C185.226 54.7558 184.856 54.6358 184.369 54.6358C184.036 54.6358 183.716 54.6925 183.409 54.8058C183.103 54.9125 182.839 55.0625 182.619 55.2558L182.299 54.7258C182.566 54.4991 182.886 54.3258 183.259 54.2058C183.633 54.0791 184.026 54.0158 184.439 54.0158ZM184.189 58.8058C184.589 58.8058 184.933 58.7158 185.219 58.5358C185.506 58.3491 185.719 58.0825 185.859 57.7358V56.8758H184.209C183.309 56.8758 182.859 57.1891 182.859 57.8158C182.859 58.1225 182.976 58.3658 183.209 58.5458C183.443 58.7191 183.769 58.8058 184.189 58.8058ZM193.825 54.0158C194.318 54.0158 194.765 54.1291 195.165 54.3558C195.565 54.5758 195.878 54.8891 196.105 55.2958C196.332 55.7025 196.445 56.1658 196.445 56.6858C196.445 57.2058 196.332 57.6691 196.105 58.0758C195.878 58.4825 195.565 58.7991 195.165 59.0258C194.765 59.2525 194.318 59.3658 193.825 59.3658C193.385 59.3658 192.988 59.2725 192.635 59.0858C192.288 58.8991 192.008 58.6291 191.795 58.2758V59.3158H191.115V51.8958H191.825V55.0558C192.045 54.7158 192.325 54.4591 192.665 54.2858C193.012 54.1058 193.398 54.0158 193.825 54.0158ZM193.775 58.7358C194.142 58.7358 194.475 58.6525 194.775 58.4858C195.075 58.3125 195.308 58.0691 195.475 57.7558C195.648 57.4425 195.735 57.0858 195.735 56.6858C195.735 56.2858 195.648 55.9291 195.475 55.6158C195.308 55.3025 195.075 55.0625 194.775 54.8958C194.475 54.7225 194.142 54.6358 193.775 54.6358C193.402 54.6358 193.065 54.7225 192.765 54.8958C192.472 55.0625 192.238 55.3025 192.065 55.6158C191.898 55.9291 191.815 56.2858 191.815 56.6858C191.815 57.0858 191.898 57.4425 192.065 57.7558C192.238 58.0691 192.472 58.3125 192.765 58.4858C193.065 58.6525 193.402 58.7358 193.775 58.7358ZM202.632 54.0558V59.3158H201.952V58.3558C201.766 58.6758 201.509 58.9258 201.182 59.1058C200.856 59.2791 200.482 59.3658 200.062 59.3658C199.376 59.3658 198.832 59.1758 198.432 58.7958C198.039 58.4091 197.842 57.8458 197.842 57.1058V54.0558H198.552V57.0358C198.552 57.5891 198.689 58.0091 198.962 58.2958C199.236 58.5825 199.626 58.7258 200.132 58.7258C200.686 58.7258 201.122 58.5591 201.442 58.2258C201.762 57.8858 201.922 57.4158 201.922 56.8158V54.0558H202.632ZM209.041 54.0558L206.411 59.9458C206.198 60.4391 205.951 60.7891 205.671 60.9958C205.391 61.2025 205.054 61.3058 204.661 61.3058C204.408 61.3058 204.171 61.2658 203.951 61.1858C203.731 61.1058 203.541 60.9858 203.381 60.8258L203.711 60.2958C203.978 60.5625 204.298 60.6958 204.671 60.6958C204.911 60.6958 205.114 60.6291 205.281 60.4958C205.454 60.3625 205.614 60.1358 205.761 59.8158L205.991 59.3058L203.641 54.0558H204.381L206.361 58.5258L208.341 54.0558H209.041ZM212.658 54.0558H213.368V59.3158H212.658V54.0558ZM213.018 52.9058C212.871 52.9058 212.748 52.8558 212.648 52.7558C212.548 52.6558 212.498 52.5358 212.498 52.3958C212.498 52.2625 212.548 52.1458 212.648 52.0458C212.748 51.9458 212.871 51.8958 213.018 51.8958C213.165 51.8958 213.288 51.9458 213.388 52.0458C213.488 52.1391 213.538 52.2525 213.538 52.3858C213.538 52.5325 213.488 52.6558 213.388 52.7558C213.288 52.8558 213.165 52.9058 213.018 52.9058ZM218.024 54.0158C218.684 54.0158 219.207 54.2091 219.594 54.5958C219.987 54.9758 220.184 55.5325 220.184 56.2658V59.3158H219.474V56.3358C219.474 55.7891 219.337 55.3725 219.064 55.0858C218.79 54.7991 218.4 54.6558 217.894 54.6558C217.327 54.6558 216.877 54.8258 216.544 55.1658C216.217 55.4991 216.054 55.9625 216.054 56.5558V59.3158H215.344V54.0558H216.024V55.0258C216.217 54.7058 216.484 54.4591 216.824 54.2858C217.17 54.1058 217.57 54.0158 218.024 54.0158ZM227.498 58.9958C227.365 59.1158 227.198 59.2091 226.998 59.2758C226.805 59.3358 226.602 59.3658 226.388 59.3658C225.895 59.3658 225.515 59.2325 225.248 58.9658C224.982 58.6991 224.848 58.3225 224.848 57.8358V54.6558H223.908V54.0558H224.848V52.9058H225.558V54.0558H227.158V54.6558H225.558V57.7958C225.558 58.1091 225.635 58.3491 225.788 58.5158C225.948 58.6758 226.175 58.7558 226.468 58.7558C226.615 58.7558 226.755 58.7325 226.888 58.6858C227.028 58.6391 227.148 58.5725 227.248 58.4858L227.498 58.9958ZM231.471 54.0158C232.131 54.0158 232.654 54.2091 233.041 54.5958C233.434 54.9758 233.631 55.5325 233.631 56.2658V59.3158H232.921V56.3358C232.921 55.7891 232.784 55.3725 232.511 55.0858C232.237 54.7991 231.847 54.6558 231.341 54.6558C230.774 54.6558 230.324 54.8258 229.991 55.1658C229.664 55.4991 229.501 55.9625 229.501 56.5558V59.3158H228.791V51.8958H229.501V54.9758C229.694 54.6691 229.961 54.4325 230.301 54.2658C230.641 54.0991 231.031 54.0158 231.471 54.0158ZM240.158 56.9058H235.758C235.798 57.4525 236.008 57.8958 236.388 58.2358C236.768 58.5691 237.248 58.7358 237.828 58.7358C238.155 58.7358 238.455 58.6791 238.728 58.5658C239.001 58.4458 239.238 58.2725 239.438 58.0458L239.838 58.5058C239.605 58.7858 239.311 58.9991 238.958 59.1458C238.611 59.2925 238.228 59.3658 237.808 59.3658C237.268 59.3658 236.788 59.2525 236.368 59.0258C235.955 58.7925 235.631 58.4725 235.398 58.0658C235.165 57.6591 235.048 57.1991 235.048 56.6858C235.048 56.1725 235.158 55.7125 235.378 55.3058C235.605 54.8991 235.911 54.5825 236.298 54.3558C236.691 54.1291 237.131 54.0158 237.618 54.0158C238.105 54.0158 238.541 54.1291 238.928 54.3558C239.315 54.5825 239.618 54.8991 239.838 55.3058C240.058 55.7058 240.168 56.1658 240.168 56.6858L240.158 56.9058ZM237.618 54.6258C237.111 54.6258 236.685 54.7891 236.338 55.1158C235.998 55.4358 235.805 55.8558 235.758 56.3758H239.488C239.441 55.8558 239.245 55.4358 238.898 55.1158C238.558 54.7891 238.131 54.6258 237.618 54.6258ZM250.79 54.0158C251.45 54.0158 251.967 54.2058 252.34 54.5858C252.72 54.9658 252.91 55.5258 252.91 56.2658V59.3158H252.2V56.3358C252.2 55.7891 252.067 55.3725 251.8 55.0858C251.54 54.7991 251.17 54.6558 250.69 54.6558C250.144 54.6558 249.714 54.8258 249.4 55.1658C249.087 55.4991 248.93 55.9625 248.93 56.5558V59.3158H248.22V56.3358C248.22 55.7891 248.087 55.3725 247.82 55.0858C247.56 54.7991 247.187 54.6558 246.7 54.6558C246.16 54.6558 245.73 54.8258 245.41 55.1658C245.097 55.4991 244.94 55.9625 244.94 56.5558V59.3158H244.23V54.0558H244.91V55.0158C245.097 54.6958 245.357 54.4491 245.69 54.2758C246.024 54.1025 246.407 54.0158 246.84 54.0158C247.28 54.0158 247.66 54.1091 247.98 54.2958C248.307 54.4825 248.55 54.7591 248.71 55.1258C248.904 54.7791 249.18 54.5091 249.54 54.3158C249.907 54.1158 250.324 54.0158 250.79 54.0158ZM257.005 59.3658C256.499 59.3658 256.042 59.2525 255.635 59.0258C255.229 58.7925 254.909 58.4725 254.675 58.0658C254.442 57.6591 254.325 57.1991 254.325 56.6858C254.325 56.1725 254.442 55.7125 254.675 55.3058C254.909 54.8991 255.229 54.5825 255.635 54.3558C256.042 54.1291 256.499 54.0158 257.005 54.0158C257.512 54.0158 257.969 54.1291 258.375 54.3558C258.782 54.5825 259.099 54.8991 259.325 55.3058C259.559 55.7125 259.675 56.1725 259.675 56.6858C259.675 57.1991 259.559 57.6591 259.325 58.0658C259.099 58.4725 258.782 58.7925 258.375 59.0258C257.969 59.2525 257.512 59.3658 257.005 59.3658ZM257.005 58.7358C257.379 58.7358 257.712 58.6525 258.005 58.4858C258.305 58.3125 258.539 58.0691 258.705 57.7558C258.872 57.4425 258.955 57.0858 258.955 56.6858C258.955 56.2858 258.872 55.9291 258.705 55.6158C258.539 55.3025 258.305 55.0625 258.005 54.8958C257.712 54.7225 257.379 54.6358 257.005 54.6358C256.632 54.6358 256.295 54.7225 255.995 54.8958C255.702 55.0625 255.469 55.3025 255.295 55.6158C255.129 55.9291 255.045 56.2858 255.045 56.6858C255.045 57.0858 255.129 57.4425 255.295 57.7558C255.469 58.0691 255.702 58.3125 255.995 58.4858C256.295 58.6525 256.632 58.7358 257.005 58.7358ZM262.535 59.3658C262.108 59.3658 261.698 59.3058 261.305 59.1858C260.918 59.0591 260.615 58.9025 260.395 58.7158L260.715 58.1558C260.935 58.3291 261.211 58.4725 261.545 58.5858C261.878 58.6925 262.225 58.7458 262.585 58.7458C263.065 58.7458 263.418 58.6725 263.645 58.5258C263.878 58.3725 263.995 58.1591 263.995 57.8858C263.995 57.6925 263.931 57.5425 263.805 57.4358C263.678 57.3225 263.518 57.2391 263.325 57.1858C263.131 57.1258 262.875 57.0691 262.555 57.0158C262.128 56.9358 261.785 56.8558 261.525 56.7758C261.265 56.6891 261.041 56.5458 260.855 56.3458C260.675 56.1458 260.585 55.8691 260.585 55.5158C260.585 55.0758 260.768 54.7158 261.135 54.4358C261.501 54.1558 262.011 54.0158 262.665 54.0158C263.005 54.0158 263.345 54.0625 263.685 54.1558C264.025 54.2425 264.305 54.3591 264.525 54.5058L264.215 55.0758C263.781 54.7758 263.265 54.6258 262.665 54.6258C262.211 54.6258 261.868 54.7058 261.635 54.8658C261.408 55.0258 261.295 55.2358 261.295 55.4958C261.295 55.6958 261.358 55.8558 261.485 55.9758C261.618 56.0958 261.781 56.1858 261.975 56.2458C262.168 56.2991 262.435 56.3558 262.775 56.4158C263.195 56.4958 263.531 56.5758 263.785 56.6558C264.038 56.7358 264.255 56.8725 264.435 57.0658C264.615 57.2591 264.705 57.5258 264.705 57.8658C264.705 58.3258 264.511 58.6925 264.125 58.9658C263.745 59.2325 263.215 59.3658 262.535 59.3658ZM268.787 58.9958C268.654 59.1158 268.487 59.2091 268.287 59.2758C268.094 59.3358 267.891 59.3658 267.677 59.3658C267.184 59.3658 266.804 59.2325 266.537 58.9658C266.271 58.6991 266.137 58.3225 266.137 57.8358V54.6558H265.197V54.0558H266.137V52.9058H266.847V54.0558H268.447V54.6558H266.847V57.7958C266.847 58.1091 266.924 58.3491 267.077 58.5158C267.237 58.6758 267.464 58.7558 267.757 58.7558C267.904 58.7558 268.044 58.7325 268.177 58.6858C268.317 58.6391 268.437 58.5725 268.537 58.4858L268.787 58.9958ZM273.377 55.0858C273.544 54.7325 273.79 54.4658 274.117 54.2858C274.45 54.1058 274.86 54.0158 275.347 54.0158V54.7058L275.177 54.6958C274.624 54.6958 274.19 54.8658 273.877 55.2058C273.564 55.5458 273.407 56.0225 273.407 56.6358V59.3158H272.697V54.0558H273.377V55.0858ZM281.164 56.9058H276.764C276.804 57.4525 277.014 57.8958 277.394 58.2358C277.774 58.5691 278.254 58.7358 278.834 58.7358C279.16 58.7358 279.46 58.6791 279.734 58.5658C280.007 58.4458 280.244 58.2725 280.444 58.0458L280.844 58.5058C280.61 58.7858 280.317 58.9991 279.964 59.1458C279.617 59.2925 279.234 59.3658 278.814 59.3658C278.274 59.3658 277.794 59.2525 277.374 59.0258C276.96 58.7925 276.637 58.4725 276.404 58.0658C276.17 57.6591 276.054 57.1991 276.054 56.6858C276.054 56.1725 276.164 55.7125 276.384 55.3058C276.61 54.8991 276.917 54.5825 277.304 54.3558C277.697 54.1291 278.137 54.0158 278.624 54.0158C279.11 54.0158 279.547 54.1291 279.934 54.3558C280.32 54.5825 280.624 54.8991 280.844 55.3058C281.064 55.7058 281.174 56.1658 281.174 56.6858L281.164 56.9058ZM278.624 54.6258C278.117 54.6258 277.69 54.7891 277.344 55.1158C277.004 55.4358 276.81 55.8558 276.764 56.3758H280.494C280.447 55.8558 280.25 55.4358 279.904 55.1158C279.564 54.7891 279.137 54.6258 278.624 54.6258ZM284.312 54.0158C284.999 54.0158 285.526 54.1891 285.892 54.5358C286.259 54.8758 286.442 55.3825 286.442 56.0558V59.3158H285.762V58.4958C285.602 58.7691 285.366 58.9825 285.052 59.1358C284.746 59.2891 284.379 59.3658 283.952 59.3658C283.366 59.3658 282.899 59.2258 282.552 58.9458C282.206 58.6658 282.032 58.2958 282.032 57.8358C282.032 57.3891 282.192 57.0291 282.512 56.7558C282.839 56.4825 283.356 56.3458 284.062 56.3458H285.732V56.0258C285.732 55.5725 285.606 55.2291 285.352 54.9958C285.099 54.7558 284.729 54.6358 284.242 54.6358C283.909 54.6358 283.589 54.6925 283.282 54.8058C282.976 54.9125 282.712 55.0625 282.492 55.2558L282.172 54.7258C282.439 54.4991 282.759 54.3258 283.132 54.2058C283.506 54.0791 283.899 54.0158 284.312 54.0158ZM284.062 58.8058C284.462 58.8058 284.806 58.7158 285.092 58.5358C285.379 58.3491 285.592 58.0825 285.732 57.7358V56.8758H284.082C283.182 56.8758 282.732 57.1891 282.732 57.8158C282.732 58.1225 282.849 58.3658 283.082 58.5458C283.316 58.7191 283.642 58.8058 284.062 58.8058ZM288.371 51.8958H289.081V59.3158H288.371V51.8958ZM291.056 54.0558H291.766V59.3158H291.056V54.0558ZM291.416 52.9058C291.27 52.9058 291.146 52.8558 291.046 52.7558C290.946 52.6558 290.896 52.5358 290.896 52.3958C290.896 52.2625 290.946 52.1458 291.046 52.0458C291.146 51.9458 291.27 51.8958 291.416 51.8958C291.563 51.8958 291.686 51.9458 291.786 52.0458C291.886 52.1391 291.936 52.2525 291.936 52.3858C291.936 52.5325 291.886 52.6558 291.786 52.7558C291.686 52.8558 291.563 52.9058 291.416 52.9058ZM295.152 59.3658C294.725 59.3658 294.315 59.3058 293.922 59.1858C293.535 59.0591 293.232 58.9025 293.012 58.7158L293.332 58.1558C293.552 58.3291 293.829 58.4725 294.162 58.5858C294.495 58.6925 294.842 58.7458 295.202 58.7458C295.682 58.7458 296.035 58.6725 296.262 58.5258C296.495 58.3725 296.612 58.1591 296.612 57.8858C296.612 57.6925 296.549 57.5425 296.422 57.4358C296.295 57.3225 296.135 57.2391 295.942 57.1858C295.749 57.1258 295.492 57.0691 295.172 57.0158C294.745 56.9358 294.402 56.8558 294.142 56.7758C293.882 56.6891 293.659 56.5458 293.472 56.3458C293.292 56.1458 293.202 55.8691 293.202 55.5158C293.202 55.0758 293.385 54.7158 293.752 54.4358C294.119 54.1558 294.629 54.0158 295.282 54.0158C295.622 54.0158 295.962 54.0625 296.302 54.1558C296.642 54.2425 296.922 54.3591 297.142 54.5058L296.832 55.0758C296.399 54.7758 295.882 54.6258 295.282 54.6258C294.829 54.6258 294.485 54.7058 294.252 54.8658C294.025 55.0258 293.912 55.2358 293.912 55.4958C293.912 55.6958 293.975 55.8558 294.102 55.9758C294.235 56.0958 294.399 56.1858 294.592 56.2458C294.785 56.2991 295.052 56.3558 295.392 56.4158C295.812 56.4958 296.149 56.5758 296.402 56.6558C296.655 56.7358 296.872 56.8725 297.052 57.0658C297.232 57.2591 297.322 57.5258 297.322 57.8658C297.322 58.3258 297.129 58.6925 296.742 58.9658C296.362 59.2325 295.832 59.3658 295.152 59.3658ZM301.405 58.9958C301.271 59.1158 301.105 59.2091 300.905 59.2758C300.711 59.3358 300.508 59.3658 300.295 59.3658C299.801 59.3658 299.421 59.2325 299.155 58.9658C298.888 58.6991 298.755 58.3225 298.755 57.8358V54.6558H297.815V54.0558H298.755V52.9058H299.465V54.0558H301.065V54.6558H299.465V57.7958C299.465 58.1091 299.541 58.3491 299.695 58.5158C299.855 58.6758 300.081 58.7558 300.375 58.7558C300.521 58.7558 300.661 58.7325 300.795 58.6858C300.935 58.6391 301.055 58.5725 301.155 58.4858L301.405 58.9958ZM302.697 54.0558H303.407V59.3158H302.697V54.0558ZM303.057 52.9058C302.91 52.9058 302.787 52.8558 302.687 52.7558C302.587 52.6558 302.537 52.5358 302.537 52.3958C302.537 52.2625 302.587 52.1458 302.687 52.0458C302.787 51.9458 302.91 51.8958 303.057 51.8958C303.204 51.8958 303.327 51.9458 303.427 52.0458C303.527 52.1391 303.577 52.2525 303.577 52.3858C303.577 52.5325 303.527 52.6558 303.427 52.7558C303.327 52.8558 303.204 52.9058 303.057 52.9058ZM307.563 59.3658C307.043 59.3658 306.576 59.2525 306.163 59.0258C305.756 58.7991 305.436 58.4825 305.203 58.0758C304.969 57.6625 304.853 57.1991 304.853 56.6858C304.853 56.1725 304.969 55.7125 305.203 55.3058C305.436 54.8991 305.756 54.5825 306.163 54.3558C306.576 54.1291 307.043 54.0158 307.563 54.0158C308.016 54.0158 308.419 54.1058 308.773 54.2858C309.133 54.4591 309.416 54.7158 309.623 55.0558L309.093 55.4158C308.919 55.1558 308.699 54.9625 308.433 54.8358C308.166 54.7025 307.876 54.6358 307.563 54.6358C307.183 54.6358 306.839 54.7225 306.533 54.8958C306.233 55.0625 305.996 55.3025 305.823 55.6158C305.656 55.9291 305.573 56.2858 305.573 56.6858C305.573 57.0925 305.656 57.4525 305.823 57.7658C305.996 58.0725 306.233 58.3125 306.533 58.4858C306.839 58.6525 307.183 58.7358 307.563 58.7358C307.876 58.7358 308.166 58.6725 308.433 58.5458C308.699 58.4191 308.919 58.2258 309.093 57.9658L309.623 58.3258C309.416 58.6658 309.133 58.9258 308.773 59.1058C308.413 59.2791 308.009 59.3658 307.563 59.3658ZM321.355 54.0558L319.365 59.3158H318.695L317.035 55.0058L315.375 59.3158H314.705L312.725 54.0558H313.405L315.055 58.5258L316.745 54.0558H317.355L319.035 58.5258L320.705 54.0558H321.355ZM324.107 54.0158C324.794 54.0158 325.321 54.1891 325.687 54.5358C326.054 54.8758 326.237 55.3825 326.237 56.0558V59.3158H325.557V58.4958C325.397 58.7691 325.161 58.9825 324.847 59.1358C324.541 59.2891 324.174 59.3658 323.747 59.3658C323.161 59.3658 322.694 59.2258 322.347 58.9458C322.001 58.6658 321.827 58.2958 321.827 57.8358C321.827 57.3891 321.987 57.0291 322.307 56.7558C322.634 56.4825 323.151 56.3458 323.857 56.3458H325.527V56.0258C325.527 55.5725 325.401 55.2291 325.147 54.9958C324.894 54.7558 324.524 54.6358 324.037 54.6358C323.704 54.6358 323.384 54.6925 323.077 54.8058C322.771 54.9125 322.507 55.0625 322.287 55.2558L321.967 54.7258C322.234 54.4991 322.554 54.3258 322.927 54.2058C323.301 54.0791 323.694 54.0158 324.107 54.0158ZM323.857 58.8058C324.257 58.8058 324.601 58.7158 324.887 58.5358C325.174 58.3491 325.387 58.0825 325.527 57.7358V56.8758H323.877C322.977 56.8758 322.527 57.1891 322.527 57.8158C322.527 58.1225 322.644 58.3658 322.877 58.5458C323.111 58.7191 323.437 58.8058 323.857 58.8058ZM332.488 54.0558L329.858 59.9458C329.645 60.4391 329.398 60.7891 329.118 60.9958C328.838 61.2025 328.501 61.3058 328.108 61.3058C327.855 61.3058 327.618 61.2658 327.398 61.1858C327.178 61.1058 326.988 60.9858 326.828 60.8258L327.158 60.2958C327.425 60.5625 327.745 60.6958 328.118 60.6958C328.358 60.6958 328.561 60.6291 328.728 60.4958C328.901 60.3625 329.061 60.1358 329.208 59.8158L329.438 59.3058L327.088 54.0558H327.828L329.808 58.5258L331.788 54.0558H332.488ZM333.216 59.3658C333.07 59.3658 332.943 59.3125 332.836 59.2058C332.736 59.0991 332.686 58.9691 332.686 58.8158C332.686 58.6625 332.736 58.5358 332.836 58.4358C332.943 58.3291 333.07 58.2758 333.216 58.2758C333.363 58.2758 333.49 58.3291 333.596 58.4358C333.703 58.5358 333.756 58.6625 333.756 58.8158C333.756 58.9691 333.703 59.0991 333.596 59.2058C333.49 59.3125 333.363 59.3658 333.216 59.3658ZM348.523 52.3158L344.763 59.3158H343.983L343.123 53.3758L339.863 59.3158H339.083L338.123 52.3158H338.853L339.683 58.3458L342.973 52.3158H343.663L344.513 58.3558L347.783 52.3158H348.523ZM348.589 56.8858C348.582 56.9325 348.579 57.0025 348.579 57.0958C348.579 57.6291 348.729 58.0358 349.029 58.3158C349.336 58.5958 349.789 58.7358 350.389 58.7358C350.736 58.7358 351.059 58.6791 351.359 58.5658C351.666 58.4458 351.916 58.2825 352.109 58.0758L352.429 58.5858C352.182 58.8325 351.872 59.0258 351.499 59.1658C351.132 59.2991 350.742 59.3658 350.329 59.3658C349.569 59.3658 348.969 59.1658 348.529 58.7658C348.096 58.3658 347.879 57.8191 347.879 57.1258C347.879 56.5391 348.002 56.0091 348.249 55.5358C348.502 55.0625 348.849 54.6925 349.289 54.4258C349.736 54.1525 350.236 54.0158 350.789 54.0158C351.489 54.0158 352.046 54.2158 352.459 54.6158C352.872 55.0091 353.079 55.5525 353.079 56.2458C353.079 56.4391 353.056 56.6525 353.009 56.8858H348.589ZM350.769 54.6158C350.242 54.6158 349.792 54.7725 349.419 55.0858C349.046 55.3991 348.792 55.8225 348.659 56.3558H352.409C352.416 56.3091 352.419 56.2458 352.419 56.1658C352.419 55.6725 352.269 55.2925 351.969 55.0258C351.669 54.7525 351.269 54.6158 350.769 54.6158ZM357.241 56.8858C357.235 56.9325 357.231 57.0025 357.231 57.0958C357.231 57.6291 357.381 58.0358 357.681 58.3158C357.988 58.5958 358.441 58.7358 359.041 58.7358C359.388 58.7358 359.711 58.6791 360.011 58.5658C360.318 58.4458 360.568 58.2825 360.761 58.0758L361.081 58.5858C360.835 58.8325 360.525 59.0258 360.151 59.1658C359.785 59.2991 359.395 59.3658 358.981 59.3658C358.221 59.3658 357.621 59.1658 357.181 58.7658C356.748 58.3658 356.531 57.8191 356.531 57.1258C356.531 56.5391 356.655 56.0091 356.901 55.5358C357.155 55.0625 357.501 54.6925 357.941 54.4258C358.388 54.1525 358.888 54.0158 359.441 54.0158C360.141 54.0158 360.698 54.2158 361.111 54.6158C361.525 55.0091 361.731 55.5525 361.731 56.2458C361.731 56.4391 361.708 56.6525 361.661 56.8858H357.241ZM359.421 54.6158C358.895 54.6158 358.445 54.7725 358.071 55.0858C357.698 55.3991 357.445 55.8225 357.311 56.3558H361.061C361.068 56.3091 361.071 56.2458 361.071 56.1658C361.071 55.6725 360.921 55.2925 360.621 55.0258C360.321 54.7525 359.921 54.6158 359.421 54.6158ZM367.989 54.0558L364.609 59.3158H363.879L362.579 54.0558H363.289L364.379 58.5458L367.249 54.0558H367.989ZM368.452 56.8858C368.446 56.9325 368.442 57.0025 368.442 57.0958C368.442 57.6291 368.592 58.0358 368.892 58.3158C369.199 58.5958 369.652 58.7358 370.252 58.7358C370.599 58.7358 370.922 58.6791 371.222 58.5658C371.529 58.4458 371.779 58.2825 371.972 58.0758L372.292 58.5858C372.046 58.8325 371.736 59.0258 371.362 59.1658C370.996 59.2991 370.606 59.3658 370.192 59.3658C369.432 59.3658 368.832 59.1658 368.392 58.7658C367.959 58.3658 367.742 57.8191 367.742 57.1258C367.742 56.5391 367.866 56.0091 368.112 55.5358C368.366 55.0625 368.712 54.6925 369.152 54.4258C369.599 54.1525 370.099 54.0158 370.652 54.0158C371.352 54.0158 371.909 54.2158 372.322 54.6158C372.736 55.0091 372.942 55.5525 372.942 56.2458C372.942 56.4391 372.919 56.6525 372.872 56.8858H368.452ZM370.632 54.6158C370.106 54.6158 369.656 54.7725 369.282 55.0858C368.909 55.3991 368.656 55.8225 368.522 56.3558H372.272C372.279 56.3091 372.282 56.2458 372.282 56.1658C372.282 55.6725 372.132 55.2925 371.832 55.0258C371.532 54.7525 371.132 54.6158 370.632 54.6158ZM377.437 54.0158C378.031 54.0158 378.491 54.1691 378.817 54.4758C379.151 54.7758 379.317 55.1925 379.317 55.7258C379.317 55.9125 379.297 56.1125 379.257 56.3258L378.657 59.3158H377.947L378.547 56.3158C378.581 56.1291 378.597 55.9691 378.597 55.8358C378.597 55.4558 378.481 55.1658 378.247 54.9658C378.021 54.7591 377.684 54.6558 377.237 54.6558C376.671 54.6558 376.204 54.8125 375.837 55.1258C375.471 55.4325 375.224 55.8891 375.097 56.4958L374.537 59.3158H373.827L374.867 54.0558H375.547L375.377 54.8958C375.877 54.3091 376.564 54.0158 377.437 54.0158ZM389.492 51.8958L388.012 59.3158H387.332L387.502 58.4858C387.249 58.7658 386.949 58.9825 386.602 59.1358C386.256 59.2891 385.872 59.3658 385.452 59.3658C385.006 59.3658 384.609 59.2758 384.262 59.0958C383.916 58.9158 383.646 58.6591 383.452 58.3258C383.259 57.9858 383.162 57.5891 383.162 57.1358C383.162 56.5425 383.289 56.0091 383.542 55.5358C383.802 55.0625 384.159 54.6925 384.612 54.4258C385.066 54.1525 385.572 54.0158 386.132 54.0158C386.626 54.0158 387.042 54.1158 387.382 54.3158C387.729 54.5091 387.979 54.7891 388.132 55.1558L388.782 51.8958H389.492ZM385.602 58.7358C386.036 58.7358 386.426 58.6325 386.772 58.4258C387.119 58.2125 387.389 57.9191 387.582 57.5458C387.782 57.1658 387.882 56.7425 387.882 56.2758C387.882 55.7625 387.729 55.3625 387.422 55.0758C387.122 54.7825 386.699 54.6358 386.152 54.6358C385.719 54.6358 385.329 54.7425 384.982 54.9558C384.636 55.1691 384.362 55.4658 384.162 55.8458C383.969 56.2191 383.872 56.6391 383.872 57.1058C383.872 57.6191 384.022 58.0191 384.322 58.3058C384.629 58.5925 385.056 58.7358 385.602 58.7358ZM391.53 55.0158C391.763 54.6758 392.056 54.4258 392.41 54.2658C392.763 54.0991 393.19 54.0158 393.69 54.0158L393.56 54.7058L393.36 54.6958C392.793 54.6958 392.326 54.8591 391.96 55.1858C391.6 55.5125 391.356 55.9991 391.23 56.6458L390.7 59.3158H389.99L391.03 54.0558H391.71L391.53 55.0158ZM394.536 56.8858C394.53 56.9325 394.526 57.0025 394.526 57.0958C394.526 57.6291 394.676 58.0358 394.976 58.3158C395.283 58.5958 395.736 58.7358 396.336 58.7358C396.683 58.7358 397.006 58.6791 397.306 58.5658C397.613 58.4458 397.863 58.2825 398.056 58.0758L398.376 58.5858C398.13 58.8325 397.82 59.0258 397.446 59.1658C397.08 59.2991 396.69 59.3658 396.276 59.3658C395.516 59.3658 394.916 59.1658 394.476 58.7658C394.043 58.3658 393.826 57.8191 393.826 57.1258C393.826 56.5391 393.95 56.0091 394.196 55.5358C394.45 55.0625 394.796 54.6925 395.236 54.4258C395.683 54.1525 396.183 54.0158 396.736 54.0158C397.436 54.0158 397.993 54.2158 398.406 54.6158C398.82 55.0091 399.026 55.5525 399.026 56.2458C399.026 56.4391 399.003 56.6525 398.956 56.8858H394.536ZM396.716 54.6158C396.19 54.6158 395.74 54.7725 395.366 55.0858C394.993 55.3991 394.74 55.8225 394.606 56.3558H398.356C398.363 56.3091 398.366 56.2458 398.366 56.1658C398.366 55.6725 398.216 55.2925 397.916 55.0258C397.616 54.7525 397.216 54.6158 396.716 54.6158ZM405.761 54.0558L404.711 59.3158H404.031L404.201 58.4858C403.948 58.7658 403.648 58.9825 403.301 59.1358C402.955 59.2891 402.571 59.3658 402.151 59.3658C401.705 59.3658 401.308 59.2758 400.961 59.0958C400.615 58.9158 400.345 58.6591 400.151 58.3258C399.958 57.9858 399.861 57.5891 399.861 57.1358C399.861 56.5425 399.988 56.0091 400.241 55.5358C400.501 55.0625 400.858 54.6925 401.311 54.4258C401.765 54.1525 402.271 54.0158 402.831 54.0158C403.331 54.0158 403.751 54.1158 404.091 54.3158C404.431 54.5091 404.678 54.7891 404.831 55.1558L405.051 54.0558H405.761ZM402.301 58.7358C402.735 58.7358 403.125 58.6325 403.471 58.4258C403.818 58.2125 404.088 57.9191 404.281 57.5458C404.481 57.1658 404.581 56.7425 404.581 56.2758C404.581 55.7625 404.428 55.3625 404.121 55.0758C403.821 54.7825 403.398 54.6358 402.851 54.6358C402.418 54.6358 402.028 54.7425 401.681 54.9558C401.335 55.1691 401.061 55.4658 400.861 55.8458C400.668 56.2191 400.571 56.6391 400.571 57.1058C400.571 57.6191 400.721 58.0191 401.021 58.3058C401.328 58.5925 401.755 58.7358 402.301 58.7358ZM414.169 54.0158C414.762 54.0158 415.219 54.1658 415.539 54.4658C415.865 54.7591 416.029 55.1725 416.029 55.7058C416.029 55.8591 416.005 56.0658 415.959 56.3258L415.359 59.3158H414.649L415.249 56.3158C415.282 56.1625 415.299 55.9991 415.299 55.8258C415.299 55.4525 415.189 55.1658 414.969 54.9658C414.749 54.7591 414.425 54.6558 413.999 54.6558C413.465 54.6558 413.022 54.8058 412.669 55.1058C412.315 55.3991 412.079 55.8358 411.959 56.4158L411.379 59.3158H410.669L411.269 56.3158C411.302 56.1291 411.319 55.9691 411.319 55.8358C411.319 55.4558 411.209 55.1658 410.989 54.9658C410.775 54.7591 410.452 54.6558 410.019 54.6558C409.479 54.6558 409.032 54.8125 408.679 55.1258C408.325 55.4325 408.085 55.8891 407.959 56.4958L407.399 59.3158H406.689L407.729 54.0558H408.409L408.239 54.8958C408.719 54.3091 409.382 54.0158 410.229 54.0158C410.669 54.0158 411.035 54.1058 411.329 54.2858C411.629 54.4658 411.835 54.7258 411.949 55.0658C412.209 54.7191 412.525 54.4591 412.899 54.2858C413.279 54.1058 413.702 54.0158 414.169 54.0158ZM420.951 54.0558H421.661L420.621 59.3158H419.911L420.951 54.0558ZM421.611 52.9058C421.471 52.9058 421.355 52.8591 421.261 52.7658C421.175 52.6725 421.131 52.5625 421.131 52.4358C421.131 52.2825 421.181 52.1558 421.281 52.0558C421.388 51.9491 421.521 51.8958 421.681 51.8958C421.821 51.8958 421.938 51.9425 422.031 52.0358C422.125 52.1225 422.171 52.2258 422.171 52.3458C422.171 52.5058 422.118 52.6391 422.011 52.7458C421.905 52.8525 421.771 52.9058 421.611 52.9058ZM426.207 54.0158C426.8 54.0158 427.26 54.1691 427.587 54.4758C427.92 54.7758 428.087 55.1925 428.087 55.7258C428.087 55.9125 428.067 56.1125 428.027 56.3258L427.427 59.3158H426.717L427.317 56.3158C427.35 56.1291 427.367 55.9691 427.367 55.8358C427.367 55.4558 427.25 55.1658 427.017 54.9658C426.79 54.7591 426.454 54.6558 426.007 54.6558C425.44 54.6558 424.974 54.8125 424.607 55.1258C424.24 55.4325 423.994 55.8891 423.867 56.4958L423.307 59.3158H422.597L423.637 54.0558H424.317L424.147 54.8958C424.647 54.3091 425.334 54.0158 426.207 54.0158ZM437.452 54.0558L434.072 59.3158H433.342L432.042 54.0558H432.752L433.842 58.5458L436.712 54.0558H437.452ZM438.442 54.0558H439.152L438.112 59.3158H437.402L438.442 54.0558ZM439.102 52.9058C438.962 52.9058 438.845 52.8591 438.752 52.7658C438.665 52.6725 438.622 52.5625 438.622 52.4358C438.622 52.2825 438.672 52.1558 438.772 52.0558C438.878 51.9491 439.012 51.8958 439.172 51.8958C439.312 51.8958 439.428 51.9425 439.522 52.0358C439.615 52.1225 439.662 52.2258 439.662 52.3458C439.662 52.5058 439.608 52.6391 439.502 52.7458C439.395 52.8525 439.262 52.9058 439.102 52.9058ZM446.367 51.8958L444.887 59.3158H444.207L444.377 58.4858C444.124 58.7658 443.824 58.9825 443.477 59.1358C443.131 59.2891 442.747 59.3658 442.327 59.3658C441.881 59.3658 441.484 59.2758 441.137 59.0958C440.791 58.9158 440.521 58.6591 440.327 58.3258C440.134 57.9858 440.037 57.5891 440.037 57.1358C440.037 56.5425 440.164 56.0091 440.417 55.5358C440.677 55.0625 441.034 54.6925 441.487 54.4258C441.941 54.1525 442.447 54.0158 443.007 54.0158C443.501 54.0158 443.917 54.1158 444.257 54.3158C444.604 54.5091 444.854 54.7891 445.007 55.1558L445.657 51.8958H446.367ZM442.477 58.7358C442.911 58.7358 443.301 58.6325 443.647 58.4258C443.994 58.2125 444.264 57.9191 444.457 57.5458C444.657 57.1658 444.757 56.7425 444.757 56.2758C444.757 55.7625 444.604 55.3625 444.297 55.0758C443.997 54.7825 443.574 54.6358 443.027 54.6358C442.594 54.6358 442.204 54.7425 441.857 54.9558C441.511 55.1691 441.237 55.4658 441.037 55.8458C440.844 56.2191 440.747 56.6391 440.747 57.1058C440.747 57.6191 440.897 58.0191 441.197 58.3058C441.504 58.5925 441.931 58.7358 442.477 58.7358ZM447.525 56.8858C447.518 56.9325 447.515 57.0025 447.515 57.0958C447.515 57.6291 447.665 58.0358 447.965 58.3158C448.271 58.5958 448.725 58.7358 449.325 58.7358C449.671 58.7358 449.995 58.6791 450.295 58.5658C450.601 58.4458 450.851 58.2825 451.045 58.0758L451.365 58.5858C451.118 58.8325 450.808 59.0258 450.435 59.1658C450.068 59.2991 449.678 59.3658 449.265 59.3658C448.505 59.3658 447.905 59.1658 447.465 58.7658C447.031 58.3658 446.815 57.8191 446.815 57.1258C446.815 56.5391 446.938 56.0091 447.185 55.5358C447.438 55.0625 447.785 54.6925 448.225 54.4258C448.671 54.1525 449.171 54.0158 449.725 54.0158C450.425 54.0158 450.981 54.2158 451.395 54.6158C451.808 55.0091 452.015 55.5525 452.015 56.2458C452.015 56.4391 451.991 56.6525 451.945 56.8858H447.525ZM449.705 54.6158C449.178 54.6158 448.728 54.7725 448.355 55.0858C447.981 55.3991 447.728 55.8225 447.595 56.3558H451.345C451.351 56.3091 451.355 56.2458 451.355 56.1658C451.355 55.6725 451.205 55.2925 450.905 55.0258C450.605 54.7525 450.205 54.6158 449.705 54.6158ZM455.24 59.3658C454.76 59.3658 454.34 59.2758 453.98 59.0958C453.62 58.9091 453.34 58.6491 453.14 58.3158C452.946 57.9758 452.85 57.5825 452.85 57.1358C452.85 56.5425 452.98 56.0091 453.24 55.5358C453.5 55.0625 453.86 54.6925 454.32 54.4258C454.786 54.1525 455.31 54.0158 455.89 54.0158C456.623 54.0158 457.203 54.2158 457.63 54.6158C458.063 55.0158 458.28 55.5558 458.28 56.2358C458.28 56.8291 458.15 57.3658 457.89 57.8458C457.63 58.3191 457.266 58.6925 456.8 58.9658C456.34 59.2325 455.82 59.3658 455.24 59.3658ZM455.29 58.7358C455.723 58.7358 456.113 58.6325 456.46 58.4258C456.806 58.2125 457.076 57.9191 457.27 57.5458C457.47 57.1658 457.57 56.7425 457.57 56.2758C457.57 55.7625 457.416 55.3625 457.11 55.0758C456.81 54.7825 456.386 54.6358 455.84 54.6358C455.406 54.6358 455.016 54.7425 454.67 54.9558C454.323 55.1691 454.05 55.4658 453.85 55.8458C453.656 56.2191 453.56 56.6391 453.56 57.1058C453.56 57.6191 453.71 58.0191 454.01 58.3058C454.316 58.5925 454.743 58.7358 455.29 58.7358ZM464.886 52.4458C464.573 52.4458 464.326 52.5291 464.146 52.6958C463.966 52.8625 463.84 53.1225 463.766 53.4758L463.646 54.0558H465.256L465.136 54.6558H463.546L462.616 59.3158H461.906L462.836 54.6558H461.896L462.006 54.0558H462.956L463.086 53.3958C463.186 52.8958 463.386 52.5125 463.686 52.2458C463.993 51.9791 464.393 51.8458 464.886 51.8458C465.1 51.8458 465.3 51.8758 465.486 51.9358C465.673 51.9958 465.826 52.0791 465.946 52.1858L465.636 52.7058C465.443 52.5325 465.193 52.4458 464.886 52.4458ZM467.427 59.3658C466.947 59.3658 466.527 59.2758 466.167 59.0958C465.807 58.9091 465.527 58.6491 465.327 58.3158C465.134 57.9758 465.037 57.5825 465.037 57.1358C465.037 56.5425 465.167 56.0091 465.427 55.5358C465.687 55.0625 466.047 54.6925 466.507 54.4258C466.974 54.1525 467.497 54.0158 468.077 54.0158C468.811 54.0158 469.391 54.2158 469.817 54.6158C470.251 55.0158 470.467 55.5558 470.467 56.2358C470.467 56.8291 470.337 57.3658 470.077 57.8458C469.817 58.3191 469.454 58.6925 468.987 58.9658C468.527 59.2325 468.007 59.3658 467.427 59.3658ZM467.477 58.7358C467.911 58.7358 468.301 58.6325 468.647 58.4258C468.994 58.2125 469.264 57.9191 469.457 57.5458C469.657 57.1658 469.757 56.7425 469.757 56.2758C469.757 55.7625 469.604 55.3625 469.297 55.0758C468.997 54.7825 468.574 54.6358 468.027 54.6358C467.594 54.6358 467.204 54.7425 466.857 54.9558C466.511 55.1691 466.237 55.4658 466.037 55.8458C465.844 56.2191 465.747 56.6391 465.747 57.1058C465.747 57.6191 465.897 58.0191 466.197 58.3058C466.504 58.5925 466.931 58.7358 467.477 58.7358ZM472.897 55.0158C473.13 54.6758 473.423 54.4258 473.777 54.2658C474.13 54.0991 474.557 54.0158 475.057 54.0158L474.927 54.7058L474.727 54.6958C474.16 54.6958 473.693 54.8591 473.327 55.1858C472.967 55.5125 472.723 55.9991 472.597 56.6458L472.067 59.3158H471.357L472.397 54.0558H473.077L472.897 55.0158ZM482.772 54.0158C483.366 54.0158 483.822 54.1658 484.142 54.4658C484.469 54.7591 484.632 55.1725 484.632 55.7058C484.632 55.8591 484.609 56.0658 484.562 56.3258L483.962 59.3158H483.252L483.852 56.3158C483.886 56.1625 483.902 55.9991 483.902 55.8258C483.902 55.4525 483.792 55.1658 483.572 54.9658C483.352 54.7591 483.029 54.6558 482.602 54.6558C482.069 54.6558 481.626 54.8058 481.272 55.1058C480.919 55.3991 480.682 55.8358 480.562 56.4158L479.982 59.3158H479.272L479.872 56.3158C479.906 56.1291 479.922 55.9691 479.922 55.8358C479.922 55.4558 479.812 55.1658 479.592 54.9658C479.379 54.7591 479.056 54.6558 478.622 54.6558C478.082 54.6558 477.636 54.8125 477.282 55.1258C476.929 55.4325 476.689 55.8891 476.562 56.4958L476.002 59.3158H475.292L476.332 54.0558H477.012L476.842 54.8958C477.322 54.3091 477.986 54.0158 478.832 54.0158C479.272 54.0158 479.639 54.1058 479.932 54.2858C480.232 54.4658 480.439 54.7258 480.552 55.0658C480.812 54.7191 481.129 54.4591 481.502 54.2858C481.882 54.1058 482.306 54.0158 482.772 54.0158ZM491.767 54.0558L490.717 59.3158H490.037L490.207 58.4858C489.954 58.7658 489.654 58.9825 489.307 59.1358C488.961 59.2891 488.577 59.3658 488.157 59.3658C487.711 59.3658 487.314 59.2758 486.967 59.0958C486.621 58.9158 486.351 58.6591 486.157 58.3258C485.964 57.9858 485.867 57.5891 485.867 57.1358C485.867 56.5425 485.994 56.0091 486.247 55.5358C486.507 55.0625 486.864 54.6925 487.317 54.4258C487.771 54.1525 488.277 54.0158 488.837 54.0158C489.337 54.0158 489.757 54.1158 490.097 54.3158C490.437 54.5091 490.684 54.7891 490.837 55.1558L491.057 54.0558H491.767ZM488.307 58.7358C488.741 58.7358 489.131 58.6325 489.477 58.4258C489.824 58.2125 490.094 57.9191 490.287 57.5458C490.487 57.1658 490.587 56.7425 490.587 56.2758C490.587 55.7625 490.434 55.3625 490.127 55.0758C489.827 54.7825 489.404 54.6358 488.857 54.6358C488.424 54.6358 488.034 54.7425 487.687 54.9558C487.341 55.1691 487.067 55.4658 486.867 55.8458C486.674 56.2191 486.577 56.6391 486.577 57.1058C486.577 57.6191 486.727 58.0191 487.027 58.3058C487.334 58.5925 487.761 58.7358 488.307 58.7358ZM493.835 57.7258C493.808 57.8858 493.795 57.9958 493.795 58.0558C493.795 58.5225 494.048 58.7558 494.555 58.7558C494.855 58.7558 495.125 58.6658 495.365 58.4858L495.535 59.0258C495.235 59.2525 494.845 59.3658 494.365 59.3658C493.971 59.3658 493.658 59.2591 493.425 59.0458C493.198 58.8325 493.085 58.5391 493.085 58.1658C493.085 58.0191 493.098 57.8825 493.125 57.7558L493.735 54.6558H492.805L492.915 54.0558H493.855L494.085 52.9058H494.795L494.565 54.0558H496.165L496.045 54.6558H494.445L493.835 57.7258ZM497.005 59.3658C496.858 59.3658 496.735 59.3158 496.635 59.2158C496.535 59.1158 496.485 58.9925 496.485 58.8458C496.485 58.6858 496.538 58.5525 496.645 58.4458C496.758 58.3325 496.891 58.2758 497.045 58.2758C497.191 58.2758 497.311 58.3258 497.405 58.4258C497.505 58.5258 497.555 58.6491 497.555 58.7958C497.555 58.9558 497.498 59.0925 497.385 59.2058C497.278 59.3125 497.151 59.3658 497.005 59.3658Z" fill="#0A5A55"/>
<defs>
<linearGradient id="paint0_linear_252:77" x1="262.5" y1="31.3158" x2="262.5" y2="100" gradientUnits="userSpaceOnUse">
<stop stop-color="#0A5A55"/>
<stop offset="0.0812499" stop-color="#347672" stop-opacity="0.830208"/>
<stop offset="0.201042" stop-color="#699A97" stop-opacity="0.612856"/>
<stop offset="0.3625" stop-color="white" stop-opacity="0"/>
<stop offset="0.51875" stop-color="#DEE9E8" stop-opacity="0.133182"/>
</linearGradient>
<linearGradient id="paint1_linear_252:77" x1="262.5" y1="31.3158" x2="262.5" y2="100" gradientUnits="userSpaceOnUse">
<stop stop-color="#0A5A55"/>
<stop offset="0.122917" stop-color="#347672" stop-opacity="0.830208"/>
<stop offset="0.201042" stop-color="#699A97" stop-opacity="0.612856"/>
<stop offset="0.341567" stop-color="white" stop-opacity="0"/>
<stop offset="0.341667" stop-color="#DEE9E8" stop-opacity="0.133182"/>
</linearGradient>
</defs>
</svg>
