<svg width="198" height="63" viewBox="0 0 198 63" fill="none" xmlns="http://www.w3.org/2000/svg">
<path d="M37.329 15.706L21.183 52H16.146L0.069 15.706H5.175L18.768 46.618L32.499 15.706H37.329ZM44.2285 15.706H49.1275V52H44.2285V15.706ZM46.7125 7.771C45.7005 7.771 44.8495 7.426 44.1595 6.736C43.4695 6.046 43.1245 5.218 43.1245 4.252C43.1245 3.332 43.4695 2.527 44.1595 1.837C44.8495 1.147 45.7005 0.801997 46.7125 0.801997C47.7245 0.801997 48.5755 1.147 49.2655 1.837C49.9555 2.481 50.3005 3.263 50.3005 4.183C50.3005 5.195 49.9555 6.046 49.2655 6.736C48.5755 7.426 47.7245 7.771 46.7125 7.771ZM95.8787 0.801997V52H91.1867V44.824C89.7147 47.262 87.7597 49.125 85.3217 50.413C82.9297 51.701 80.2157 52.345 77.1797 52.345C73.7757 52.345 70.6937 51.563 67.9337 49.999C65.1737 48.435 63.0117 46.25 61.4477 43.444C59.8837 40.638 59.1017 37.441 59.1017 33.853C59.1017 30.265 59.8837 27.068 61.4477 24.262C63.0117 21.456 65.1737 19.294 67.9337 17.776C70.6937 16.212 73.7757 15.43 77.1797 15.43C80.1237 15.43 82.7687 16.051 85.1147 17.293C87.5067 18.489 89.4617 20.26 90.9797 22.606V0.801997H95.8787ZM77.5937 47.998C80.1237 47.998 82.4007 47.423 84.4247 46.273C86.4947 45.077 88.1047 43.398 89.2547 41.236C90.4507 39.074 91.0487 36.613 91.0487 33.853C91.0487 31.093 90.4507 28.632 89.2547 26.47C88.1047 24.308 86.4947 22.652 84.4247 21.502C82.4007 20.306 80.1237 19.708 77.5937 19.708C75.0177 19.708 72.6947 20.306 70.6247 21.502C68.6007 22.652 66.9907 24.308 65.7947 26.47C64.6447 28.632 64.0697 31.093 64.0697 33.853C64.0697 36.613 64.6447 39.074 65.7947 41.236C66.9907 43.398 68.6007 45.077 70.6247 46.273C72.6947 47.423 75.0177 47.998 77.5937 47.998ZM141.124 35.371H110.764C111.04 39.143 112.489 42.202 115.111 44.548C117.733 46.848 121.045 47.998 125.047 47.998C127.301 47.998 129.371 47.607 131.257 46.825C133.143 45.997 134.776 44.801 136.156 43.237L138.916 46.411C137.306 48.343 135.282 49.815 132.844 50.827C130.452 51.839 127.807 52.345 124.909 52.345C121.183 52.345 117.871 51.563 114.973 49.999C112.121 48.389 109.89 46.181 108.28 43.375C106.67 40.569 105.865 37.395 105.865 33.853C105.865 30.311 106.624 27.137 108.142 24.331C109.706 21.525 111.822 19.34 114.49 17.776C117.204 16.212 120.24 15.43 123.598 15.43C126.956 15.43 129.969 16.212 132.637 17.776C135.305 19.34 137.398 21.525 138.916 24.331C140.434 27.091 141.193 30.265 141.193 33.853L141.124 35.371ZM123.598 19.639C120.102 19.639 117.158 20.766 114.766 23.02C112.42 25.228 111.086 28.126 110.764 31.714H136.501C136.179 28.126 134.822 25.228 132.43 23.02C130.084 20.766 127.14 19.639 123.598 19.639ZM166 52.345C162.504 52.345 159.353 51.563 156.547 49.999C153.741 48.389 151.533 46.181 149.923 43.375C148.313 40.569 147.508 37.395 147.508 33.853C147.508 30.311 148.313 27.137 149.923 24.331C151.533 21.525 153.741 19.34 156.547 17.776C159.353 16.212 162.504 15.43 166 15.43C169.496 15.43 172.647 16.212 175.453 17.776C178.259 19.34 180.444 21.525 182.008 24.331C183.618 27.137 184.423 30.311 184.423 33.853C184.423 37.395 183.618 40.569 182.008 43.375C180.444 46.181 178.259 48.389 175.453 49.999C172.647 51.563 169.496 52.345 166 52.345ZM166 47.998C168.576 47.998 170.876 47.423 172.9 46.273C174.97 45.077 176.58 43.398 177.73 41.236C178.88 39.074 179.455 36.613 179.455 33.853C179.455 31.093 178.88 28.632 177.73 26.47C176.58 24.308 174.97 22.652 172.9 21.502C170.876 20.306 168.576 19.708 166 19.708C163.424 19.708 161.101 20.306 159.031 21.502C157.007 22.652 155.397 24.308 154.201 26.47C153.051 28.632 152.476 31.093 152.476 33.853C152.476 36.613 153.051 39.074 154.201 41.236C155.397 43.398 157.007 45.077 159.031 46.273C161.101 47.423 163.424 47.998 166 47.998ZM193.966 44.824C195.024 44.824 195.898 45.192 196.588 45.928C197.278 46.618 197.623 47.492 197.623 48.55C197.623 49.102 197.531 49.7 197.347 50.344C197.209 50.988 196.979 51.724 196.657 52.552L193.759 62.074H190.447L192.793 52.069C192.057 51.839 191.459 51.425 190.999 50.827C190.539 50.183 190.309 49.424 190.309 48.55C190.309 47.492 190.654 46.618 191.344 45.928C192.034 45.192 192.908 44.824 193.966 44.824Z" fill="url(#paint0_linear_251:99)"/>
<defs>
<linearGradient id="paint0_linear_251:99" x1="124" y1="18" x2="124" y2="61.5" gradientUnits="userSpaceOnUse">
<stop stop-color="#0A5A55"/>
<stop offset="1" stop-color="white" stop-opacity="0"/>
</linearGradient>
</defs>
</svg>
