<svg width="1256" height="284" viewBox="0 0 1256 284" fill="none" xmlns="http://www.w3.org/2000/svg">
<path d="M242 175H1031V282H242V175Z" fill="#0A5A55" fill-opacity="0.6"/>
<path d="M1034.5 177.5H1228.92L1253.23 228.5L1228.92 279.5H1034.5V177.5Z" fill="#FFE0C4" stroke="#0A5A55" stroke-width="5"/>
<path d="M279.727 78.54C273.487 78.54 267.847 77.16 262.807 74.4C257.827 71.64 253.897 67.83 251.017 62.97C248.197 58.05 246.787 52.56 246.787 46.5C246.787 40.44 248.197 34.98 251.017 30.12C253.897 25.2 257.857 21.36 262.897 18.6C267.937 15.84 273.577 14.46 279.817 14.46C284.497 14.46 288.817 15.24 292.777 16.8C296.737 18.36 300.097 20.64 302.857 23.64L298.627 27.87C293.707 22.89 287.497 20.4 279.997 20.4C275.017 20.4 270.487 21.54 266.407 23.82C262.327 26.1 259.117 29.22 256.777 33.18C254.497 37.14 253.357 41.58 253.357 46.5C253.357 51.42 254.497 55.86 256.777 59.82C259.117 63.78 262.327 66.9 266.407 69.18C270.487 71.46 275.017 72.6 279.997 72.6C287.557 72.6 293.767 70.08 298.627 65.04L302.857 69.27C300.097 72.27 296.707 74.58 292.687 76.2C288.727 77.76 284.407 78.54 279.727 78.54ZM342.259 78.54C334.099 78.54 327.739 76.2 323.179 71.52C318.619 66.84 316.339 60.03 316.339 51.09V15H322.999V50.82C322.999 58.14 324.649 63.6 327.949 67.2C331.249 70.8 336.019 72.6 342.259 72.6C348.559 72.6 353.359 70.8 356.659 67.2C359.959 63.6 361.609 58.14 361.609 50.82V15H368.089V51.09C368.089 60.03 365.809 66.84 361.249 71.52C356.749 76.2 350.419 78.54 342.259 78.54ZM431.178 78L416.778 57.75C415.158 57.93 413.478 58.02 411.738 58.02H394.818V78H388.158V15H411.738C419.778 15 426.078 16.92 430.638 20.76C435.198 24.6 437.478 29.88 437.478 36.6C437.478 41.52 436.218 45.69 433.698 49.11C431.238 52.47 427.698 54.9 423.078 56.4L438.468 78H431.178ZM411.558 52.35C417.798 52.35 422.568 50.97 425.868 48.21C429.168 45.45 430.818 41.58 430.818 36.6C430.818 31.5 429.168 27.6 425.868 24.9C422.568 22.14 417.798 20.76 411.558 20.76H394.818V52.35H411.558ZM496.218 78L481.818 57.75C480.198 57.93 478.518 58.02 476.778 58.02H459.858V78H453.198V15H476.778C484.818 15 491.118 16.92 495.678 20.76C500.238 24.6 502.518 29.88 502.518 36.6C502.518 41.52 501.258 45.69 498.738 49.11C496.278 52.47 492.738 54.9 488.118 56.4L503.508 78H496.218ZM476.598 52.35C482.838 52.35 487.608 50.97 490.908 48.21C494.208 45.45 495.857 41.58 495.857 36.6C495.857 31.5 494.208 27.6 490.908 24.9C487.608 22.14 482.838 20.76 476.598 20.76H459.858V52.35H476.598ZM562.787 72.24V78H518.237V15H561.437V20.76H524.897V43.17H557.477V48.84H524.897V72.24H562.787ZM631.092 15V78H625.602L585.102 26.88V78H578.442V15H583.932L624.522 66.12V15H631.092ZM679.015 78.54C672.775 78.54 667.135 77.16 662.095 74.4C657.115 71.64 653.185 67.83 650.305 62.97C647.485 58.05 646.075 52.56 646.075 46.5C646.075 40.44 647.485 34.98 650.305 30.12C653.185 25.2 657.145 21.36 662.185 18.6C667.225 15.84 672.865 14.46 679.105 14.46C683.785 14.46 688.105 15.24 692.065 16.8C696.025 18.36 699.385 20.64 702.145 23.64L697.915 27.87C692.995 22.89 686.785 20.4 679.285 20.4C674.305 20.4 669.775 21.54 665.695 23.82C661.615 26.1 658.405 29.22 656.065 33.18C653.785 37.14 652.645 41.58 652.645 46.5C652.645 51.42 653.785 55.86 656.065 59.82C658.405 63.78 661.615 66.9 665.695 69.18C669.775 71.46 674.305 72.6 679.285 72.6C686.845 72.6 693.055 70.08 697.915 65.04L702.145 69.27C699.385 72.27 695.995 74.58 691.975 76.2C688.015 77.76 683.695 78.54 679.015 78.54ZM736.624 56.22V78H730.054V56.22L704.854 15H711.964L733.564 50.37L755.164 15H761.824L736.624 56.22Z" fill="#0A5A55" fill-opacity="0.6"/>
<path d="M279.666 164.54C273.426 164.54 267.786 163.16 262.746 160.4C257.766 157.64 253.836 153.83 250.956 148.97C248.136 144.05 246.726 138.56 246.726 132.5C246.726 126.44 248.136 120.98 250.956 116.12C253.836 111.2 257.796 107.36 262.836 104.6C267.876 101.84 273.516 100.46 279.756 100.46C284.436 100.46 288.756 101.24 292.716 102.8C296.676 104.36 300.036 106.64 302.796 109.64L298.566 113.87C293.646 108.89 287.436 106.4 279.936 106.4C274.956 106.4 270.426 107.54 266.346 109.82C262.266 112.1 259.056 115.22 256.716 119.18C254.436 123.14 253.296 127.58 253.296 132.5C253.296 137.42 254.436 141.86 256.716 145.82C259.056 149.78 262.266 152.9 266.346 155.18C270.426 157.46 274.956 158.6 279.936 158.6C287.496 158.6 293.706 156.08 298.566 151.04L302.796 155.27C300.036 158.27 296.646 160.58 292.626 162.2C288.666 163.76 284.346 164.54 279.666 164.54ZM360.013 164L345.613 143.75C343.993 143.93 342.313 144.02 340.573 144.02H323.653V164H316.993V101H340.573C348.613 101 354.913 102.92 359.473 106.76C364.033 110.6 366.313 115.88 366.313 122.6C366.313 127.52 365.053 131.69 362.533 135.11C360.073 138.47 356.533 140.9 351.913 142.4L367.303 164H360.013ZM340.393 138.35C346.633 138.35 351.403 136.97 354.703 134.21C358.003 131.45 359.653 127.58 359.653 122.6C359.653 117.5 358.003 113.6 354.703 110.9C351.403 108.14 346.633 106.76 340.393 106.76H323.653V138.35H340.393ZM402.754 142.22V164H396.184V142.22L370.984 101H378.094L399.694 136.37L421.294 101H427.954L402.754 142.22ZM460.544 101C468.584 101 474.884 102.92 479.444 106.76C484.004 110.6 486.284 115.88 486.284 122.6C486.284 129.32 484.004 134.6 479.444 138.44C474.884 142.22 468.584 144.11 460.544 144.11H443.624V164H436.964V101H460.544ZM460.364 138.26C466.604 138.26 471.374 136.91 474.674 134.21C477.974 131.45 479.624 127.58 479.624 122.6C479.624 117.5 477.974 113.6 474.674 110.9C471.374 108.14 466.604 106.76 460.364 106.76H443.624V138.26H460.364ZM510.815 106.76H488.675V101H539.615V106.76H517.475V164H510.815V106.76ZM576.916 164.54C570.676 164.54 565.006 163.16 559.906 160.4C554.866 157.58 550.906 153.74 548.026 148.88C545.206 144.02 543.796 138.56 543.796 132.5C543.796 126.44 545.206 120.98 548.026 116.12C550.906 111.26 554.866 107.45 559.906 104.69C565.006 101.87 570.676 100.46 576.916 100.46C583.156 100.46 588.766 101.84 593.746 104.6C598.786 107.36 602.746 111.2 605.626 116.12C608.506 120.98 609.946 126.44 609.946 132.5C609.946 138.56 608.506 144.05 605.626 148.97C602.746 153.83 598.786 157.64 593.746 160.4C588.766 163.16 583.156 164.54 576.916 164.54ZM576.916 158.6C581.896 158.6 586.396 157.49 590.416 155.27C594.436 152.99 597.586 149.87 599.866 145.91C602.146 141.89 603.286 137.42 603.286 132.5C603.286 127.58 602.146 123.14 599.866 119.18C597.586 115.16 594.436 112.04 590.416 109.82C586.396 107.54 581.896 106.4 576.916 106.4C571.936 106.4 567.406 107.54 563.326 109.82C559.306 112.04 556.126 115.16 553.786 119.18C551.506 123.14 550.366 127.58 550.366 132.5C550.366 137.42 551.506 141.89 553.786 145.91C556.126 149.87 559.306 152.99 563.326 155.27C567.406 157.49 571.936 158.6 576.916 158.6ZM675.789 164.54C669.549 164.54 663.909 163.16 658.869 160.4C653.889 157.64 649.959 153.83 647.079 148.97C644.259 144.05 642.849 138.56 642.849 132.5C642.849 126.44 644.259 120.98 647.079 116.12C649.959 111.2 653.919 107.36 658.959 104.6C663.999 101.84 669.639 100.46 675.879 100.46C680.559 100.46 684.879 101.24 688.839 102.8C692.799 104.36 696.159 106.64 698.919 109.64L694.689 113.87C689.769 108.89 683.559 106.4 676.059 106.4C671.079 106.4 666.549 107.54 662.469 109.82C658.389 112.1 655.179 115.22 652.839 119.18C650.559 123.14 649.419 127.58 649.419 132.5C649.419 137.42 650.559 141.86 652.839 145.82C655.179 149.78 658.389 152.9 662.469 155.18C666.549 157.46 671.079 158.6 676.059 158.6C683.619 158.6 689.829 156.08 694.689 151.04L698.919 155.27C696.159 158.27 692.769 160.58 688.749 162.2C684.789 163.76 680.469 164.54 675.789 164.54ZM738.321 164.54C730.161 164.54 723.801 162.2 719.241 157.52C714.681 152.84 712.401 146.03 712.401 137.09V101H719.061V136.82C719.061 144.14 720.711 149.6 724.011 153.2C727.311 156.8 732.081 158.6 738.321 158.6C744.621 158.6 749.421 156.8 752.721 153.2C756.021 149.6 757.671 144.14 757.671 136.82V101H764.151V137.09C764.151 146.03 761.871 152.84 757.311 157.52C752.811 162.2 746.481 164.54 738.321 164.54ZM827.24 164L812.84 143.75C811.22 143.93 809.54 144.02 807.8 144.02H790.88V164H784.22V101H807.8C815.84 101 822.14 102.92 826.7 106.76C831.26 110.6 833.54 115.88 833.54 122.6C833.54 127.52 832.28 131.69 829.76 135.11C827.3 138.47 823.76 140.9 819.14 142.4L834.53 164H827.24ZM807.62 138.35C813.86 138.35 818.63 136.97 821.93 134.21C825.23 131.45 826.88 127.58 826.88 122.6C826.88 117.5 825.23 113.6 821.93 110.9C818.63 108.14 813.86 106.76 807.62 106.76H790.88V138.35H807.62ZM892.279 164L877.879 143.75C876.259 143.93 874.579 144.02 872.839 144.02H855.919V164H849.259V101H872.839C880.879 101 887.179 102.92 891.739 106.76C896.299 110.6 898.579 115.88 898.579 122.6C898.579 127.52 897.319 131.69 894.799 135.11C892.339 138.47 888.799 140.9 884.179 142.4L899.569 164H892.279ZM872.659 138.35C878.899 138.35 883.669 136.97 886.969 134.21C890.269 131.45 891.919 127.58 891.919 122.6C891.919 117.5 890.269 113.6 886.969 110.9C883.669 108.14 878.899 106.76 872.659 106.76H855.919V138.35H872.659ZM958.848 158.24V164H914.298V101H957.498V106.76H920.958V129.17H953.538V134.84H920.958V158.24H958.848ZM1027.15 101V164H1021.66L981.163 112.88V164H974.503V101H979.993L1020.58 152.12V101H1027.15ZM1075.08 164.54C1068.84 164.54 1063.2 163.16 1058.16 160.4C1053.18 157.64 1049.25 153.83 1046.37 148.97C1043.55 144.05 1042.14 138.56 1042.14 132.5C1042.14 126.44 1043.55 120.98 1046.37 116.12C1049.25 111.2 1053.21 107.36 1058.25 104.6C1063.29 101.84 1068.93 100.46 1075.17 100.46C1079.85 100.46 1084.17 101.24 1088.13 102.8C1092.09 104.36 1095.45 106.64 1098.21 109.64L1093.98 113.87C1089.06 108.89 1082.85 106.4 1075.35 106.4C1070.37 106.4 1065.84 107.54 1061.76 109.82C1057.68 112.1 1054.47 115.22 1052.13 119.18C1049.85 123.14 1048.71 127.58 1048.71 132.5C1048.71 137.42 1049.85 141.86 1052.13 145.82C1054.47 149.78 1057.68 152.9 1061.76 155.18C1065.84 157.46 1070.37 158.6 1075.35 158.6C1082.91 158.6 1089.12 156.08 1093.98 151.04L1098.21 155.27C1095.45 158.27 1092.06 160.58 1088.04 162.2C1084.08 163.76 1079.76 164.54 1075.08 164.54ZM1132.69 142.22V164H1126.12V142.22L1100.92 101H1108.03L1129.63 136.37L1151.23 101H1157.89L1132.69 142.22Z" fill="#0A5A55" fill-opacity="0.6"/>
<g filter="url(#filter0_d_86_45)">
<path d="M312.298 206.65L287.883 262.035C285.729 267.165 283.196 270.775 280.283 272.865C277.433 274.955 273.981 276 269.928 276C267.458 276 265.051 275.588 262.708 274.765C260.428 274.005 258.528 272.865 257.008 271.345L260.903 264.505C263.499 266.975 266.508 268.21 269.928 268.21C272.144 268.21 273.981 267.608 275.438 266.405C276.958 265.265 278.319 263.27 279.523 260.42L281.138 256.905L258.908 206.65H268.408L285.983 246.93L303.368 206.65H312.298ZM340.982 257.57C335.979 257.57 331.482 256.462 327.492 254.245C323.502 252.028 320.367 248.988 318.087 245.125C315.871 241.198 314.762 236.765 314.762 231.825C314.762 226.885 315.871 222.483 318.087 218.62C320.367 214.693 323.502 211.653 327.492 209.5C331.482 207.283 335.979 206.175 340.982 206.175C345.986 206.175 350.451 207.283 354.377 209.5C358.367 211.653 361.471 214.693 363.687 218.62C365.967 222.483 367.107 226.885 367.107 231.825C367.107 236.765 365.967 241.198 363.687 245.125C361.471 248.988 358.367 252.028 354.377 254.245C350.451 256.462 345.986 257.57 340.982 257.57ZM340.982 249.59C344.212 249.59 347.094 248.862 349.627 247.405C352.224 245.885 354.251 243.795 355.707 241.135C357.164 238.412 357.892 235.308 357.892 231.825C357.892 228.342 357.164 225.27 355.707 222.61C354.251 219.887 352.224 217.797 349.627 216.34C347.094 214.883 344.212 214.155 340.982 214.155C337.752 214.155 334.839 214.883 332.242 216.34C329.709 217.797 327.682 219.887 326.162 222.61C324.706 225.27 323.977 228.342 323.977 231.825C323.977 235.308 324.706 238.412 326.162 241.135C327.682 243.795 329.709 245.885 332.242 247.405C334.839 248.862 337.752 249.59 340.982 249.59ZM426.65 206.65V257H418.005V249.4C416.169 251.997 413.73 254.023 410.69 255.48C407.714 256.873 404.452 257.57 400.905 257.57C394.192 257.57 388.904 255.733 385.04 252.06C381.177 248.323 379.245 242.845 379.245 235.625V206.65H388.365V234.58C388.365 239.457 389.537 243.162 391.88 245.695C394.224 248.165 397.58 249.4 401.95 249.4C406.764 249.4 410.564 247.943 413.35 245.03C416.137 242.117 417.53 238 417.53 232.68V206.65H426.65ZM452.752 215.105C454.336 212.192 456.679 209.975 459.782 208.455C462.886 206.935 466.654 206.175 471.087 206.175V215.01C470.581 214.947 469.884 214.915 468.997 214.915C464.057 214.915 460.162 216.403 457.312 219.38C454.526 222.293 453.132 226.473 453.132 231.92V257H444.012V206.65H452.752V215.105ZM535.375 206.175C541.771 206.175 546.838 208.043 550.575 211.78C554.375 215.453 556.275 220.868 556.275 228.025V257H547.155V229.07C547.155 224.193 545.983 220.52 543.64 218.05C541.296 215.58 537.94 214.345 533.57 214.345C528.63 214.345 524.735 215.802 521.885 218.715C519.035 221.565 517.61 225.682 517.61 231.065V257H508.49V206.65H517.23V214.25C519.066 211.653 521.536 209.658 524.64 208.265C527.806 206.872 531.385 206.175 535.375 206.175ZM618.936 232.11C618.936 232.807 618.873 233.725 618.746 234.865H577.896C578.466 239.298 580.398 242.877 583.691 245.6C587.048 248.26 591.196 249.59 596.136 249.59C602.153 249.59 606.998 247.563 610.671 243.51L615.706 249.4C613.426 252.06 610.576 254.087 607.156 255.48C603.799 256.873 600.031 257.57 595.851 257.57C590.531 257.57 585.813 256.493 581.696 254.34C577.579 252.123 574.381 249.052 572.101 245.125C569.884 241.198 568.776 236.765 568.776 231.825C568.776 226.948 569.853 222.547 572.006 218.62C574.223 214.693 577.231 211.653 581.031 209.5C584.894 207.283 589.233 206.175 594.046 206.175C598.859 206.175 603.134 207.283 606.871 209.5C610.671 211.653 613.616 214.693 615.706 218.62C617.859 222.547 618.936 227.043 618.936 232.11ZM594.046 213.87C589.676 213.87 586.003 215.2 583.026 217.86C580.113 220.52 578.403 224.003 577.896 228.31H610.196C609.689 224.067 607.948 220.615 604.971 217.955C602.058 215.232 598.416 213.87 594.046 213.87ZM706.862 206.65L688.052 257H679.312L664.777 218.81L650.052 257H641.312L622.597 206.65H631.242L645.872 246.74L661.072 206.65H668.767L683.682 246.93L698.692 206.65H706.862ZM763.574 257.57C758.444 257.57 753.853 256.462 749.799 254.245C745.809 252.028 742.674 248.988 740.394 245.125C738.114 241.198 736.974 236.765 736.974 231.825C736.974 226.885 738.114 222.483 740.394 218.62C742.674 214.693 745.809 211.653 749.799 209.5C753.853 207.283 758.444 206.175 763.574 206.175C768.134 206.175 772.188 207.093 775.734 208.93C779.344 210.767 782.131 213.427 784.094 216.91L777.159 221.375C775.576 218.968 773.613 217.163 771.269 215.96C768.926 214.757 766.329 214.155 763.479 214.155C760.186 214.155 757.209 214.883 754.549 216.34C751.953 217.797 749.894 219.887 748.374 222.61C746.918 225.27 746.189 228.342 746.189 231.825C746.189 235.372 746.918 238.507 748.374 241.23C749.894 243.89 751.953 245.948 754.549 247.405C757.209 248.862 760.186 249.59 763.479 249.59C766.329 249.59 768.926 248.988 771.269 247.785C773.613 246.582 775.576 244.777 777.159 242.37L784.094 246.74C782.131 250.223 779.344 252.915 775.734 254.815C772.188 256.652 768.134 257.57 763.574 257.57ZM804.642 215.105C806.225 212.192 808.569 209.975 811.672 208.455C814.775 206.935 818.544 206.175 822.977 206.175V215.01C822.47 214.947 821.774 214.915 820.887 214.915C815.947 214.915 812.052 216.403 809.202 219.38C806.415 222.293 805.022 226.473 805.022 231.92V257H795.902V206.65H804.642V215.105ZM879.258 232.11C879.258 232.807 879.195 233.725 879.068 234.865H838.218C838.788 239.298 840.72 242.877 844.013 245.6C847.37 248.26 851.518 249.59 856.458 249.59C862.475 249.59 867.32 247.563 870.993 243.51L876.028 249.4C873.748 252.06 870.898 254.087 867.478 255.48C864.122 256.873 860.353 257.57 856.173 257.57C850.853 257.57 846.135 256.493 842.018 254.34C837.902 252.123 834.703 249.052 832.423 245.125C830.207 241.198 829.098 236.765 829.098 231.825C829.098 226.948 830.175 222.547 832.328 218.62C834.545 214.693 837.553 211.653 841.353 209.5C845.217 207.283 849.555 206.175 854.368 206.175C859.182 206.175 863.457 207.283 867.193 209.5C870.993 211.653 873.938 214.693 876.028 218.62C878.182 222.547 879.258 227.043 879.258 232.11ZM854.368 213.87C849.998 213.87 846.325 215.2 843.348 217.86C840.435 220.52 838.725 224.003 838.218 228.31H870.518C870.012 224.067 868.27 220.615 865.293 217.955C862.38 215.232 858.738 213.87 854.368 213.87ZM939.422 186.51V257H930.682V249.02C928.656 251.807 926.091 253.928 922.987 255.385C919.884 256.842 916.464 257.57 912.727 257.57C907.851 257.57 903.481 256.493 899.617 254.34C895.754 252.187 892.714 249.178 890.497 245.315C888.344 241.388 887.267 236.892 887.267 231.825C887.267 226.758 888.344 222.293 890.497 218.43C892.714 214.567 895.754 211.558 899.617 209.405C903.481 207.252 907.851 206.175 912.727 206.175C916.337 206.175 919.662 206.872 922.702 208.265C925.742 209.595 928.276 211.59 930.302 214.25V186.51H939.422ZM913.487 249.59C916.654 249.59 919.536 248.862 922.132 247.405C924.729 245.885 926.756 243.795 928.212 241.135C929.669 238.412 930.397 235.308 930.397 231.825C930.397 228.342 929.669 225.27 928.212 222.61C926.756 219.887 924.729 217.797 922.132 216.34C919.536 214.883 916.654 214.155 913.487 214.155C910.257 214.155 907.344 214.883 904.747 216.34C902.214 217.797 900.187 219.887 898.667 222.61C897.211 225.27 896.482 228.342 896.482 231.825C896.482 235.308 897.211 238.412 898.667 241.135C900.187 243.795 902.214 245.885 904.747 247.405C907.344 248.862 910.257 249.59 913.487 249.59ZM956.678 206.65H965.798V257H956.678V206.65ZM961.238 196.96C959.465 196.96 957.977 196.39 956.773 195.25C955.633 194.11 955.063 192.717 955.063 191.07C955.063 189.423 955.633 188.03 956.773 186.89C957.977 185.687 959.465 185.085 961.238 185.085C963.012 185.085 964.468 185.655 965.608 186.795C966.812 187.872 967.413 189.233 967.413 190.88C967.413 192.59 966.812 194.047 965.608 195.25C964.468 196.39 963.012 196.96 961.238 196.96ZM1011.52 254.055C1010.19 255.195 1008.54 256.082 1006.58 256.715C1004.62 257.285 1002.59 257.57 1000.5 257.57C995.435 257.57 991.508 256.208 988.721 253.485C985.935 250.762 984.541 246.867 984.541 241.8V214.155H975.991V206.65H984.541V195.63H993.661V206.65H1008.1V214.155H993.661V241.42C993.661 244.143 994.326 246.233 995.656 247.69C997.05 249.147 999.013 249.875 1001.55 249.875C1004.33 249.875 1006.71 249.083 1008.67 247.5L1011.52 254.055Z" fill="#FFE0C4"/>
</g>
<path d="M1065.54 206.1V219.84C1065.54 222.62 1064.85 224.67 1063.47 225.99C1062.09 227.33 1060.03 228 1057.29 228C1055.79 228 1054.36 227.79 1053 227.37C1051.64 226.97 1050.54 226.39 1049.7 225.63L1051.08 223.41C1051.82 224.05 1052.73 224.55 1053.81 224.91C1054.91 225.29 1056.04 225.48 1057.2 225.48C1059.06 225.48 1060.43 225.04 1061.31 224.16C1062.21 223.28 1062.66 221.94 1062.66 220.14V218.88C1061.98 219.7 1061.14 220.32 1060.14 220.74C1059.16 221.14 1058.09 221.34 1056.93 221.34C1055.41 221.34 1054.03 221.02 1052.79 220.38C1051.57 219.72 1050.61 218.81 1049.91 217.65C1049.21 216.47 1048.86 215.13 1048.86 213.63C1048.86 212.13 1049.21 210.8 1049.91 209.64C1050.61 208.46 1051.57 207.55 1052.79 206.91C1054.03 206.27 1055.41 205.95 1056.93 205.95C1058.13 205.95 1059.24 206.17 1060.26 206.61C1061.3 207.05 1062.15 207.7 1062.81 208.56V206.1H1065.54ZM1057.26 218.82C1058.3 218.82 1059.23 218.6 1060.05 218.16C1060.89 217.72 1061.54 217.11 1062 216.33C1062.48 215.53 1062.72 214.63 1062.72 213.63C1062.72 212.09 1062.21 210.85 1061.19 209.91C1060.17 208.95 1058.86 208.47 1057.26 208.47C1055.64 208.47 1054.32 208.95 1053.3 209.91C1052.28 210.85 1051.77 212.09 1051.77 213.63C1051.77 214.63 1052 215.53 1052.46 216.33C1052.94 217.11 1053.59 217.72 1054.41 218.16C1055.25 218.6 1056.2 218.82 1057.26 218.82ZM1085.41 214.14C1085.41 214.36 1085.39 214.65 1085.35 215.01H1072.45C1072.63 216.41 1073.24 217.54 1074.28 218.4C1075.34 219.24 1076.65 219.66 1078.21 219.66C1080.11 219.66 1081.64 219.02 1082.8 217.74L1084.39 219.6C1083.67 220.44 1082.77 221.08 1081.69 221.52C1080.63 221.96 1079.44 222.18 1078.12 222.18C1076.44 222.18 1074.95 221.84 1073.65 221.16C1072.35 220.46 1071.34 219.49 1070.62 218.25C1069.92 217.01 1069.57 215.61 1069.57 214.05C1069.57 212.51 1069.91 211.12 1070.59 209.88C1071.29 208.64 1072.24 207.68 1073.44 207C1074.66 206.3 1076.03 205.95 1077.55 205.95C1079.07 205.95 1080.42 206.3 1081.6 207C1082.8 207.68 1083.73 208.64 1084.39 209.88C1085.07 211.12 1085.41 212.54 1085.41 214.14ZM1077.55 208.38C1076.17 208.38 1075.01 208.8 1074.07 209.64C1073.15 210.48 1072.61 211.58 1072.45 212.94H1082.65C1082.49 211.6 1081.94 210.51 1081 209.67C1080.08 208.81 1078.93 208.38 1077.55 208.38ZM1098.35 221.07C1097.93 221.43 1097.41 221.71 1096.79 221.91C1096.17 222.09 1095.53 222.18 1094.87 222.18C1093.27 222.18 1092.03 221.75 1091.15 220.89C1090.27 220.03 1089.83 218.8 1089.83 217.2V208.47H1087.13V206.1H1089.83V202.62H1092.71V206.1H1097.27V208.47H1092.71V217.08C1092.71 217.94 1092.92 218.6 1093.34 219.06C1093.78 219.52 1094.4 219.75 1095.2 219.75C1096.08 219.75 1096.83 219.5 1097.45 219L1098.35 221.07ZM1129.78 205.95C1131.78 205.95 1133.36 206.53 1134.52 207.69C1135.7 208.85 1136.29 210.57 1136.29 212.85V222H1133.41V213.18C1133.41 211.64 1133.05 210.48 1132.33 209.7C1131.63 208.92 1130.62 208.53 1129.3 208.53C1127.84 208.53 1126.68 208.99 1125.82 209.91C1124.96 210.81 1124.53 212.11 1124.53 213.81V222H1121.65V213.18C1121.65 211.64 1121.29 210.48 1120.57 209.7C1119.87 208.92 1118.86 208.53 1117.54 208.53C1116.08 208.53 1114.92 208.99 1114.06 209.91C1113.2 210.81 1112.77 212.11 1112.77 213.81V222H1109.89V206.1H1112.65V208.47C1113.23 207.65 1113.99 207.03 1114.93 206.61C1115.87 206.17 1116.94 205.95 1118.14 205.95C1119.38 205.95 1120.48 206.2 1121.44 206.7C1122.4 207.2 1123.14 207.93 1123.66 208.89C1124.26 207.97 1125.09 207.25 1126.15 206.73C1127.23 206.21 1128.44 205.95 1129.78 205.95ZM1155.36 206.1L1147.65 223.59C1146.97 225.21 1146.17 226.35 1145.25 227.01C1144.35 227.67 1143.26 228 1141.98 228C1141.2 228 1140.44 227.87 1139.7 227.61C1138.98 227.37 1138.38 227.01 1137.9 226.53L1139.13 224.37C1139.95 225.15 1140.9 225.54 1141.98 225.54C1142.68 225.54 1143.26 225.35 1143.72 224.97C1144.2 224.61 1144.63 223.98 1145.01 223.08L1145.52 221.97L1138.5 206.1H1141.5L1147.05 218.82L1152.54 206.1H1155.36ZM1171.93 201.93C1170.21 201.93 1169.35 202.86 1169.35 204.72V206.1H1173.97V208.47H1169.41V222H1166.53V208.47H1163.83V206.1H1166.53V204.69C1166.53 203.11 1166.99 201.86 1167.91 200.94C1168.83 200.02 1170.12 199.56 1171.78 199.56C1172.42 199.56 1173.02 199.64 1173.58 199.8C1174.14 199.96 1174.62 200.19 1175.02 200.49L1174.15 202.68C1173.49 202.18 1172.75 201.93 1171.93 201.93ZM1179.1 206.1H1181.98V222H1179.1V206.1ZM1180.54 203.04C1179.98 203.04 1179.51 202.86 1179.13 202.5C1178.77 202.14 1178.59 201.7 1178.59 201.18C1178.59 200.66 1178.77 200.22 1179.13 199.86C1179.51 199.48 1179.98 199.29 1180.54 199.29C1181.1 199.29 1181.56 199.47 1181.92 199.83C1182.3 200.17 1182.49 200.6 1182.49 201.12C1182.49 201.66 1182.3 202.12 1181.92 202.5C1181.56 202.86 1181.1 203.04 1180.54 203.04ZM1190.23 208.77C1190.73 207.85 1191.47 207.15 1192.45 206.67C1193.43 206.19 1194.62 205.95 1196.02 205.95V208.74C1195.86 208.72 1195.64 208.71 1195.36 208.71C1193.8 208.71 1192.57 209.18 1191.67 210.12C1190.79 211.04 1190.35 212.36 1190.35 214.08V222H1187.47V206.1H1190.23V208.77ZM1204.24 222.18C1202.94 222.18 1201.69 222.01 1200.49 221.67C1199.29 221.31 1198.35 220.86 1197.67 220.32L1198.87 218.04C1199.57 218.54 1200.42 218.94 1201.42 219.24C1202.42 219.54 1203.43 219.69 1204.45 219.69C1206.97 219.69 1208.23 218.97 1208.23 217.53C1208.23 217.05 1208.06 216.67 1207.72 216.39C1207.38 216.11 1206.95 215.91 1206.43 215.79C1205.93 215.65 1205.21 215.5 1204.27 215.34C1202.99 215.14 1201.94 214.91 1201.12 214.65C1200.32 214.39 1199.63 213.95 1199.05 213.33C1198.47 212.71 1198.18 211.84 1198.18 210.72C1198.18 209.28 1198.78 208.13 1199.98 207.27C1201.18 206.39 1202.79 205.95 1204.81 205.95C1205.87 205.95 1206.93 206.08 1207.99 206.34C1209.05 206.6 1209.92 206.95 1210.6 207.39L1209.37 209.67C1208.07 208.83 1206.54 208.41 1204.78 208.41C1203.56 208.41 1202.63 208.61 1201.99 209.01C1201.35 209.41 1201.03 209.94 1201.03 210.6C1201.03 211.12 1201.21 211.53 1201.57 211.83C1201.93 212.13 1202.37 212.35 1202.89 212.49C1203.43 212.63 1204.18 212.79 1205.14 212.97C1206.42 213.19 1207.45 213.43 1208.23 213.69C1209.03 213.93 1209.71 214.35 1210.27 214.95C1210.83 215.55 1211.11 216.39 1211.11 217.47C1211.11 218.91 1210.49 220.06 1209.25 220.92C1208.03 221.76 1206.36 222.18 1204.24 222.18ZM1223.65 221.07C1223.23 221.43 1222.71 221.71 1222.09 221.91C1221.47 222.09 1220.83 222.18 1220.17 222.18C1218.57 222.18 1217.33 221.75 1216.45 220.89C1215.57 220.03 1215.13 218.8 1215.13 217.2V208.47H1212.43V206.1H1215.13V202.62H1218.01V206.1H1222.57V208.47H1218.01V217.08C1218.01 217.94 1218.22 218.6 1218.64 219.06C1219.08 219.52 1219.7 219.75 1220.5 219.75C1221.38 219.75 1222.13 219.5 1222.75 219L1223.65 221.07Z" fill="#0A5A55" fill-opacity="0.6"/>
<path d="M1079.85 257.24C1078.27 257.24 1076.74 257 1075.26 256.52C1073.8 256.02 1072.65 255.38 1071.81 254.6L1072.92 252.26C1073.72 252.98 1074.74 253.57 1075.98 254.03C1077.24 254.47 1078.53 254.69 1079.85 254.69C1081.59 254.69 1082.89 254.4 1083.75 253.82C1084.61 253.22 1085.04 252.43 1085.04 251.45C1085.04 250.73 1084.8 250.15 1084.32 249.71C1083.86 249.25 1083.28 248.9 1082.58 248.66C1081.9 248.42 1080.93 248.15 1079.67 247.85C1078.09 247.47 1076.81 247.09 1075.83 246.71C1074.87 246.33 1074.04 245.75 1073.34 244.97C1072.66 244.17 1072.32 243.1 1072.32 241.76C1072.32 240.64 1072.61 239.63 1073.19 238.73C1073.79 237.83 1074.69 237.11 1075.89 236.57C1077.09 236.03 1078.58 235.76 1080.36 235.76C1081.6 235.76 1082.82 235.92 1084.02 236.24C1085.22 236.56 1086.25 237.02 1087.11 237.62L1086.12 240.02C1085.24 239.46 1084.3 239.04 1083.3 238.76C1082.3 238.46 1081.32 238.31 1080.36 238.31C1078.66 238.31 1077.38 238.62 1076.52 239.24C1075.68 239.86 1075.26 240.66 1075.26 241.64C1075.26 242.36 1075.5 242.95 1075.98 243.41C1076.46 243.85 1077.05 244.2 1077.75 244.46C1078.47 244.7 1079.44 244.96 1080.66 245.24C1082.24 245.62 1083.51 246 1084.47 246.38C1085.43 246.76 1086.25 247.34 1086.93 248.12C1087.63 248.9 1087.98 249.95 1087.98 251.27C1087.98 252.37 1087.68 253.38 1087.08 254.3C1086.48 255.2 1085.57 255.92 1084.35 256.46C1083.13 256.98 1081.63 257.24 1079.85 257.24ZM1091.94 241.1H1094.82V257H1091.94V241.1ZM1093.38 238.04C1092.82 238.04 1092.35 237.86 1091.97 237.5C1091.61 237.14 1091.43 236.7 1091.43 236.18C1091.43 235.66 1091.61 235.22 1091.97 234.86C1092.35 234.48 1092.82 234.29 1093.38 234.29C1093.94 234.29 1094.4 234.47 1094.76 234.83C1095.14 235.17 1095.33 235.6 1095.33 236.12C1095.33 236.66 1095.14 237.12 1094.76 237.5C1094.4 237.86 1093.94 238.04 1093.38 238.04ZM1115.53 241.1V254.84C1115.53 257.62 1114.84 259.67 1113.46 260.99C1112.08 262.33 1110.02 263 1107.28 263C1105.78 263 1104.35 262.79 1102.99 262.37C1101.63 261.97 1100.53 261.39 1099.69 260.63L1101.07 258.41C1101.81 259.05 1102.72 259.55 1103.8 259.91C1104.9 260.29 1106.03 260.48 1107.19 260.48C1109.05 260.48 1110.42 260.04 1111.3 259.16C1112.2 258.28 1112.65 256.94 1112.65 255.14V253.88C1111.97 254.7 1111.13 255.32 1110.13 255.74C1109.15 256.14 1108.08 256.34 1106.92 256.34C1105.4 256.34 1104.02 256.02 1102.78 255.38C1101.56 254.72 1100.6 253.81 1099.9 252.65C1099.2 251.47 1098.85 250.13 1098.85 248.63C1098.85 247.13 1099.2 245.8 1099.9 244.64C1100.6 243.46 1101.56 242.55 1102.78 241.91C1104.02 241.27 1105.4 240.95 1106.92 240.95C1108.12 240.95 1109.23 241.17 1110.25 241.61C1111.29 242.05 1112.14 242.7 1112.8 243.56V241.1H1115.53ZM1107.25 253.82C1108.29 253.82 1109.22 253.6 1110.04 253.16C1110.88 252.72 1111.53 252.11 1111.99 251.33C1112.47 250.53 1112.71 249.63 1112.71 248.63C1112.71 247.09 1112.2 245.85 1111.18 244.91C1110.16 243.95 1108.85 243.47 1107.25 243.47C1105.63 243.47 1104.31 243.95 1103.29 244.91C1102.27 245.85 1101.76 247.09 1101.76 248.63C1101.76 249.63 1101.99 250.53 1102.45 251.33C1102.93 252.11 1103.58 252.72 1104.4 253.16C1105.24 253.6 1106.19 253.82 1107.25 253.82ZM1135.4 249.14C1135.4 249.36 1135.38 249.65 1135.34 250.01H1122.44C1122.62 251.41 1123.23 252.54 1124.27 253.4C1125.33 254.24 1126.64 254.66 1128.2 254.66C1130.1 254.66 1131.63 254.02 1132.79 252.74L1134.38 254.6C1133.66 255.44 1132.76 256.08 1131.68 256.52C1130.62 256.96 1129.43 257.18 1128.11 257.18C1126.43 257.18 1124.94 256.84 1123.64 256.16C1122.34 255.46 1121.33 254.49 1120.61 253.25C1119.91 252.01 1119.56 250.61 1119.56 249.05C1119.56 247.51 1119.9 246.12 1120.58 244.88C1121.28 243.64 1122.23 242.68 1123.43 242C1124.65 241.3 1126.02 240.95 1127.54 240.95C1129.06 240.95 1130.41 241.3 1131.59 242C1132.79 242.68 1133.72 243.64 1134.38 244.88C1135.06 246.12 1135.4 247.54 1135.4 249.14ZM1127.54 243.38C1126.16 243.38 1125 243.8 1124.06 244.64C1123.14 245.48 1122.6 246.58 1122.44 247.94H1132.64C1132.48 246.6 1131.93 245.51 1130.99 244.67C1130.07 243.81 1128.92 243.38 1127.54 243.38ZM1146.33 257.18C1144.71 257.18 1143.26 256.83 1141.98 256.13C1140.72 255.43 1139.73 254.47 1139.01 253.25C1138.29 252.01 1137.93 250.61 1137.93 249.05C1137.93 247.49 1138.29 246.1 1139.01 244.88C1139.73 243.64 1140.72 242.68 1141.98 242C1143.26 241.3 1144.71 240.95 1146.33 240.95C1147.77 240.95 1149.05 241.24 1150.17 241.82C1151.31 242.4 1152.19 243.24 1152.81 244.34L1150.62 245.75C1150.12 244.99 1149.5 244.42 1148.76 244.04C1148.02 243.66 1147.2 243.47 1146.3 243.47C1145.26 243.47 1144.32 243.7 1143.48 244.16C1142.66 244.62 1142.01 245.28 1141.53 246.14C1141.07 246.98 1140.84 247.95 1140.84 249.05C1140.84 250.17 1141.07 251.16 1141.53 252.02C1142.01 252.86 1142.66 253.51 1143.48 253.97C1144.32 254.43 1145.26 254.66 1146.3 254.66C1147.2 254.66 1148.02 254.47 1148.76 254.09C1149.5 253.71 1150.12 253.14 1150.62 252.38L1152.81 253.76C1152.19 254.86 1151.31 255.71 1150.17 256.31C1149.05 256.89 1147.77 257.18 1146.33 257.18ZM1163.12 257.18C1161.54 257.18 1160.12 256.83 1158.86 256.13C1157.6 255.43 1156.61 254.47 1155.89 253.25C1155.19 252.01 1154.84 250.61 1154.84 249.05C1154.84 247.49 1155.19 246.1 1155.89 244.88C1156.61 243.64 1157.6 242.68 1158.86 242C1160.12 241.3 1161.54 240.95 1163.12 240.95C1164.7 240.95 1166.11 241.3 1167.35 242C1168.61 242.68 1169.59 243.64 1170.29 244.88C1171.01 246.1 1171.37 247.49 1171.37 249.05C1171.37 250.61 1171.01 252.01 1170.29 253.25C1169.59 254.47 1168.61 255.43 1167.35 256.13C1166.11 256.83 1164.7 257.18 1163.12 257.18ZM1163.12 254.66C1164.14 254.66 1165.05 254.43 1165.85 253.97C1166.67 253.49 1167.31 252.83 1167.77 251.99C1168.23 251.13 1168.46 250.15 1168.46 249.05C1168.46 247.95 1168.23 246.98 1167.77 246.14C1167.31 245.28 1166.67 244.62 1165.85 244.16C1165.05 243.7 1164.14 243.47 1163.12 243.47C1162.1 243.47 1161.18 243.7 1160.36 244.16C1159.56 244.62 1158.92 245.28 1158.44 246.14C1157.98 246.98 1157.75 247.95 1157.75 249.05C1157.75 250.15 1157.98 251.13 1158.44 251.99C1158.92 252.83 1159.56 253.49 1160.36 253.97C1161.18 254.43 1162.1 254.66 1163.12 254.66ZM1175.35 241.1H1178.23V257H1175.35V241.1ZM1176.79 238.04C1176.23 238.04 1175.76 237.86 1175.38 237.5C1175.02 237.14 1174.84 236.7 1174.84 236.18C1174.84 235.66 1175.02 235.22 1175.38 234.86C1175.76 234.48 1176.23 234.29 1176.79 234.29C1177.35 234.29 1177.81 234.47 1178.17 234.83C1178.55 235.17 1178.74 235.6 1178.74 236.12C1178.74 236.66 1178.55 237.12 1178.17 237.5C1177.81 237.86 1177.35 238.04 1176.79 238.04ZM1192.22 240.95C1194.24 240.95 1195.84 241.54 1197.02 242.72C1198.22 243.88 1198.82 245.59 1198.82 247.85V257H1195.94V248.18C1195.94 246.64 1195.57 245.48 1194.83 244.7C1194.09 243.92 1193.03 243.53 1191.65 243.53C1190.09 243.53 1188.86 243.99 1187.96 244.91C1187.06 245.81 1186.61 247.11 1186.61 248.81V257H1183.73V241.1H1186.49V243.5C1187.07 242.68 1187.85 242.05 1188.83 241.61C1189.83 241.17 1190.96 240.95 1192.22 240.95Z" fill="#0A5A55"/>
<path d="M36.5896 22.66C42.4696 22.66 47.1196 24.37 50.5396 27.79C53.9596 31.21 55.6696 36.13 55.6696 42.55L55.6696 70H51.1696L51.1696 42.91C51.1696 37.63 49.8196 33.61 47.1196 30.85C44.4796 28.09 40.7596 26.71 35.9596 26.71C30.4396 26.71 26.0896 28.36 22.9096 31.66C19.7296 34.96 18.1396 39.4 18.1396 44.98V70H13.6396L13.6396 23.02H17.9596L17.9596 33.19C19.5796 29.89 21.9796 27.31 25.1596 25.45C28.3996 23.59 32.2096 22.66 36.5896 22.66ZM92.6441 70.36C88.2041 70.36 84.1841 69.34 80.5841 67.3C77.0441 65.26 74.2541 62.44 72.2141 58.84C70.1741 55.18 69.1541 51.07 69.1541 46.51C69.1541 41.95 70.1741 37.87 72.2141 34.27C74.2541 30.61 77.0441 27.76 80.5841 25.72C84.1841 23.68 88.2041 22.66 92.6441 22.66C97.0841 22.66 101.074 23.68 104.614 25.72C108.214 27.76 111.034 30.61 113.074 34.27C115.114 37.87 116.134 41.95 116.134 46.51C116.134 51.07 115.114 55.18 113.074 58.84C111.034 62.44 108.214 65.26 104.614 67.3C101.074 69.34 97.0841 70.36 92.6441 70.36ZM92.6441 66.31C96.2441 66.31 99.4541 65.47 102.274 63.79C105.154 62.11 107.404 59.77 109.024 56.77C110.704 53.77 111.544 50.35 111.544 46.51C111.544 42.67 110.704 39.25 109.024 36.25C107.404 33.25 105.154 30.91 102.274 29.23C99.4541 27.55 96.2441 26.71 92.6441 26.71C89.0441 26.71 85.8041 27.55 82.9241 29.23C80.1041 30.91 77.8541 33.25 76.1741 36.25C74.5541 39.25 73.7441 42.67 73.7441 46.51C73.7441 50.35 74.5541 53.77 76.1741 56.77C77.8541 59.77 80.1041 62.11 82.9241 63.79C85.8041 65.47 89.0441 66.31 92.6441 66.31ZM153.405 67.03C152.265 68.11 150.825 68.95 149.085 69.55C147.405 70.09 145.635 70.36 143.775 70.36C139.695 70.36 136.545 69.25 134.325 67.03C132.105 64.75 130.995 61.6 130.995 57.58V26.89H122.355V23.02H130.995V12.76H135.495V23.02H150.435V26.89H135.495V57.13C135.495 60.19 136.215 62.53 137.655 64.15C139.155 65.71 141.345 66.49 144.225 66.49C147.165 66.49 149.595 65.62 151.515 63.88L153.405 67.03ZM204.909 22.66C210.729 22.66 215.199 24.16 218.319 27.16C221.439 30.1 222.999 34.45 222.999 40.21V70H218.679V61.63C217.179 64.39 214.989 66.55 212.109 68.11C209.229 69.61 205.779 70.36 201.759 70.36C196.539 70.36 192.399 69.13 189.339 66.67C186.339 64.21 184.839 60.97 184.839 56.95C184.839 53.05 186.219 49.9 188.979 47.5C191.799 45.04 196.269 43.81 202.389 43.81H218.499V40.03C218.499 35.65 217.299 32.32 214.899 30.04C212.559 27.76 209.109 26.62 204.549 26.62C201.429 26.62 198.429 27.16 195.549 28.24C192.729 29.32 190.329 30.76 188.349 32.56L186.099 29.32C188.439 27.22 191.259 25.6 194.559 24.46C197.859 23.26 201.309 22.66 204.909 22.66ZM202.389 66.67C206.289 66.67 209.589 65.77 212.289 63.97C215.049 62.17 217.119 59.56 218.499 56.14V47.32H202.479C197.859 47.32 194.499 48.16 192.399 49.84C190.359 51.52 189.339 53.83 189.339 56.77C189.339 59.83 190.479 62.26 192.759 64.06C195.039 65.8 198.249 66.67 202.389 66.67Z" fill="#0A5A55"/>
<path d="M94.0836 163.36C89.6436 163.36 85.6236 162.34 82.0236 160.3C78.4836 158.26 75.6936 155.44 73.6536 151.84C71.6136 148.18 70.5936 144.07 70.5936 139.51C70.5936 134.95 71.6136 130.87 73.6536 127.27C75.6936 123.61 78.4836 120.76 82.0236 118.72C85.6236 116.68 89.6436 115.66 94.0836 115.66C98.5236 115.66 102.514 116.68 106.054 118.72C109.654 120.76 112.474 123.61 114.514 127.27C116.554 130.87 117.574 134.95 117.574 139.51C117.574 144.07 116.554 148.18 114.514 151.84C112.474 155.44 109.654 158.26 106.054 160.3C102.514 162.34 98.5236 163.36 94.0836 163.36ZM94.0836 159.31C97.6836 159.31 100.894 158.47 103.714 156.79C106.594 155.11 108.844 152.77 110.464 149.77C112.144 146.77 112.984 143.35 112.984 139.51C112.984 135.67 112.144 132.25 110.464 129.25C108.844 126.25 106.594 123.91 103.714 122.23C100.894 120.55 97.6836 119.71 94.0836 119.71C90.4836 119.71 87.2436 120.55 84.3636 122.23C81.5436 123.91 79.2936 126.25 77.6136 129.25C75.9936 132.25 75.1836 135.67 75.1836 139.51C75.1836 143.35 75.9936 146.77 77.6136 149.77C79.2936 152.77 81.5436 155.11 84.3636 156.79C87.2436 158.47 90.4836 159.31 94.0836 159.31ZM135.854 126.28C137.294 122.86 139.544 120.25 142.604 118.45C145.664 116.59 149.384 115.66 153.764 115.66V120.07L152.684 119.98C147.464 119.98 143.384 121.63 140.444 124.93C137.504 128.17 136.034 132.7 136.034 138.52V163H131.534V116.02H135.854V126.28ZM205.909 115.66C211.729 115.66 216.199 117.16 219.319 120.16C222.439 123.1 223.999 127.45 223.999 133.21V163H219.679V154.63C218.179 157.39 215.989 159.55 213.109 161.11C210.229 162.61 206.779 163.36 202.759 163.36C197.539 163.36 193.399 162.13 190.339 159.67C187.339 157.21 185.839 153.97 185.839 149.95C185.839 146.05 187.219 142.9 189.979 140.5C192.799 138.04 197.269 136.81 203.389 136.81H219.499V133.03C219.499 128.65 218.299 125.32 215.899 123.04C213.559 120.76 210.109 119.62 205.549 119.62C202.429 119.62 199.429 120.16 196.549 121.24C193.729 122.32 191.329 123.76 189.349 125.56L187.099 122.32C189.439 120.22 192.259 118.6 195.559 117.46C198.859 116.26 202.309 115.66 205.909 115.66ZM203.389 159.67C207.289 159.67 210.589 158.77 213.289 156.97C216.049 155.17 218.119 152.56 219.499 149.14V140.32H203.479C198.859 140.32 195.499 141.16 193.399 142.84C191.359 144.52 190.339 146.83 190.339 149.77C190.339 152.83 191.479 155.26 193.759 157.06C196.039 158.8 199.249 159.67 203.389 159.67Z" fill="#0A5A55"/>
<path d="M90.4266 221.66C94.8066 221.66 98.7666 222.68 102.307 224.72C105.847 226.7 108.607 229.52 110.587 233.18C112.627 236.78 113.647 240.89 113.647 245.51C113.647 250.13 112.627 254.24 110.587 257.84C108.607 261.44 105.847 264.26 102.307 266.3C98.7666 268.34 94.8066 269.36 90.4266 269.36C86.2266 269.36 82.4166 268.37 78.9966 266.39C75.6366 264.35 73.0266 261.53 71.1666 257.93V269H66.8466V202.22H71.3466V232.73C73.2066 229.25 75.8166 226.55 79.1766 224.63C82.5366 222.65 86.2866 221.66 90.4266 221.66ZM90.1566 265.31C93.7566 265.31 96.9966 264.47 99.8766 262.79C102.757 261.11 105.007 258.77 106.627 255.77C108.307 252.77 109.147 249.35 109.147 245.51C109.147 241.67 108.307 238.25 106.627 235.25C105.007 232.25 102.757 229.91 99.8766 228.23C96.9966 226.55 93.7566 225.71 90.1566 225.71C86.5566 225.71 83.3166 226.55 80.4366 228.23C77.6166 229.91 75.3666 232.25 73.6866 235.25C72.0666 238.25 71.2566 241.67 71.2566 245.51C71.2566 249.35 72.0666 252.77 73.6866 255.77C75.3666 258.77 77.6166 261.11 80.4366 262.79C83.3166 264.47 86.5566 265.31 90.1566 265.31ZM168.709 222.02V269H164.389V258.92C162.829 262.22 160.519 264.8 157.459 266.66C154.399 268.46 150.799 269.36 146.659 269.36C140.539 269.36 135.739 267.65 132.259 264.23C128.779 260.81 127.039 255.89 127.039 249.47V222.02H131.539V249.11C131.539 254.39 132.889 258.41 135.589 261.17C138.289 263.93 142.099 265.31 147.019 265.31C152.299 265.31 156.469 263.66 159.529 260.36C162.649 257.06 164.209 252.62 164.209 247.04V222.02H168.709ZM211.094 266.03C209.954 267.11 208.514 267.95 206.774 268.55C205.094 269.09 203.324 269.36 201.464 269.36C197.384 269.36 194.234 268.25 192.014 266.03C189.794 263.75 188.684 260.6 188.684 256.58V225.89H180.044V222.02H188.684V211.76H193.184V222.02H208.124V225.89H193.184V256.13C193.184 259.19 193.904 261.53 195.344 263.15C196.844 264.71 199.034 265.49 201.914 265.49C204.854 265.49 207.284 264.62 209.204 262.88L211.094 266.03ZM223.982 261.71C225.062 261.71 225.962 262.1 226.682 262.88C227.402 263.6 227.762 264.47 227.762 265.49C227.762 266.09 227.672 266.72 227.492 267.38C227.372 268.04 227.192 268.79 226.952 269.63L223.442 281.87H220.202L223.172 269.18C222.272 268.94 221.552 268.52 221.012 267.92C220.472 267.26 220.202 266.45 220.202 265.49C220.202 264.41 220.562 263.51 221.282 262.79C222.002 262.07 222.902 261.71 223.982 261.71Z" fill="#0A5A55"/>
<defs>
<filter id="filter0_d_86_45" x="253.008" y="185.085" width="762.514" height="98.915" filterUnits="userSpaceOnUse" color-interpolation-filters="sRGB">
<feFlood flood-opacity="0" result="BackgroundImageFix"/>
<feColorMatrix in="SourceAlpha" type="matrix" values="0 0 0 0 0 0 0 0 0 0 0 0 0 0 0 0 0 0 127 0" result="hardAlpha"/>
<feOffset dy="4"/>
<feGaussianBlur stdDeviation="2"/>
<feComposite in2="hardAlpha" operator="out"/>
<feColorMatrix type="matrix" values="0 0 0 0 1 0 0 0 0 0.878431 0 0 0 0 0.768627 0 0 0 0.25 0"/>
<feBlend mode="normal" in2="BackgroundImageFix" result="effect1_dropShadow_86_45"/>
<feBlend mode="normal" in="SourceGraphic" in2="effect1_dropShadow_86_45" result="shape"/>
</filter>
</defs>
</svg>
