<svg width="467" height="371" viewBox="0 0 467 371" fill="none" xmlns="http://www.w3.org/2000/svg">
<path d="M35.7 127.6C29.4 127.6 23.4 126.65 17.7 124.75C12 122.85 7.55 120.45 4.35 117.55L7.8 111.55C11 114.25 15.1 116.5 20.1 118.3C25.2 120.1 30.5 121 36 121C43.9 121 49.7 119.7 53.4 117.1C57.2 114.5 59.1 110.9 59.1 106.3C59.1 103 58.05 100.4 55.95 98.5C53.95 96.6 51.45 95.2 48.45 94.3C45.45 93.4 41.3 92.45 36 91.45C29.8 90.35 24.8 89.15 21 87.85C17.2 86.55 13.95 84.45 11.25 81.55C8.55 78.65 7.2 74.65 7.2 69.55C7.2 63.35 9.75 58.25 14.85 54.25C20.05 50.15 27.4 48.1 36.9 48.1C41.9 48.1 46.85 48.8 51.75 50.2C56.65 51.6 60.65 53.45 63.75 55.75L60.3 61.75C57.1 59.45 53.45 57.7 49.35 56.5C45.25 55.3 41.05 54.7 36.75 54.7C29.45 54.7 23.95 56.05 20.25 58.75C16.55 61.45 14.7 65 14.7 69.4C14.7 72.9 15.75 75.65 17.85 77.65C19.95 79.55 22.5 81 25.5 82C28.6 82.9 32.9 83.9 38.4 85C44.5 86.1 49.4 87.3 53.1 88.6C56.9 89.8 60.1 91.8 62.7 94.6C65.3 97.4 66.6 101.25 66.6 106.15C66.6 112.65 63.9 117.85 58.5 121.75C53.1 125.65 45.5 127.6 35.7 127.6ZM87.5309 48.7H95.0309V127H87.5309V48.7ZM91.2809 29.65C89.5809 29.65 88.1309 29.1 86.9309 28C85.7309 26.8 85.1309 25.35 85.1309 23.65C85.1309 21.95 85.7309 20.5 86.9309 19.3C88.1309 18.1 89.5809 17.5 91.2809 17.5C92.9809 17.5 94.4309 18.1 95.6309 19.3C96.8309 20.4 97.4309 21.8 97.4309 23.5C97.4309 25.2 96.8309 26.65 95.6309 27.85C94.4309 29.05 92.9809 29.65 91.2809 29.65ZM197.142 48.7V118.6C197.142 131.6 193.992 141.2 187.692 147.4C181.392 153.6 171.892 156.7 159.192 156.7C151.992 156.7 145.192 155.6 138.792 153.4C132.392 151.2 127.242 148.15 123.342 144.25L127.392 138.55C131.292 142.15 135.992 144.95 141.492 146.95C146.992 148.95 152.842 149.95 159.042 149.95C169.442 149.95 177.142 147.45 182.142 142.45C187.142 137.55 189.642 129.9 189.642 119.5V106.3C186.442 112 181.992 116.4 176.292 119.5C170.592 122.6 164.192 124.15 157.092 124.15C149.792 124.15 143.142 122.55 137.142 119.35C131.242 116.05 126.592 111.5 123.192 105.7C119.792 99.9 118.092 93.35 118.092 86.05C118.092 78.75 119.792 72.2 123.192 66.4C126.592 60.6 131.242 56.1 137.142 52.9C143.142 49.7 149.792 48.1 157.092 48.1C164.292 48.1 170.792 49.7 176.592 52.9C182.392 56.1 186.842 60.6 189.942 66.4V48.7H197.142ZM157.692 117.4C163.792 117.4 169.292 116.1 174.192 113.5C179.092 110.8 182.892 107.1 185.592 102.4C188.392 97.6 189.792 92.15 189.792 86.05C189.792 79.95 188.392 74.55 185.592 69.85C182.892 65.15 179.092 61.5 174.192 58.9C169.292 56.2 163.792 54.85 157.692 54.85C151.592 54.85 146.092 56.2 141.192 58.9C136.392 61.5 132.592 65.15 129.792 69.85C127.092 74.55 125.742 79.95 125.742 86.05C125.742 92.15 127.092 97.6 129.792 102.4C132.592 107.1 136.392 110.8 141.192 113.5C146.092 116.1 151.592 117.4 157.692 117.4ZM236.088 65.8C238.488 60.1 242.238 55.75 247.338 52.75C252.438 49.65 258.638 48.1 265.938 48.1V55.45L264.138 55.3C255.438 55.3 248.638 58.05 243.738 63.55C238.838 68.95 236.388 76.5 236.388 86.2V127H228.888V48.7H236.088V65.8ZM352.021 89.65H284.671C284.871 95.75 286.421 101.2 289.321 106C292.221 110.7 296.121 114.35 301.021 116.95C306.021 119.55 311.621 120.85 317.821 120.85C322.921 120.85 327.621 119.95 331.921 118.15C336.321 116.25 339.971 113.5 342.871 109.9L347.221 114.85C343.821 118.95 339.521 122.1 334.321 124.3C329.221 126.5 323.671 127.6 317.671 127.6C309.871 127.6 302.921 125.9 296.821 122.5C290.721 119.1 285.921 114.4 282.421 108.4C279.021 102.4 277.321 95.55 277.321 87.85C277.321 80.25 278.921 73.45 282.121 67.45C285.421 61.35 289.921 56.6 295.621 53.2C301.321 49.8 307.721 48.1 314.821 48.1C321.921 48.1 328.271 49.8 333.871 53.2C339.571 56.5 344.021 61.15 347.221 67.15C350.521 73.15 352.171 79.95 352.171 87.55L352.021 89.65ZM314.821 54.7C309.321 54.7 304.371 55.95 299.971 58.45C295.571 60.85 292.021 64.3 289.321 68.8C286.721 73.2 285.221 78.2 284.821 83.8H344.821C344.521 78.2 343.021 73.2 340.321 68.8C337.621 64.4 334.071 60.95 329.671 58.45C325.271 55.95 320.321 54.7 314.821 54.7ZM444.973 15.7V127H437.623V108.55C434.523 114.65 430.173 119.35 424.573 122.65C418.973 125.95 412.623 127.6 405.523 127.6C398.223 127.6 391.623 125.9 385.723 122.5C379.823 119.1 375.173 114.4 371.773 108.4C368.473 102.4 366.823 95.55 366.823 87.85C366.823 80.15 368.473 73.3 371.773 67.3C375.173 61.2 379.823 56.5 385.723 53.2C391.623 49.8 398.223 48.1 405.523 48.1C412.523 48.1 418.773 49.75 424.273 53.05C429.873 56.35 434.273 60.95 437.473 66.85V15.7H444.973ZM405.973 120.85C411.973 120.85 417.323 119.45 422.023 116.65C426.823 113.85 430.573 109.95 433.273 104.95C436.073 99.95 437.473 94.25 437.473 87.85C437.473 81.45 436.073 75.75 433.273 70.75C430.573 65.75 426.823 61.85 422.023 59.05C417.323 56.25 411.973 54.85 405.973 54.85C399.973 54.85 394.573 56.25 389.773 59.05C385.073 61.85 381.323 65.75 378.523 70.75C375.823 75.75 374.473 81.45 374.473 87.85C374.473 94.25 375.823 99.95 378.523 104.95C381.323 109.95 385.073 113.85 389.773 116.65C394.573 119.45 399.973 120.85 405.973 120.85Z" fill="#0A5A55"/>
<path d="M32.227 168.22C34.007 168.22 35.377 168.67 36.337 169.57C37.297 170.45 37.777 171.67 37.777 173.23C37.777 173.77 37.717 174.34 37.597 174.94L35.797 184H34.297L36.097 174.94C36.197 174.48 36.247 173.98 36.247 173.44C36.247 172.2 35.867 171.25 35.107 170.59C34.367 169.91 33.277 169.57 31.837 169.57C30.037 169.57 28.537 170.08 27.337 171.1C26.137 172.1 25.347 173.56 24.967 175.48L23.257 184H21.757L24.877 168.34H26.347L25.747 171.31C26.487 170.27 27.407 169.5 28.507 169C29.627 168.48 30.867 168.22 32.227 168.22ZM48.6618 184.12C46.5418 184.12 44.8518 183.53 43.5918 182.35C42.3518 181.17 41.7318 179.59 41.7318 177.61C41.7318 175.83 42.1118 174.23 42.8718 172.81C43.6518 171.39 44.7218 170.27 46.0818 169.45C47.4418 168.63 48.9818 168.22 50.7018 168.22C52.8218 168.22 54.5018 168.81 55.7418 169.99C57.0018 171.15 57.6318 172.73 57.6318 174.73C57.6318 176.51 57.2418 178.12 56.4618 179.56C55.7018 180.98 54.6418 182.1 53.2818 182.92C51.9218 183.72 50.3818 184.12 48.6618 184.12ZM48.7818 182.77C50.1818 182.77 51.4318 182.43 52.5318 181.75C53.6518 181.07 54.5318 180.13 55.1718 178.93C55.8118 177.71 56.1318 176.34 56.1318 174.82C56.1318 173.16 55.6418 171.87 54.6618 170.95C53.7018 170.03 52.3418 169.57 50.5818 169.57C49.1818 169.57 47.9218 169.92 46.8018 170.62C45.7018 171.3 44.8318 172.25 44.1918 173.47C43.5518 174.67 43.2318 176.02 43.2318 177.52C43.2318 179.18 43.7118 180.47 44.6718 181.39C45.6518 182.31 47.0218 182.77 48.7818 182.77ZM77.4654 168.34L74.3454 184H72.8754L73.4754 181.03C72.0154 183.09 69.8754 184.12 67.0554 184.12C65.2954 184.12 63.9354 183.68 62.9754 182.8C62.0354 181.9 61.5654 180.67 61.5654 179.11C61.5654 178.57 61.6254 178 61.7454 177.4L63.5454 168.34H65.0454L63.2454 177.4C63.1454 177.84 63.0954 178.34 63.0954 178.9C63.0954 180.14 63.4554 181.1 64.1754 181.78C64.9154 182.44 66.0054 182.77 67.4454 182.77C69.2454 182.77 70.7354 182.27 71.9154 181.27C73.0954 180.25 73.8754 178.78 74.2554 176.86L75.9654 168.34H77.4654ZM91.1137 168.22C92.8937 168.22 94.2637 168.67 95.2237 169.57C96.1837 170.45 96.6637 171.67 96.6637 173.23C96.6637 173.77 96.6037 174.34 96.4837 174.94L94.6837 184H93.1837L94.9837 174.94C95.0837 174.48 95.1337 173.98 95.1337 173.44C95.1337 172.2 94.7537 171.25 93.9937 170.59C93.2537 169.91 92.1637 169.57 90.7237 169.57C88.9237 169.57 87.4237 170.08 86.2237 171.1C85.0237 172.1 84.2337 173.56 83.8537 175.48L82.1437 184H80.6437L83.7637 168.34H85.2337L84.6337 171.31C85.3737 170.27 86.2937 169.5 87.3937 169C88.5137 168.48 89.7537 168.22 91.1137 168.22ZM110.604 161.74H115.434V163.03H112.104V188.53H115.434V189.82H110.604V161.74ZM130.959 184.12C129.699 184.12 128.499 183.93 127.359 183.55C126.219 183.17 125.329 182.69 124.689 182.11L125.379 180.91C126.019 181.45 126.839 181.9 127.839 182.26C128.859 182.62 129.919 182.8 131.019 182.8C132.599 182.8 133.759 182.54 134.499 182.02C135.259 181.5 135.639 180.78 135.639 179.86C135.639 179.2 135.429 178.68 135.009 178.3C134.609 177.92 134.109 177.64 133.509 177.46C132.909 177.28 132.079 177.09 131.019 176.89C129.779 176.67 128.779 176.43 128.019 176.17C127.259 175.91 126.609 175.49 126.069 174.91C125.529 174.33 125.259 173.53 125.259 172.51C125.259 171.27 125.769 170.25 126.789 169.45C127.829 168.63 129.299 168.22 131.199 168.22C132.199 168.22 133.189 168.36 134.169 168.64C135.149 168.92 135.949 169.29 136.569 169.75L135.879 170.95C135.239 170.49 134.509 170.14 133.689 169.9C132.869 169.66 132.029 169.54 131.169 169.54C129.709 169.54 128.609 169.81 127.869 170.35C127.129 170.89 126.759 171.6 126.759 172.48C126.759 173.18 126.969 173.73 127.389 174.13C127.809 174.51 128.319 174.8 128.919 175C129.539 175.18 130.399 175.38 131.499 175.6C132.719 175.82 133.699 176.06 134.439 176.32C135.199 176.56 135.839 176.96 136.359 177.52C136.879 178.08 137.139 178.85 137.139 179.83C137.139 181.13 136.599 182.17 135.519 182.95C134.439 183.73 132.919 184.12 130.959 184.12ZM141.326 168.34H142.826V184H141.326V168.34ZM142.076 164.53C141.736 164.53 141.446 164.42 141.206 164.2C140.966 163.96 140.846 163.67 140.846 163.33C140.846 162.99 140.966 162.7 141.206 162.46C141.446 162.22 141.736 162.1 142.076 162.1C142.416 162.1 142.706 162.22 142.946 162.46C143.186 162.68 143.306 162.96 143.306 163.3C143.306 163.64 143.186 163.93 142.946 164.17C142.706 164.41 142.416 164.53 142.076 164.53ZM163.248 168.34V182.32C163.248 184.92 162.618 186.84 161.358 188.08C160.098 189.32 158.198 189.94 155.658 189.94C154.218 189.94 152.858 189.72 151.578 189.28C150.298 188.84 149.268 188.23 148.488 187.45L149.298 186.31C150.078 187.03 151.018 187.59 152.118 187.99C153.218 188.39 154.388 188.59 155.628 188.59C157.708 188.59 159.248 188.09 160.248 187.09C161.248 186.11 161.748 184.58 161.748 182.5V179.86C161.108 181 160.218 181.88 159.078 182.5C157.938 183.12 156.658 183.43 155.238 183.43C153.778 183.43 152.448 183.11 151.248 182.47C150.068 181.81 149.138 180.9 148.458 179.74C147.778 178.58 147.438 177.27 147.438 175.81C147.438 174.35 147.778 173.04 148.458 171.88C149.138 170.72 150.068 169.82 151.248 169.18C152.448 168.54 153.778 168.22 155.238 168.22C156.678 168.22 157.978 168.54 159.138 169.18C160.298 169.82 161.188 170.72 161.808 171.88V168.34H163.248ZM155.358 182.08C156.578 182.08 157.678 181.82 158.658 181.3C159.638 180.76 160.398 180.02 160.938 179.08C161.498 178.12 161.778 177.03 161.778 175.81C161.778 174.59 161.498 173.51 160.938 172.57C160.398 171.63 159.638 170.9 158.658 170.38C157.678 169.84 156.578 169.57 155.358 169.57C154.138 169.57 153.038 169.84 152.058 170.38C151.098 170.9 150.338 171.63 149.778 172.57C149.238 173.51 148.968 174.59 148.968 175.81C148.968 177.03 149.238 178.12 149.778 179.08C150.338 180.02 151.098 180.76 152.058 181.3C153.038 181.82 154.138 182.08 155.358 182.08ZM171.037 171.76C171.517 170.62 172.267 169.75 173.287 169.15C174.307 168.53 175.547 168.22 177.007 168.22V169.69L176.647 169.66C174.907 169.66 173.547 170.21 172.567 171.31C171.587 172.39 171.097 173.9 171.097 175.84V184H169.597V168.34H171.037V171.76ZM179.313 175.81H192.783C192.743 174.59 192.433 173.51 191.853 172.57C191.273 171.61 190.483 170.87 189.483 170.35C188.503 169.83 187.393 169.57 186.153 169.57C185.133 169.57 184.183 169.76 183.303 170.14C182.443 170.5 181.723 171.04 181.143 171.76L180.273 170.77C180.953 169.95 181.803 169.32 182.823 168.88C183.863 168.44 184.983 168.22 186.183 168.22C187.743 168.22 189.133 168.56 190.353 169.24C191.573 169.92 192.523 170.86 193.203 172.06C193.903 173.26 194.253 174.63 194.253 176.17C194.253 177.69 193.923 179.06 193.263 180.28C192.623 181.48 191.733 182.42 190.593 183.1C189.453 183.78 188.173 184.12 186.753 184.12C185.333 184.12 184.053 183.79 182.913 183.13C181.793 182.45 180.903 181.51 180.243 180.31C179.603 179.11 179.283 177.75 179.283 176.23L179.313 175.81ZM186.753 182.8C187.853 182.8 188.843 182.56 189.723 182.08C190.603 181.58 191.303 180.89 191.823 180.01C192.363 179.11 192.673 178.1 192.753 176.98H180.753C180.813 178.1 181.113 179.1 181.653 179.98C182.193 180.86 182.903 181.55 183.783 182.05C184.663 182.55 185.653 182.8 186.753 182.8ZM212.814 161.74V184H211.344V180.31C210.724 181.53 209.854 182.47 208.734 183.13C207.614 183.79 206.344 184.12 204.924 184.12C203.464 184.12 202.144 183.78 200.964 183.1C199.784 182.42 198.854 181.48 198.174 180.28C197.514 179.08 197.184 177.71 197.184 176.17C197.184 174.63 197.514 173.26 198.174 172.06C198.854 170.84 199.784 169.9 200.964 169.24C202.144 168.56 203.464 168.22 204.924 168.22C206.324 168.22 207.574 168.55 208.674 169.21C209.794 169.87 210.674 170.79 211.314 171.97V161.74H212.814ZM205.014 182.77C206.214 182.77 207.284 182.49 208.224 181.93C209.184 181.37 209.934 180.59 210.474 179.59C211.034 178.59 211.314 177.45 211.314 176.17C211.314 174.89 211.034 173.75 210.474 172.75C209.934 171.75 209.184 170.97 208.224 170.41C207.284 169.85 206.214 169.57 205.014 169.57C203.814 169.57 202.734 169.85 201.774 170.41C200.834 170.97 200.084 171.75 199.524 172.75C198.984 173.75 198.714 174.89 198.714 176.17C198.714 177.45 198.984 178.59 199.524 179.59C200.084 180.59 200.834 181.37 201.774 181.93C202.734 182.49 203.814 182.77 205.014 182.77ZM224.353 189.82V188.53H227.683V163.03H224.353V161.74H229.183V189.82H224.353Z" fill="#0A5A55"/>
<path d="M14.04 256.22C15.5 256.22 16.82 256.56 18 257.24C19.18 257.9 20.1 258.84 20.76 260.06C21.44 261.26 21.78 262.63 21.78 264.17C21.78 265.71 21.44 267.08 20.76 268.28C20.1 269.48 19.18 270.42 18 271.1C16.82 271.78 15.5 272.12 14.04 272.12C12.64 272.12 11.37 271.79 10.23 271.13C9.11 270.45 8.24 269.51 7.62 268.31V272H6.18V249.74H7.68V259.91C8.3 258.75 9.17 257.85 10.29 257.21C11.41 256.55 12.66 256.22 14.04 256.22ZM13.95 270.77C15.15 270.77 16.23 270.49 17.19 269.93C18.15 269.37 18.9 268.59 19.44 267.59C20 266.59 20.28 265.45 20.28 264.17C20.28 262.89 20 261.75 19.44 260.75C18.9 259.75 18.15 258.97 17.19 258.41C16.23 257.85 15.15 257.57 13.95 257.57C12.75 257.57 11.67 257.85 10.71 258.41C9.77 258.97 9.02 259.75 8.46 260.75C7.92 261.75 7.65 262.89 7.65 264.17C7.65 265.45 7.92 266.59 8.46 267.59C9.02 268.59 9.77 269.37 10.71 269.93C11.67 270.49 12.75 270.77 13.95 270.77ZM39.6541 264.53H26.1841C26.2241 265.75 26.5341 266.84 27.1141 267.8C27.6941 268.74 28.4741 269.47 29.4541 269.99C30.4541 270.51 31.5741 270.77 32.8141 270.77C33.8341 270.77 34.7741 270.59 35.6341 270.23C36.5141 269.85 37.2441 269.3 37.8241 268.58L38.6941 269.57C38.0141 270.39 37.1541 271.02 36.1141 271.46C35.0941 271.9 33.9841 272.12 32.7841 272.12C31.2241 272.12 29.8341 271.78 28.6141 271.1C27.3941 270.42 26.4341 269.48 25.7341 268.28C25.0541 267.08 24.7141 265.71 24.7141 264.17C24.7141 262.65 25.0341 261.29 25.6741 260.09C26.3341 258.87 27.2341 257.92 28.3741 257.24C29.5141 256.56 30.7941 256.22 32.2141 256.22C33.6341 256.22 34.9041 256.56 36.0241 257.24C37.1641 257.9 38.0541 258.83 38.6941 260.03C39.3541 261.23 39.6841 262.59 39.6841 264.11L39.6541 264.53ZM32.2141 257.54C31.1141 257.54 30.1241 257.79 29.2441 258.29C28.3641 258.77 27.6541 259.46 27.1141 260.36C26.5941 261.24 26.2941 262.24 26.2141 263.36H38.2141C38.1541 262.24 37.8541 261.24 37.3141 260.36C36.7741 259.48 36.0641 258.79 35.1841 258.29C34.3041 257.79 33.3141 257.54 32.2141 257.54ZM49.1651 256.22C51.1051 256.22 52.5951 256.72 53.6351 257.72C54.6751 258.7 55.1951 260.15 55.1951 262.07V272H53.7551V269.21C53.2551 270.13 52.5251 270.85 51.5651 271.37C50.6051 271.87 49.4551 272.12 48.1151 272.12C46.3751 272.12 44.9951 271.71 43.9751 270.89C42.9751 270.07 42.4751 268.99 42.4751 267.65C42.4751 266.35 42.9351 265.3 43.8551 264.5C44.7951 263.68 46.2851 263.27 48.3251 263.27H53.6951V262.01C53.6951 260.55 53.2951 259.44 52.4951 258.68C51.7151 257.92 50.5651 257.54 49.0451 257.54C48.0051 257.54 47.0051 257.72 46.0451 258.08C45.1051 258.44 44.3051 258.92 43.6451 259.52L42.8951 258.44C43.6751 257.74 44.6151 257.2 45.7151 256.82C46.8151 256.42 47.9651 256.22 49.1651 256.22ZM48.3251 270.89C49.6251 270.89 50.7251 270.59 51.6251 269.99C52.5451 269.39 53.2351 268.52 53.6951 267.38V264.44H48.3551C46.8151 264.44 45.6951 264.72 44.9951 265.28C44.3151 265.84 43.9751 266.61 43.9751 267.59C43.9751 268.61 44.3551 269.42 45.1151 270.02C45.8751 270.6 46.9451 270.89 48.3251 270.89ZM75.0853 256.34V272H73.6453V268.64C73.1253 269.74 72.3553 270.6 71.3353 271.22C70.3153 271.82 69.1153 272.12 67.7353 272.12C65.6953 272.12 64.0953 271.55 62.9353 270.41C61.7753 269.27 61.1953 267.63 61.1953 265.49V256.34H62.6953V265.37C62.6953 267.13 63.1453 268.47 64.0453 269.39C64.9453 270.31 66.2153 270.77 67.8553 270.77C69.6153 270.77 71.0053 270.22 72.0253 269.12C73.0653 268.02 73.5853 266.54 73.5853 264.68V256.34H75.0853ZM89.2137 271.01C88.8337 271.37 88.3537 271.65 87.7737 271.85C87.2137 272.03 86.6237 272.12 86.0037 272.12C84.6437 272.12 83.5937 271.75 82.8537 271.01C82.1137 270.25 81.7437 269.2 81.7437 267.86V257.63H78.8637V256.34H81.7437V252.92H83.2437V256.34H88.2237V257.63H83.2437V267.71C83.2437 268.73 83.4837 269.51 83.9637 270.05C84.4637 270.57 85.1937 270.83 86.1537 270.83C87.1337 270.83 87.9437 270.54 88.5837 269.96L89.2137 271.01ZM93.3968 256.34H94.8968V272H93.3968V256.34ZM94.1468 252.53C93.8068 252.53 93.5168 252.42 93.2768 252.2C93.0368 251.96 92.9168 251.67 92.9168 251.33C92.9168 250.99 93.0368 250.7 93.2768 250.46C93.5168 250.22 93.8068 250.1 94.1468 250.1C94.4868 250.1 94.7768 250.22 95.0168 250.46C95.2568 250.68 95.3768 250.96 95.3768 251.3C95.3768 251.64 95.2568 251.93 95.0168 252.17C94.7768 252.41 94.4868 252.53 94.1468 252.53ZM105.929 250.91C103.969 250.91 102.989 251.96 102.989 254.06V256.34H107.999V257.63H103.019V272H101.519V257.63H98.6391V256.34H101.519V253.94C101.519 252.62 101.899 251.57 102.659 250.79C103.419 250.01 104.489 249.62 105.869 249.62C106.469 249.62 107.039 249.71 107.579 249.89C108.139 250.05 108.599 250.3 108.959 250.64L108.359 251.78C107.719 251.2 106.909 250.91 105.929 250.91ZM124.773 256.34V272H123.333V268.64C122.813 269.74 122.043 270.6 121.023 271.22C120.003 271.82 118.803 272.12 117.423 272.12C115.383 272.12 113.783 271.55 112.623 270.41C111.463 269.27 110.883 267.63 110.883 265.49V256.34H112.383V265.37C112.383 267.13 112.833 268.47 113.733 269.39C114.633 270.31 115.903 270.77 117.543 270.77C119.303 270.77 120.693 270.22 121.713 269.12C122.753 268.02 123.273 266.54 123.273 264.68V256.34H124.773ZM131.131 249.74H132.631V272H131.131V249.74ZM159.229 256.34L152.149 272H150.619L143.569 256.34H145.159L151.399 270.35L157.699 256.34H159.229ZM162.508 256.34H164.008V272H162.508V256.34ZM163.258 252.53C162.918 252.53 162.628 252.42 162.388 252.2C162.148 251.96 162.028 251.67 162.028 251.33C162.028 250.99 162.148 250.7 162.388 250.46C162.628 250.22 162.918 250.1 163.258 250.1C163.598 250.1 163.888 250.22 164.128 250.46C164.368 250.68 164.488 250.96 164.488 251.3C164.488 251.64 164.368 251.93 164.128 252.17C163.888 252.41 163.598 252.53 163.258 252.53ZM176.54 272.12C175.02 272.12 173.66 271.78 172.46 271.1C171.26 270.42 170.32 269.48 169.64 268.28C168.96 267.06 168.62 265.69 168.62 264.17C168.62 262.63 168.96 261.26 169.64 260.06C170.32 258.84 171.26 257.9 172.46 257.24C173.66 256.56 175.02 256.22 176.54 256.22C177.8 256.22 178.94 256.47 179.96 256.97C181 257.45 181.84 258.16 182.48 259.1L181.37 259.91C180.81 259.13 180.11 258.55 179.27 258.17C178.45 257.77 177.54 257.57 176.54 257.57C175.32 257.57 174.22 257.85 173.24 258.41C172.28 258.95 171.52 259.72 170.96 260.72C170.42 261.72 170.15 262.87 170.15 264.17C170.15 265.47 170.42 266.62 170.96 267.62C171.52 268.62 172.28 269.4 173.24 269.96C174.22 270.5 175.32 270.77 176.54 270.77C177.54 270.77 178.45 270.58 179.27 270.2C180.11 269.8 180.81 269.21 181.37 268.43L182.48 269.24C181.84 270.18 181 270.9 179.96 271.4C178.94 271.88 177.8 272.12 176.54 272.12ZM194.917 271.01C194.537 271.37 194.057 271.65 193.477 271.85C192.917 272.03 192.327 272.12 191.707 272.12C190.347 272.12 189.297 271.75 188.557 271.01C187.817 270.25 187.447 269.2 187.447 267.86V257.63H184.567V256.34H187.447V252.92H188.947V256.34H193.927V257.63H188.947V267.71C188.947 268.73 189.187 269.51 189.667 270.05C190.167 270.57 190.897 270.83 191.857 270.83C192.837 270.83 193.647 270.54 194.287 269.96L194.917 271.01ZM204.663 272.12C203.183 272.12 201.843 271.78 200.643 271.1C199.463 270.42 198.533 269.48 197.853 268.28C197.173 267.06 196.833 265.69 196.833 264.17C196.833 262.65 197.173 261.29 197.853 260.09C198.533 258.87 199.463 257.92 200.643 257.24C201.843 256.56 203.183 256.22 204.663 256.22C206.143 256.22 207.473 256.56 208.653 257.24C209.853 257.92 210.793 258.87 211.473 260.09C212.153 261.29 212.493 262.65 212.493 264.17C212.493 265.69 212.153 267.06 211.473 268.28C210.793 269.48 209.853 270.42 208.653 271.1C207.473 271.78 206.143 272.12 204.663 272.12ZM204.663 270.77C205.863 270.77 206.933 270.49 207.873 269.93C208.833 269.37 209.583 268.59 210.123 267.59C210.683 266.59 210.963 265.45 210.963 264.17C210.963 262.89 210.683 261.75 210.123 260.75C209.583 259.75 208.833 258.97 207.873 258.41C206.933 257.85 205.863 257.57 204.663 257.57C203.463 257.57 202.383 257.85 201.423 258.41C200.483 258.97 199.733 259.75 199.173 260.75C198.633 261.75 198.363 262.89 198.363 264.17C198.363 265.45 198.633 266.59 199.173 267.59C199.733 268.59 200.483 269.37 201.423 269.93C202.383 270.49 203.463 270.77 204.663 270.77ZM218.587 259.76C219.067 258.62 219.817 257.75 220.837 257.15C221.857 256.53 223.097 256.22 224.557 256.22V257.69L224.197 257.66C222.457 257.66 221.097 258.21 220.117 259.31C219.137 260.39 218.647 261.9 218.647 263.84V272H217.147V256.34H218.587V259.76ZM241.963 256.34L233.923 274.13C233.323 275.51 232.623 276.49 231.823 277.07C231.043 277.65 230.113 277.94 229.033 277.94C228.313 277.94 227.633 277.82 226.993 277.58C226.373 277.34 225.843 276.99 225.403 276.53L226.153 275.39C226.953 276.21 227.923 276.62 229.063 276.62C229.823 276.62 230.473 276.41 231.013 275.99C231.553 275.57 232.053 274.85 232.513 273.83L233.353 271.94L226.303 256.34H227.893L234.163 270.35L240.433 256.34H241.963ZM245.326 258.77C244.986 258.77 244.686 258.65 244.426 258.41C244.186 258.15 244.066 257.84 244.066 257.48C244.066 257.12 244.186 256.82 244.426 256.58C244.686 256.34 244.986 256.22 245.326 256.22C245.666 256.22 245.956 256.34 246.196 256.58C246.456 256.82 246.586 257.12 246.586 257.48C246.586 257.84 246.456 258.15 246.196 258.41C245.956 258.65 245.666 258.77 245.326 258.77ZM245.326 269.57C245.686 269.57 245.986 269.7 246.226 269.96C246.466 270.2 246.586 270.49 246.586 270.83C246.586 271.03 246.556 271.24 246.496 271.46C246.456 271.68 246.396 271.93 246.316 272.21L245.146 276.29H244.066L245.056 272.06C244.756 271.98 244.516 271.84 244.336 271.64C244.156 271.42 244.066 271.15 244.066 270.83C244.066 270.47 244.186 270.17 244.426 269.93C244.666 269.69 244.966 269.57 245.326 269.57ZM263.177 272.12C261.917 272.12 260.717 271.93 259.577 271.55C258.437 271.17 257.547 270.69 256.907 270.11L257.597 268.91C258.237 269.45 259.057 269.9 260.057 270.26C261.077 270.62 262.137 270.8 263.237 270.8C264.817 270.8 265.977 270.54 266.717 270.02C267.477 269.5 267.857 268.78 267.857 267.86C267.857 267.2 267.647 266.68 267.227 266.3C266.827 265.92 266.327 265.64 265.727 265.46C265.127 265.28 264.297 265.09 263.237 264.89C261.997 264.67 260.997 264.43 260.237 264.17C259.477 263.91 258.827 263.49 258.287 262.91C257.747 262.33 257.477 261.53 257.477 260.51C257.477 259.27 257.987 258.25 259.007 257.45C260.047 256.63 261.517 256.22 263.417 256.22C264.417 256.22 265.407 256.36 266.387 256.64C267.367 256.92 268.167 257.29 268.787 257.75L268.097 258.95C267.457 258.49 266.727 258.14 265.907 257.9C265.087 257.66 264.247 257.54 263.387 257.54C261.927 257.54 260.827 257.81 260.087 258.35C259.347 258.89 258.977 259.6 258.977 260.48C258.977 261.18 259.187 261.73 259.607 262.13C260.027 262.51 260.537 262.8 261.137 263C261.757 263.18 262.617 263.38 263.717 263.6C264.937 263.82 265.917 264.06 266.657 264.32C267.417 264.56 268.057 264.96 268.577 265.52C269.097 266.08 269.357 266.85 269.357 267.83C269.357 269.13 268.817 270.17 267.737 270.95C266.657 271.73 265.137 272.12 263.177 272.12ZM285.82 256.34L277.78 274.13C277.18 275.51 276.48 276.49 275.68 277.07C274.9 277.65 273.97 277.94 272.89 277.94C272.17 277.94 271.49 277.82 270.85 277.58C270.23 277.34 269.7 276.99 269.26 276.53L270.01 275.39C270.81 276.21 271.78 276.62 272.92 276.62C273.68 276.62 274.33 276.41 274.87 275.99C275.41 275.57 275.91 274.85 276.37 273.83L277.21 271.94L270.16 256.34H271.75L278.02 270.35L284.29 256.34H285.82ZM308.6 256.22C310.54 256.22 312.06 256.79 313.16 257.93C314.28 259.07 314.84 260.71 314.84 262.85V272H313.34V262.97C313.34 261.21 312.91 259.87 312.05 258.95C311.19 258.03 309.99 257.57 308.45 257.57C306.69 257.57 305.29 258.12 304.25 259.22C303.23 260.32 302.72 261.8 302.72 263.66V272H301.22V262.97C301.22 261.21 300.79 259.87 299.93 258.95C299.07 258.03 297.87 257.57 296.33 257.57C294.57 257.57 293.17 258.12 292.13 259.22C291.11 260.32 290.6 261.8 290.6 263.66V272H289.1V256.34H290.54V259.7C291.06 258.6 291.83 257.75 292.85 257.15C293.89 256.53 295.12 256.22 296.54 256.22C297.96 256.22 299.16 256.54 300.14 257.18C301.14 257.82 301.85 258.76 302.27 260C302.79 258.84 303.6 257.92 304.7 257.24C305.82 256.56 307.12 256.22 308.6 256.22ZM328.894 256.22C330.354 256.22 331.674 256.56 332.854 257.24C334.034 257.9 334.954 258.84 335.614 260.06C336.294 261.26 336.634 262.63 336.634 264.17C336.634 265.71 336.294 267.08 335.614 268.28C334.954 269.48 334.034 270.42 332.854 271.1C331.674 271.78 330.354 272.12 328.894 272.12C327.494 272.12 326.224 271.79 325.084 271.13C323.964 270.45 323.094 269.51 322.474 268.31V272H321.034V249.74H322.534V259.91C323.154 258.75 324.024 257.85 325.144 257.21C326.264 256.55 327.514 256.22 328.894 256.22ZM328.804 270.77C330.004 270.77 331.084 270.49 332.044 269.93C333.004 269.37 333.754 268.59 334.294 267.59C334.854 266.59 335.134 265.45 335.134 264.17C335.134 262.89 334.854 261.75 334.294 260.75C333.754 259.75 333.004 258.97 332.044 258.41C331.084 257.85 330.004 257.57 328.804 257.57C327.604 257.57 326.524 257.85 325.564 258.41C324.624 258.97 323.874 259.75 323.314 260.75C322.774 261.75 322.504 262.89 322.504 264.17C322.504 265.45 322.774 266.59 323.314 267.59C323.874 268.59 324.624 269.37 325.564 269.93C326.524 270.49 327.604 270.77 328.804 270.77ZM347.398 272.12C345.918 272.12 344.578 271.78 343.378 271.1C342.198 270.42 341.268 269.48 340.588 268.28C339.908 267.06 339.568 265.69 339.568 264.17C339.568 262.65 339.908 261.29 340.588 260.09C341.268 258.87 342.198 257.92 343.378 257.24C344.578 256.56 345.918 256.22 347.398 256.22C348.878 256.22 350.208 256.56 351.388 257.24C352.588 257.92 353.528 258.87 354.208 260.09C354.888 261.29 355.228 262.65 355.228 264.17C355.228 265.69 354.888 267.06 354.208 268.28C353.528 269.48 352.588 270.42 351.388 271.1C350.208 271.78 348.878 272.12 347.398 272.12ZM347.398 270.77C348.598 270.77 349.668 270.49 350.608 269.93C351.568 269.37 352.318 268.59 352.858 267.59C353.418 266.59 353.698 265.45 353.698 264.17C353.698 262.89 353.418 261.75 352.858 260.75C352.318 259.75 351.568 258.97 350.608 258.41C349.668 257.85 348.598 257.57 347.398 257.57C346.198 257.57 345.118 257.85 344.158 258.41C343.218 258.97 342.468 259.75 341.908 260.75C341.368 261.75 341.098 262.89 341.098 264.17C341.098 265.45 341.368 266.59 341.908 267.59C342.468 268.59 343.218 269.37 344.158 269.93C345.118 270.49 346.198 270.77 347.398 270.77ZM359.881 249.74H361.381V272H359.881V249.74ZM367.703 256.34H369.203V272H367.703V256.34ZM368.453 252.53C368.113 252.53 367.823 252.42 367.583 252.2C367.343 251.96 367.223 251.67 367.223 251.33C367.223 250.99 367.343 250.7 367.583 250.46C367.823 250.22 368.113 250.1 368.453 250.1C368.793 250.1 369.083 250.22 369.323 250.46C369.563 250.68 369.683 250.96 369.683 251.3C369.683 251.64 369.563 251.93 369.323 252.17C369.083 252.41 368.793 252.53 368.453 252.53ZM386.116 270.71V272H373.666V270.98L383.986 257.63H373.816V256.34H385.936V257.36L375.586 270.71H386.116ZM390.614 256.34H392.114V272H390.614V256.34ZM391.364 252.53C391.024 252.53 390.734 252.42 390.494 252.2C390.254 251.96 390.134 251.67 390.134 251.33C390.134 250.99 390.254 250.7 390.494 250.46C390.734 250.22 391.024 250.1 391.364 250.1C391.704 250.1 391.994 250.22 392.234 250.46C392.474 250.68 392.594 250.96 392.594 251.3C392.594 251.64 392.474 251.93 392.234 252.17C391.994 252.41 391.704 252.53 391.364 252.53ZM406.086 256.22C408.046 256.22 409.596 256.79 410.736 257.93C411.876 259.07 412.446 260.71 412.446 262.85V272H410.946V262.97C410.946 261.21 410.496 259.87 409.596 258.95C408.716 258.03 407.476 257.57 405.876 257.57C404.036 257.57 402.586 258.12 401.526 259.22C400.466 260.32 399.936 261.8 399.936 263.66V272H398.436V256.34H399.876V259.73C400.416 258.63 401.216 257.77 402.276 257.15C403.356 256.53 404.626 256.22 406.086 256.22ZM432.751 256.34V270.32C432.751 272.92 432.121 274.84 430.861 276.08C429.601 277.32 427.701 277.94 425.161 277.94C423.721 277.94 422.361 277.72 421.081 277.28C419.801 276.84 418.771 276.23 417.991 275.45L418.801 274.31C419.581 275.03 420.521 275.59 421.621 275.99C422.721 276.39 423.891 276.59 425.131 276.59C427.211 276.59 428.751 276.09 429.751 275.09C430.751 274.11 431.251 272.58 431.251 270.5V267.86C430.611 269 429.721 269.88 428.581 270.5C427.441 271.12 426.161 271.43 424.741 271.43C423.281 271.43 421.951 271.11 420.751 270.47C419.571 269.81 418.641 268.9 417.961 267.74C417.281 266.58 416.941 265.27 416.941 263.81C416.941 262.35 417.281 261.04 417.961 259.88C418.641 258.72 419.571 257.82 420.751 257.18C421.951 256.54 423.281 256.22 424.741 256.22C426.181 256.22 427.481 256.54 428.641 257.18C429.801 257.82 430.691 258.72 431.311 259.88V256.34H432.751ZM424.861 270.08C426.081 270.08 427.181 269.82 428.161 269.3C429.141 268.76 429.901 268.02 430.441 267.08C431.001 266.12 431.281 265.03 431.281 263.81C431.281 262.59 431.001 261.51 430.441 260.57C429.901 259.63 429.141 258.9 428.161 258.38C427.181 257.84 426.081 257.57 424.861 257.57C423.641 257.57 422.541 257.84 421.561 258.38C420.601 258.9 419.841 259.63 419.281 260.57C418.741 261.51 418.471 262.59 418.471 263.81C418.471 265.03 418.741 266.12 419.281 267.08C419.841 268.02 420.601 268.76 421.561 269.3C422.541 269.82 423.641 270.08 424.861 270.08ZM14.04 293.22C15.5 293.22 16.82 293.56 18 294.24C19.18 294.9 20.1 295.84 20.76 297.06C21.44 298.26 21.78 299.63 21.78 301.17C21.78 302.71 21.44 304.08 20.76 305.28C20.1 306.48 19.18 307.42 18 308.1C16.82 308.78 15.5 309.12 14.04 309.12C12.64 309.12 11.37 308.79 10.23 308.13C9.11 307.45 8.24 306.51 7.62 305.31V309H6.18V286.74H7.68V296.91C8.3 295.75 9.17 294.85 10.29 294.21C11.41 293.55 12.66 293.22 14.04 293.22ZM13.95 307.77C15.15 307.77 16.23 307.49 17.19 306.93C18.15 306.37 18.9 305.59 19.44 304.59C20 303.59 20.28 302.45 20.28 301.17C20.28 299.89 20 298.75 19.44 297.75C18.9 296.75 18.15 295.97 17.19 295.41C16.23 294.85 15.15 294.57 13.95 294.57C12.75 294.57 11.67 294.85 10.71 295.41C9.77 295.97 9.02 296.75 8.46 297.75C7.92 298.75 7.65 299.89 7.65 301.17C7.65 302.45 7.92 303.59 8.46 304.59C9.02 305.59 9.77 306.37 10.71 306.93C11.67 307.49 12.75 307.77 13.95 307.77ZM32.5441 309.12C31.0641 309.12 29.7241 308.78 28.5241 308.1C27.3441 307.42 26.4141 306.48 25.7341 305.28C25.0541 304.06 24.7141 302.69 24.7141 301.17C24.7141 299.65 25.0541 298.29 25.7341 297.09C26.4141 295.87 27.3441 294.92 28.5241 294.24C29.7241 293.56 31.0641 293.22 32.5441 293.22C34.0241 293.22 35.3541 293.56 36.5341 294.24C37.7341 294.92 38.6741 295.87 39.3541 297.09C40.0341 298.29 40.3741 299.65 40.3741 301.17C40.3741 302.69 40.0341 304.06 39.3541 305.28C38.6741 306.48 37.7341 307.42 36.5341 308.1C35.3541 308.78 34.0241 309.12 32.5441 309.12ZM32.5441 307.77C33.7441 307.77 34.8141 307.49 35.7541 306.93C36.7141 306.37 37.4641 305.59 38.0041 304.59C38.5641 303.59 38.8441 302.45 38.8441 301.17C38.8441 299.89 38.5641 298.75 38.0041 297.75C37.4641 296.75 36.7141 295.97 35.7541 295.41C34.8141 294.85 33.7441 294.57 32.5441 294.57C31.3441 294.57 30.2641 294.85 29.3041 295.41C28.3641 295.97 27.6141 296.75 27.0541 297.75C26.5141 298.75 26.2441 299.89 26.2441 301.17C26.2441 302.45 26.5141 303.59 27.0541 304.59C27.6141 305.59 28.3641 306.37 29.3041 306.93C30.2641 307.49 31.3441 307.77 32.5441 307.77ZM52.7977 308.01C52.4177 308.37 51.9377 308.65 51.3577 308.85C50.7977 309.03 50.2077 309.12 49.5877 309.12C48.2277 309.12 47.1777 308.75 46.4377 308.01C45.6977 307.25 45.3277 306.2 45.3277 304.86V294.63H42.4477V293.34H45.3277V289.92H46.8277V293.34H51.8077V294.63H46.8277V304.71C46.8277 305.73 47.0677 306.51 47.5477 307.05C48.0477 307.57 48.7777 307.83 49.7377 307.83C50.7177 307.83 51.5277 307.54 52.1677 306.96L52.7977 308.01ZM64.6308 293.22C66.5908 293.22 68.1408 293.79 69.2808 294.93C70.4208 296.07 70.9908 297.71 70.9908 299.85V309H69.4908V299.97C69.4908 298.21 69.0408 296.87 68.1408 295.95C67.2608 295.03 66.0208 294.57 64.4208 294.57C62.5808 294.57 61.1308 295.12 60.0708 296.22C59.0108 297.32 58.4808 298.8 58.4808 300.66V309H56.9808V286.74H58.4808V296.61C59.0208 295.53 59.8208 294.7 60.8808 294.12C61.9408 293.52 63.1908 293.22 64.6308 293.22ZM83.5514 300.27H91.2614V301.62H83.5514V300.27ZM111.862 293.22C113.322 293.22 114.642 293.56 115.822 294.24C117.002 294.9 117.922 295.84 118.582 297.06C119.262 298.26 119.602 299.63 119.602 301.17C119.602 302.71 119.262 304.08 118.582 305.28C117.922 306.48 117.002 307.42 115.822 308.1C114.642 308.78 113.322 309.12 111.862 309.12C110.462 309.12 109.192 308.79 108.052 308.13C106.932 307.45 106.062 306.51 105.442 305.31V309H104.002V286.74H105.502V296.91C106.122 295.75 106.992 294.85 108.112 294.21C109.232 293.55 110.482 293.22 111.862 293.22ZM111.772 307.77C112.972 307.77 114.052 307.49 115.012 306.93C115.972 306.37 116.722 305.59 117.262 304.59C117.822 303.59 118.102 302.45 118.102 301.17C118.102 299.89 117.822 298.75 117.262 297.75C116.722 296.75 115.972 295.97 115.012 295.41C114.052 294.85 112.972 294.57 111.772 294.57C110.572 294.57 109.492 294.85 108.532 295.41C107.592 295.97 106.842 296.75 106.282 297.75C105.742 298.75 105.472 299.89 105.472 301.17C105.472 302.45 105.742 303.59 106.282 304.59C106.842 305.59 107.592 306.37 108.532 306.93C109.492 307.49 110.572 307.77 111.772 307.77ZM137.956 293.34V309H136.516V305.64C135.996 306.74 135.226 307.6 134.206 308.22C133.186 308.82 131.986 309.12 130.606 309.12C128.566 309.12 126.966 308.55 125.806 307.41C124.646 306.27 124.066 304.63 124.066 302.49V293.34H125.566V302.37C125.566 304.13 126.016 305.47 126.916 306.39C127.816 307.31 129.086 307.77 130.726 307.77C132.486 307.77 133.876 307.22 134.896 306.12C135.936 305.02 136.456 303.54 136.456 301.68V293.34H137.956ZM156.885 293.34L148.845 311.13C148.245 312.51 147.545 313.49 146.745 314.07C145.965 314.65 145.035 314.94 143.955 314.94C143.235 314.94 142.555 314.82 141.915 314.58C141.295 314.34 140.765 313.99 140.325 313.53L141.075 312.39C141.875 313.21 142.845 313.62 143.985 313.62C144.745 313.62 145.395 313.41 145.935 312.99C146.475 312.57 146.975 311.85 147.435 310.83L148.275 308.94L141.225 293.34H142.815L149.085 307.35L155.355 293.34H156.885ZM172.955 301.53H159.485C159.525 302.75 159.835 303.84 160.415 304.8C160.995 305.74 161.775 306.47 162.755 306.99C163.755 307.51 164.875 307.77 166.115 307.77C167.135 307.77 168.075 307.59 168.935 307.23C169.815 306.85 170.545 306.3 171.125 305.58L171.995 306.57C171.315 307.39 170.455 308.02 169.415 308.46C168.395 308.9 167.285 309.12 166.085 309.12C164.525 309.12 163.135 308.78 161.915 308.1C160.695 307.42 159.735 306.48 159.035 305.28C158.355 304.08 158.015 302.71 158.015 301.17C158.015 299.65 158.335 298.29 158.975 297.09C159.635 295.87 160.535 294.92 161.675 294.24C162.815 293.56 164.095 293.22 165.515 293.22C166.935 293.22 168.205 293.56 169.325 294.24C170.465 294.9 171.355 295.83 171.995 297.03C172.655 298.23 172.985 299.59 172.985 301.11L172.955 301.53ZM165.515 294.54C164.415 294.54 163.425 294.79 162.545 295.29C161.665 295.77 160.955 296.46 160.415 297.36C159.895 298.24 159.595 299.24 159.515 300.36H171.515C171.455 299.24 171.155 298.24 170.615 297.36C170.075 296.48 169.365 295.79 168.485 295.29C167.605 294.79 166.615 294.54 165.515 294.54ZM179.065 296.76C179.545 295.62 180.295 294.75 181.315 294.15C182.335 293.53 183.575 293.22 185.035 293.22V294.69L184.675 294.66C182.935 294.66 181.575 295.21 180.595 296.31C179.615 297.39 179.125 298.9 179.125 300.84V309H177.625V293.34H179.065V296.76ZM193.275 309.12C192.015 309.12 190.815 308.93 189.675 308.55C188.535 308.17 187.645 307.69 187.005 307.11L187.695 305.91C188.335 306.45 189.155 306.9 190.155 307.26C191.175 307.62 192.235 307.8 193.335 307.8C194.915 307.8 196.075 307.54 196.815 307.02C197.575 306.5 197.955 305.78 197.955 304.86C197.955 304.2 197.745 303.68 197.325 303.3C196.925 302.92 196.425 302.64 195.825 302.46C195.225 302.28 194.395 302.09 193.335 301.89C192.095 301.67 191.095 301.43 190.335 301.17C189.575 300.91 188.925 300.49 188.385 299.91C187.845 299.33 187.575 298.53 187.575 297.51C187.575 296.27 188.085 295.25 189.105 294.45C190.145 293.63 191.615 293.22 193.515 293.22C194.515 293.22 195.505 293.36 196.485 293.64C197.465 293.92 198.265 294.29 198.885 294.75L198.195 295.95C197.555 295.49 196.825 295.14 196.005 294.9C195.185 294.66 194.345 294.54 193.485 294.54C192.025 294.54 190.925 294.81 190.185 295.35C189.445 295.89 189.075 296.6 189.075 297.48C189.075 298.18 189.285 298.73 189.705 299.13C190.125 299.51 190.635 299.8 191.235 300C191.855 300.18 192.715 300.38 193.815 300.6C195.035 300.82 196.015 301.06 196.755 301.32C197.515 301.56 198.155 301.96 198.675 302.52C199.195 303.08 199.455 303.85 199.455 304.83C199.455 306.13 198.915 307.17 197.835 307.95C196.755 308.73 195.235 309.12 193.275 309.12ZM216.626 293.22C218.566 293.22 220.056 293.72 221.096 294.72C222.136 295.7 222.656 297.15 222.656 299.07V309H221.216V306.21C220.716 307.13 219.986 307.85 219.026 308.37C218.066 308.87 216.916 309.12 215.576 309.12C213.836 309.12 212.456 308.71 211.436 307.89C210.436 307.07 209.936 305.99 209.936 304.65C209.936 303.35 210.396 302.3 211.316 301.5C212.256 300.68 213.746 300.27 215.786 300.27H221.156V299.01C221.156 297.55 220.756 296.44 219.956 295.68C219.176 294.92 218.026 294.54 216.506 294.54C215.466 294.54 214.466 294.72 213.506 295.08C212.566 295.44 211.766 295.92 211.106 296.52L210.356 295.44C211.136 294.74 212.076 294.2 213.176 293.82C214.276 293.42 215.426 293.22 216.626 293.22ZM215.786 307.89C217.086 307.89 218.186 307.59 219.086 306.99C220.006 306.39 220.696 305.52 221.156 304.38V301.44H215.816C214.276 301.44 213.156 301.72 212.456 302.28C211.776 302.84 211.436 303.61 211.436 304.59C211.436 305.61 211.816 306.42 212.576 307.02C213.336 307.6 214.406 307.89 215.786 307.89ZM236.486 293.22C238.446 293.22 239.996 293.79 241.136 294.93C242.276 296.07 242.846 297.71 242.846 299.85V309H241.346V299.97C241.346 298.21 240.896 296.87 239.996 295.95C239.116 295.03 237.876 294.57 236.276 294.57C234.436 294.57 232.986 295.12 231.926 296.22C230.866 297.32 230.336 298.8 230.336 300.66V309H228.836V293.34H230.276V296.73C230.816 295.63 231.616 294.77 232.676 294.15C233.756 293.53 235.026 293.22 236.486 293.22ZM262.971 286.74V309H261.501V305.31C260.881 306.53 260.011 307.47 258.891 308.13C257.771 308.79 256.501 309.12 255.081 309.12C253.621 309.12 252.301 308.78 251.121 308.1C249.941 307.42 249.011 306.48 248.331 305.28C247.671 304.08 247.341 302.71 247.341 301.17C247.341 299.63 247.671 298.26 248.331 297.06C249.011 295.84 249.941 294.9 251.121 294.24C252.301 293.56 253.621 293.22 255.081 293.22C256.481 293.22 257.731 293.55 258.831 294.21C259.951 294.87 260.831 295.79 261.471 296.97V286.74H262.971ZM255.171 307.77C256.371 307.77 257.441 307.49 258.381 306.93C259.341 306.37 260.091 305.59 260.631 304.59C261.191 303.59 261.471 302.45 261.471 301.17C261.471 299.89 261.191 298.75 260.631 297.75C260.091 296.75 259.341 295.97 258.381 295.41C257.441 294.85 256.371 294.57 255.171 294.57C253.971 294.57 252.891 294.85 251.931 295.41C250.991 295.97 250.241 296.75 249.681 297.75C249.141 298.75 248.871 299.89 248.871 301.17C248.871 302.45 249.141 303.59 249.681 304.59C250.241 305.59 250.991 306.37 251.931 306.93C252.891 307.49 253.971 307.77 255.171 307.77ZM280.96 309.12C279.7 309.12 278.5 308.93 277.36 308.55C276.22 308.17 275.33 307.69 274.69 307.11L275.38 305.91C276.02 306.45 276.84 306.9 277.84 307.26C278.86 307.62 279.92 307.8 281.02 307.8C282.6 307.8 283.76 307.54 284.5 307.02C285.26 306.5 285.64 305.78 285.64 304.86C285.64 304.2 285.43 303.68 285.01 303.3C284.61 302.92 284.11 302.64 283.51 302.46C282.91 302.28 282.08 302.09 281.02 301.89C279.78 301.67 278.78 301.43 278.02 301.17C277.26 300.91 276.61 300.49 276.07 299.91C275.53 299.33 275.26 298.53 275.26 297.51C275.26 296.27 275.77 295.25 276.79 294.45C277.83 293.63 279.3 293.22 281.2 293.22C282.2 293.22 283.19 293.36 284.17 293.64C285.15 293.92 285.95 294.29 286.57 294.75L285.88 295.95C285.24 295.49 284.51 295.14 283.69 294.9C282.87 294.66 282.03 294.54 281.17 294.54C279.71 294.54 278.61 294.81 277.87 295.35C277.13 295.89 276.76 296.6 276.76 297.48C276.76 298.18 276.97 298.73 277.39 299.13C277.81 299.51 278.32 299.8 278.92 300C279.54 300.18 280.4 300.38 281.5 300.6C282.72 300.82 283.7 301.06 284.44 301.32C285.2 301.56 285.84 301.96 286.36 302.52C286.88 303.08 287.14 303.85 287.14 304.83C287.14 306.13 286.6 307.17 285.52 307.95C284.44 308.73 282.92 309.12 280.96 309.12ZM304.556 301.53H291.086C291.126 302.75 291.436 303.84 292.016 304.8C292.596 305.74 293.376 306.47 294.356 306.99C295.356 307.51 296.476 307.77 297.716 307.77C298.736 307.77 299.676 307.59 300.536 307.23C301.416 306.85 302.146 306.3 302.726 305.58L303.596 306.57C302.916 307.39 302.056 308.02 301.016 308.46C299.996 308.9 298.886 309.12 297.686 309.12C296.126 309.12 294.736 308.78 293.516 308.1C292.296 307.42 291.336 306.48 290.636 305.28C289.956 304.08 289.616 302.71 289.616 301.17C289.616 299.65 289.936 298.29 290.576 297.09C291.236 295.87 292.136 294.92 293.276 294.24C294.416 293.56 295.696 293.22 297.116 293.22C298.536 293.22 299.806 293.56 300.926 294.24C302.066 294.9 302.956 295.83 303.596 297.03C304.256 298.23 304.586 299.59 304.586 301.11L304.556 301.53ZM297.116 294.54C296.016 294.54 295.026 294.79 294.146 295.29C293.266 295.77 292.556 296.46 292.016 297.36C291.496 298.24 291.196 299.24 291.116 300.36H303.116C303.056 299.24 302.756 298.24 302.216 297.36C301.676 296.48 300.966 295.79 300.086 295.29C299.206 294.79 298.216 294.54 297.116 294.54ZM309.227 286.74H310.727V309H309.227V286.74ZM317.049 286.74H318.549V309H317.049V286.74ZM338.101 301.53H324.631C324.671 302.75 324.981 303.84 325.561 304.8C326.141 305.74 326.921 306.47 327.901 306.99C328.901 307.51 330.021 307.77 331.261 307.77C332.281 307.77 333.221 307.59 334.081 307.23C334.961 306.85 335.691 306.3 336.271 305.58L337.141 306.57C336.461 307.39 335.601 308.02 334.561 308.46C333.541 308.9 332.431 309.12 331.231 309.12C329.671 309.12 328.281 308.78 327.061 308.1C325.841 307.42 324.881 306.48 324.181 305.28C323.501 304.08 323.161 302.71 323.161 301.17C323.161 299.65 323.481 298.29 324.121 297.09C324.781 295.87 325.681 294.92 326.821 294.24C327.961 293.56 329.241 293.22 330.661 293.22C332.081 293.22 333.351 293.56 334.471 294.24C335.611 294.9 336.501 295.83 337.141 297.03C337.801 298.23 338.131 299.59 338.131 301.11L338.101 301.53ZM330.661 294.54C329.561 294.54 328.571 294.79 327.691 295.29C326.811 295.77 326.101 296.46 325.561 297.36C325.041 298.24 324.741 299.24 324.661 300.36H336.661C336.601 299.24 336.301 298.24 335.761 297.36C335.221 296.48 334.511 295.79 333.631 295.29C332.751 294.79 331.761 294.54 330.661 294.54ZM344.212 296.76C344.692 295.62 345.442 294.75 346.462 294.15C347.482 293.53 348.722 293.22 350.182 293.22V294.69L349.822 294.66C348.082 294.66 346.722 295.21 345.742 296.31C344.762 297.39 344.272 298.9 344.272 300.84V309H342.772V293.34H344.212V296.76ZM358.421 309.12C357.161 309.12 355.961 308.93 354.821 308.55C353.681 308.17 352.791 307.69 352.151 307.11L352.841 305.91C353.481 306.45 354.301 306.9 355.301 307.26C356.321 307.62 357.381 307.8 358.481 307.8C360.061 307.8 361.221 307.54 361.961 307.02C362.721 306.5 363.101 305.78 363.101 304.86C363.101 304.2 362.891 303.68 362.471 303.3C362.071 302.92 361.571 302.64 360.971 302.46C360.371 302.28 359.541 302.09 358.481 301.89C357.241 301.67 356.241 301.43 355.481 301.17C354.721 300.91 354.071 300.49 353.531 299.91C352.991 299.33 352.721 298.53 352.721 297.51C352.721 296.27 353.231 295.25 354.251 294.45C355.291 293.63 356.761 293.22 358.661 293.22C359.661 293.22 360.651 293.36 361.631 293.64C362.611 293.92 363.411 294.29 364.031 294.75L363.341 295.95C362.701 295.49 361.971 295.14 361.151 294.9C360.331 294.66 359.491 294.54 358.631 294.54C357.171 294.54 356.071 294.81 355.331 295.35C354.591 295.89 354.221 296.6 354.221 297.48C354.221 298.18 354.431 298.73 354.851 299.13C355.271 299.51 355.781 299.8 356.381 300C357.001 300.18 357.861 300.38 358.961 300.6C360.181 300.82 361.161 301.06 361.901 301.32C362.661 301.56 363.301 301.96 363.821 302.52C364.341 303.08 364.601 303.85 364.601 304.83C364.601 306.13 364.061 307.17 362.981 307.95C361.901 308.73 360.381 309.12 358.421 309.12Z" fill="#0A5A55"/>
</svg>
