<svg width="320" height="321" viewBox="0 0 320 321" fill="none" xmlns="http://www.w3.org/2000/svg">
<rect x="71" y="9.345" width="109" height="126.433" rx="12" stroke="#0A5A55" stroke-width="10"/>
<rect x="5" y="150.123" width="94" height="118.612" rx="12" stroke="#0A5A55" stroke-width="10"/>
<path d="M205.931 10.7885L230.504 7.30212C237.065 6.37112 243.377 10.8966 244.601 17.41L263.764 119.405C264.988 125.919 260.661 131.954 254.099 132.885L229.527 136.371C222.965 137.302 216.654 132.776 215.43 126.263L196.266 24.2679C195.043 17.7545 199.37 11.7195 205.931 10.7885Z" stroke="#0A5A55" stroke-width="10"/>
<rect x="115" y="150.123" width="200" height="118.612" rx="12" stroke="#0A5A55" stroke-width="10"/>
<path d="M36.288 285.032C39.52 285.032 42.08 285.976 43.968 287.864C45.856 289.72 46.8 292.52 46.8 296.264V310.952H40.8V297.032C40.8 294.792 40.304 293.112 39.312 291.992C38.32 290.84 36.896 290.264 35.04 290.264C33.024 290.264 31.408 290.936 30.192 292.28C28.976 293.592 28.368 295.48 28.368 297.944V310.952H22.368V297.032C22.368 294.792 21.872 293.112 20.88 291.992C19.888 290.84 18.464 290.264 16.608 290.264C14.56 290.264 12.928 290.92 11.712 292.232C10.528 293.544 9.936 295.448 9.936 297.944V310.952H3.936V285.32H9.648V288.584C10.608 287.432 11.808 286.552 13.248 285.944C14.688 285.336 16.288 285.032 18.048 285.032C19.968 285.032 21.664 285.4 23.136 286.136C24.64 286.84 25.824 287.896 26.688 289.304C27.744 287.96 29.104 286.92 30.768 286.184C32.432 285.416 34.272 285.032 36.288 285.032ZM77.9985 285.32L65.9985 313.016C64.8785 315.8 63.5185 317.752 61.9185 318.872C60.3185 320.024 58.3825 320.6 56.1105 320.6C54.8305 320.6 53.5665 320.392 52.3185 319.976C51.0705 319.56 50.0465 318.984 49.2465 318.248L51.6465 313.832C52.2225 314.376 52.8945 314.808 53.6625 315.128C54.4625 315.448 55.2625 315.608 56.0625 315.608C57.1185 315.608 57.9825 315.336 58.6545 314.792C59.3585 314.248 59.9985 313.336 60.5745 312.056L61.0065 311.048L49.8225 285.32H56.0625L64.1265 304.28L72.2385 285.32H77.9985ZM95.0141 285.32H101.014V310.952H95.0141V285.32ZM98.0381 281.096C96.9501 281.096 96.0381 280.76 95.3021 280.088C94.5661 279.384 94.1981 278.52 94.1981 277.496C94.1981 276.472 94.5661 275.624 95.3021 274.952C96.0381 274.248 96.9501 273.896 98.0381 273.896C99.1261 273.896 100.038 274.232 100.774 274.904C101.51 275.544 101.878 276.36 101.878 277.352C101.878 278.408 101.51 279.304 100.774 280.04C100.07 280.744 99.1581 281.096 98.0381 281.096ZM124.297 309.56C123.593 310.136 122.729 310.568 121.705 310.856C120.713 311.144 119.657 311.288 118.537 311.288C115.721 311.288 113.545 310.552 112.009 309.08C110.473 307.608 109.705 305.464 109.705 302.648V290.312H105.481V285.512H109.705V279.656H115.705V285.512H122.569V290.312H115.705V302.504C115.705 303.752 116.009 304.712 116.617 305.384C117.225 306.024 118.105 306.344 119.257 306.344C120.601 306.344 121.721 305.992 122.617 305.288L124.297 309.56ZM152.485 298.28C152.485 298.696 152.453 299.288 152.389 300.056H132.277C132.629 301.944 133.541 303.448 135.013 304.568C136.517 305.656 138.373 306.2 140.581 306.2C143.397 306.2 145.717 305.272 147.541 303.416L150.757 307.112C149.605 308.488 148.149 309.528 146.389 310.232C144.629 310.936 142.645 311.288 140.437 311.288C137.621 311.288 135.141 310.728 132.997 309.608C130.853 308.488 129.189 306.936 128.005 304.952C126.853 302.936 126.277 300.664 126.277 298.136C126.277 295.64 126.837 293.4 127.957 291.416C129.109 289.4 130.693 287.832 132.709 286.712C134.725 285.592 136.997 285.032 139.525 285.032C142.021 285.032 144.245 285.592 146.197 286.712C148.181 287.8 149.717 289.352 150.805 291.368C151.925 293.352 152.485 295.656 152.485 298.28ZM139.525 289.832C137.605 289.832 135.973 290.408 134.629 291.56C133.317 292.68 132.517 294.184 132.229 296.072H146.773C146.517 294.216 145.733 292.712 144.421 291.56C143.109 290.408 141.477 289.832 139.525 289.832ZM190.601 285.032C193.833 285.032 196.393 285.976 198.281 287.864C200.169 289.72 201.113 292.52 201.113 296.264V310.952H195.113V297.032C195.113 294.792 194.617 293.112 193.625 291.992C192.633 290.84 191.209 290.264 189.353 290.264C187.337 290.264 185.721 290.936 184.505 292.28C183.289 293.592 182.681 295.48 182.681 297.944V310.952H176.681V297.032C176.681 294.792 176.185 293.112 175.193 291.992C174.201 290.84 172.777 290.264 170.921 290.264C168.873 290.264 167.241 290.92 166.025 292.232C164.841 293.544 164.249 295.448 164.249 297.944V310.952H158.249V285.32H163.961V288.584C164.921 287.432 166.121 286.552 167.561 285.944C169.001 285.336 170.601 285.032 172.361 285.032C174.281 285.032 175.977 285.4 177.449 286.136C178.953 286.84 180.137 287.896 181.001 289.304C182.057 287.96 183.417 286.92 185.081 286.184C186.745 285.416 188.585 285.032 190.601 285.032ZM216.7 311.288C214.62 311.288 212.588 311.016 210.604 310.472C208.62 309.928 207.036 309.24 205.852 308.408L208.156 303.848C209.308 304.616 210.684 305.24 212.284 305.72C213.916 306.168 215.516 306.392 217.084 306.392C220.668 306.392 222.46 305.448 222.46 303.56C222.46 302.664 221.996 302.04 221.068 301.688C220.172 301.336 218.716 301 216.7 300.68C214.588 300.36 212.86 299.992 211.516 299.576C210.204 299.16 209.052 298.44 208.06 297.416C207.1 296.36 206.62 294.904 206.62 293.048C206.62 290.616 207.628 288.68 209.644 287.24C211.692 285.768 214.444 285.032 217.9 285.032C219.66 285.032 221.42 285.24 223.18 285.656C224.94 286.04 226.38 286.568 227.5 287.24L225.196 291.8C223.02 290.52 220.572 289.88 217.852 289.88C216.092 289.88 214.748 290.152 213.82 290.696C212.924 291.208 212.476 291.896 212.476 292.76C212.476 293.72 212.956 294.408 213.916 294.824C214.908 295.208 216.428 295.576 218.476 295.928C220.524 296.248 222.204 296.616 223.516 297.032C224.828 297.448 225.948 298.152 226.876 299.144C227.836 300.136 228.316 301.544 228.316 303.368C228.316 305.768 227.276 307.688 225.196 309.128C223.116 310.568 220.284 311.288 216.7 311.288Z" fill="#0A5A55"/>
</svg>
