<svg width="320" height="320" viewBox="0 0 320 320" fill="none" xmlns="http://www.w3.org/2000/svg">
<rect x="5" y="5" width="310" height="310" rx="12" stroke="#0A5A55" stroke-width="10"/>
<path d="M260 128.259H315V190.445H260" stroke="#0A5A55" stroke-width="10"/>
<path d="M262 190.445C248.745 190.445 236 180.102 236 159.352C236 138.602 247.745 128.259 261 128.259" stroke="#0A5A55" stroke-width="10"/>
<ellipse cx="260" cy="159.352" rx="12" ry="16.8421" fill="#0A5A55"/>
<path d="M55.288 265.08C58.52 265.08 61.08 266.024 62.968 267.912C64.856 269.768 65.8 272.568 65.8 276.312V291H59.8V277.08C59.8 274.84 59.304 273.16 58.312 272.04C57.32 270.888 55.896 270.312 54.04 270.312C52.024 270.312 50.408 270.984 49.192 272.328C47.976 273.64 47.368 275.528 47.368 277.992V291H41.368V277.08C41.368 274.84 40.872 273.16 39.88 272.04C38.888 270.888 37.464 270.312 35.608 270.312C33.56 270.312 31.928 270.968 30.712 272.28C29.528 273.592 28.936 275.496 28.936 277.992V291H22.936V265.368H28.648V268.632C29.608 267.48 30.808 266.6 32.248 265.992C33.688 265.384 35.288 265.08 37.048 265.08C38.968 265.08 40.664 265.448 42.136 266.184C43.64 266.888 44.824 267.944 45.688 269.352C46.744 268.008 48.104 266.968 49.768 266.232C51.432 265.464 53.272 265.08 55.288 265.08ZM96.9985 265.368L84.9985 293.064C83.8785 295.848 82.5185 297.8 80.9185 298.92C79.3185 300.072 77.3825 300.648 75.1105 300.648C73.8305 300.648 72.5665 300.44 71.3185 300.024C70.0705 299.608 69.0465 299.032 68.2465 298.296L70.6465 293.88C71.2225 294.424 71.8945 294.856 72.6625 295.176C73.4625 295.496 74.2625 295.656 75.0625 295.656C76.1185 295.656 76.9825 295.384 77.6545 294.84C78.3585 294.296 78.9985 293.384 79.5745 292.104L80.0065 291.096L68.8225 265.368H75.0625L83.1265 284.328L91.2385 265.368H96.9985ZM153.998 265.368L144.542 291H138.782L132.158 273.336L125.438 291H119.678L110.27 265.368H115.934L122.702 284.28L129.758 265.368H134.798L141.71 284.376L148.67 265.368H153.998ZM167.119 265.08C170.895 265.08 173.775 265.992 175.759 267.816C177.775 269.608 178.783 272.328 178.783 275.976V291H173.119V287.88C172.383 289 171.327 289.864 169.951 290.472C168.607 291.048 166.975 291.336 165.055 291.336C163.135 291.336 161.455 291.016 160.015 290.376C158.575 289.704 157.455 288.792 156.655 287.64C155.887 286.456 155.503 285.128 155.503 283.656C155.503 281.352 156.351 279.512 158.047 278.136C159.775 276.728 162.479 276.024 166.159 276.024H172.783V275.64C172.783 273.848 172.239 272.472 171.151 271.512C170.095 270.552 168.511 270.072 166.399 270.072C164.959 270.072 163.535 270.296 162.127 270.744C160.751 271.192 159.583 271.816 158.623 272.616L156.271 268.248C157.615 267.224 159.231 266.44 161.119 265.896C163.007 265.352 165.007 265.08 167.119 265.08ZM166.303 286.968C167.807 286.968 169.135 286.632 170.287 285.96C171.471 285.256 172.303 284.264 172.783 282.984V280.008H166.591C163.135 280.008 161.407 281.144 161.407 283.416C161.407 284.504 161.839 285.368 162.703 286.008C163.567 286.648 164.767 286.968 166.303 286.968ZM186.483 255.384H192.483V291H186.483V255.384ZM200.358 255.384H206.358V291H200.358V255.384ZM238.329 278.328C238.329 278.744 238.297 279.336 238.233 280.104H218.121C218.473 281.992 219.385 283.496 220.857 284.616C222.361 285.704 224.217 286.248 226.425 286.248C229.241 286.248 231.561 285.32 233.385 283.464L236.601 287.16C235.449 288.536 233.993 289.576 232.233 290.28C230.473 290.984 228.489 291.336 226.281 291.336C223.465 291.336 220.985 290.776 218.841 289.656C216.697 288.536 215.033 286.984 213.849 285C212.697 282.984 212.121 280.712 212.121 278.184C212.121 275.688 212.681 273.448 213.801 271.464C214.953 269.448 216.537 267.88 218.553 266.76C220.569 265.64 222.841 265.08 225.369 265.08C227.865 265.08 230.089 265.64 232.041 266.76C234.025 267.848 235.561 269.4 236.649 271.416C237.769 273.4 238.329 275.704 238.329 278.328ZM225.369 269.88C223.449 269.88 221.817 270.456 220.473 271.608C219.161 272.728 218.361 274.232 218.073 276.12H232.617C232.361 274.264 231.577 272.76 230.265 271.608C228.953 270.456 227.321 269.88 225.369 269.88ZM259.5 289.608C258.796 290.184 257.932 290.616 256.908 290.904C255.916 291.192 254.86 291.336 253.74 291.336C250.924 291.336 248.748 290.6 247.212 289.128C245.676 287.656 244.908 285.512 244.908 282.696V270.36H240.684V265.56H244.908V259.704H250.908V265.56H257.772V270.36H250.908V282.552C250.908 283.8 251.212 284.76 251.82 285.432C252.428 286.072 253.308 286.392 254.46 286.392C255.804 286.392 256.924 286.04 257.82 285.336L259.5 289.608Z" fill="#0A5A55"/>
</svg>
